<svg xmlns="http://www.w3.org/2000/svg" xmlns:xlink="http://www.w3.org/1999/xlink" width="676.866" height="394.417" viewBox="0 0 676.866 394.417">
  <defs>
    <linearGradient id="linear-gradient" x1="0.878" y1="0.993" x2="0.375" y2="0.079" gradientUnits="objectBoundingBox">
      <stop offset="0" stop-color="#ff928e"/>
      <stop offset="1" stop-color="#feb3b1"/>
    </linearGradient>
    <linearGradient id="linear-gradient-2" x1="1.392" y1="-1.238" x2="0.832" y2="-0.076" xlink:href="#linear-gradient"/>
    <linearGradient id="linear-gradient-3" x1="0.063" y1="-0.535" x2="1.162" y2="2.302" xlink:href="#linear-gradient"/>
    <linearGradient id="linear-gradient-4" x1="0.931" y1="8.329" x2="2.019" y2="8.226" xlink:href="#linear-gradient"/>
    <linearGradient id="linear-gradient-5" x1="1.046" y1="25.801" x2="5.007" y2="25.47" xlink:href="#linear-gradient"/>
    <linearGradient id="linear-gradient-6" x1="1.555" y1="0.873" x2="0.333" y2="0.383" xlink:href="#linear-gradient"/>
    <linearGradient id="linear-gradient-7" y1="0.5" x2="1" y2="0.5" gradientUnits="objectBoundingBox">
      <stop offset="0" stop-color="#dae3fe"/>
      <stop offset="1" stop-color="#e9effd"/>
    </linearGradient>
    <clipPath id="clip-path">
      <path id="Caminho_7970" data-name="Caminho 7970" d="M684.021,428.519,851.268,529.474l157.708-94.989V287.422H697.153Z" transform="translate(-684.021 -287.422)" fill="#8bd9f1"/>
    </clipPath>
    <linearGradient id="linear-gradient-12" x1="0" y1="0.5" x2="1" y2="0.5" xlink:href="#linear-gradient-7"/>
    <linearGradient id="linear-gradient-13" x1="0" y1="0.5" x2="1" y2="0.5" xlink:href="#linear-gradient-7"/>
    <linearGradient id="linear-gradient-16" x1="0" y1="0.5" x2="1" y2="0.5" xlink:href="#linear-gradient-7"/>
    <linearGradient id="linear-gradient-17" x1="0" y1="0.5" x2="1" y2="0.5" xlink:href="#linear-gradient-7"/>
    <linearGradient id="linear-gradient-34" x1="0" y1="0.5" x2="1" y2="0.5" xlink:href="#linear-gradient-7"/>
    <linearGradient id="linear-gradient-131" x1="0" y1="0.5" x2="1" y2="0.5" xlink:href="#linear-gradient-7"/>
    <linearGradient id="linear-gradient-136" x1="-52.639" y1="-0.843" x2="-53.146" y2="2.39" xlink:href="#linear-gradient"/>
    <linearGradient id="linear-gradient-137" x1="-45.55" y1="-0.224" x2="-46.065" y2="2.539" xlink:href="#linear-gradient"/>
    <linearGradient id="linear-gradient-138" x1="-73.424" y1="-0.15" x2="-75.177" y2="2.993" xlink:href="#linear-gradient"/>
    <linearGradient id="linear-gradient-139" x1="0.424" y1="0.008" x2="0.6" y2="1.002" xlink:href="#linear-gradient"/>
    <linearGradient id="linear-gradient-140" x1="0.541" y1="-0.073" x2="0.484" y2="1.325" xlink:href="#linear-gradient"/>
    <linearGradient id="linear-gradient-141" x1="2.503" y1="0.132" x2="-0.052" y2="0.564" xlink:href="#linear-gradient"/>
    <linearGradient id="linear-gradient-142" x1="-488.263" y1="-225.831" x2="-485.144" y2="-228.206" xlink:href="#linear-gradient"/>
    <linearGradient id="linear-gradient-145" x1="70.81" y1="0.5" x2="71.81" y2="0.5" xlink:href="#linear-gradient"/>
    <linearGradient id="linear-gradient-146" x1="82.012" y1="0.5" x2="83.012" y2="0.5" xlink:href="#linear-gradient"/>
    <linearGradient id="linear-gradient-147" x1="13.861" y1="0.5" x2="14.861" y2="0.5" xlink:href="#linear-gradient"/>
    <linearGradient id="linear-gradient-148" x1="237.955" y1="1.605" x2="239.956" y2="4.278" xlink:href="#linear-gradient"/>
    <linearGradient id="linear-gradient-149" x1="-5.787" y1="4.702" x2="4.721" y2="-2.174" xlink:href="#linear-gradient"/>
    <linearGradient id="linear-gradient-150" x1="0.501" y1="0.446" x2="0.085" y2="3.36" xlink:href="#linear-gradient"/>
    <linearGradient id="linear-gradient-151" x1="-68.037" y1="23.062" x2="-69.231" y2="20.844" xlink:href="#linear-gradient"/>
    <linearGradient id="linear-gradient-152" x1="-222.623" y1="109.966" x2="-226.513" y2="99.215" xlink:href="#linear-gradient"/>
    <linearGradient id="linear-gradient-153" x1="22.865" y1="1.186" x2="21.289" y2="0.256" xlink:href="#linear-gradient"/>
    <linearGradient id="linear-gradient-154" x1="1.288" y1="0.272" x2="0.062" y2="0.592" xlink:href="#linear-gradient"/>
  </defs>
  <g id="contact" transform="translate(-115.981 -171.479)">
    <path id="Caminho_7928" data-name="Caminho 7928" d="M123.538,346.107c7.852,13.894,20.331,25.58,29.946,38.571,27.784,37.54-1.124,81.468,11.557,121.937,11.048,35.26,57,44.713,90.588,46.144,56.6,2.411,113.134-1.2,167.7-16.552,37.867-10.652,75.782-24.6,115.694-25.443,40.8-.863,79.181,15.518,118.6,23.264,43.283,8.506,95.05-.731,105.486-49.065,6.465-29.944-10.938-57.52-12.568-87-2.156-39.03,36.753-60.449,41.788-96.937,3.174-23-8.686-43.56-24.161-60.2-16.327-17.562-38.284-33.078-63.476-34.521-26.332-1.507-49.832,12.319-74.442,18.919-69.159,18.548-108.416-43.312-172.063-51.942-28.7-3.892-63.978-2.044-90.04,11.319-24.234,12.424-35.994,40.026-63.177,48.13-28.771,8.578-55.1-8.566-82.438-14.043-28.295-5.669-55.057,4.394-72.767,26.458-17.171,21.393-35.751,49.572-33.619,77.818A54.841,54.841,0,0,0,123.538,346.107Z" transform="translate(0)" fill="#f2f5f7"/>
    <g id="leafs_2">
      <path id="Caminho_7929" data-name="Caminho 7929" d="M539.514,817.708c-16.872,3.373-38.418-15.021-45.359-35.117-7.143-20.68,5.954-29.343,5.853-58.04-.115-32.6-17.072-37.511-28.288-81.451-2.531-9.914-17.175-67.284.975-78.037,16.782-9.943,63.922,18.592,72.184,55.114,5.891,26.042-12.321,36.976-5.365,67.307,6.1,26.613,22.143,27,28.288,52.675C575.284,771.417,561.667,813.278,539.514,817.708Z" transform="translate(-242.819 -273.419)" fill="#8bd9f1"/>
      <path id="Caminho_7930" data-name="Caminho 7930" d="M634.121,956.149c4.548-35.122-4.324-89.307-12.569-128.579-8.926-42.518-19.056-77.2-19.157-77.544l-1.4.412c.1.345,10.218,34.98,19.132,77.443,8.22,39.157,17.069,93.163,12.547,128.08Z" transform="translate(-338.652 -403.963)" fill="#f2f5f7"/>
      <path id="Caminho_7931" data-name="Caminho 7931" d="M429.359,985.8c22.132-11.532,29.707-51.13,17.127-64-8.5-8.7-20.69.451-32.45-8.563-15.015-11.509-3.97-33.184-15.774-61.3-10.046-23.923-34.143-46.56-48.225-41.915-14.74,4.862-22.5,40.937-9.915,62.647,8.187,14.119,20.718,14.812,23.436,27.944,3.154,15.237-12.086,22.185-12.169,36.957C351.239,964.106,400.081,1001.052,429.359,985.8Z" transform="translate(-152.095 -445.429)" fill="#b6f1ff"/>
      <path id="Caminho_7932" data-name="Caminho 7932" d="M520.6,1118.884a.9.9,0,0,0,.81-1.3c-29.34-60.459-37.944-130.6-38.028-131.3a.9.9,0,0,0-1.79.213c.084.7,8.724,71.144,38.2,131.873A.9.9,0,0,0,520.6,1118.884Z" transform="translate(-255.279 -568.376)" fill="#f2f5f7"/>
      <path id="Caminho_7933" data-name="Caminho 7933" d="M371.8,898.488a.431.431,0,0,0,.34-.7c-9.261-11.888-19.526-29.747-15.831-47.322,2.2-10.467,8.394-15.926,8.457-15.981a.431.431,0,1,0-.564-.651c-.263.228-6.476,5.705-8.736,16.454-2.077,9.879-.988,26.231,15.994,48.029A.431.431,0,0,0,371.8,898.488Z" transform="translate(-166.676 -462.41)" fill="#dce5fe"/>
      <path id="Caminho_7934" data-name="Caminho 7934" d="M656.066,1239.008a.43.43,0,0,0,.356-.187c14.233-20.772,19.086-36.822,14.425-47.7-4.144-9.675-14.607-11.475-14.712-11.493a.431.431,0,0,0-.138.851c.1.016,10.112,1.752,14.063,10.992,4.529,10.593-.3,26.361-14.348,46.867a.43.43,0,0,0,.355.674Z" transform="translate(-376.807 -703.92)" fill="#f0f0f0"/>
    </g>
    <g id="leafs_1">
      <path id="Caminho_7935" data-name="Caminho 7935" d="M1701.953,817.708c16.872,3.373,38.418-15.021,45.359-35.117,7.143-20.68-5.954-29.343-5.853-58.04.115-32.6,17.072-37.511,28.288-81.451,2.531-9.914,17.176-67.284-.975-78.037-16.783-9.943-63.922,18.592-72.184,55.114-5.891,26.042,12.321,36.976,5.365,67.307-6.1,26.613-22.143,27-28.288,52.675C1666.183,771.417,1679.8,813.278,1701.953,817.708Z" transform="translate(-1086.189 -273.419)" fill="#8bd9f1"/>
      <path id="Caminho_7936" data-name="Caminho 7936" d="M1773.39,956.149c-4.548-35.122,4.324-89.307,12.569-128.579,8.926-42.518,19.056-77.2,19.157-77.544l1.4.412c-.1.345-10.218,34.98-19.132,77.443-8.22,39.157-17.069,93.163-12.547,128.08Z" transform="translate(-1156.401 -403.963)" fill="#f2f5f7"/>
      <path id="Caminho_7937" data-name="Caminho 7937" d="M1782.9,985.8c-22.132-11.532-29.707-51.13-17.127-64,8.5-8.7,20.69.451,32.45-8.563,15.015-11.509,3.969-33.184,15.774-61.3,10.046-23.923,34.143-46.56,48.225-41.915,14.74,4.862,22.5,40.937,9.916,62.647-8.186,14.119-20.718,14.812-23.436,27.944-3.155,15.237,12.086,22.185,12.169,36.957C1861.023,964.106,1812.182,1001.052,1782.9,985.8Z" transform="translate(-1147.708 -445.429)" fill="#b6f1ff"/>
      <path id="Caminho_7938" data-name="Caminho 7938" d="M1874.072,1118.884a.9.9,0,0,1-.81-1.3c29.341-60.459,37.944-130.6,38.028-131.3a.9.9,0,0,1,1.79.213c-.084.7-8.724,71.144-38.2,131.873A.9.9,0,0,1,1874.072,1118.884Z" transform="translate(-1226.935 -568.376)" fill="#f2f5f7"/>
      <path id="Caminho_7939" data-name="Caminho 7939" d="M2074.642,898.488a.431.431,0,0,1-.34-.7c9.261-11.888,19.526-29.747,15.83-47.322-2.2-10.467-8.394-15.926-8.457-15.981a.431.431,0,1,1,.564-.651c.263.228,6.477,5.705,8.736,16.454,2.077,9.879.988,26.231-15.994,48.029A.432.432,0,0,1,2074.642,898.488Z" transform="translate(-1367.308 -462.41)" fill="#dce5fe"/>
      <path id="Caminho_7940" data-name="Caminho 7940" d="M1791.8,1239.008a.429.429,0,0,1-.355-.187c-14.233-20.772-19.086-36.822-14.426-47.7,4.144-9.675,14.607-11.475,14.712-11.493a.431.431,0,0,1,.138.851c-.1.016-10.111,1.752-14.062,10.992-4.529,10.593.3,26.361,14.348,46.867a.43.43,0,0,1-.355.674Z" transform="translate(-1158.6 -703.92)" fill="#f0f0f0"/>
    </g>
    <g id="Grupo_4344" data-name="Grupo 4344" transform="translate(271.896 232.017)">
      <path id="Caminho_7941" data-name="Caminho 7941" d="M633.914,724.719v185.11c0,13.622,11.965,24.665,26.724,24.665H971.47c14.759,0,26.724-11.043,26.724-24.665V724.719Z" transform="translate(-633.536 -618.309)" fill="#37a4d6"/>
      <path id="Caminho_7942" data-name="Caminho 7942" d="M906.438,423.386,827.429,375.58a23.261,23.261,0,0,0-24.5,0l-79.008,47.793-91.259,55.2,91.259,55.066,91.259,55.066,91.259-55.127L997.7,478.574Z" transform="translate(-632.66 -372.091)" fill="#3295b7"/>
      <g id="Grupo_4343" data-name="Grupo 4343" transform="translate(6.876 178.848)" style="mix-blend-mode: soft-light;isolation: isolate">
        <g id="Grupo_4341" data-name="Grupo 4341">
          <path id="Caminho_7943" data-name="Caminho 7943" d="M656.086,1094.105a.639.639,0,0,1-.478-1.064L769.43,964.983a.639.639,0,0,1,.955.849L656.564,1093.891A.637.637,0,0,1,656.086,1094.105Z" transform="translate(-655.447 -964.768)" fill="#fff"/>
        </g>
        <g id="Grupo_4342" data-name="Grupo 4342" transform="translate(236.185 0)">
          <path id="Caminho_7944" data-name="Caminho 7944" d="M1552.59,1094.105a.637.637,0,0,1-.478-.215L1438.291,965.832a.639.639,0,0,1,.955-.849l113.821,128.059a.639.639,0,0,1-.477,1.064Z" transform="translate(-1438.129 -964.768)" fill="#fff"/>
        </g>
      </g>
    </g>
    <g id="Grupo_4354" data-name="Grupo 4354" transform="translate(500.886 444.384)">
      <g id="Grupo_4349" data-name="Grupo 4349" transform="translate(30.123)">
        <g id="Grupo_4346" data-name="Grupo 4346">
          <path id="Caminho_7945" data-name="Caminho 7945" d="M1629.814,1084.156s-3.753-4.5,1.349-7.272,13.12.269,14.133,6.167,6.082,2.4,8.294,1.106,8.386-3.041,9.953,3.686c.621,2.665-.165,6.069.991,8.549,1.593,3.415,6.776,2.532,9.607,3.838,3.679,1.7,5.6,4.98,3.687,8.809-2.949,5.9-8.755,9.646-5.622,14.776s-9.492,16.65-13.824,5.959-11.059-8.88-16.5-9.555-8.2-5.377-6.728-10.168a8.8,8.8,0,0,0-2.488-9.675C1630.643,1098.348,1623.823,1089.593,1629.814,1084.156Z" transform="translate(-1586.341 -1075.847)" fill="#002740"/>
          <g id="Grupo_4345" data-name="Grupo 4345" transform="translate(0 60.07)">
            <path id="Caminho_7946" data-name="Caminho 7946" d="M1586.718,1293.452a23.977,23.977,0,0,0-8.7,3.711,2.3,2.3,0,0,0-1.013,2.193,97.27,97.27,0,0,0,10.289,32.293,3.473,3.473,0,0,1,.333,2.384l-1.3,6.041-2.407,2.257h6.2l4.128-11.173-1.765-.558a3.341,3.341,0,0,1-2.333-3.127l-.207-11.985a13.635,13.635,0,0,0-3.274-9.023l9.9-.482Z" transform="translate(-1551.141 -1287.857)" fill="url(#linear-gradient)"/>
            <path id="Caminho_7947" data-name="Caminho 7947" d="M1591.871,1429.311c-.565.739,6.078,1.714,9.433.1,0,0,4.652-8.094,4.652-12.261,0,0-.369-.85-3.1-.657,0,0-1.562,9.584-3.211,10.657s-4.615.109-4.615.109A9.707,9.707,0,0,0,1591.871,1429.311Z" transform="translate(-1561.506 -1373.747)" fill="#1250b3"/>
            <path id="Caminho_7948" data-name="Caminho 7948" d="M1542.112,1310.2c-.053-.091-10.661-1.276-10.661-1.276a24.518,24.518,0,0,1-.738,7.666c-1.085,4.44-16.661,23.678-16.661,23.678l1.634,5.178a26.273,26.273,0,0,1-14.9.9l10.121-6.074s9.473-32.281,15.275-38.04l10.634-3.679Z" transform="translate(-1497.927 -1291.417)" fill="url(#linear-gradient-2)"/>
            <path id="Caminho_7949" data-name="Caminho 7949" d="M1624.915,1274.912s6.112,9.091,6.614,13.238-1.674,5.832-8.088,6.11-23.534.273-23.534.273l-14.613-12.489s10.649-3.8,13.418-4.874S1624.915,1274.912,1624.915,1274.912Z" transform="translate(-1556.938 -1274.912)" fill="#002740"/>
            <path id="Caminho_7950" data-name="Caminho 7950" d="M1508.466,1448.179s1.758,1.7.571,3.6c0,0-13.929,2.469-17.711,1.349,0,0,.785-1.792,5.044-3.832l-.314.241a.509.509,0,0,0,.336.912C1499.2,1450.287,1505.005,1449.773,1508.466,1448.179Z" transform="translate(-1491.326 -1395.893)" fill="#1250b3"/>
          </g>
          <path id="Caminho_7951" data-name="Caminho 7951" d="M1632.589,1194.672a139.57,139.57,0,0,1-10.621-11.267,9.524,9.524,0,0,1-1.613-8.572c1.6-5.389,4.442-10.971,4.7-11.839.4-1.332,8.378-1.276,8.378-1.276s15.7,10.192,21.875,27.458l-6.93,2.157a80.992,80.992,0,0,0-8.152-11.253s7.011,9.261,7.257,13.053Z" transform="translate(-1581.142 -1135.805)" fill="#1250b3"/>
          <path id="Caminho_7952" data-name="Caminho 7952" d="M1633.653,1138.8c.083.277,2.166,7.182,2.329,7.326s4.568.38,6.642-1.037l-3.518-7.364Z" transform="translate(-1590.704 -1119.051)" fill="url(#linear-gradient-3)"/>
          <path id="Caminho_7953" data-name="Caminho 7953" d="M1627.562,1092.7s-3.76,1.588-6.317,7.022-.648,7.943,1.751,8.287a11.225,11.225,0,0,0,9.779-3.218C1636.568,1101.282,1632.45,1090.819,1627.562,1092.7Z" transform="translate(-1581.191 -1087.458)" fill="url(#linear-gradient-4)"/>
          <path id="Caminho_7954" data-name="Caminho 7954" d="M1638.427,1090.74s2.837-7.95-4.211-8.044l-1.659,1.159s-2.586-4.408,1.659-6.512a9.028,9.028,0,0,1,12.385,5.488c1.806,5.719.749,9.412-2.256,12.148s-4.244-.366-4.244-.366,1.636-2.559.97-3.928-2.2.283-2.2.283Z" transform="translate(-1589.394 -1076.307)" fill="#002740"/>
          <path id="Caminho_7955" data-name="Caminho 7955" d="M1651.326,1121.292s1.435-4.1,3.348-2.464-1.555,3.783-2.913,4.48Z" transform="translate(-1603.044 -1105.589)" fill="url(#linear-gradient-5)"/>
          <path id="Caminho_7956" data-name="Caminho 7956" d="M1613.761,1258.709l5.229-5.04,7.234,3.056s7.2,1.116,11.323,0l4.121-1.116,9.313-2.9,1.463,4.134a2.489,2.489,0,0,1-.909,2.859,16.41,16.41,0,0,1-2.352,1.465c-1.226.536-30.234-.371-30.234-.371Z" transform="translate(-1576.815 -1199.339)" fill="url(#linear-gradient-6)"/>
        </g>
        <g id="Grupo_4347" data-name="Grupo 4347" transform="translate(57.966 9.584)" style="mix-blend-mode: soft-light;isolation: isolate">
          <path id="Caminho_7957" data-name="Caminho 7957" d="M1700.387,1112.938l-.247-.027c.215-1.977-.114-3.295-1-4.029-1.766-1.455-5.43-.317-8.662.687a20.852,20.852,0,0,1-4.267,1.047,2.484,2.484,0,0,1-1.974-.655,3.41,3.41,0,0,1-.812-2.356l.248.013a3.216,3.216,0,0,0,.741,2.169,2.25,2.25,0,0,0,1.784.581,20.76,20.76,0,0,0,4.207-1.036c3.292-1.023,7.023-2.182,8.893-.642C1700.254,1109.482,1700.612,1110.871,1700.387,1112.938Z" transform="translate(-1683.418 -1107.606)" fill="#bdd0fb"/>
        </g>
        <g id="Grupo_4348" data-name="Grupo 4348" transform="translate(81.413 25.241)" style="mix-blend-mode: soft-light;isolation: isolate">
          <path id="Caminho_7958" data-name="Caminho 7958" d="M1762.338,1178.95c-.582-2.394.99-4.416,2.81-6.757a21.1,21.1,0,0,0,3.591-5.888,3.368,3.368,0,0,0-.245-2.987c-1.7-2.765-7.32-3.57-7.377-3.578l.034-.246c.236.033,5.8.83,7.554,3.694a3.606,3.606,0,0,1,.268,3.2,21.306,21.306,0,0,1-3.63,5.959c-1.781,2.291-3.319,4.269-2.765,6.546Z" transform="translate(-1761.118 -1159.493)" fill="#bdd0fb"/>
        </g>
      </g>
      <g id="Grupo_4350" data-name="Grupo 4350" transform="translate(71.346 78.854)">
        <rect id="Ret창ngulo_553" data-name="Ret창ngulo 553" width="2.755" height="29.79" transform="translate(13.313 6.675)" fill="#1250b3"/>
        <path id="Caminho_7959" data-name="Caminho 7959" d="M1660.765,1455.751h-24.127a1.793,1.793,0,0,1,1.793-1.793h20.541a1.793,1.793,0,0,1,1.793,1.793Z" transform="translate(-1634.01 -1418.712)" fill="#1250b3"/>
        <rect id="Ret창ngulo_554" data-name="Ret창ngulo 554" width="30.335" height="8.603" rx="4.302" fill="#1250b3"/>
      </g>
      <g id="Grupo_4351" data-name="Grupo 4351" transform="translate(27.165 34.204)">
        <path id="Caminho_7960" data-name="Caminho 7960" d="M1605.85,1274.109h-.07l-30.335-.033a1.358,1.358,0,0,1,0-2.715l30.336.033a1.358,1.358,0,0,1,.067,2.714Z" transform="translate(-1546.156 -1246.567)" fill="#002740"/>
        <path id="Caminho_7961" data-name="Caminho 7961" d="M1483.541,1189.193H1508.8a4.816,4.816,0,0,1,4.355,2.761l11.679,24.765h-31.4a2.926,2.926,0,0,1-2.722-1.851l-9.057-22.917A2.018,2.018,0,0,1,1483.541,1189.193Z" transform="translate(-1481.522 -1189.193)" fill="#002740"/>
      </g>
      <g id="Grupo_4353" data-name="Grupo 4353" transform="translate(0 61.458)">
        <path id="Caminho_7962" data-name="Caminho 7962" d="M1520.761,1280.907a1.119,1.119,0,0,0-.263-.969,1.286,1.286,0,0,0-.966-.427H1392.943a1.467,1.467,0,0,0-1.214.623,1.278,1.278,0,0,0-.094,1.294l1.372,2.783a1.933,1.933,0,0,0,1.744,1.045h123.913a1.433,1.433,0,0,0,1.428-1.1Z" transform="translate(-1391.502 -1279.511)" fill="url(#linear-gradient-7)"/>
        <g id="Grupo_4352" data-name="Grupo 4352" transform="translate(7.425 2.364)">
          <path id="Caminho_7963" data-name="Caminho 7963" d="M1417.219,1345.036a1.087,1.087,0,0,1-.438-.093,1.146,1.146,0,0,1-.582-1.493l23.3-55.416a1.1,1.1,0,0,1,1.46-.6,1.147,1.147,0,0,1,.581,1.494l-23.3,55.415A1.11,1.11,0,0,1,1417.219,1345.036Z" transform="translate(-1416.109 -1287.347)" fill="url(#linear-gradient-7)"/>
          <path id="Caminho_7964" data-name="Caminho 7964" d="M1450.285,1345.036a1.111,1.111,0,0,1-1.021-.688l-23.3-55.416a1.147,1.147,0,0,1,.582-1.493,1.1,1.1,0,0,1,1.459.595l23.3,55.416a1.146,1.146,0,0,1-.582,1.493A1.089,1.089,0,0,1,1450.285,1345.036Z" transform="translate(-1422.928 -1287.346)" fill="url(#linear-gradient-7)"/>
          <path id="Caminho_7965" data-name="Caminho 7965" d="M1721.256,1345.036a1.086,1.086,0,0,1-.439-.093,1.146,1.146,0,0,1-.581-1.493l23.3-55.416a1.1,1.1,0,0,1,1.459-.6,1.147,1.147,0,0,1,.582,1.494l-23.3,55.415A1.11,1.11,0,0,1,1721.256,1345.036Z" transform="translate(-1628.398 -1287.347)" fill="url(#linear-gradient-7)"/>
          <path id="Caminho_7966" data-name="Caminho 7966" d="M1754.322,1345.036a1.111,1.111,0,0,1-1.021-.688l-23.3-55.416a1.147,1.147,0,0,1,.581-1.493,1.1,1.1,0,0,1,1.46.595l23.3,55.416a1.147,1.147,0,0,1-.581,1.493A1.091,1.091,0,0,1,1754.322,1345.036Z" transform="translate(-1635.218 -1287.346)" fill="url(#linear-gradient-7)"/>
        </g>
      </g>
    </g>
    <g id="Grupo_4359" data-name="Grupo 4359" transform="translate(287.395 206.467)">
      <g id="Grupo_4358" data-name="Grupo 4358" transform="translate(0 0)" clip-path="url(#clip-path)">
        <g id="Grupo_4357" data-name="Grupo 4357" transform="translate(17.128 42.384)">
          <g id="Grupo_4355" data-name="Grupo 4355">
            <path id="Caminho_7967" data-name="Caminho 7967" d="M1003.985,427.878H749a8.431,8.431,0,0,0-8.22,8.4V643.2h299.784V465.036Z" transform="translate(-740.78 -427.878)" fill="#8bd9f1"/>
            <path id="Caminho_7968" data-name="Caminho 7968" d="M1649.607,465.626l-33.459.289a2.964,2.964,0,0,1-2.211-.962,3.109,3.109,0,0,1-.693-2.362V428.724Z" transform="translate(-1349.967 -428.469)" fill="#37a4d6"/>
          </g>
          <g id="Grupo_4356" data-name="Grupo 4356" transform="translate(83.699 38.263)">
            <path id="Caminho_7969" data-name="Caminho 7969" d="M1150.472,613.749a58.98,58.98,0,0,1-3.727,21.352A35.364,35.364,0,0,1,1136.21,650.3a24.377,24.377,0,0,1-15.8,5.51,19.661,19.661,0,0,1-10.615-2.876,16.5,16.5,0,0,1-6.645-7.577h-1.3a27.793,27.793,0,0,1-22.284,10.453q-14.343,0-22.608-8.63t-8.266-23.621q0-17.1,10.859-27.552t28.362-10.453a98.161,98.161,0,0,1,15.356,1.337,84.479,84.479,0,0,1,13.816,3.2l-1.864,39.625q0,11.264,6.159,11.264,5.186,0,8.265-7.577t3.08-19.813a47.584,47.584,0,0,0-5.429-23.054,36.843,36.843,0,0,0-15.275-15.275,46.929,46.929,0,0,0-22.487-5.267q-16.369,0-28.443,6.726a44.962,44.962,0,0,0-18.516,19.407q-6.442,12.682-6.442,29.294,0,22.365,11.952,34.317t34.642,11.953a104.4,104.4,0,0,0,18.881-1.9,125.136,125.136,0,0,0,20.258-5.551v15.558q-17.341,7.374-38.491,7.374-30.793,0-48.012-16.207t-17.22-45.054a75.418,75.418,0,0,1,8.792-36.344,63.794,63.794,0,0,1,25.039-25.606q16.247-9.278,37.4-9.278,17.827,0,31.846,7.293a51.717,51.717,0,0,1,21.636,20.744Q1150.472,596.165,1150.472,613.749Zm-82.978,10.129q0,17.1,13.938,17.1,7.293,0,11.1-5.146t4.619-16.733l1.054-17.908a44.355,44.355,0,0,0-9.319-.891q-10.129,0-15.761,6.32T1067.494,623.878Z" transform="translate(-1018.145 -554.676)" fill="#1250b3"/>
          </g>
        </g>
      </g>
    </g>
    <g id="Grupo_4365" data-name="Grupo 4365" transform="translate(623.21 189.856)">
      <g id="Grupo_4364" data-name="Grupo 4364">
        <g id="hour">
          <path id="Caminho_7971" data-name="Caminho 7971" d="M1796.869,290.044a57.008,57.008,0,0,1,88.712-48.036l3.242-3.287a1.668,1.668,0,0,1,2.8.728l5.669,20.6a1.667,1.667,0,0,1-2.03,2.056l-20.678-5.393a1.672,1.672,0,0,1-.767-2.79l3.652-3.706a45.539,45.539,0,1,0,22.111,39.444,1.842,1.842,0,0,1,1.646-1.856l7.967-.092a1.637,1.637,0,0,1,1.133.625l.066.066a2.169,2.169,0,0,1,.493,1.4,57.009,57.009,0,0,1-114.012.236Zm99.244-29.553a.415.415,0,0,0-.015-.11l-5.669-20.6a.434.434,0,0,0-.727-.189l-3.965,4.019-.425-.291a55.734,55.734,0,1,0,24.335,46.483h0a1.02,1.02,0,0,0-.136-.524l-.069-.069a2.01,2.01,0,0,0-.282-.255l-7.922.092c-.169,0-.422.337-.426.634a46.959,46.959,0,1,1-22.033-40.1l.651.409-4.735,4.806a.437.437,0,0,0,.2.729l20.679,5.393a.432.432,0,0,0,.542-.424Z" transform="translate(-1796.865 -232.376)" fill="#1250b3"/>
        </g>
        <g id="Grupo_4363" data-name="Grupo 4363" transform="translate(23.102 44.388)">
          <g id="Grupo_4362" data-name="Grupo 4362">
            <path id="Caminho_7972" data-name="Caminho 7972" d="M1889.913,403.309h-16.427v-3.456l5.9-5.963q2.62-2.684,3.423-3.721a8.191,8.191,0,0,0,1.157-1.92,4.893,4.893,0,0,0,.354-1.833,2.671,2.671,0,0,0-.78-2.105,3.023,3.023,0,0,0-2.082-.691,5.981,5.981,0,0,0-2.652.627,13.682,13.682,0,0,0-2.684,1.784l-2.7-3.2a17.662,17.662,0,0,1,2.877-2.089,10.58,10.58,0,0,1,2.492-.94,12.779,12.779,0,0,1,3.021-.33,8.942,8.942,0,0,1,3.89.8,6.209,6.209,0,0,1,2.62,2.25,5.981,5.981,0,0,1,.932,3.311,8.107,8.107,0,0,1-.571,3.046,11.7,11.7,0,0,1-1.768,2.917,43.241,43.241,0,0,1-4.219,4.259l-3.022,2.845v.225h10.238Z" transform="translate(-1873.422 -379.473)" fill="#1250b3"/>
            <path id="Caminho_7973" data-name="Caminho 7973" d="M1951.108,399.22h-2.829v4.87h-4.854v-4.87H1933.4v-3.456l10.3-15.173h4.58v14.771h2.829Zm-7.682-3.857v-3.986q0-1,.08-2.893t.129-2.2h-.129a17.915,17.915,0,0,1-1.43,2.572l-4.307,6.51Z" transform="translate(-1915.298 -380.254)" fill="#1250b3"/>
            <path id="Caminho_7974" data-name="Caminho 7974" d="M2007.754,380.592l-8.76,23.5h-4.452l8.76-23.5Z" transform="translate(-1957.992 -380.254)" fill="#1250b3"/>
            <path id="Caminho_7975" data-name="Caminho 7975" d="M2044.552,404.165l8.824-19.288h-11.589V380.7h16.86v3.118l-8.888,20.348Z" transform="translate(-1990.981 -380.328)" fill="#1250b3"/>
          </g>
        </g>
      </g>
    </g>
    <g id="Grupo_4366" data-name="Grupo 4366" transform="translate(224.886 270.855)">
      <path id="Caminho_7976" data-name="Caminho 7976" d="M2083.832,769.2l.157,1.909v.009a.33.33,0,1,0,.659-.054v0l-.178-1.924a.321.321,0,0,0-.639.056Z" transform="translate(-1598.911 -687.959)" fill="url(#linear-gradient-12)"/>
      <path id="Caminho_7977" data-name="Caminho 7977" d="M2084.9,790.313l-.01,1.914v.01a.364.364,0,0,0,.727,0v0l-.01-1.932a.354.354,0,0,0-.707,0Z" transform="translate(-1599.649 -702.696)" fill="url(#linear-gradient-13)"/>
      <path id="Caminho_7978" data-name="Caminho 7978" d="M2083.773,811.44l-.172,1.907v.01a.4.4,0,1,0,.79.071v0l.154-1.928a.387.387,0,0,0-.771-.066Z" transform="translate(-1598.749 -717.447)" fill="url(#linear-gradient-7)"/>
      <path id="Caminho_7979" data-name="Caminho 7979" d="M2080.89,832.438l-.328,1.885,0,.01a.429.429,0,0,0,.846.147v0l.312-1.909a.419.419,0,0,0-.827-.139Z" transform="translate(-1596.623 -732.111)" fill="url(#linear-gradient-7)"/>
      <path id="Caminho_7980" data-name="Caminho 7980" d="M2076.321,853.166l-.476,1.851,0,.01a.462.462,0,0,0,.9.231v0l.462-1.876a.452.452,0,0,0-.877-.221Z" transform="translate(-1593.323 -746.59)" fill="url(#linear-gradient-16)"/>
      <path id="Caminho_7981" data-name="Caminho 7981" d="M2070.138,873.494l-.619,1.809,0,.01a.5.5,0,0,0,.937.321l0-.005.607-1.837a.485.485,0,0,0-.92-.31Z" transform="translate(-1588.897 -760.791)" fill="url(#linear-gradient-17)"/>
      <path id="Caminho_7982" data-name="Caminho 7982" d="M2062.414,893.325l-.755,1.759,0,.011a.528.528,0,0,0,.971.417l0-.005.746-1.788a.518.518,0,0,0-.954-.4Z" transform="translate(-1583.397 -774.648)" fill="url(#linear-gradient-7)"/>
      <path id="Caminho_7983" data-name="Caminho 7983" d="M2053.223,912.547l-.884,1.7-.006.011a.561.561,0,1,0,1,.519l0-.005.877-1.726a.551.551,0,0,0-.98-.505Z" transform="translate(-1576.875 -788.082)" fill="url(#linear-gradient-7)"/>
      <path id="Caminho_7984" data-name="Caminho 7984" d="M2042.632,931.052l-1.007,1.624-.007.011a.594.594,0,0,0,1.01.626l0-.005,1-1.656a.584.584,0,0,0-1-.611Z" transform="translate(-1569.375 -801.016)" fill="url(#linear-gradient-7)"/>
      <path id="Caminho_7985" data-name="Caminho 7985" d="M2030.7,948.742l-1.124,1.544-.008.011a.627.627,0,1,0,1.014.738l0-.005,1.125-1.578a.617.617,0,0,0-1-.722Z" transform="translate(-1560.942 -813.384)" fill="url(#linear-gradient-7)"/>
      <path id="Caminho_7986" data-name="Caminho 7986" d="M2017.5,965.519l-1.236,1.455-.01.011a.66.66,0,1,0,1.006.855l0-.005,1.24-1.49a.65.65,0,0,0-.995-.837Z" transform="translate(-1551.616 -825.115)" fill="url(#linear-gradient-7)"/>
      <path id="Caminho_7987" data-name="Caminho 7987" d="M2003.071,981.278l-1.344,1.357-.012.011a.693.693,0,0,0,.985.975l.005,0,1.352-1.394a.683.683,0,0,0-.975-.956Z" transform="translate(-1541.436 -836.138)" fill="url(#linear-gradient-7)"/>
      <path id="Caminho_7988" data-name="Caminho 7988" d="M1987.488,995.915l-1.443,1.246-.013.011a.726.726,0,1,0,.949,1.1l.005,0,1.456-1.284a.716.716,0,0,0-.941-1.079Z" transform="translate(-1530.45 -846.377)" fill="url(#linear-gradient-7)"/>
      <path id="Caminho_7989" data-name="Caminho 7989" d="M1970.825,1009.3l-1.535,1.125-.015.011a.759.759,0,1,0,.9,1.224l.006,0,1.553-1.163a.749.749,0,0,0-.891-1.2Z" transform="translate(-1518.708 -855.743)" fill="url(#linear-gradient-7)"/>
      <path id="Caminho_7990" data-name="Caminho 7990" d="M1953.174,1021.326l-1.621,1-.017.01a.783.783,0,0,0,.822,1.333l0,0,1.649-1.03a.777.777,0,0,0-.819-1.32Z" transform="translate(-1506.279 -864.162)" fill="url(#linear-gradient-7)"/>
      <path id="Caminho_7991" data-name="Caminho 7991" d="M1934.62,1031.9l-1.7.857-.019.01a.8.8,0,0,0,.723,1.43l0,0,1.728-.885a.8.8,0,0,0-.721-1.419Z" transform="translate(-1493.223 -871.568)" fill="url(#linear-gradient-7)"/>
      <path id="Caminho_7992" data-name="Caminho 7992" d="M1915.258,1040.86l-1.767.707-.019.008a.82.82,0,1,0,.608,1.522l0,0,1.8-.733a.814.814,0,0,0-.608-1.51Z" transform="translate(-1479.6 -877.842)" fill="url(#linear-gradient-7)"/>
      <path id="Caminho_7993" data-name="Caminho 7993" d="M1895.225,1048.155l-1.819.562-.019.006a.838.838,0,0,0,.494,1.6h.005l1.854-.584a.833.833,0,0,0-.5-1.59Z" transform="translate(-1465.524 -882.952)" fill="url(#linear-gradient-7)"/>
      <path id="Caminho_7994" data-name="Caminho 7994" d="M1874.7,1053.849l-1.858.419-.019,0a.857.857,0,1,0,.377,1.672h0l1.893-.439a.851.851,0,0,0-.379-1.659Z" transform="translate(-1451.112 -886.94)" fill="url(#linear-gradient-7)"/>
      <path id="Caminho_7995" data-name="Caminho 7995" d="M1853.827,1057.962l-1.884.279-.019,0a.875.875,0,0,0,.257,1.732h.005l1.92-.3a.87.87,0,0,0-.26-1.72Z" transform="translate(-1436.464 -889.821)" fill="url(#linear-gradient-7)"/>
      <path id="Caminho_7996" data-name="Caminho 7996" d="M1832.729,1060.537l-1.9.144h-.019a.894.894,0,0,0,.135,1.783h.005l1.936-.158a.888.888,0,0,0-.139-1.771Z" transform="translate(-1421.667 -891.625)" fill="url(#linear-gradient-7)"/>
      <path id="Caminho_7997" data-name="Caminho 7997" d="M1811.519,1061.632l-1.906.015h-.018a.912.912,0,0,0,.015,1.825h.005l1.941-.027a.907.907,0,0,0-.019-1.813Z" transform="translate(-1406.798 -892.393)" fill="url(#linear-gradient-7)"/>
      <path id="Caminho_7998" data-name="Caminho 7998" d="M1790.3,1061.065l-1.9-.108h-.017a.931.931,0,1,0-.1,1.859h.005l1.939.1a.925.925,0,0,0,.1-1.848Z" transform="translate(-1391.926 -891.92)" fill="url(#linear-gradient-34)"/>
      <path id="Caminho_7999" data-name="Caminho 7999" d="M1769.146,1059.146l-1.894-.223-.017,0a.949.949,0,0,0-.222,1.886h.006l1.928.216a.944.944,0,0,0,.216-1.875Z" transform="translate(-1377.112 -890.495)" fill="url(#linear-gradient-7)"/>
      <path id="Caminho_8000" data-name="Caminho 8000" d="M1748.139,1055.983l-1.879-.332-.016,0a.968.968,0,1,0-.337,1.906h.005l1.912.327a.962.962,0,0,0,.33-1.9Z" transform="translate(-1362.402 -888.204)" fill="url(#linear-gradient-7)"/>
      <path id="Caminho_8001" data-name="Caminho 8001" d="M1727.344,1051.65l-1.855-.434-.015,0a.986.986,0,1,0-.449,1.921h.005l1.889.431a.981.981,0,0,0,.442-1.912Z" transform="translate(-1347.847 -885.099)" fill="url(#linear-gradient-7)"/>
      <path id="Caminho_8002" data-name="Caminho 8002" d="M1706.8,1046.212l-1.835-.532-.015,0a1.005,1.005,0,0,0-.56,1.931h.006l1.868.53a1,1,0,0,0,.551-1.921Z" transform="translate(-1333.464 -881.223)" fill="url(#linear-gradient-7)"/>
      <path id="Caminho_8003" data-name="Caminho 8003" d="M1686.554,1039.728l-1.8-.623-.015,0a1.023,1.023,0,1,0-.668,1.935l.006,0,1.836.623a1.018,1.018,0,0,0,.659-1.926Z" transform="translate(-1319.301 -876.621)" fill="url(#linear-gradient-7)"/>
      <path id="Caminho_8004" data-name="Caminho 8004" d="M1666.656,1032.254l-1.771-.711-.014-.006a1.042,1.042,0,0,0-.776,1.934l.006,0,1.8.711a1.036,1.036,0,0,0,.766-1.926Z" transform="translate(-1305.38 -871.327)" fill="url(#linear-gradient-7)"/>
      <path id="Caminho_8005" data-name="Caminho 8005" d="M1647.139,1023.833l-1.736-.794-.014-.006a1.06,1.06,0,0,0-.883,1.929l.005,0,1.768.8a1.055,1.055,0,0,0,.873-1.921Z" transform="translate(-1291.727 -865.374)" fill="url(#linear-gradient-7)"/>
      <path id="Caminho_8006" data-name="Caminho 8006" d="M1628.032,1014.5l-1.7-.876-.013-.007a1.079,1.079,0,1,0-.989,1.918l.006,0,1.731.88a1.073,1.073,0,0,0,.979-1.911Z" transform="translate(-1278.361 -858.782)" fill="url(#linear-gradient-7)"/>
      <path id="Caminho_8007" data-name="Caminho 8007" d="M1609.41,1004.335l-1.658-.946-.011-.006a1.086,1.086,0,1,0-1.077,1.887h0l1.682.956a1.085,1.085,0,1,0,1.072-1.886Z" transform="translate(-1265.353 -851.621)" fill="url(#linear-gradient-7)"/>
      <path id="Caminho_8008" data-name="Caminho 8008" d="M1591.208,993.419l-1.622-1.011-.01-.007a1.093,1.093,0,1,0-1.156,1.854h0l1.645,1.021a1.091,1.091,0,1,0,1.151-1.853Z" transform="translate(-1252.637 -843.937)" fill="url(#linear-gradient-7)"/>
      <path id="Caminho_8009" data-name="Caminho 8009" d="M1573.422,981.826l-1.585-1.07-.01-.006a1.1,1.1,0,1,0-1.23,1.821h0l1.606,1.08a1.1,1.1,0,1,0,1.224-1.82Z" transform="translate(-1240.216 -835.786)" fill="url(#linear-gradient-7)"/>
      <path id="Caminho_8010" data-name="Caminho 8010" d="M1556.05,969.62,1554.5,968.5l-.009-.006a1.1,1.1,0,1,0-1.3,1.788h0l1.568,1.133a1.1,1.1,0,1,0,1.292-1.788Z" transform="translate(-1228.084 -827.21)" fill="url(#linear-gradient-7)"/>
      <path id="Caminho_8011" data-name="Caminho 8011" d="M1539.078,956.857l-1.514-1.171-.008-.006a1.111,1.111,0,0,0-1.36,1.757h0l1.531,1.181a1.109,1.109,0,1,0,1.354-1.757Z" transform="translate(-1216.232 -818.25)" fill="url(#linear-gradient-7)"/>
      <path id="Caminho_8012" data-name="Caminho 8012" d="M1522.486,943.6l-1.481-1.214-.007-.005a1.117,1.117,0,1,0-1.417,1.727h0l1.5,1.223a1.115,1.115,0,0,0,1.411-1.727Z" transform="translate(-1204.647 -808.949)" fill="url(#linear-gradient-7)"/>
      <path id="Caminho_8013" data-name="Caminho 8013" d="M1506.252,929.9l-1.45-1.253-.006-.005a1.123,1.123,0,0,0-1.469,1.7h0l1.464,1.26a1.121,1.121,0,1,0,1.463-1.7Z" transform="translate(-1193.311 -799.343)" fill="url(#linear-gradient-7)"/>
      <path id="Caminho_8014" data-name="Caminho 8014" d="M1490.349,915.813l-1.422-1.286-.005,0a1.129,1.129,0,0,0-1.515,1.675h0l1.435,1.293a1.128,1.128,0,0,0,1.51-1.675Z" transform="translate(-1182.207 -789.472)" fill="url(#linear-gradient-7)"/>
      <path id="Caminho_8015" data-name="Caminho 8015" d="M1474.749,901.392l-1.394-1.314,0,0a1.136,1.136,0,0,0-1.557,1.653h0l1.406,1.32a1.134,1.134,0,0,0,1.551-1.654Z" transform="translate(-1171.315 -779.371)" fill="url(#linear-gradient-7)"/>
      <path id="Caminho_8016" data-name="Caminho 8016" d="M1459.422,886.683l-1.373-1.339,0,0a1.142,1.142,0,0,0-1.594,1.635h0l1.384,1.345a1.14,1.14,0,1,0,1.589-1.635Z" transform="translate(-1160.611 -769.072)" fill="url(#linear-gradient-7)"/>
      <path id="Caminho_8017" data-name="Caminho 8017" d="M1444.316,871.715l-1.355-1.362,0,0a1.148,1.148,0,0,0-1.627,1.619v0l1.364,1.365a1.146,1.146,0,1,0,1.621-1.62Z" transform="translate(-1150.061 -758.597)" fill="url(#linear-gradient-7)"/>
      <path id="Caminho_8018" data-name="Caminho 8018" d="M1429.414,856.547l-1.339-1.379,0,0a1.154,1.154,0,0,0-1.656,1.608h0l1.347,1.382a1.152,1.152,0,0,0,1.65-1.608Z" transform="translate(-1139.653 -747.985)" fill="url(#linear-gradient-7)"/>
      <path id="Caminho_8019" data-name="Caminho 8019" d="M1414.675,841.213l-1.327-1.393a1.16,1.16,0,1,0-1.684,1.6l0,0,1.333,1.4a1.158,1.158,0,1,0,1.674-1.6Z" transform="translate(-1129.358 -737.262)" fill="url(#linear-gradient-7)"/>
      <path id="Caminho_8020" data-name="Caminho 8020" d="M1400.065,825.755l-1.316-1.4a1.166,1.166,0,1,0-1.7,1.592l0,0,1.322,1.4a1.164,1.164,0,0,0,1.7-1.6Z" transform="translate(-1119.153 -726.457)" fill="url(#linear-gradient-7)"/>
      <path id="Caminho_8021" data-name="Caminho 8021" d="M1385.544,810.208l-1.309-1.409a1.172,1.172,0,0,0-1.719,1.594l0,0,1.313,1.408a1.17,1.17,0,0,0,1.712-1.6Z" transform="translate(-1109.009 -715.594)" fill="url(#linear-gradient-7)"/>
      <path id="Caminho_8022" data-name="Caminho 8022" d="M1371.068,794.608l-1.309-1.413a1.178,1.178,0,1,0-1.729,1.6h0l1.311,1.411a1.177,1.177,0,0,0,1.725-1.6Z" transform="translate(-1098.894 -704.696)" fill="url(#linear-gradient-7)"/>
      <path id="Caminho_8023" data-name="Caminho 8023" d="M1356.6,779.008l-1.309-1.411a1.184,1.184,0,0,0-1.737,1.611l0,0,1.31,1.408a1.183,1.183,0,0,0,1.733-1.609Z" transform="translate(-1088.784 -693.804)" fill="url(#linear-gradient-7)"/>
      <path id="Caminho_8024" data-name="Caminho 8024" d="M1342.094,763.442l-1.314-1.407a1.191,1.191,0,1,0-1.741,1.625l0,0,1.314,1.4a1.189,1.189,0,0,0,1.737-1.623Z" transform="translate(-1078.647 -682.938)" fill="url(#linear-gradient-7)"/>
      <path id="Caminho_8025" data-name="Caminho 8025" d="M1327.511,747.944l-1.323-1.4a1.2,1.2,0,0,0-1.74,1.644l0,0,1.323,1.394a1.195,1.195,0,1,0,1.737-1.641Z" transform="translate(-1068.454 -672.125)" fill="url(#linear-gradient-7)"/>
      <path id="Caminho_8026" data-name="Caminho 8026" d="M1312.811,732.552l-1.336-1.39a1.2,1.2,0,0,0-1.734,1.667v0l0,0,1.334,1.382,0,0a1.2,1.2,0,0,0,1.73-1.666Z" transform="translate(-1058.179 -661.389)" fill="url(#linear-gradient-7)"/>
      <path id="Caminho_8027" data-name="Caminho 8027" d="M1297.955,717.307l-1.352-1.375a1.209,1.209,0,0,0-1.724,1.7l0,0,0,0,1.348,1.366,0,0a1.207,1.207,0,0,0,1.72-1.694Z" transform="translate(-1047.794 -650.759)" fill="url(#linear-gradient-7)"/>
      <path id="Caminho_8028" data-name="Caminho 8028" d="M1282.906,702.248l-1.372-1.357a1.215,1.215,0,0,0-1.709,1.727l0,0,0,0,1.366,1.347,0,0a1.213,1.213,0,0,0,1.705-1.726Z" transform="translate(-1037.273 -640.265)" fill="url(#linear-gradient-7)"/>
      <path id="Caminho_8029" data-name="Caminho 8029" d="M1267.626,687.418l-1.395-1.335a1.221,1.221,0,0,0-1.689,1.764l0,0,0,0,1.387,1.323,0,0a1.219,1.219,0,0,0,1.685-1.763Z" transform="translate(-1026.591 -629.934)" fill="url(#linear-gradient-7)"/>
      <path id="Caminho_8030" data-name="Caminho 8030" d="M1252.1,672.889l-1.425-1.308a1.217,1.217,0,0,0-1.647,1.793l0,0,1.411,1.3.005.005a1.219,1.219,0,1,0,1.652-1.793Z" transform="translate(-1015.746 -619.82)" fill="url(#linear-gradient-7)"/>
      <path id="Caminho_8031" data-name="Caminho 8031" d="M1236.269,658.685l-1.452-1.276a1.213,1.213,0,1,0-1.6,1.822l.005,0,1.437,1.267.006.005a1.214,1.214,0,1,0,1.606-1.821Z" transform="translate(-1004.693 -609.938)" fill="url(#linear-gradient-7)"/>
      <path id="Caminho_8032" data-name="Caminho 8032" d="M1220.114,644.856l-1.482-1.24a1.208,1.208,0,0,0-1.55,1.853l.006.005,1.466,1.23.007.006a1.209,1.209,0,1,0,1.555-1.853Z" transform="translate(-993.412 -600.322)" fill="url(#linear-gradient-7)"/>
      <path id="Caminho_8033" data-name="Caminho 8033" d="M1203.612,631.46l-1.516-1.2a1.2,1.2,0,1,0-1.493,1.887l.007.005,1.5,1.188.008.007a1.2,1.2,0,0,0,1.5-1.888Z" transform="translate(-981.89 -591.012)" fill="url(#linear-gradient-7)"/>
      <path id="Caminho_8034" data-name="Caminho 8034" d="M1186.722,618.535l-1.551-1.153a1.2,1.2,0,1,0-1.431,1.923l.008.006,1.531,1.142.009.007a1.2,1.2,0,0,0,1.435-1.924Z" transform="translate(-970.098 -582.036)" fill="url(#linear-gradient-7)"/>
      <path id="Caminho_8035" data-name="Caminho 8035" d="M1169.432,606.146l-1.589-1.1a1.194,1.194,0,0,0-1.362,1.961l.009.006,1.568,1.092.01.007a1.2,1.2,0,1,0,1.366-1.962Z" transform="translate(-958.026 -573.436)" fill="url(#linear-gradient-7)"/>
      <path id="Caminho_8036" data-name="Caminho 8036" d="M1151.724,594.345l-1.63-1.049a1.189,1.189,0,1,0-1.287,2l.01.006,1.606,1.036.011.008a1.191,1.191,0,0,0,1.292-2Z" transform="translate(-945.662 -565.251)" fill="url(#linear-gradient-7)"/>
      <path id="Caminho_8037" data-name="Caminho 8037" d="M1133.592,583.2l-1.667-.987a1.185,1.185,0,1,0-1.207,2.039l.01.006,1.643.976.011.007a1.186,1.186,0,0,0,1.211-2.04Z" transform="translate(-933.007 -557.528)" fill="url(#linear-gradient-7)"/>
      <path id="Caminho_8038" data-name="Caminho 8038" d="M1115.065,572.731l-1.7-.925a1.18,1.18,0,0,0-1.127,2.074l.01.005,1.678.915.011.006a1.181,1.181,0,1,0,1.131-2.074Z" transform="translate(-920.078 -550.278)" fill="url(#linear-gradient-7)"/>
      <path id="Caminho_8039" data-name="Caminho 8039" d="M1096.17,562.95l-1.734-.862a1.175,1.175,0,0,0-1.047,2.1l.01,0,1.71.853.011.006a1.177,1.177,0,0,0,1.051-2.106Z" transform="translate(-906.894 -543.507)" fill="url(#linear-gradient-7)"/>
      <path id="Caminho_8040" data-name="Caminho 8040" d="M1076.934,553.86l-1.764-.8a1.171,1.171,0,0,0-.966,2.133l.01,0,1.74.791.011.005a1.172,1.172,0,0,0,.97-2.134Z" transform="translate(-893.473 -537.217)" fill="url(#linear-gradient-7)"/>
      <path id="Caminho_8041" data-name="Caminho 8041" d="M1057.383,545.468l-1.791-.735a1.166,1.166,0,1,0-.885,2.157l.01,0,1.767.728.011.005a1.167,1.167,0,0,0,.89-2.159Z" transform="translate(-879.834 -531.414)" fill="url(#linear-gradient-7)"/>
      <path id="Caminho_8042" data-name="Caminho 8042" d="M1037.543,537.779l-1.816-.671a1.161,1.161,0,1,0-.8,2.178l.01,0,1.792.665.012,0a1.163,1.163,0,0,0,.809-2.18Z" transform="translate(-865.995 -526.101)" fill="url(#linear-gradient-7)"/>
      <path id="Caminho_8043" data-name="Caminho 8043" d="M1017.442,530.8l-1.839-.607a1.157,1.157,0,1,0-.724,2.2l.01,0,1.815.6.012,0a1.158,1.158,0,0,0,.728-2.2Z" transform="translate(-851.975 -521.281)" fill="url(#linear-gradient-7)"/>
      <path id="Caminho_8044" data-name="Caminho 8044" d="M997.1,524.532l-1.859-.541a1.152,1.152,0,0,0-.644,2.212l.01,0,1.835.536.011,0a1.153,1.153,0,1,0,.648-2.214Z" transform="translate(-837.79 -516.959)" fill="url(#linear-gradient-7)"/>
      <path id="Caminho_8045" data-name="Caminho 8045" d="M976.553,518.985l-1.877-.476a1.147,1.147,0,1,0-.563,2.224l.01,0,1.853.472.012,0a1.149,1.149,0,0,0,.567-2.226Z" transform="translate(-823.461 -513.14)" fill="url(#linear-gradient-7)"/>
      <path id="Caminho_8046" data-name="Caminho 8046" d="M955.822,514.163l-1.893-.409a1.143,1.143,0,0,0-.482,2.234l.01,0,1.869.407.012,0a1.144,1.144,0,0,0,.487-2.236Z" transform="translate(-809.006 -509.826)" fill="url(#linear-gradient-7)"/>
      <path id="Caminho_8047" data-name="Caminho 8047" d="M934.933,510.074l-1.906-.342a1.138,1.138,0,0,0-.4,2.24l.01,0,1.882.341.012,0a1.139,1.139,0,0,0,.406-2.242Z" transform="translate(-794.443 -507.023)" fill="url(#linear-gradient-7)"/>
      <path id="Caminho_8048" data-name="Caminho 8048" d="M913.914,506.721,912,506.446a1.133,1.133,0,1,0-.322,2.243h.01l1.893.275h.012a1.135,1.135,0,0,0,.326-2.246Z" transform="translate(-779.79 -504.733)" fill="url(#linear-gradient-7)"/>
      <path id="Caminho_8049" data-name="Caminho 8049" d="M892.791,504.111l-1.925-.207a1.129,1.129,0,0,0-.241,2.244h.01l1.9.208h.012a1.13,1.13,0,0,0,.245-2.247Z" transform="translate(-765.067 -502.962)" fill="url(#linear-gradient-7)"/>
      <path id="Caminho_8050" data-name="Caminho 8050" d="M871.589,502.251l-1.931-.139a1.124,1.124,0,1,0-.161,2.241h.01l1.907.14h.012a1.125,1.125,0,0,0,.165-2.244Z" transform="translate(-750.29 -501.713)" fill="url(#linear-gradient-7)"/>
      <path id="Caminho_8051" data-name="Caminho 8051" d="M850.335,501.145l-1.935-.07a1.119,1.119,0,1,0-.081,2.237h.01l1.911.072h.012a1.12,1.12,0,1,0,.084-2.239Z" transform="translate(-735.479 -500.99)" fill="url(#linear-gradient-7)"/>
      <path id="Caminho_8052" data-name="Caminho 8052" d="M829.058,500.8h-1.936a1.114,1.114,0,0,0,0,2.229h.011l1.912,0h.012a1.116,1.116,0,0,0,0-2.232Z" transform="translate(-720.653 -500.797)" fill="url(#linear-gradient-7)"/>
      <path id="Caminho_8053" data-name="Caminho 8053" d="M807.783,501.058l-1.935.069a1.11,1.11,0,1,0,.079,2.218h.011l1.91-.065h.012a1.111,1.111,0,0,0-.076-2.221Z" transform="translate(-705.83 -500.978)" fill="url(#linear-gradient-7)"/>
      <path id="Caminho_8054" data-name="Caminho 8054" d="M786.537,502.087l-1.931.139a1.1,1.1,0,1,0,.159,2.2h.011l1.907-.135h.012a1.106,1.106,0,0,0-.156-2.207Z" transform="translate(-691.029 -501.695)" fill="url(#linear-gradient-7)"/>
      <path id="Caminho_8055" data-name="Caminho 8055" d="M765.348,503.891l-1.925.21a1.1,1.1,0,0,0,.239,2.188h.011l1.9-.2h.012a1.1,1.1,0,0,0-.236-2.191Z" transform="translate(-676.27 -502.953)" fill="url(#linear-gradient-7)"/>
      <path id="Caminho_8056" data-name="Caminho 8056" d="M744.244,506.478l-1.916.282a1.1,1.1,0,0,0,.319,2.168l.011,0,1.892-.275.012,0a1.1,1.1,0,0,0-.316-2.171Z" transform="translate(-661.571 -504.755)" fill="url(#linear-gradient-7)"/>
      <path id="Caminho_8057" data-name="Caminho 8057" d="M723.258,509.868l-1.9.36a1.091,1.091,0,0,0,.405,2.144l.012,0,1.878-.352.014,0a1.093,1.093,0,0,0-.4-2.148Z" transform="translate(-646.96 -507.117)" fill="url(#linear-gradient-7)"/>
      <path id="Caminho_8058" data-name="Caminho 8058" d="M702.44,514.137l-1.888.443a1.086,1.086,0,1,0,.5,2.115l.013,0,1.859-.434.014,0a1.088,1.088,0,1,0-.494-2.119Z" transform="translate(-632.47 -510.091)" fill="url(#linear-gradient-7)"/>
      <path id="Caminho_8059" data-name="Caminho 8059" d="M681.842,519.336l-1.865.531a1.082,1.082,0,1,0,.592,2.081l.014,0,1.836-.52.015,0a1.083,1.083,0,1,0-.59-2.084Z" transform="translate(-618.14 -513.713)" fill="url(#linear-gradient-7)"/>
      <path id="Caminho_8060" data-name="Caminho 8060" d="M661.551,525.537l-1.837.627a1.069,1.069,0,1,0,.691,2.023l.011,0,1.808-.608.016-.005a1.073,1.073,0,0,0-.685-2.034Z" transform="translate(-604.036 -518.031)" fill="url(#linear-gradient-7)"/>
      <path id="Caminho_8061" data-name="Caminho 8061" d="M641.624,532.8l-1.8.727a1.055,1.055,0,0,0,.789,1.956l.013-.005,1.77-.706.017-.007a1.059,1.059,0,1,0-.784-1.967Z" transform="translate(-590.191 -523.09)" fill="url(#linear-gradient-7)"/>
      <path id="Caminho_8062" data-name="Caminho 8062" d="M622.152,541.182l-1.756.833a1.04,1.04,0,1,0,.892,1.88l.014-.006,1.724-.809.018-.008a1.045,1.045,0,0,0-.888-1.892Z" transform="translate(-576.673 -528.925)" fill="url(#linear-gradient-7)"/>
      <path id="Caminho_8063" data-name="Caminho 8063" d="M603.25,550.747l-1.7.945a1.026,1.026,0,1,0,1,1.794l.014-.008,1.667-.918.018-.01a1.031,1.031,0,0,0-.994-1.806Z" transform="translate(-563.56 -535.583)" fill="url(#linear-gradient-7)"/>
      <path id="Caminho_8064" data-name="Caminho 8064" d="M585.048,561.56l-1.631,1.063a1.012,1.012,0,1,0,1.106,1.7l.015-.01,1.6-1.032.019-.012a1.017,1.017,0,0,0-1.1-1.708Z" transform="translate(-550.947 -543.109)" fill="url(#linear-gradient-7)"/>
      <path id="Caminho_8065" data-name="Caminho 8065" d="M567.706,573.678l-1.546,1.185a1,1,0,1,0,1.214,1.584l.015-.011,1.513-1.15.019-.014a1,1,0,1,0-1.213-1.6Z" transform="translate(-538.945 -551.541)" fill="url(#linear-gradient-7)"/>
      <path id="Caminho_8066" data-name="Caminho 8066" d="M551.4,587.131l-1.445,1.308a.984.984,0,1,0,1.321,1.459l.015-.014,1.413-1.268.018-.017a.988.988,0,1,0-1.32-1.471Z" transform="translate(-527.674 -560.9)" fill="url(#linear-gradient-7)"/>
      <path id="Caminho_8067" data-name="Caminho 8067" d="M536.3,601.923l-1.327,1.429a.97.97,0,1,0,1.421,1.32l.015-.016,1.3-1.385.018-.019a.974.974,0,1,0-1.422-1.332Z" transform="translate(-517.26 -571.189)" fill="url(#linear-gradient-7)"/>
      <path id="Caminho_8068" data-name="Caminho 8068" d="M522.607,618.012l-1.19,1.55a.955.955,0,0,0,1.516,1.164l.016-.02,1.16-1.5.018-.023a.96.96,0,1,0-1.518-1.176Z" transform="translate(-507.839 -582.379)" fill="url(#linear-gradient-7)"/>
      <path id="Caminho_8069" data-name="Caminho 8069" d="M510.6,635.415l-1.025,1.659a.941.941,0,0,0,1.6.989l.013-.02,1-1.607.015-.024a.946.946,0,0,0-1.6-1Z" transform="translate(-499.611 -594.479)" fill="url(#linear-gradient-7)"/>
      <path id="Caminho_8070" data-name="Caminho 8070" d="M500.406,653.954l-.859,1.751a.927.927,0,0,0,1.665.816l.01-.02.843-1.7.012-.024a.932.932,0,1,0-1.669-.827Z" transform="translate(-492.64 -607.373)" fill="url(#linear-gradient-7)"/>
      <path id="Caminho_8071" data-name="Caminho 8071" d="M492.047,673.432l-.69,1.823a.913.913,0,1,0,1.708.646l.008-.02.68-1.773.009-.023a.917.917,0,1,0-1.713-.657Z" transform="translate(-486.946 -620.923)" fill="url(#linear-gradient-7)"/>
      <path id="Caminho_8072" data-name="Caminho 8072" d="M485.532,693.637l-.521,1.874a.9.9,0,0,0,1.732.481l.005-.019.516-1.825.007-.024a.9.9,0,1,0-1.738-.491Z" transform="translate(-482.533 -634.983)" fill="url(#linear-gradient-7)"/>
      <path id="Caminho_8073" data-name="Caminho 8073" d="M480.845,714.369l-.355,1.915a.885.885,0,0,0,1.74.322l0-.019.355-1.868,0-.023a.889.889,0,0,0-1.747-.332Z" transform="translate(-479.39 -649.413)" fill="url(#linear-gradient-17)"/>
      <path id="Caminho_8074" data-name="Caminho 8074" d="M477.975,735.474l-.19,1.937a.871.871,0,1,0,1.733.17l0-.018.193-1.892,0-.022a.875.875,0,1,0-1.741-.178Z" transform="translate(-477.509 -664.105)" fill="url(#linear-gradient-12)"/>
      <path id="Caminho_8075" data-name="Caminho 8075" d="M476.9,756.778l-.026,1.945a.856.856,0,1,0,1.713.023v-.018l.034-1.9V756.8a.861.861,0,0,0-1.721-.031Z" transform="translate(-476.878 -678.939)" fill="url(#linear-gradient-7)"/>
      <path id="Caminho_8076" data-name="Caminho 8076" d="M477.3,778.129l.137,1.941a.842.842,0,0,0,1.681-.119v-.018l-.126-1.9v-.021a.847.847,0,0,0-1.69.112Z" transform="translate(-477.174 -693.808)" fill="url(#linear-gradient-12)"/>
      <path id="Caminho_8077" data-name="Caminho 8077" d="M479.43,799.378l.3,1.922a.828.828,0,0,0,1.637-.256l0-.018-.285-1.881,0-.021a.832.832,0,1,0-1.646.249Z" transform="translate(-478.652 -708.606)" fill="url(#linear-gradient-7)"/>
      <path id="Caminho_8078" data-name="Caminho 8078" d="M483.339,820.374l.463,1.889a.814.814,0,1,0,1.581-.387l0-.017-.445-1.85,0-.021a.818.818,0,1,0-1.591.382Z" transform="translate(-481.373 -723.23)" fill="url(#linear-gradient-7)"/>
      <path id="Caminho_8079" data-name="Caminho 8079" d="M489.036,840.959l.626,1.843a.8.8,0,0,0,1.515-.515l-.006-.017-.6-1.8-.007-.02a.8.8,0,0,0-1.525.511Z" transform="translate(-485.337 -737.568)" fill="url(#linear-gradient-7)"/>
      <path id="Caminho_8080" data-name="Caminho 8080" d="M496.526,860.96l.789,1.776a.786.786,0,0,0,1.436-.638l-.008-.017-.763-1.74-.008-.02a.79.79,0,0,0-1.447.635Z" transform="translate(-490.549 -751.5)" fill="url(#linear-gradient-7)"/>
      <path id="Caminho_8081" data-name="Caminho 8081" d="M505.805,880.194l.953,1.7a.772.772,0,1,0,1.346-.756l-.009-.016-.924-1.662-.011-.019a.776.776,0,1,0-1.356.754Z" transform="translate(-497.006 -764.899)" fill="url(#linear-gradient-7)"/>
      <path id="Caminho_8082" data-name="Caminho 8082" d="M516.888,898.485,518,900.079a.747.747,0,0,0,1.228-.851l-.013-.018-1.078-1.567-.013-.018a.754.754,0,0,0-1.243.855Z" transform="translate(-504.719 -777.648)" fill="url(#linear-gradient-7)"/>
      <path id="Caminho_8083" data-name="Caminho 8083" d="M529.726,915.611,531,917.084a.722.722,0,0,0,1.1-.938l-.015-.017-1.229-1.449-.014-.017a.729.729,0,0,0-1.112.944Z" transform="translate(-513.655 -789.594)" fill="url(#linear-gradient-7)"/>
      <path id="Caminho_8084" data-name="Caminho 8084" d="M544.227,931.344l1.417,1.338a.7.7,0,0,0,.961-1.009l-.016-.015-1.375-1.319-.016-.015a.7.7,0,1,0-.974,1.016Z" transform="translate(-523.75 -800.572)" fill="url(#linear-gradient-7)"/>
      <path id="Caminho_8085" data-name="Caminho 8085" d="M560.261,945.532l1.54,1.186a.671.671,0,0,0,.824-1.06l-.016-.012-1.5-1.174-.016-.012a.679.679,0,0,0-.837,1.069Z" transform="translate(-534.914 -810.478)" fill="url(#linear-gradient-7)"/>
      <path id="Caminho_8086" data-name="Caminho 8086" d="M577.6,958.065l1.646,1.031a.646.646,0,0,0,.691-1.092l-.016-.01-1.607-1.025-.016-.01a.654.654,0,0,0-.7,1.1Z" transform="translate(-546.992 -819.235)" fill="url(#linear-gradient-7)"/>
      <path id="Caminho_8087" data-name="Caminho 8087" d="M596.046,968.894l1.733.874a.621.621,0,0,0,.564-1.107l-.015-.008-1.7-.872-.015-.008a.629.629,0,0,0-.575,1.118Z" transform="translate(-559.844 -826.809)" fill="url(#linear-gradient-7)"/>
      <path id="Caminho_8088" data-name="Caminho 8088" d="M615.4,977.991l1.8.714a.6.6,0,0,0,.444-1.106l-.015-.006-1.767-.716-.015-.006a.6.6,0,1,0-.453,1.118Z" transform="translate(-573.33 -833.178)" fill="url(#linear-gradient-7)"/>
      <path id="Caminho_8089" data-name="Caminho 8089" d="M635.46,985.338l1.859.555a.571.571,0,0,0,.331-1.092l-.014,0-1.826-.561-.015,0a.578.578,0,0,0-.339,1.105Z" transform="translate(-587.317 -838.331)" fill="url(#linear-gradient-7)"/>
      <path id="Caminho_8090" data-name="Caminho 8090" d="M656.088,990.937l1.9.4a.546.546,0,0,0,.227-1.067l-.014,0-1.867-.4-.014,0a.553.553,0,1,0-.234,1.081Z" transform="translate(-601.701 -842.266)" fill="url(#linear-gradient-7)"/>
      <path id="Caminho_8091" data-name="Caminho 8091" d="M677.1,994.774l1.923.234a.52.52,0,0,0,.13-1.032h-.013l-1.9-.246-.013,0a.528.528,0,1,0-.136,1.047Z" transform="translate(-616.359 -844.975)" fill="url(#linear-gradient-34)"/>
      <path id="Caminho_8092" data-name="Caminho 8092" d="M698.36,996.841l1.935.072a.5.5,0,0,0,.041-.989h-.013l-1.91-.086H698.4a.5.5,0,0,0-.046,1Z" transform="translate(-631.186 -846.452)" fill="url(#linear-gradient-34)"/>
      <path id="Caminho_8093" data-name="Caminho 8093" d="M719.708,996.948l1.934-.091a.47.47,0,0,0-.04-.939h-.012l-1.91.075h-.012a.477.477,0,1,0,.037.954Z" transform="translate(-646.081 -846.508)" fill="url(#linear-gradient-34)"/>
      <path id="Caminho_8094" data-name="Caminho 8094" d="M741,995.038l1.922-.257a.445.445,0,0,0-.115-.882h-.012l-1.9.24h-.012a.452.452,0,1,0,.113.9Z" transform="translate(-660.937 -845.096)" fill="url(#linear-gradient-34)"/>
      <path id="Caminho_8095" data-name="Caminho 8095" d="M762.085,991.288l1.888-.426a.42.42,0,0,0-.181-.819l-.011,0-1.869.406-.011,0a.427.427,0,1,0,.181.835Z" transform="translate(-675.656 -842.4)" fill="url(#linear-gradient-131)"/>
      <path id="Caminho_8096" data-name="Caminho 8096" d="M782.763,985.675l1.838-.6a.394.394,0,0,0-.24-.751l-.01,0-1.822.574-.011,0a.4.4,0,1,0,.241.767Z" transform="translate(-690.091 -838.404)" fill="url(#linear-gradient-131)"/>
      <path id="Caminho_8097" data-name="Caminho 8097" d="M802.857,978.177l1.776-.767a.369.369,0,0,0-.29-.679l-.01,0-1.762.745-.01,0a.377.377,0,0,0,.294.694Z" transform="translate(-704.121 -833.091)" fill="url(#linear-gradient-7)"/>
      <path id="Caminho_8098" data-name="Caminho 8098" d="M822.179,968.791l1.692-.938a.344.344,0,0,0-.331-.6l-.009,0-1.681.915-.009.005a.352.352,0,0,0,.336.618Z" transform="translate(-717.615 -826.463)" fill="url(#linear-gradient-7)"/>
      <path id="Caminho_8099" data-name="Caminho 8099" d="M840.505,958.1l1.245-.86a.321.321,0,0,0-.362-.529l-.007,0-1.239.842-.007,0a.327.327,0,1,0,.367.54Z" transform="translate(-730.418 -819.094)" fill="url(#linear-gradient-7)"/>
    </g>
    <g id="engrenagem_1">
      <path id="Caminho_8100" data-name="Caminho 8100" d="M481.656,319.4a1.968,1.968,0,0,1-1.855-1.31l-2.746-7.758a39.924,39.924,0,0,1-10.77-4.363l-7.374,3.668a1.966,1.966,0,0,1-2.256-.36l-7.617-7.493a1.97,1.97,0,0,1-.4-2.248l3.546-7.433a39.982,39.982,0,0,1-4.538-10.7l-7.8-2.618a1.966,1.966,0,0,1-1.341-1.848l-.087-10.687a1.967,1.967,0,0,1,1.309-1.87l7.759-2.747a39.985,39.985,0,0,1,4.363-10.77l-3.667-7.374a1.965,1.965,0,0,1,.359-2.255l7.494-7.618a1.965,1.965,0,0,1,2.248-.4l7.433,3.546a39.936,39.936,0,0,1,10.7-4.539l2.619-7.8a1.969,1.969,0,0,1,1.849-1.339L491.568,223h.015a1.967,1.967,0,0,1,1.854,1.311l2.747,7.757a39.968,39.968,0,0,1,10.77,4.362l7.373-3.668a1.974,1.974,0,0,1,2.254.358l7.62,7.5a1.965,1.965,0,0,1,.4,2.248l-3.546,7.433A39.961,39.961,0,0,1,525.59,261l7.8,2.618a1.968,1.968,0,0,1,1.34,1.847l.088,10.688a1.968,1.968,0,0,1-1.31,1.87l-7.757,2.745a39.957,39.957,0,0,1-4.363,10.771l3.667,7.374a1.967,1.967,0,0,1-.359,2.254l-7.495,7.619a1.965,1.965,0,0,1-2.248.4l-7.433-3.546a39.972,39.972,0,0,1-10.7,4.539l-2.619,7.8a1.969,1.969,0,0,1-1.846,1.341l-10.689.087ZM466.4,303.158l.582.355a37.5,37.5,0,0,0,11.284,4.571l.665.15,3.079,8.7,9.971-.081,2.936-8.747.662-.161a37.532,37.532,0,0,0,11.207-4.755l.576-.364,8.333,3.976,6.992-7.108-4.111-8.267.354-.582a37.508,37.508,0,0,0,4.57-11.284l.15-.664,8.7-3.079-.081-9.971-8.748-2.936-.161-.662a37.529,37.529,0,0,0-4.755-11.207l-.364-.576,3.975-8.333-7.108-6.992-8.267,4.112-.582-.354a37.519,37.519,0,0,0-11.283-4.57l-.665-.15-3.079-8.7-9.971.082-2.936,8.747-.662.161a37.506,37.506,0,0,0-11.207,4.755l-.576.364-8.333-3.975-6.992,7.107,4.111,8.267-.355.582a37.543,37.543,0,0,0-4.57,11.284l-.15.664-8.7,3.08.081,9.97,8.748,2.936.161.662a37.518,37.518,0,0,0,4.755,11.207l.364.576-3.975,8.333,7.109,6.992Zm10.971-69.893h0Zm9.1,65.134a27.022,27.022,0,0,1-.215-54.042,27.268,27.268,0,0,1,5.724.559,1.235,1.235,0,0,1-.5,2.418,24.557,24.557,0,1,0,19.549,23.842,24.517,24.517,0,0,0-3.582-12.578,1.234,1.234,0,1,1,2.107-1.286A27.025,27.025,0,0,1,486.7,298.4Z" transform="translate(-225.139 -35.975)" fill="#1250b3"/>
      <path id="Caminho_8101" data-name="Caminho 8101" d="M573.305,368.644a10.727,10.727,0,0,1-2.692-21.1h0a10.724,10.724,0,1,1,2.692,21.1Zm-2.068-18.715a8.254,8.254,0,1,0,10.073,5.9,8.2,8.2,0,0,0-10.073-5.9Z" transform="translate(-311.843 -122.688)" fill="#1250b3"/>
    </g>
    <g id="engrenagem_2">
      <path id="Caminho_8102" data-name="Caminho 8102" d="M380.135,567.865a1.279,1.279,0,0,1-1.029-.52l-2.241-3.043a19.465,19.465,0,0,1-5.307-.479l-2.751,2.595a1.277,1.277,0,0,1-1.47.2l-4.553-2.384a1.279,1.279,0,0,1-.671-1.322l.567-3.741a19.536,19.536,0,0,1-3.416-4.089l-3.778-.109a1.281,1.281,0,0,1-1.183-.9l-1.533-4.907a1.278,1.278,0,0,1,.462-1.411l3.043-2.242a19.533,19.533,0,0,1,.479-5.306l-2.6-2.751a1.279,1.279,0,0,1-.2-1.469l2.385-4.554a1.278,1.278,0,0,1,1.326-.67l3.737.566a19.562,19.562,0,0,1,4.089-3.416l.11-3.777a1.28,1.28,0,0,1,.894-1.183l4.908-1.533a1.277,1.277,0,0,1,1.41.46l2.242,3.043a19.607,19.607,0,0,1,5.307.48l2.751-2.595a1.281,1.281,0,0,1,1.468-.2L389.138,525a1.278,1.278,0,0,1,.671,1.324l-.567,3.739a19.549,19.549,0,0,1,3.416,4.089l3.778.111a1.275,1.275,0,0,1,1.182.9l1.534,4.9a1.28,1.28,0,0,1-.462,1.41l-3.043,2.242a19.525,19.525,0,0,1-.479,5.307l2.6,2.751a1.278,1.278,0,0,1,.2,1.469l-2.385,4.555a1.275,1.275,0,0,1-1.322.67l-3.741-.566a19.575,19.575,0,0,1-4.089,3.416l-.11,3.778a1.279,1.279,0,0,1-.894,1.182l-4.908,1.533A1.255,1.255,0,0,1,380.135,567.865Zm-.17-1.826h0Zm-2.211-3.652,2.6,3.53,4.125-1.289.128-4.383.44-.26a17.727,17.727,0,0,0,4.411-3.685l.334-.387,4.338.658,2.005-3.828-3.011-3.191.128-.495a17.7,17.7,0,0,0,.517-5.725l-.037-.51,3.53-2.6-1.29-4.125-4.383-.128-.26-.44a17.7,17.7,0,0,0-3.685-4.411l-.387-.334.658-4.338-3.828-2.006-3.191,3.01-.495-.128a17.7,17.7,0,0,0-5.724-.517l-.51.037-2.6-3.529-4.125,1.289-.128,4.383-.44.26a17.717,17.717,0,0,0-4.411,3.685l-.334.387-4.338-.657-2,3.829,3.01,3.192-.127.495a17.7,17.7,0,0,0-.517,5.724l.037.51-3.53,2.6,1.289,4.125,4.383.127.26.44a17.713,17.713,0,0,0,3.685,4.411l.387.334L364,562.784l3.829,2.006,3.191-3.01.495.128a17.738,17.738,0,0,0,5.724.517Zm-9.559,2.592h0Zm-4.554-2.385h0Zm32.775-9.554h0Zm-.565-17.334v0ZM357.386,532.6h0Zm30.892-5.963h0Zm-20.825-2.442v0Zm-.926-.026h0Zm5.431-.976h0Zm3.967,34.855a13.33,13.33,0,0,1-3.985-26.052,13.5,13.5,0,0,1,2.782-.556.926.926,0,0,1,.167,1.844,11.479,11.479,0,1,0,11.981,8.01,11.46,11.46,0,0,0-3.31-5.139.926.926,0,1,1,1.232-1.383,13.332,13.332,0,0,1-8.868,23.276Z" transform="translate(-165.293 -244.303)" fill="#1250b3"/>
    </g>
    <g id="Grupo_4373" data-name="Grupo 4373" transform="translate(660.922 393.633)">
      <path id="Caminho_8103" data-name="Caminho 8103" d="M1955.4,1009.045a37.475,37.475,0,0,0-9.471,18.752c-2.353,12-7.942-16.964-7.942-16.964h-5.647s-2.13,29.845,13.813,32.218a8.56,8.56,0,0,0,7.99-3.164c2.911-3.7,7.453-10.274,8.551-16.543C1961.756,1013.46,1955.4,1009.045,1955.4,1009.045Z" transform="translate(-1929.107 -978.452)" fill="#1250b3"/>
      <path id="Caminho_8104" data-name="Caminho 8104" d="M2101.7,1447.861a1.025,1.025,0,0,0-.027-.268c-1.335-5.295-6.8-8.009-6.8-8.009l-2.627.206c-1.51,4.667-2.484,6.945-2.241,8.219.007.036.017.07.027.1A62.29,62.29,0,0,0,2101.7,1447.861Z" transform="translate(-2039.234 -1279.071)" fill="#1250b3"/>
      <path id="Caminho_8105" data-name="Caminho 8105" d="M2090.183,1467.264a1.139,1.139,0,0,0,.833.842c3.082.648,7.981.126,10.038-.143a.956.956,0,0,0,.793-.953A62.279,62.279,0,0,1,2090.183,1467.264Z" transform="translate(-2039.383 -1298.221)" fill="#002740"/>
      <path id="Caminho_8106" data-name="Caminho 8106" d="M2102.7,1426.04l-1.15,5.536a.906.906,0,0,1-.773.745,7.672,7.672,0,0,1-1.782-.028,1.138,1.138,0,0,1-.9-1.337l.8-4.915Z" transform="translate(-2044.891 -1269.614)" fill="url(#linear-gradient-136)"/>
      <path id="Caminho_8107" data-name="Caminho 8107" d="M1989.453,1466.043a15.166,15.166,0,0,0,5.006-.715c0,.279,0,.563-.009.857a.554.554,0,0,1-.529.563l-15.4-.1a.7.7,0,0,1-.566-1.024C1979.974,1465.792,1985.117,1466.165,1989.453,1466.043Z" transform="translate(-1960.971 -1297.046)" fill="#002740"/>
      <path id="Caminho_8108" data-name="Caminho 8108" d="M1978.119,1448.849a.7.7,0,0,1,.061-.116c1.36-1.9,4.825-5.685,11.67-7.327l3.284-.1a15.758,15.758,0,0,1,1.49,7.25,15.167,15.167,0,0,1-5.006.715C1985.282,1449.389,1980.138,1449.016,1978.119,1448.849Z" transform="translate(-1961.135 -1280.27)" fill="#1250b3"/>
      <path id="Caminho_8109" data-name="Caminho 8109" d="M2020.05,1422.966c-.036.245-.487,3.966-.661,5.408a.715.715,0,0,1-.6.646,7.515,7.515,0,0,1-2.256-.035.971.971,0,0,1-.736-.975v-5.84Z" transform="translate(-1987.442 -1266.912)" fill="url(#linear-gradient-137)"/>
      <path id="Caminho_8110" data-name="Caminho 8110" d="M2041.267,1185.131s5.255,46.713,2.336,75.909a22.593,22.593,0,0,1-5.255-.584s-5.461-45.673-7.228-58.743a.439.439,0,0,0-.866-.027c-2.18,11-10.741,54.115-11.759,58.187,0,0-2.92,1.168-5.255,0,0,0,4.671-62.479,8.175-73.573Z" transform="translate(-1985.658 -1101.402)" fill="#002740"/>
      <path id="Caminho_8111" data-name="Caminho 8111" d="M2049.075,1002.256s-22.189-3.5-39.706,1.168l1.168,18.1s4.671,25.108,8.175,36.2c0,0,13.43,2.336,19.853-1.168,0,0,5.255-31.532,8.175-36.2C2046.74,1020.358,2049.659,1008.1,2049.075,1002.256Z" transform="translate(-1982.955 -972.832)" fill="#1250b3"/>
      <path id="Caminho_8113" data-name="Caminho 8113" d="M2126.763,1005.174s34.451,37.371-6.131,51.677v-2.92s15.182-12.846,3.5-30.363C2124.135,1023.568,2125.6,1006.926,2126.763,1005.174Z" transform="translate(-2060.643 -975.75)" fill="#1250b3"/>
      <path id="Caminho_8114" data-name="Caminho 8114" d="M2096.7,1161.76s-5.255-3.5-7.591-2.336-2.336,2.92-2.336,2.92,1.168,2.336,2.92,1.751,5.839.584,7.591,0C2097.28,1164.1,2097.864,1161.76,2096.7,1161.76Z" transform="translate(-2036.999 -1083.286)" fill="url(#linear-gradient-138)"/>
      <g id="Grupo_4371" data-name="Grupo 4371" transform="translate(1.475 13.469)">
        <path id="Caminho_8115" data-name="Caminho 8115" d="M1928.139,952.336l7.413,2.5a2.456,2.456,0,0,1,1.588,2.328l-.385,12.371c.12,1.935-1.477,3.642-2.986,3.188l-5.943-2.025a1.525,1.525,0,0,1-.969-1.532l-.131-15.4C1926.718,952.871,1927.453,952.13,1928.139,952.336Z" transform="translate(-1926.726 -952.301)" fill="#002740"/>
      </g>
      <path id="Caminho_8116" data-name="Caminho 8116" d="M1923.313,978.219s-2.32-7.433-1.141-8.686,3.529-4.706,3.686-1.882S1927.434,982.669,1923.313,978.219Z" transform="translate(-1921.838 -948.794)" fill="url(#linear-gradient-139)"/>
      <g id="man_head2">
        <path id="Caminho_8112" data-name="Caminho 8112" d="M2070.532,942.024l2.367,18.049s-6.176,2.837-10.5-.122l.931-10.55Z" transform="translate(-2019.983 -931.656)" fill="url(#linear-gradient-140)"/>
        <path id="Caminho_8117" data-name="Caminho 8117" d="M2044.33,927.4c-.035.215,2.6,14.332,2.6,14.332l8.029-1.676-.51-13.752S2044.91,923.809,2044.33,927.4Z" transform="translate(-2007.366 -920.09)" fill="url(#linear-gradient-141)"/>
        <path id="Caminho_8118" data-name="Caminho 8118" d="M2043.941,917.5a1.181,1.181,0,0,1,.561.874l.823,7.114a1.145,1.145,0,0,1-.007.322c-.1.591-.564,2.447-2.469,1.873a10.389,10.389,0,0,0-4.225-.72,1.177,1.177,0,0,0-.941,1.384,44,44,0,0,0,1.647,6.278,1.173,1.173,0,0,0,1.418.724,32.681,32.681,0,0,0,6.866-2.677,1.178,1.178,0,0,0,.594-1.055c-.048-1.913-.16-7.277.041-8.8.187-1.411,1.893-2.246,2.705-2.566a1.184,1.184,0,0,0,.671-.671,2.6,2.6,0,0,0-1.633-3.727,1.179,1.179,0,0,1-.687-1.492,2.607,2.607,0,0,0-1.463-3.54,3.675,3.675,0,0,0-4.342.882,1.223,1.223,0,0,1-1.453.217.78.78,0,0,0-.774-.009,1.144,1.144,0,0,1-1.552-.5,3.018,3.018,0,0,0-3.443-1.713c-3.595.554-4.067,4.519-3.16,6.862s4.77,1.522,6.72.38C2041.27,916.1,2043.081,916.973,2043.941,917.5Z" transform="translate(-1999.259 -909.044)" fill="#002740"/>
        <path id="Caminho_8119" data-name="Caminho 8119" d="M2083.058,948.865s-1.018-3.909.513-4.895,3.764-.423,3.22,2.558C2086.116,950.235,2083.058,948.865,2083.058,948.865Z" transform="translate(-2034.176 -932.703)" fill="url(#linear-gradient-142)"/>
      </g>
      <path id="Caminho_8120" data-name="Caminho 8120" d="M2030.792,912.809a.125.125,0,0,1-.114-.072c-1.305-2.795,1.74-5.026,1.771-5.049a.125.125,0,1,1,.146.2c-.029.021-2.907,2.134-1.69,4.74a.125.125,0,0,1-.06.166A.127.127,0,0,1,2030.792,912.809Z" transform="translate(-1997.607 -907.665)" fill="#fff"/>
    </g>
    <g id="Grupo_4378" data-name="Grupo 4378" transform="translate(532.289 403.772)">
      <g id="Grupo_4377" data-name="Grupo 4377">
        <path id="Caminho_8121" data-name="Caminho 8121" d="M1609.192,945.028v25.523c0,2.08-1.267,3.766-2.831,3.766h-92.979c-1.3,0-2.431,1.176-2.746,2.853l-1.67,8.886c-.221,1.178-1.452,1.276-1.777.141l-2.15-7.508a2.984,2.984,0,0,0-2.645-2.425h-4c-1.563,0-2.831-1.686-2.831-3.766V946.261c0-2.067,1.253-3.748,2.807-3.766l107.963-1.233C1607.91,941.245,1609.192,942.936,1609.192,945.028Z" transform="translate(-1495.567 -941.263)" fill="#f2f5f7"/>
        <g id="Grupo_4375" data-name="Grupo 4375" transform="translate(2.985 4.983)">
          <ellipse id="Elipse_65" data-name="Elipse 65" cx="11.404" cy="11.704" rx="11.404" ry="11.704" fill="#1250b3"/>
          <g id="Grupo_4374" data-name="Grupo 4374" transform="translate(4.369 3.366)">
            <path id="Caminho_8122" data-name="Caminho 8122" d="M1539.324,972.525c0,2.1-1.7,4.372-3.807,4.372s-3.807-2.27-3.807-4.372a3.813,3.813,0,0,1,7.614,0Z" transform="translate(-1528.157 -968.931)" fill="url(#linear-gradient-7)"/>
            <path id="Caminho_8123" data-name="Caminho 8123" d="M1522.572,1006.234h9.293a2.25,2.25,0,0,0,2.142-1.564l.5-1.563a2.247,2.247,0,0,0-1.358-2.8,17.322,17.322,0,0,0-11.7.128,2.24,2.24,0,0,0-1.436,2.716l.385,1.419A2.25,2.25,0,0,0,1522.572,1006.234Z" transform="translate(-1519.937 -990.173)" fill="url(#linear-gradient-7)"/>
          </g>
        </g>
        <g id="Grupo_4376" data-name="Grupo 4376" transform="translate(32.268 17.53)">
          <path id="Caminho_8124" data-name="Caminho 8124" d="M1674.973,1001.565a2.26,2.26,0,0,1-2.306,2.212H1604.8a2.26,2.26,0,0,1-2.306-2.212h0a2.26,2.26,0,0,1,2.306-2.212h67.864a2.26,2.26,0,0,1,2.306,2.212Z" transform="translate(-1602.497 -999.353)" fill="#c0daff"/>
          <path id="Caminho_8125" data-name="Caminho 8125" d="M1644.556,1025.542a2.011,2.011,0,0,1-2.011,2.011h-35.578a2.011,2.011,0,0,1-2.011-2.011h0a2.011,2.011,0,0,1,2.011-2.011h35.578a2.011,2.011,0,0,1,2.011,2.011Z" transform="translate(-1604.214 -1016.235)" fill="#c0daff"/>
          <path id="Caminho_8126" data-name="Caminho 8126" d="M1774.086,1025.542a2.011,2.011,0,0,1-2.011,2.011H1746.4a2.011,2.011,0,0,1-2.011-2.011h0a2.011,2.011,0,0,1,2.011-2.011h25.678a2.011,2.011,0,0,1,2.011,2.011Z" transform="translate(-1701.569 -1016.235)" fill="#c0daff"/>
        </g>
        <rect id="Ret창ngulo_555" data-name="Ret창ngulo 555" width="39.909" height="5.878" rx="2.939" transform="translate(32.081 5.954)" fill="#1250b3"/>
      </g>
    </g>
    <g id="Grupo_4382" data-name="Grupo 4382" transform="translate(242.779 413.743)">
      <g id="Grupo_4379" data-name="Grupo 4379" transform="translate(0)">
        <path id="Caminho_8127" data-name="Caminho 8127" d="M627.154,981.865c-.021,22.437-.193,99.827-1.535,127.224-.142,2.9-2.184,5.189-4.668,5.229-12.288.2-57.324.393-77.385-1.037-4.178-.3-7.417-4.335-7.4-9.234.1-23.548.649-89.775,3.509-120.056.343-3.628,2.845-6.468,5.955-6.762,13.406-1.269,58.694-4.093,76.014-2.392C624.772,975.143,627.158,978.2,627.154,981.865Z" transform="translate(-536.171 -974.306)" fill="#002740"/>
        <path id="Caminho_8128" data-name="Caminho 8128" d="M636.165,1007.2c.26,18.116,1.012,78.38-.143,100.633-.169,3.253-2.42,5.836-5.2,5.965-11.459.53-50.536,1.393-67.284-.551-3.016-.35-5.324-3.261-5.409-6.807-.442-18.486-1.642-74.612-.521-96.616.179-3.51,2.568-6.327,5.567-6.575,12.408-1.026,53.959-3.2,68.2-1.975C634.047,1001.5,636.12,1004.061,636.165,1007.2Z" transform="translate(-550.812 -992.88)" fill="#d0e2f7"/>
        <path id="Caminho_8129" data-name="Caminho 8129" d="M682.526,984.87h0a1.222,1.222,0,0,1-1.074,1.269c-2.9.113-11.084.435-14.741.6a1.236,1.236,0,0,1-1.114-1.562l.027-.141a1.188,1.188,0,0,1,1.007-1.021,120.82,120.82,0,0,1,14.866-.463A1.217,1.217,0,0,1,682.526,984.87Z" transform="translate(-626.523 -980.698)" fill="#1250b3"/>
      </g>
      <g id="Grupo_4380" data-name="Grupo 4380" transform="translate(17.293 36.047)">
        <circle id="call" cx="28.789" cy="28.789" r="28.789" fill="#f03e30"/>
        <path id="Caminho_8130" data-name="Caminho 8130" d="M665.166,1161.818a5.132,5.132,0,0,0-3.047-3.376l-2.071-.821a3.973,3.973,0,0,0-4.644,1.313l-1.844,2.464a15.078,15.078,0,0,1-9.2-3.214,15.343,15.343,0,0,1-5.535-7.41.09.09,0,0,1,.141-.1l1.662-2.221a4.537,4.537,0,0,0-.083-5.544l-1.376-1.73a5.191,5.191,0,0,0-8.219.121,6.721,6.721,0,0,0-1.092,2.231c-1.525,5.395,2.818,13.551,10.835,19.55s17.056,7.865,21.8,4.888a6.77,6.77,0,0,0,1.842-1.681A5.133,5.133,0,0,0,665.166,1161.818Z" transform="translate(-618.668 -1125.503)" fill="#d0e2f7"/>
      </g>
      <g id="Grupo_4381" data-name="Grupo 4381" transform="translate(2.963 110.859)">
        <path id="Caminho_8131" data-name="Caminho 8131" d="M554.844,1365.807a8.857,8.857,0,0,1-8.856-8.789V1342a.31.31,0,1,1,.619,0v15.021a8.225,8.225,0,0,0,8.227,8.15.324.324,0,0,1,.325.32A.315.315,0,0,1,554.844,1365.807Z" transform="translate(-545.988 -1341.677)" fill="#1250b3"/>
      </g>
    </g>
    <g id="Grupo_4389" data-name="Grupo 4389" transform="translate(168.295 389.635)">
      <g id="Grupo_4386" data-name="Grupo 4386" transform="translate(0)">
        <path id="Caminho_8132" data-name="Caminho 8132" d="M412.992,1429.837s-.6,3.371-.887,6.708a2.3,2.3,0,0,0,2.2,2.491c4.444.185,13.95.545,17.361.393a.748.748,0,0,0,.658-1.025h0a1.673,1.673,0,0,0-.856-.9l-15.7-7.217Z" transform="translate(-375.053 -1268.267)" fill="#002740"/>
        <path id="Caminho_8133" data-name="Caminho 8133" d="M413.449,1421.833l.478,4.032s2.751,1.28,4.629-.161l-1.139-4.494Z" transform="translate(-375.998 -1262.243)" fill="url(#linear-gradient-145)"/>
        <path id="Caminho_8134" data-name="Caminho 8134" d="M385.785,1172.04c-.206,1.053-1.109,52.55,4.4,75.627a.783.783,0,0,1-.46.911,13.647,13.647,0,0,1-4.483.911,1.35,1.35,0,0,1-1.338-.969c-1.573-5.354-9.113-32.181-10.1-57.807-1.1-28.635,0-.975,0-.975l.645-17.7Z" transform="translate(-347.975 -1088.262)" fill="#002740"/>
        <path id="Caminho_8135" data-name="Caminho 8135" d="M350.824,1435.666a24.249,24.249,0,0,0-1.866,6.224,1.4,1.4,0,0,0,1.234,1.68c1.467.145,3.726.33,5.536.317a1.4,1.4,0,0,0,1.385-1.56,11.8,11.8,0,0,0-2.754-6.47Z" transform="translate(-330.949 -1272.337)" fill="#002740"/>
        <path id="Caminho_8136" data-name="Caminho 8136" d="M352.448,1417.93l1.118,6.1a3.943,3.943,0,0,0,3.292.226l-.534-6.561Z" transform="translate(-333.405 -1259.787)" fill="url(#linear-gradient-146)"/>
        <path id="Caminho_8137" data-name="Caminho 8137" d="M338.43,1170.687c-4.5,27.17.977,67.153,2.824,74.979a1.22,1.22,0,0,0,.985.927,8.191,8.191,0,0,0,3.521-.141,1.119,1.119,0,0,0,.8-1.03c.248-6.327-.2-45.167,4-60.517a3.485,3.485,0,0,1,1.345-1.923l8.142-5.788.624-9.356Z" transform="translate(-322.407 -1085.329)" fill="#002740"/>
        <g id="Grupo_4383" data-name="Grupo 4383" transform="translate(14.342 12.981)">
          <path id="Caminho_8138" data-name="Caminho 8138" d="M367.237,1001.575c-13.492-.223-28.378,3.542-28.378,3.542-4.022,23.466-.7,50.532-.7,50.532,10.445,2.739,22.228-1.675,22.228-1.675,1.736-9.808,9.836-37.412,9.836-37.412a44.439,44.439,0,0,0,16.494-5.234A28.926,28.926,0,0,1,381,999.37,45.271,45.271,0,0,1,367.237,1001.575Z" transform="translate(-336.869 -980.68)" fill="#37a4d6"/>
          <path id="Caminho_8139" data-name="Caminho 8139" d="M509.192,938.457a2.581,2.581,0,0,0-3-.843C504.2,946,493.794,952.8,483.1,956.124a28.926,28.926,0,0,0,5.717,11.959C506.566,958.1,509.192,938.457,509.192,938.457Z" transform="translate(-438.972 -937.435)" fill="url(#linear-gradient-147)"/>
        </g>
        <g id="Grupo_4384" data-name="Grupo 4384" transform="translate(81.559)">
          <path id="Caminho_8140" data-name="Caminho 8140" d="M562.3,908.827c.139.441-1.467,1.112-2.413-.691-.033-.864-.559-4.567-.042-5.271a68.948,68.948,0,0,1,8.082-8.45,1.268,1.268,0,0,1,.159,1.763l-2.586,2.695a12.523,12.523,0,0,1,1.51,2.986,3.624,3.624,0,0,1-.361,2.668c-.454.818-1.074,1.881-1.659,2.714A3.579,3.579,0,0,1,562.3,908.827Z" transform="translate(-559.619 -894.416)" fill="url(#linear-gradient-148)"/>
          <path id="Caminho_8141" data-name="Caminho 8141" d="M568.19,914.981l-2.357,2-.74,1.99,2.1,2.331a27.129,27.129,0,0,1,1.232-4.8C568.952,915.644,568.679,915.231,568.19,914.981Z" transform="translate(-563.441 -908.775)" fill="url(#linear-gradient-149)"/>
        </g>
        <path id="Caminho_8142" data-name="Caminho 8142" d="M314.683,1031.481l-5.175-13.064s-12.6,8.563-14.674,19.419a28.668,28.668,0,0,1,10.615,2.976C307.363,1036.505,314.683,1031.481,314.683,1031.481Z" transform="translate(-293.177 -980.998)" fill="#37a4d6"/>
        <g id="man_head">
          <path id="Caminho_8143" data-name="Caminho 8143" d="M382.227,970.381,377.934,982.8a.447.447,0,0,0,.2.539,10.091,10.091,0,0,0,10.467-.7,2.106,2.106,0,0,0,.97-1.5l1.39-10.745Z" transform="translate(-351.183 -947.458)" fill="url(#linear-gradient-150)"/>
          <g id="Grupo_4385" data-name="Grupo 4385" transform="translate(22.896 4.975)">
            <path id="Caminho_8144" data-name="Caminho 8144" d="M397.711,932.284s4.714,8.874,4.11,12.458-6.447,3.327-11.548.416l-3.565-9.582Z" transform="translate(-380.223 -925.832)" fill="url(#linear-gradient-151)"/>
            <path id="Caminho_8145" data-name="Caminho 8145" d="M375.494,925.524a.366.366,0,0,0,.159-.535,9.546,9.546,0,0,1-1.311-2.785s-.848-.543,2.157-1.262,7.485-1.835,8.426-4.392c.918-2.493-1.494-8.763-5.343-3.767a.366.366,0,0,1-.579,0c-.631-.821-2.29-2.525-4.593-1.492a3.459,3.459,0,0,0-2.368,3.342.363.363,0,0,1-.431.372,4.218,4.218,0,0,0-4.925,2.3c-1.005,2.209-.352,3.46.243,4.072a.364.364,0,0,1-.156.605,2.194,2.194,0,0,0-1.548,2.5c.128,2.32,2.721,2.115,3.459,2.009a.367.367,0,0,1,.325.115c.633.7,3.485,3.675,6.572,4.034a.369.369,0,0,0,.387-.487l-1.336-3.883a.367.367,0,0,1,.2-.455Z" transform="translate(-365.219 -910.903)" fill="#002740"/>
            <path id="Caminho_8146" data-name="Caminho 8146" d="M392.684,958.541s-3.356-2.3-3.6-.364,3.022,2.809,4.641,2.086Z" transform="translate(-381.872 -943.369)" fill="url(#linear-gradient-152)"/>
          </g>
        </g>
        <path id="Caminho_8147" data-name="Caminho 8147" d="M291.087,1081.673s-8.613,19.619,12.441,22.49l2.871-2.392s-10.527-5.742-4.785-17.226C301.615,1084.545,295.394,1079.281,291.087,1081.673Z" transform="translate(-289.343 -1024.731)" fill="url(#linear-gradient-153)"/>
      </g>
      <g id="Grupo_4388" data-name="Grupo 4388" transform="translate(13.66 67.237)">
        <g id="Grupo_4387" data-name="Grupo 4387" transform="translate(1.792)">
          <path id="Caminho_8148" data-name="Caminho 8148" d="M341.962,1117.264l7.413,2.5a2.456,2.456,0,0,1,1.588,2.328l-.385,12.371c.12,1.936-1.477,3.642-2.986,3.189l-5.944-2.025a1.525,1.525,0,0,1-.969-1.532l-.131-15.4C340.541,1117.8,341.276,1117.058,341.962,1117.264Z" transform="translate(-340.549 -1117.229)" fill="#002740"/>
        </g>
        <path id="Caminho_8149" data-name="Caminho 8149" d="M335.9,1140.612a10.06,10.06,0,0,1-1.229-6.15c.357-3.392-.3-4.923,1.276-4.792s2.889.4,2.711,2.067S338.977,1144.015,335.9,1140.612Z" transform="translate(-334.612 -1125.911)" fill="url(#linear-gradient-154)"/>
      </g>
    </g>
  </g>
</svg>
