<svg xmlns="http://www.w3.org/2000/svg" width="687.217" height="357.264" viewBox="0 0 687.217 357.264">
  <g id="engine_guys" transform="translate(-306.616 -425.384)">
    <path id="Caminho_6614" data-name="Caminho 6614" d="M388.564,980.739C503.5,994.531,590.549,946.18,704.71,916.3c207.135-54.232,339.633-.669,270.769,72.431-24.383,25.886,38.441,127.91-185.76,148.72-168.439,15.639-324.506-24.844-426.368-49.023-28-6.647-46.646-33.151-52.684-45.982C298.325,1016.218,311.437,971.484,388.564,980.739Z" transform="translate(0 -358.296)" fill="#f2f5f7"/>
    <g id="Grupo_3230" data-name="Grupo 3230" transform="translate(308.015 598.254)">
      <g id="Grupo_3223" data-name="Grupo 3223" transform="translate(69.815 0)">
        <g id="Grupo_3221" data-name="Grupo 3221">
          <path id="Caminho_6615" data-name="Caminho 6615" d="M698.319,1221.812a10,10,0,0,0,2.241-5.7c.017-1.148-.914-3.14-2.107-3.157s-2.175,1.425-2.2,3.09A10,10,0,0,0,698.319,1221.812Z" transform="translate(-691.205 -1212.959)" fill="#d1dbea"/>
          <path id="Caminho_6616" data-name="Caminho 6616" d="M679.811,1262.184a8.5,8.5,0,0,0-2.329-4.764c-.727-.671-2.565-1.2-3.283-.421s-.377,2.263.677,3.239A8.513,8.513,0,0,0,679.811,1262.184Z" transform="translate(-673.163 -1248.067)" fill="#d1dbea"/>
          <path id="Caminho_6617" data-name="Caminho 6617" d="M677.776,1301.923a8.494,8.494,0,0,0-4.072-3.4c-.937-.315-2.829-.046-3.167.958s.579,2.219,1.941,2.679A8.505,8.505,0,0,0,677.776,1301.923Z" transform="translate(-670.467 -1281.678)" fill="#d1dbea"/>
          <path id="Caminho_6618" data-name="Caminho 6618" d="M704.853,1265.978a9.529,9.529,0,0,0,4.95-1.546c.81-.566,1.809-2.121,1.31-2.831s-1.93-.566-3.107.257A9.516,9.516,0,0,0,704.853,1265.978Z" transform="translate(-698.123 -1251.714)" fill="#d1dbea"/>
          <path id="Caminho_6619" data-name="Caminho 6619" d="M705.807,1296.518a9.19,9.19,0,0,0,5-1.471c.812-.566,1.785-2.153,1.26-2.905s-1.982-.639-3.16.184A9.212,9.212,0,0,0,705.807,1296.518Z" transform="translate(-698.89 -1276.238)" fill="#d1dbea"/>
          <path id="Caminho_6620" data-name="Caminho 6620" d="M714.843,1341.75a6.121,6.121,0,0,0,4.043-.8c.62-.431,1.262-1.788.738-2.539a1.918,1.918,0,0,0-2.64-.183A6.142,6.142,0,0,0,714.843,1341.75Z" transform="translate(-706.158 -1313.362)" fill="#d1dbea"/>
          <path id="Caminho_6621" data-name="Caminho 6621" d="M690.094,1344.467a7.373,7.373,0,0,0-2.941-3.056c-.714-.367-2.229-.452-2.575.225s.281,1.687,1.318,2.22A7.386,7.386,0,0,0,690.094,1344.467Z" transform="translate(-681.739 -1316.044)" fill="#d1dbea"/>
        </g>
        <g id="Grupo_3222" data-name="Grupo 3222" transform="translate(6.517 7.266)">
          <path id="Caminho_6622" data-name="Caminho 6622" d="M705.787,1304.706a2.818,2.818,0,0,1-1.162.214l.047-.553-.022.276.02-.278a3.213,3.213,0,0,0,2.509-1.37c1.351-1.622,2.075-4.428,2.149-8.334.1-5.359-1.037-12.659-3.392-21.7-2.734-10.5-2.239-16.386-1.913-20.284.085-1,.157-1.86.15-2.594l.555-.006c.006.761-.066,1.634-.151,2.648-.324,3.859-.813,9.691,1.9,20.094,5.241,20.12,3.5,27.72,1.114,30.553A4.422,4.422,0,0,1,705.787,1304.706Z" transform="translate(-703.763 -1250.081)" fill="#d1dbea"/>
        </g>
      </g>
      <g id="leaf_1">
        <path id="Caminho_6623" data-name="Caminho 6623" d="M562.521,1350.1a61.584,61.584,0,0,1,2.56,57.389,61.436,61.436,0,0,1-51.434-87.574A61.584,61.584,0,0,1,562.521,1350.1Z" transform="translate(-469.796 -1298.978)" fill="#e9f6ff"/>
        <g id="Grupo_3224" data-name="Grupo 3224" transform="translate(42.103 27.535)">
          <line id="Linha_78" data-name="Linha 78" x2="45.43" y2="77.349" transform="translate(6.076 0.139)" fill="none" stroke="#d1dbea" stroke-miterlimit="10" stroke-width="5.778"/>
          <line id="Linha_79" data-name="Linha 79" x1="14.969" y1="2.765" transform="translate(0.384 13.383)" fill="none" stroke="#d1dbea" stroke-miterlimit="10" stroke-width="5.778"/>
          <line id="Linha_80" data-name="Linha 80" x1="18.453" y1="3.409" transform="translate(4.649 25.927)" fill="none" stroke="#d1dbea" stroke-miterlimit="10" stroke-width="5.778"/>
          <line id="Linha_81" data-name="Linha 81" x1="30.845" y1="5.697" transform="translate(0 36.828)" fill="none" stroke="#d1dbea" stroke-miterlimit="10" stroke-width="5.778"/>
          <line id="Linha_82" data-name="Linha 82" x1="30.011" y1="5.54" transform="translate(8.582 50.175)" fill="none" stroke="#d1dbea" stroke-miterlimit="10" stroke-width="5.778"/>
          <line id="Linha_83" data-name="Linha 83" x1="16.711" y1="3.085" transform="translate(29.628 65.817)" fill="none" stroke="#d1dbea" stroke-miterlimit="10" stroke-width="5.778"/>
          <line id="Linha_84" data-name="Linha 84" y1="14.42" x2="4.876" transform="translate(14.65)" fill="none" stroke="#d1dbea" stroke-miterlimit="10" stroke-width="5.778"/>
          <line id="Linha_85" data-name="Linha 85" y1="22.484" x2="7.605" transform="translate(22.395 5.126)" fill="none" stroke="#d1dbea" stroke-miterlimit="10" stroke-width="5.778"/>
          <line id="Linha_86" data-name="Linha 86" y1="28.147" x2="9.516" transform="translate(30.141 12.653)" fill="none" stroke="#d1dbea" stroke-miterlimit="10" stroke-width="5.778"/>
          <line id="Linha_87" data-name="Linha 87" y1="28.908" x2="9.777" transform="translate(37.887 25.079)" fill="none" stroke="#d1dbea" stroke-miterlimit="10" stroke-width="5.778"/>
          <line id="Linha_88" data-name="Linha 88" y1="24.833" x2="8.398" transform="translate(45.635 42.343)" fill="none" stroke="#d1dbea" stroke-miterlimit="10" stroke-width="5.778"/>
        </g>
      </g>
      <g id="leaf_2">
        <path id="Caminho_6624" data-name="Caminho 6624" d="M391.962,1575.313a51.268,51.268,0,0,1,20.675,43.122,51.147,51.147,0,0,1-67.956-50.3A51.266,51.266,0,0,1,391.962,1575.313Z" transform="translate(-338.607 -1496.343)" fill="#e9f6ff"/>
        <line id="Linha_89" data-name="Linha 89" x2="60.019" y2="44.429" transform="translate(11.59 75.54)" fill="none" stroke="#d1dbea" stroke-miterlimit="10" stroke-width="4.81"/>
        <line id="Linha_90" data-name="Linha 90" x1="12.368" y2="2.764" transform="translate(11.55 84.775)" fill="none" stroke="#d1dbea" stroke-miterlimit="10" stroke-width="4.81"/>
        <line id="Linha_91" data-name="Linha 91" x1="15.242" y2="3.409" transform="translate(18.908 92.35)" fill="none" stroke="#d1dbea" stroke-miterlimit="10" stroke-width="4.81"/>
        <line id="Linha_92" data-name="Linha 92" x1="25.485" y2="5.695" transform="translate(18.901 99.927)" fill="none" stroke="#d1dbea" stroke-miterlimit="10" stroke-width="4.81"/>
        <line id="Linha_93" data-name="Linha 93" x1="24.792" y2="5.543" transform="translate(29.827 107.503)" fill="none" stroke="#d1dbea" stroke-miterlimit="10" stroke-width="4.81"/>
        <line id="Linha_94" data-name="Linha 94" x1="13.804" y2="3.085" transform="translate(51.048 115.078)" fill="none" stroke="#d1dbea" stroke-miterlimit="10" stroke-width="4.81"/>
        <line id="Linha_95" data-name="Linha 95" x1="0.967" y1="12.634" transform="translate(21.848 71.048)" fill="none" stroke="#d1dbea" stroke-miterlimit="10" stroke-width="4.81"/>
        <line id="Linha_96" data-name="Linha 96" x1="1.508" y1="19.698" transform="translate(31.541 71.559)" fill="none" stroke="#d1dbea" stroke-miterlimit="10" stroke-width="4.81"/>
        <line id="Linha_97" data-name="Linha 97" x1="1.889" y1="24.66" transform="translate(41.394 74.174)" fill="none" stroke="#d1dbea" stroke-miterlimit="10" stroke-width="4.81"/>
        <line id="Linha_98" data-name="Linha 98" x1="1.939" y1="25.331" transform="translate(51.577 81.078)" fill="none" stroke="#d1dbea" stroke-miterlimit="10" stroke-width="4.81"/>
        <line id="Linha_99" data-name="Linha 99" x1="1.666" y1="21.76" transform="translate(62.084 92.226)" fill="none" stroke="#d1dbea" stroke-miterlimit="10" stroke-width="4.81"/>
      </g>
      <path id="Caminho_6625" data-name="Caminho 6625" d="M496.61,1630.554c10.7-7.109,2.032-9.191-8.2-8.786,4.79-5.043,1.556-9.6-10.848-14.4-5.569-2.154-12.2-.592-18.652,2.678-5.4-9.378-12.466-15.678-20.231-11.857-6.418,3.161-11.128,6.874-14.012,10.764q-3.072-1.084-6.6-2c-5.122-1.322-8.835-.035-11.439,2.8-10.14-5.361-20.317-8.362-26.1-4.216-10.05,7.205-11.208,13.069-4.288,18.6-10.211.686-17.79,4.191-4.171,11.524-12.184-.862-20.81.668-15.375,7.628,12.113,15.518,66.655,16.326,107.049,7.672,25.61-2.217,46.8-7.552,50.639-15.767C517.2,1629.144,508.219,1628.731,496.61,1630.554Z" transform="translate(-346.953 -1521.88)" fill="#d1dbea"/>
      <g id="Grupo_3229" data-name="Grupo 3229" transform="translate(0 46.07)">
        <path id="Caminho_6626" data-name="Caminho 6626" d="M314.307,1735.573c-1.681-2.582.409-4.778,8.389-5.946a65.166,65.166,0,0,1,23.879,1.172c-16.148-7.824-34.973-18.811-17.786-20.081,5.36-.4,13.6,2.2,22.768,6.252-10.226-8.322-15.851-15.163-9.656-16.433,5.752-1.181,17.48,5.587,29.965,14.572-7.114-7.529-11.234-14.1-8.038-17.2,2.608-2.529,8.171.374,14.569,5.754-.286-4.731,1.7-7.586,6.238-7.014,4.268.54,7.723,6.015,10.191,12.583,4.093-10.187,14.9-16.418,25.809-13.323,12.811,3.63,2.519,28.055-3.213,39.664Z" transform="translate(-313.766 -1646.814)" fill="#9dc1e2"/>
        <g id="leaf_3">
          <path id="Caminho_6627" data-name="Caminho 6627" d="M440.764,1480.987s20.144,20.624,30.322,70.5" transform="translate(-415.908 -1474.598)" fill="none" stroke="#9dc1e2" stroke-miterlimit="10" stroke-width="3.115"/>
          <path id="Caminho_6628" data-name="Caminho 6628" d="M551.5,1532.583s12.453,25.995,12.221,55.358" transform="translate(-504.972 -1516.096)" fill="none" stroke="#9dc1e2" stroke-miterlimit="10" stroke-width="3.115"/>
          <path id="Caminho_6629" data-name="Caminho 6629" d="M461.991,1636.522s18.709,9.853,18.6,36.762" transform="translate(-432.98 -1599.691)" fill="none" stroke="#9dc1e2" stroke-miterlimit="10" stroke-width="3.115"/>
          <path id="Caminho_6630" data-name="Caminho 6630" d="M403.76,1450.648c-4.226,2.445-6.848,5.814-5.857,7.526s5.22,1.118,9.445-1.326,6.848-5.814,5.859-7.526S407.986,1448.2,403.76,1450.648Z" transform="translate(-381.267 -1448.344)" fill="#9dc1e2"/>
          <path id="Caminho_6631" data-name="Caminho 6631" d="M427.031,1467.918c-1.343.777-2.175,1.847-1.86,2.39s1.656.355,3-.42,2.175-1.847,1.861-2.39S428.372,1467.143,427.031,1467.918Z" transform="translate(-403.312 -1463.5)" fill="#0c1153"/>
          <path id="Caminho_6632" data-name="Caminho 6632" d="M536.095,1519.957c-1.759,1.016-2.851,2.421-2.44,3.132s2.173.465,3.932-.551,2.853-2.42,2.439-3.132S537.854,1518.94,536.095,1519.957Z" transform="translate(-490.548 -1505.169)" fill="#9dc1e2"/>
          <path id="Caminho_6633" data-name="Caminho 6633" d="M545.784,1527.141c-.559.324-.906.769-.775,1s.689.148,1.249-.176.9-.767.775-.995S546.342,1526.818,545.784,1527.141Z" transform="translate(-499.727 -1511.474)" fill="#0c1153"/>
          <path id="Caminho_6634" data-name="Caminho 6634" d="M445.779,1620.252c-1.847,1.859-2.733,3.973-1.983,4.721s2.863-.152,4.711-2.01,2.734-3.973,1.981-4.722S447.626,1618.393,445.779,1620.252Z" transform="translate(-418.132 -1584.776)" fill="#9dc1e2"/>
          <path id="Caminho_6635" data-name="Caminho 6635" d="M456.845,1631.36c-.586.591-.868,1.262-.628,1.5s.909-.048,1.495-.638.867-1.261.63-1.5S457.433,1630.769,456.845,1631.36Z" transform="translate(-428.267 -1594.959)" fill="#0c1153"/>
        </g>
        <path id="Caminho_6636" data-name="Caminho 6636" d="M538.523,1796.838c-.07-.056-.138-.1-.208-.154.037-.012.074-.025.109-.039.958-.377,1.576-1.086,1.379-1.584s-1.132-.6-2.088-.228c-.082.031-.161.069-.236.1.005-.039.013-.077.018-.116.155-1.016-.151-1.9-.682-1.986s-1.086.678-1.24,1.7c-.014.087-.023.172-.03.257-.03-.025-.057-.051-.088-.074-.8-.642-1.728-.823-2.063-.4s.045,1.281.848,1.922q.1.082.208.153l-.109.039c-.954.374-1.573,1.084-1.379,1.584s1.133.6,2.089.228c.082-.032.161-.067.238-.105-.006.038-.015.078-.02.116-.155,1.017.152,1.905.683,1.985s1.086-.678,1.241-1.694c.013-.087.021-.173.028-.258.029.025.058.051.089.075.8.641,1.726.823,2.061.4S539.327,1797.479,538.523,1796.838Zm-2.292.693a1.007,1.007,0,1,1,1.148-.844A1.009,1.009,0,0,1,536.232,1797.531Z" transform="translate(-490.031 -1725.406)" fill="#fff"/>
      </g>
    </g>
    <g id="Engrenagem_2">
      <path id="Caminho_6637" data-name="Caminho 6637" d="M2609.044,480.895l-4.578-10.615-6.214,1.233a36.742,36.742,0,0,0-3.262-3.753l2.628-5.749-9.27-6.9-5.267,4.618a36.791,36.791,0,0,0-4.137-1.458l-.657-6.9-11.478-1.342-2.4,7.073a37.334,37.334,0,0,0-3.937.683l-4.244-5.965-10.61,4.577,1.478,7.441a36.98,36.98,0,0,0-3.054,2.465l-6.7-3.061-6.9,9.27,4.854,5.537a36.934,36.934,0,0,0-1.561,3.857l-7.033.67-1.342,11.478,6.489,2.2a37.073,37.073,0,0,0,.6,4.613l-5.293,3.767,4.576,10.613,6.047-1.2a36.609,36.609,0,0,0,3.2,4.209l-2.406,5.26,9.271,6.9,4.139-3.626a36.623,36.623,0,0,0,5.435,2.246l.487,5.121,11.479,1.341,1.619-4.765a37.212,37.212,0,0,0,6.2-.912l2.763,3.883,10.615-4.573-.951-4.782a36.654,36.654,0,0,0,4.916-4.032l4.3,1.968,6.9-9.269-3.362-3.834a36.7,36.7,0,0,0,2.075-5.752l5.026-.479,1.341-11.479-5.343-1.814a37.031,37.031,0,0,0-1.044-5.5Zm-27.583,22.39a15.848,15.848,0,1,1-3.247-22.174A15.847,15.847,0,0,1,2581.46,503.285Z" transform="translate(-1784.484 -1.097)" fill="#e1eefe"/>
      <path id="Caminho_6638" data-name="Caminho 6638" d="M2626.708,558.481a24.5,24.5,0,1,0,34.281-5.021A24.5,24.5,0,0,0,2626.708,558.481Zm35.227,26.224a19.417,19.417,0,1,1-3.981-27.166A19.412,19.412,0,0,1,2661.935,584.7Z" transform="translate(-1862.095 -80.385)" fill="#d1dbea"/>
    </g>
    <g id="engrenagem_1">
      <path id="Caminho_6639" data-name="Caminho 6639" d="M2593.37,1032.52l2.34-20.009-9.312-3.162a64.871,64.871,0,0,0-1.825-9.592l8-5.7-7.973-18.5-10.829,2.15a63.921,63.921,0,0,0-5.687-6.546l4.582-10.025L2556.509,949.1l-9.181,8.053a63.772,63.772,0,0,0-7.214-2.542l-1.142-12.027-20.012-2.337-4.188,12.327a65.093,65.093,0,0,0-6.868,1.193l-7.4-10.4-18.5,7.975,2.579,12.976a64.388,64.388,0,0,0-5.32,4.3l-11.672-5.338-12.032,16.163,8.461,9.651a63.785,63.785,0,0,0-2.723,6.726l-12.258,1.165L2446.7,1017l11.312,3.842a64.868,64.868,0,0,0,1.041,8.045l-9.226,6.565,7.979,18.5,10.539-2.092a64.027,64.027,0,0,0,5.589,7.338l-4.193,9.173L2485.9,1080.4l7.218-6.327a64.205,64.205,0,0,0,9.477,3.917l.848,8.93,20.013,2.339,2.82-8.309a64.869,64.869,0,0,0,10.813-1.589l4.82,6.774,18.5-7.981-1.655-8.327a63.912,63.912,0,0,0,8.576-7.033l7.492,3.425,12.036-16.16-5.854-6.678a64.192,64.192,0,0,0,3.618-10.031Zm-40.13,7.089a38.526,38.526,0,1,1-7.891-53.91A38.524,38.524,0,0,1,2553.24,1039.608Z" transform="translate(-1721.217 -395.373)" fill="#d8e5ed" style="mix-blend-mode: multiply;isolation: isolate"/>
    </g>
    <path id="Caminho_6640" data-name="Caminho 6640" d="M3005.495,1477.908s2.088-17.221,15.4-17.221c14.092,0,22.706-.6,30.267.522,6.532.97,15.4,6.784,13.048,22.962-3.391,23.356-13.569,63.668-13.569,63.668h-59.754l12.787-60.537Z" transform="translate(-2158.892 -813.817)" fill="#022030"/>
    <path id="Caminho_6641" data-name="Caminho 6641" d="M3003.943,1477.908s1.866-17.221,13.76-17.221c12.6,0,20.295-.6,27.054.522,5.837.97,13.76,6.784,11.662,22.962-3.03,23.356-12.127,63.668-12.127,63.668h-53.409l11.429-60.537Z" transform="translate(-2158.892 -813.817)" fill="#002740"/>
    <path id="Caminho_6643" data-name="Caminho 6643" d="M732.578,1473.952s-2.085-17.2-15.379-17.2c-14.079,0-22.683-.6-30.238.521-6.524.97-15.38,6.777-13.034,22.938,3.387,23.333,13.555,63.6,13.555,63.6h59.694L734.4,1483.335Z" transform="translate(-295.11 -810.649)" fill="#00c3ff"/>
    <path id="Caminho_6644" data-name="Caminho 6644" d="M766.265,1473.952s-1.863-17.2-13.745-17.2c-12.584,0-20.274-.6-27.027.521-5.831.97-13.746,6.777-11.649,22.938,3.027,23.333,12.115,63.6,12.115,63.6h53.354L767.9,1483.335Z" transform="translate(-327.246 -810.649)" fill="#37a4d6"/>
    <path id="Caminho_6645" data-name="Caminho 6645" d="M2787.531,1408.8a63.651,63.651,0,0,1,23.4,6.941c12.6,6.428,10.026,6.942,12.854,11.827s8.485,31.364,8.485,31.364l-22.624,1.8,9,38.821-62.988,3.085-1.029-38.307s-12.6-14.14-15.682-13.368-2.571-38.306,24.166-39.335S2787.531,1408.8,2787.531,1408.8Z" transform="translate(-1955.227 -772.214)" fill="#f03e30"/>
    <path id="Caminho_6647" data-name="Caminho 6647" d="M2659.214,1602.962s-13.24,38.178-31.237,45.12,10.283-56.432,15.94-59.517S2659.214,1602.962,2659.214,1602.962Z" transform="translate(-1862.259 -916.502)" fill="#e9ab86"/>
    <path id="Caminho_6648" data-name="Caminho 6648" d="M3104.471,1664.993s3.021,22.046,7.134,32.587,5.253,15.481,10.6,10.8c4.628-4.049,7.391-14.911,7.391-18.767s-3.92-25-3.92-25Z" transform="translate(-2250.249 -977.955)" fill="#e9ab86"/>
    <g id="man_arm">
      <path id="Caminho_6649" data-name="Caminho 6649" d="M2791.493,1786.835s-54.246,13.883-59.645,13.112-17.482-5.4-17.482-5.4-9.256,7.97-10.8,9.512,3.086,4.628,6.685,5.4,80.727,0,80.727,0,14.911,0,8.741-12.083S2791.493,1786.835,2791.493,1786.835Z" transform="translate(-1927.567 -1076.209)" fill="#e9ab86"/>
    </g>
    <path id="Caminho_6650" data-name="Caminho 6650" d="M2808.5,1199.746s-.257-9.255-1.029-13.112-4.37-5.657-9.769-7.455-4.628-1.286-3.342-2.314-3.343-2.057-9,.257-14.655,8.227-8.227,17.739S2807.726,1209.773,2808.5,1199.746Z" transform="translate(-1985.191 -584.759)" fill="#163f59"/>
    <g id="phone_arm">
      <path id="Caminho_6642" data-name="Caminho 6642" d="M2746.857,1344.178l1.543-9,6.363-2.572a4.534,4.534,0,0,1-1.479,3.343l-1.542,1.285-1.543,5.4Z" transform="translate(-1962.628 -710.937)" fill="#e9ab86"/>
      <g id="Grupo_5169" data-name="Grupo 5169">
        <path id="Caminho_6646" data-name="Caminho 6646" d="M2739.96,1343.05l8.9,9.665,12.966-23.332-11.388-6.328Z" transform="translate(-1957.082 -703.253)" fill="#163f59"/>
        <path id="Caminho_6652" data-name="Caminho 6652" d="M2643.147,1373.676c0,2.571-24.6,82.4-32.908,94.481-4.242,6.171-10.669-6.684-11.183-15.425s27.894-63.373,27.894-63.373l-3.343-11.312s-2.056-.257,2.572-6.428,5.913-6.17,5.913-6.17l3.856,1.8,2.314,4.113s-2.88,6.67-4.628,6.17c-1.8-.514.771-2.313-1.285-2.828a4.346,4.346,0,0,0-3.6.771l4.885,8.742s2.314,2.056,4.114-1.286S2643.147,1371.619,2643.147,1373.676Z" transform="translate(-1843.751 -737.349)" fill="#f0bf97"/>
        <path id="Caminho_6653" data-name="Caminho 6653" d="M2741.948,1384.93c-1.8-.514.771-2.313-1.285-2.828a4.346,4.346,0,0,0-3.6.771l4.885,8.742s2.314,2.056,4.114-1.286,4.5-10.541,4.5-8.484c0,1.093-3.559,15.392-9.376,33.25-.053-5.438.173-12.312,1.021-15,1.542-4.885-.772-3.857-2.572-5.4s-5.913-11.313-5.913-11.313l3.857-3.342a16.406,16.406,0,0,0,3.6-.515c2.056-.514,3.085-4.884,3.085-4.884l2.313,4.113S2743.7,1385.43,2741.948,1384.93Z" transform="translate(-1952.064 -744.747)" fill="#e9ab86"/>
      </g>
    </g>
    <path id="Caminho_6651" data-name="Caminho 6651" d="M2820.741,1255.046a10.5,10.5,0,0,1-7.07-3.471c-2.828-3.342-4.884-7.456-4.113-10.283s2.313-12.34-1.286-10.284-2.571,1.8-3.342,3.6-1.029.515-1.8-1.542-3.342-5.655-5.4-6.171-2.056-7.455-.771-9-5.657,1.542-10.541,2.313-6.941.513-9,4.885-1.8,9-.514,13.625,6.941,14.654,7.713,16.968.257,2.828,4.37,2.828,2.314.257,2.057,3.342-1.286,14.4,8.741,14.912S2818.685,1273.556,2820.741,1255.046Z" transform="translate(-1985.995 -618.333)" fill="#f0bf97"/>
    <g id="Grupo_3232" data-name="Grupo 3232" transform="translate(689.752 677.161)">
      <path id="Caminho_6654" data-name="Caminho 6654" d="M2265.855,1616.117h54.367a3.843,3.843,0,0,1,3.314,2.43l18.351,50.419h-59.227l-18.352-50.419A1.645,1.645,0,0,1,2265.855,1616.117Z" transform="translate(-2264.153 -1616.117)" fill="#b5d1de"/>
      <path id="Caminho_6655" data-name="Caminho 6655" d="M2463.271,1884.606v1.493a2.389,2.389,0,0,1-2.389,2.389H2358.768a2.389,2.389,0,0,1-2.388-2.389v-1.493Z" transform="translate(-2338.329 -1832.056)" fill="#a1b9c5"/>
      <path id="Caminho_6656" data-name="Caminho 6656" d="M2661.481,1886.1v-1.493h47.176v1.493a2.389,2.389,0,0,1-2.389,2.389h-42.4A2.389,2.389,0,0,1,2661.481,1886.1Z" transform="translate(-2583.714 -1832.056)" fill="#8da2ac"/>
      <path id="Caminho_6657" data-name="Caminho 6657" d="M2434.451,1749.682c1.061,2.414.393,5.045-1.494,5.874s-4.278-.456-5.34-2.872-.392-5.046,1.5-5.875S2433.389,1747.266,2434.451,1749.682Z" transform="translate(-2395.218 -1721.027)" fill="#a1b9c5"/>
    </g>
    <path id="Caminho_6658" data-name="Caminho 6658" d="M2856.49,1357.569s-2.572,6.684-4.628,8.741-10.285,4.113-13.112,4.884.772-.771,7.456,1.286,15.425,6.426,15.425,3.341-.128-8.74-1.157-10.8S2856.49,1357.569,2856.49,1357.569Z" transform="translate(-2035.755 -731.012)" fill="#e9ab86"/>
    <g id="Grupo_3235" data-name="Grupo 3235" transform="translate(404.892 588.97)">
      <g id="woman_arm">
        <g id="Grupo_3233" data-name="Grupo 3233" transform="translate(54.904 120.703)">
          <path id="Caminho_6659" data-name="Caminho 6659" d="M1089.935,1785.412s-5.711,4.062,15.879,6.275c21.6,2.228,53.8.626,53.8.626l-49.382-9.354S1096.614,1780.2,1089.935,1785.412Z" transform="translate(-1089.251 -1782.228)" fill="#e9d6b8"/>
          <path id="Caminho_6660" data-name="Caminho 6660" d="M1347.034,1823.2c10.24,1.342,13.994,6.582,17.846,8.555a73.449,73.449,0,0,1,7.61,4.681c-1.727-4.271-5.025-4.828-6.5-6.327s-1.132-.8,2.548-.578c2.088.129,5.274,3.932,7.646,6.108a8.791,8.791,0,0,0,3.461,2.207,42.666,42.666,0,0,0-5.2-6.845,53.076,53.076,0,0,0-9.43-7.773c-2.079-1.064-8.893-2.175-13.853-2.22C1345.564,1820.948,1339.66,1822.236,1347.034,1823.2Z" transform="translate(-1293.804 -1813.415)" fill="#e9d6b8"/>
          <path id="Caminho_6661" data-name="Caminho 6661" d="M1450.166,1832.961s7.586,2.83,8.836,3.958c.86.771,4.339,5.122,4.339,5.122a10.813,10.813,0,0,1-4.361-2.487C1457.481,1837.893,1450.166,1832.961,1450.166,1832.961Z" transform="translate(-1379.526 -1823.032)" fill="#e9d6b8"/>
        </g>
        <path id="Caminho_6662" data-name="Caminho 6662" d="M1110.784,1779.1s-5.588,8.781-6.652,11.442-23.416-2.129-23.416-2.129-22.738-10.674-7.451-13.837C1080.983,1772.976,1110.784,1779.1,1110.784,1779.1Z" transform="translate(-1017.24 -1655.154)" fill="#1250b3"/>
      </g>
      <path id="Caminho_6663" data-name="Caminho 6663" d="M1064.533,1352.071a21.325,21.325,0,1,1-10.021-28.1A21.1,21.1,0,0,1,1064.533,1352.071Z" transform="translate(-981.966 -1291.188)" fill="#194866"/>
      <path id="Caminho_6664" data-name="Caminho 6664" d="M859.757,1332.621c-6.378,13.08-22.38,18.411-35.746,11.9s-19.04-22.4-12.654-35.492,22.377-18.419,35.747-11.9S866.133,1319.524,859.757,1332.621Z" transform="translate(-808.734 -1269.134)" fill="#194866"/>
      <path id="Caminho_6665" data-name="Caminho 6665" d="M938.879,1264.687a21.327,21.327,0,1,1-10.027-28.106A21.107,21.107,0,0,1,938.879,1264.687Z" transform="translate(-880.905 -1220.906)" fill="#194866"/>
      <g id="woman_head">
        <path id="Caminho_6666" data-name="Caminho 6666" d="M1089.946,1202.594a16.038,16.038,0,0,1-21.44,7.4l-.272-8.607a16.033,16.033,0,0,1-7.38-21.435l2.633-5.407a16.031,16.031,0,0,1,21.435-7.4l3.6,1.752a16.046,16.046,0,0,1,7.393,21.447Z" transform="translate(-1010.201 -1165.526)" fill="#194866"/>
        <path id="Caminho_6667" data-name="Caminho 6667" d="M1057.448,1228.232a31.9,31.9,0,0,1-2.325,3.894c-5.968,8.545-15.017,12.827-21.586,10.7a48.8,48.8,0,0,1-7.484,10.177c-2.927,3.085-9.08,4.865-9.08,4.865-4.189,5.952-1.82,23.1,13.165,24.865,9.012,1.057,7.169-8.434,4.021-14.354-1.47-2.782-2.483-5.83.988-10.844,3.471-4.242,6.17-1.543,6.17-1.543,4.242,2.7,5.512-.558,6.942-2.121a11.419,11.419,0,0,0,1.922-2.787l7.309-12.827A11.345,11.345,0,0,0,1057.448,1228.232Z" transform="translate(-974.732 -1215.959)" fill="#e9d6b8"/>
      </g>
      <path id="Caminho_6668" data-name="Caminho 6668" d="M1039.248,1538.364s13.3.8,15.964.533c2.7-.269,2.4-2.128,2.4-2.128s1.457-30.356,3.253-43.155,3.691-16.967,3.665-20.971c-.04-6.394-.737-7.807-1.862-12.772s-7.451-16.057-7.451-14.369c0,2.927-1.924,5.418-8.248-1.6C1045.868,1442.7,1039.248,1538.364,1039.248,1538.364Z" transform="translate(-994.131 -1389.411)" fill="#1250b3"/>
      <path id="Caminho_6669" data-name="Caminho 6669" d="M1101.313,1409.963s9.91,3.143,9.313,10.91c-.265,3.459,5.056,18.626,4.524,28.205-.774,13.925,1.871,18.412,1.524,28.469s1.981,12.311,1.134,24.668c-.66,9.671-2.392,9.126-2.392,9.126a71.888,71.888,0,0,0-8.781.533c-4.853.571-.832-31.052.385-39.34s6.09-30.012,5.8-35.781-5.7-14.069-6.716-15.879C1103.552,1416.347,1100.577,1410.435,1101.313,1409.963Z" transform="translate(-1043.957 -1362.121)" fill="#1250b3"/>
      <path id="Caminho_6670" data-name="Caminho 6670" d="M903.11,1485.6s3.62-32.745,5.682-48.245-3.457-45.323-2.986-49.051a6.679,6.679,0,0,1,2.926-5.056s-8.227-7.515-13.038-6.385a114.377,114.377,0,0,0-15.743,5.493c-4.573,1.86-2.177,54.063-2.589,56.819-1.477,9.908-6.35,21.27-9.506,29.12a113.217,113.217,0,0,0-4.449,15.555S888.51,1484.628,903.11,1485.6Z" transform="translate(-852.706 -1335.408)" fill="#1250b3"/>
      <path id="Caminho_6672" data-name="Caminho 6672" d="M1112.558,1434.82c-1.145-5.543-5.546-12.331-6.454-13.947-2.552-4.525-5.527-10.438-4.79-10.91,0,0,9.91,3.143,9.313,10.91-.265,3.459,5.056,18.626,4.524,28.205-.766,13.774,1.813,18.318,1.532,28.148-1.84-5.193-3.4-10.421-3.4-13.248C1113.287,1457.13,1114.849,1438.3,1112.558,1434.82Z" transform="translate(-1043.957 -1362.121)" fill="#1250b3"/>
      <g id="coffe_arm">
        <path id="Caminho_6673" data-name="Caminho 6673" d="M1225.926,1670.908h15.965l2.128-28.472H1223.8Z" transform="matrix(1, -0.017, 0.017, 1, -1170.941, -1527.791)" fill="#acd4f8"/>
        <path id="Caminho_6674" data-name="Caminho 6674" d="M1222.779,1628.722H1243.4l-1.065-2.262h-18.493Z" transform="matrix(1, -0.017, 0.017, 1, -1169.898, -1514.959)" fill="#acd4f8"/>
        <path id="Caminho_6675" data-name="Caminho 6675" d="M1087.629,1671.114l20.488-5.055,5.854-5.855.266,2.4s17.3-2.927,20.222-3.459a20.621,20.621,0,0,1,6.12,0s2.4,1.063-.266,1.6l-5.322,1.063s-1.065,4.523-1.863,5.588,2.129-.533,2.129-.533-.266,2.4-1.862,3.194a22.486,22.486,0,0,1-9.047,2.129c-3.725,0-6.652.532-7.45,1.6s-4.257.8-5.588,1.064-24.48,8.249-24.48,8.249Z" transform="matrix(1, -0.017, 0.017, 1, -1061.03, -1542.957)" fill="#e9d6b8"/>
        <rect id="Retângulo_431" data-name="Retângulo 431" width="23.149" height="2.128" transform="matrix(1, -0.017, 0.017, 1, 79.848, 91.731)" fill="#9dc1e2"/>
        <path id="Caminho_34222" data-name="Caminho 34222" d="M919.617,1467.5l7.024-47.57s-1.739-9.8-4.784-13.15c-3.6-3.978-10.478-2.8-10.478-2.8s-8.036,6.592-8.611,44.249c-.388,25.777-2.754,36.371,8.351,37.493,10.365,1.048,31.018-4.069,31.018-4.069l.532-17.562Z" transform="matrix(1, -0.017, 0.017, 1, -909.052, -1340.415)" fill="#164b99" stroke="#164b99" stroke-width="1"/>
      </g>
    </g>
    <g id="Grupo_3236" data-name="Grupo 3236" transform="translate(486.531 676.39)">
      <path id="Caminho_6677" data-name="Caminho 6677" d="M1522.451,1612.177h-33.743a3.84,3.84,0,0,0-3.314,2.429l-18.351,50.42h38.6l18.351-50.42A1.644,1.644,0,0,0,1522.451,1612.177Z" transform="translate(-1419.835 -1612.177)" fill="#b5d1de"/>
      <path id="Caminho_6678" data-name="Caminho 6678" d="M1225.847,1880.667v1.492a2.388,2.388,0,0,0,2.388,2.388h81.49a2.388,2.388,0,0,0,2.388-2.388v-1.492Z" transform="translate(-1225.847 -1828.117)" fill="#a1b9c5"/>
      <path id="Caminho_6679" data-name="Caminho 6679" d="M1273.022,1882.159v-1.492h-47.175v1.492a2.388,2.388,0,0,0,2.388,2.388h42.4A2.389,2.389,0,0,0,1273.022,1882.159Z" transform="translate(-1225.847 -1828.117)" fill="#8da2ac"/>
    </g>
    <path id="Caminho_6680" data-name="Caminho 6680" d="M941.916,1902.8c-26.96,20.839-75.78,38.487-165.347,45.879-180.889,14.936-348.72-22.7-463.553-45.879Z" transform="translate(-5.148 -1169.527)" fill="#d8e5ed"/>
    <g id="Grupo_3237" data-name="Grupo 3237" transform="translate(598.33 715.291)">
      <path id="Retângulo_432" data-name="Retângulo 432" d="M15.1,0H28.246a15.1,15.1,0,0,1,15.1,15.1v1.327a15.1,15.1,0,0,1-15.1,15.1H15.1A15.1,15.1,0,0,1,0,16.427V15.1A15.1,15.1,0,0,1,15.1,0Z" transform="translate(0)" fill="#ffbf0d"/>
      <path id="Retângulo_433" data-name="Retângulo 433" d="M15.1,0H28.246a15.1,15.1,0,0,1,15.1,15.1v1.327a15.1,15.1,0,0,1-15.1,15.1H15.1A15.1,15.1,0,0,1,0,16.427V15.1A15.1,15.1,0,0,1,15.1,0Z" transform="translate(0)" fill="#acd4f8"/>
      <path id="Caminho_6681" data-name="Caminho 6681" d="M1837.447,1810.932h-37.436a2.955,2.955,0,0,0-2.955,2.955v1.549l34.391,27.021h6a2.955,2.955,0,0,0,2.955-2.955v-25.615A2.955,2.955,0,0,0,1837.447,1810.932Z" transform="translate(-1797.055 -1810.932)" fill="#9dc1e2"/>
      <path id="Caminho_6682" data-name="Caminho 6682" d="M1818.728,1830.636l21.674-15.077v-1.671a2.955,2.955,0,0,0-2.955-2.955h-37.436a2.955,2.955,0,0,0-2.955,2.955v1.671Z" transform="translate(-1797.055 -1810.932)" fill="#bfe1ff"/>
    </g>
    <g id="Grupo_3238" data-name="Grupo 3238" transform="translate(574.73 665.068)">
      <path id="Caminho_6683" data-name="Caminho 6683" d="M1679.383,1585.3a2.9,2.9,0,0,1-2.9-2.9v-25.162a2.9,2.9,0,0,1,2.9-2.9h36.774a2.9,2.9,0,0,1,2.9,2.9v25.162a2.9,2.9,0,0,1-2.9,2.9Z" transform="translate(-1676.479 -1554.331)" fill="#ffbf0d"/>
      <path id="Caminho_6684" data-name="Caminho 6684" d="M1679.383,1585.3a2.9,2.9,0,0,1-2.9-2.9v-25.162a2.9,2.9,0,0,1,2.9-2.9h36.774a2.9,2.9,0,0,1,2.9,2.9v25.162a2.9,2.9,0,0,1-2.9,2.9Z" transform="translate(-1676.479 -1554.331)" fill="#ffbf0d"/>
      <path id="Caminho_6685" data-name="Caminho 6685" d="M1716.157,1554.331h-36.774a2.9,2.9,0,0,0-2.9,2.9v1.522l33.784,26.543h5.894a2.9,2.9,0,0,0,2.9-2.9v-25.162A2.9,2.9,0,0,0,1716.157,1554.331Z" transform="translate(-1676.479 -1554.331)" fill="#f3aa06"/>
      <path id="Caminho_6686" data-name="Caminho 6686" d="M1697.769,1573.685l21.29-14.81v-1.642a2.9,2.9,0,0,0-2.9-2.9h-36.774a2.9,2.9,0,0,0-2.9,2.9v1.642Z" transform="translate(-1676.479 -1554.331)" fill="#fece40"/>
    </g>
    <g id="Grupo_3239" data-name="Grupo 3239" transform="translate(516.687 637.15)">
      <path id="Retângulo_434" data-name="Retângulo 434" d="M8.423,0h7.335a8.42,8.42,0,0,1,8.42,8.42v.741a8.422,8.422,0,0,1-8.422,8.422H8.42A8.42,8.42,0,0,1,0,9.163v-.74A8.423,8.423,0,0,1,8.423,0Z" transform="translate(0)" fill="#ffbf0d"/>
      <path id="Retângulo_435" data-name="Retângulo 435" d="M8.423,0h7.335a8.42,8.42,0,0,1,8.42,8.42v.741a8.422,8.422,0,0,1-8.422,8.422H8.42A8.42,8.42,0,0,1,0,9.163v-.74A8.423,8.423,0,0,1,8.423,0Z" transform="translate(0)" fill="#ffbf0d"/>
      <path id="Caminho_6687" data-name="Caminho 6687" d="M1402.45,1411.69h-20.881a1.648,1.648,0,0,0-1.649,1.648v.864l19.184,15.071h3.346a1.648,1.648,0,0,0,1.649-1.648v-14.287A1.647,1.647,0,0,0,1402.45,1411.69Z" transform="translate(-1379.92 -1411.69)" fill="#f3aa06"/>
      <path id="Caminho_6688" data-name="Caminho 6688" d="M1392.009,1422.68l12.089-8.41v-.932a1.647,1.647,0,0,0-1.649-1.648h-20.881a1.648,1.648,0,0,0-1.649,1.648v.932Z" transform="translate(-1379.92 -1411.69)" fill="#fece40"/>
    </g>
    <g id="Grupo_3240" data-name="Grupo 3240" transform="translate(543.199 425.384)">
      <path id="Caminho_6689" data-name="Caminho 6689" d="M1784.151,556.934a80.653,80.653,0,0,1-5.1,29.19q-5.1,13.238-14.4,20.771a33.323,33.323,0,0,1-21.6,7.533,26.867,26.867,0,0,1-14.512-3.932,22.546,22.546,0,0,1-9.084-10.358h-1.772q-11.964,14.29-30.464,14.29-19.608,0-30.907-11.8t-11.3-32.291q0-23.373,14.844-37.665t38.772-14.29a134.216,134.216,0,0,1,20.992,1.828,115.618,115.618,0,0,1,18.888,4.376l-2.548,54.17q0,15.4,8.419,15.4,7.089,0,11.3-10.358t4.21-27.085q0-17.834-7.422-31.516a50.381,50.381,0,0,0-20.882-20.881q-13.459-7.2-30.741-7.2-22.378,0-38.883,9.195a61.477,61.477,0,0,0-25.312,26.531q-8.807,17.338-8.807,40.046,0,30.574,16.34,46.914t47.358,16.34a142.658,142.658,0,0,0,25.811-2.6,170.993,170.993,0,0,0,27.695-7.588v21.269q-23.708,10.079-52.62,10.081-42.1,0-65.636-22.155t-23.54-61.592q0-27.361,12.019-49.684a87.221,87.221,0,0,1,34.231-35.007q22.209-12.683,51.124-12.684,24.37,0,43.535,9.97a70.72,70.72,0,0,1,29.578,28.359Q1784.15,532.9,1784.151,556.934Zm-113.436,13.847q0,23.375,19.054,23.374,9.97,0,15.177-7.035t6.314-22.876l1.44-24.482a60.658,60.658,0,0,0-12.739-1.219q-13.849,0-21.546,8.641T1670.715,570.781Z" transform="translate(-1603.251 -476.177)" fill="#37a4d6"/>
    </g>
    <g id="Grupo_3241" data-name="Grupo 3241" transform="translate(600.161 659.557)">
      <path id="Caminho_6690" data-name="Caminho 6690" d="M1826.647,1587.406l-4.4-3.013-4.4,3.013v-9.31h8.793Z" transform="translate(-1815.615 -1567.933)" fill="#f03e30"/>
      <path id="Caminho_6691" data-name="Caminho 6691" d="M1819.684,1532.806a6.635,6.635,0,1,1-6.635-6.636A6.636,6.636,0,0,1,1819.684,1532.806Z" transform="translate(-1806.413 -1526.17)" fill="#f03e30"/>
      <path id="Caminho_6692" data-name="Caminho 6692" d="M1823.623,1539.842l1.263,1.543,1.994.025-.42,1.95,1.223,1.574-1.786.889-.468,1.938-1.807-.843-1.807.843-.469-1.938-1.786-.889,1.224-1.574-.419-1.95,1.994-.025Z" transform="translate(-1816.988 -1537.166)" fill="#fff"/>
    </g>
    <g id="Grupo_3242" data-name="Grupo 3242" transform="translate(546.003 640.351)">
      <path id="Caminho_6693" data-name="Caminho 6693" d="M1535.917,1428.042a1.864,1.864,0,0,0-1.863,1.864v1.242h-4.349l4.349,4.348v11.182a1.864,1.864,0,0,0,1.863,1.864h18.015a1.864,1.864,0,0,0,1.864-1.864v-16.772a1.864,1.864,0,0,0-1.864-1.864Z" transform="translate(-1529.705 -1428.042)" fill="#1250b3"/>
    </g>
    <g id="Grupo_3244" data-name="Grupo 3244" transform="translate(640.126 728.158)">
      <g id="Grupo_3243" data-name="Grupo 3243" transform="translate(0 0)">
        <path id="Caminho_6694" data-name="Caminho 6694" d="M2016.718,1889.317l-6.114-6.274,6.114-6.373H2030.8v12.647Zm-.2-7.612a1.289,1.289,0,1,0,1.257,1.289A1.272,1.272,0,0,0,2016.513,1881.7Z" transform="translate(-2010.604 -1876.67)" fill="#fdbf14"/>
        <path id="Caminho_6695" data-name="Caminho 6695" d="M2064.147,1892.078l-1.011,2.1-2.26.336,1.635,1.636-.385,2.309,2.021-1.091,2.021,1.092-.385-2.31,1.635-1.636-2.26-.336Z" transform="translate(-2051.037 -1889.062)" fill="#fff"/>
      </g>
    </g>
    <g id="engrenagem_3">
      <path id="Caminho_6696" data-name="Caminho 6696" d="M3030.293,695.66l-.105-5-4.45-.277a13.591,13.591,0,0,0-1.846-4.5l2.891-3.567-3.605-3.46-3.341,2.95a13.511,13.511,0,0,0-4.489-1.874l-.478-4.571-5,.105-.275,4.45a13.549,13.549,0,0,0-4.5,1.846l-3.569-2.892-3.458,3.607,2.951,3.342a13.516,13.516,0,0,0-1.874,4.488l-4.57.48.106,4.995,4.448.279a13.485,13.485,0,0,0,1.848,4.5l-2.894,3.569,3.608,3.46,3.34-2.951a13.474,13.474,0,0,0,4.492,1.873l.475,4.571,5-.1.277-4.449a13.576,13.576,0,0,0,4.5-1.849l3.569,2.893,3.461-3.607-2.953-3.343a13.633,13.633,0,0,0,1.877-4.489Zm-17.722,4.164a6.6,6.6,0,1,1,6.46-6.739A6.6,6.6,0,0,1,3012.571,699.824Z" transform="translate(-2161.86 -182.33)" fill="#e9f6ff"/>
    </g>
    <g id="Grupo_3245" data-name="Grupo 3245" transform="translate(567.307 613.582)">
      <path id="Retângulo_436" data-name="Retângulo 436" d="M9.59,0h8.349a9.59,9.59,0,0,1,9.59,9.59v.843a9.589,9.589,0,0,1-9.589,9.589H9.592A9.592,9.592,0,0,1,0,10.43V9.59A9.59,9.59,0,0,1,9.59,0Z" transform="translate(0 0)" fill="#ffbf0d"/>
      <path id="Retângulo_437" data-name="Retângulo 437" d="M9.59,0h8.349a9.59,9.59,0,0,1,9.59,9.59v.843a9.589,9.589,0,0,1-9.589,9.589H9.592A9.592,9.592,0,0,1,0,10.43V9.59A9.59,9.59,0,0,1,9.59,0Z" transform="translate(0 0)" fill="#acd4f8"/>
      <path id="Caminho_6697" data-name="Caminho 6697" d="M1664.2,1291.273h-23.776a1.877,1.877,0,0,0-1.877,1.877v.984l21.842,17.161h3.811a1.877,1.877,0,0,0,1.877-1.877V1293.15A1.877,1.877,0,0,0,1664.2,1291.273Z" transform="translate(-1638.551 -1291.273)" fill="#9dc1e2"/>
      <path id="Caminho_6698" data-name="Caminho 6698" d="M1652.316,1303.787l13.765-9.575v-1.061a1.877,1.877,0,0,0-1.877-1.877h-23.776a1.877,1.877,0,0,0-1.877,1.877v1.061Z" transform="translate(-1638.551 -1291.273)" fill="#bfe1ff"/>
    </g>
    <g id="Grupo_3246" data-name="Grupo 3246" transform="translate(554.499 644.922)">
      <path id="Caminho_6699" data-name="Caminho 6699" d="M1573.113,1452.826c.04,0,.08-.006.119-.006h3.958l-.428-1.068,1.029-.351c.01.021.021.039.028.058.156.434.313.867.465,1.3.02.057.052.058.1.058h3.246v.94c-.034,0-.067,0-.1,0-.388,0-.776,0-1.164,0-.078,0-.11.02-.129.1a7.986,7.986,0,0,1-1.422,3.056c-.168.224-.353.436-.536.661a9.532,9.532,0,0,0,2.055,1l-.372.952c-.291-.118-.577-.227-.858-.349a10.348,10.348,0,0,1-1.594-.87.113.113,0,0,0-.146,0,16.661,16.661,0,0,1-3.532,1.705c-.083.029-.113.007-.156-.062-.182-.3-.373-.586-.561-.878v-.019a.582.582,0,0,0,.072-.009,12.155,12.155,0,0,0,3.414-1.434c.019-.012.037-.027.058-.043l-.086-.094a7.962,7.962,0,0,1-1.909-3.615c-.01-.042,0-.1-.081-.1-.489,0-.979,0-1.469.006Zm2.578.942a6.491,6.491,0,0,0,1.746,3.155,5.785,5.785,0,0,0,1.738-3.155Z" transform="translate(-1573.113 -1451.401)" fill="#f2f5f7"/>
      <path id="Caminho_6700" data-name="Caminho 6700" d="M1609,1467.741c.434,0,.859,0,1.284,0,.059,0,.07.033.087.074q.3.767.609,1.535l2.556,6.439c.012.031.023.063.034.093-.008.007-.012.013-.016.013-.354,0-.708.009-1.062,0a.433.433,0,0,1-.391-.331c-.119-.32-.233-.641-.35-.963-.092-.254-.186-.508-.275-.764a.087.087,0,0,0-.1-.068q-1.7,0-3.4,0c-.068,0-.089.029-.11.083-.219.561-.438,1.123-.665,1.682a.816.816,0,0,1-.176.253.3.3,0,0,1-.187.088c-.35.009-.7,0-1.066,0Zm2.067,5.1c-.455-1.288-.99-2.529-1.392-3.811-.389,1.293-.935,2.533-1.382,3.811Z" transform="translate(-1599.379 -1464.542)" fill="#f2f5f7"/>
    </g>
  </g>
</svg>
