<svg id="logo_happ" xmlns="http://www.w3.org/2000/svg" width="280.005" height="147.63" viewBox="0 0 280.005 147.63">
  <path id="Caminho_1" data-name="Caminho 1" d="M31.3,31.073A31.784,31.784,0,0,0,7.777,41.442V4.173h0a4.173,4.173,0,0,0-8.347,0V62.947h0v27.7h0a4.173,4.173,0,0,0,8.347,0h0V62.937a23.52,23.52,0,0,1,47.04.014h0v27.7h0a4.173,4.173,0,0,0,8.347,0h0V62.9h0A31.863,31.863,0,0,0,31.3,31.073Z" transform="translate(0.57)" fill="#fff" fill-rule="evenodd"/>
  <g id="Grupo_1" data-name="Grupo 1" transform="translate(144.176 31.073)">
    <path id="Caminho_2" data-name="Caminho 2" d="M439.977,88.08a31.784,31.784,0,0,0-23.52,10.368v-6.2h0a4.173,4.173,0,0,0-8.347,0h0v63.745a4.173,4.173,0,0,0,8.347,0h0V141.456a31.87,31.87,0,1,0,23.52-53.376Zm0,55.391a23.52,23.52,0,1,1,23.52-23.52A23.521,23.521,0,0,1,439.977,143.471Z" transform="translate(-408.11 -88.08)" fill="#fff"/>
  </g>
  <g id="Grupo_2" data-name="Grupo 2" transform="translate(216.268 31.073)">
    <path id="Caminho_3" data-name="Caminho 3" d="M644.327,88.08a31.784,31.784,0,0,0-23.52,10.368v-6.2h0a4.173,4.173,0,0,0-8.347,0h0v63.745a4.173,4.173,0,0,0,8.347,0h0V141.456a31.87,31.87,0,1,0,23.52-53.376Zm0,55.391a23.52,23.52,0,1,1,23.52-23.52A23.52,23.52,0,0,1,644.327,143.471Z" transform="translate(-612.46 -88.08)" fill="#fff"/>
  </g>
  <g id="Grupo_3" data-name="Grupo 3" transform="translate(72.088 31.073)">
    <path id="Caminho_4" data-name="Caminho 4" d="M267.508,92.257h0a4.173,4.173,0,1,0-8.347,0v6.195a31.871,31.871,0,1,0,0,43v6.2h0a4.173,4.173,0,0,0,8.347,0h0v-55.4Zm-31.871,51.214a23.52,23.52,0,1,1,23.52-23.52A23.521,23.521,0,0,1,235.637,143.471Z" transform="translate(-203.77 -88.08)" fill="#fff"/>
  </g>
  <g id="Grupo_4" data-name="Grupo 4" transform="translate(177.221 127.038)">
    <path id="Caminho_5" data-name="Caminho 5" d="M571.536,364.273a4.17,4.17,0,0,0-7.042-3.027l0,0a40.152,40.152,0,0,1-27.831,11.1h0a40.175,40.175,0,0,1-27.831-11.1l0,0a4.17,4.17,0,0,0-5.747,6.043l0,0a48.791,48.791,0,0,0,67.17,0l0,0A4.15,4.15,0,0,0,571.536,364.273Z" transform="translate(-501.78 -360.1)" fill="#fff" fill-rule="evenodd"/>
  </g>
</svg>
