<svg xmlns="http://www.w3.org/2000/svg" width="149.774" height="26.986" viewBox="0 0 149.774 26.986"><path d="M450.27,409.54h.412c-.139,0-.275,0-.412-.009Zm36.444-9.042a5.211,5.211,0,1,1,5.208,5.086A5.148,5.148,0,0,1,486.714,400.5Zm-36.032,9.042h3.557v-9.3h-.051a5.361,5.361,0,0,1,10.652-.371c-.008.123-.019,9.671-.019,9.671h3.968s-.009-9.548-.018-9.671a5.36,5.36,0,0,1,10.65.371h-.05v9.3h3.968V403.9a9.349,9.349,0,0,0,17.166,0v5.643h3.968v-9.3h-.051a5.356,5.356,0,0,1,10.684,0h-.051v9.3h3.97v-6.06a9.25,9.25,0,0,0,8.744,6.06,9.454,9.454,0,0,0,3.113-.524,11.733,11.733,0,0,0,2.449,1.778l-.005.008a9.662,9.662,0,0,0,12.646-3.012l9.8-16.334h-4.716l-5.714,9.64-5.647-9.64h-4.705L543.009,405l-.526.877.045.024a5.385,5.385,0,0,1-4.021,2.324l.061-.061a5.874,5.874,0,0,1-4.462-1.478l-2.275-2.221c-.167-.2-.263-.327-.274-.339s-.044.05-.1.159a5.416,5.416,0,0,1-8.6-1.718h13.9A8.931,8.931,0,0,0,537,400.5h.028a9.286,9.286,0,0,0-18.259-2.133,9.326,9.326,0,0,0-17.927-.3,9.325,9.325,0,0,0-17.839,0,9.237,9.237,0,0,0-8.923-6.6A9.331,9.331,0,0,0,466.8,394.9a9.333,9.333,0,0,0-7.276-3.445,9.162,9.162,0,0,0-9.259,8.783v5.466a5.285,5.285,0,0,1-4.93-4.949h.05V385h-3.968v12.1a9.342,9.342,0,0,0-17.372.545,9.245,9.245,0,0,0-8.789-6.188,9.372,9.372,0,0,0-5.291,1.621V385H406v24.54h3.968V407.92a9.372,9.372,0,0,0,5.291,1.621,9.247,9.247,0,0,0,8.789-6.188,9.248,9.248,0,0,0,8.79,6.188,9.349,9.349,0,0,0,6.548-2.647l-2.766-2.7a5.416,5.416,0,0,1-8.7-1.626h13.736a9.214,9.214,0,0,0,8.609,6.965C450.406,409.537,450.542,409.54,450.681,409.54Zm-40.713-8.274v-1.534a5.224,5.224,0,1,1,0,1.534Zm27.888-2.576H427.82a5.4,5.4,0,0,1,10.036,0Zm94.931,0H522.751a5.4,5.4,0,0,1,10.036,0Z" transform="translate(-406 -385)" fill="#00c3ff" fill-rule="evenodd"/></svg>