<svg xmlns="http://www.w3.org/2000/svg" width="477.965" height="394.497" viewBox="0 0 477.965 394.497">
  <g id="maleta_guys" transform="translate(5134.736 4332.997)">
    <g id="balao">
      <path id="Caminho_7232" data-name="Caminho 7232" d="M925.069,268.044a5.356,5.356,0,0,1-5.356,5.355h-3.571v12.5l-12.5-12.5H862.575a5.356,5.356,0,0,1-5.357-5.355V223.4a5.357,5.357,0,0,1,5.357-5.357h57.138a5.358,5.358,0,0,1,5.356,5.357Z" transform="translate(-5653.008 -4551.044)" fill="#00c3ff"/>
      <rect id="Retângulo_492" data-name="Retângulo 492" width="46.423" height="3.571" transform="translate(-4785.076 -4316.926)" fill="#fff"/>
      <rect id="Retângulo_493" data-name="Retângulo 493" width="46.423" height="3.571" transform="translate(-4785.076 -4308)" fill="#fff"/>
      <rect id="Retângulo_494" data-name="Retângulo 494" width="46.423" height="3.571" transform="translate(-4785.076 -4299.071)" fill="#fff"/>
    </g>
    <g id="Grupo_3360" data-name="Grupo 3360" transform="translate(-5043.269 -4264.074)">
      <path id="Caminho_7028" data-name="Caminho 7028" d="M766.248,664.543a3.174,3.174,0,0,1-3.175,3.18H384.552a3.185,3.185,0,0,1-3.189-3.18V421.8c0-1.751,12.431-13.043,14.19-13.043l356.209.1c1.759,0,14.485,10.8,14.485,12.551Z" transform="translate(-381.363 -378.496)" fill="#37a4d6"/>
      <path id="Caminho_7029" data-name="Caminho 7029" d="M659.268,412.656a3.744,3.744,0,0,1-3.742-3.733V354.306a3.744,3.744,0,0,1,3.742-3.734H751.5a3.749,3.749,0,0,1,3.751,3.734v54.617a3.749,3.749,0,0,1-3.751,3.733ZM666.184,402H744.6V361.23H666.184Z" transform="translate(-512.941 -350.572)" fill="#002740"/>
      <path id="Caminho_7030" data-name="Caminho 7030" d="M766.248,507.093c0,6.948-5.559,14.041-12.459,15.738a773.86,773.86,0,0,1-359.972,0c-6.9-1.7-12.474-8.79-12.454-15.738V421.4a12.681,12.681,0,0,1,12.643-12.649H753.612A12.7,12.7,0,0,1,766.248,421.4Z" transform="translate(-381.363 -378.496)" fill="#1250b3"/>
      <path id="Caminho_7031" data-name="Caminho 7031" d="M581.573,543.415a766.239,766.239,0,0,1-178.028-20.994c-3.054-.744-6-4.4-6-7.532V429.194a4.249,4.249,0,0,1,4.258-4.207H761.38a4.252,4.252,0,0,1,4.226,4.216v85.68c0,3.135-2.946,6.8-6.045,7.549a766.275,766.275,0,0,1-177.988,20.983Z" transform="translate(-389.131 -386.286)" fill="#0f4696"/>
      <path id="Caminho_7032" data-name="Caminho 7032" d="M578.989,533.771a733.4,733.4,0,0,1-175.15-21.516c-3.059-.762-6.162-4.528-6.365-7.721q-2.655-43.926-5.3-87.856a4.03,4.03,0,0,1,4.071-4.309H761.8a4.02,4.02,0,0,1,4.007,4.309q-2.663,43.943-5.309,87.856a9.568,9.568,0,0,1-6.4,7.728,733.064,733.064,0,0,1-175.117,21.509Z" transform="translate(-386.547 -380.23)" fill="#1250b3"/>
      <g id="Grupo_3359" data-name="Grupo 3359" transform="translate(83.839 29.56)">
        <g id="Grupo_3354" data-name="Grupo 3354">
          <path id="Caminho_7033" data-name="Caminho 7033" d="M542.57,407.41V668.133h36.44V407.41Z" transform="translate(-542.57 -407.41)" fill="#1250b3"/>
          <g id="Grupo_3351" data-name="Grupo 3351" transform="translate(4.417)">
            <path id="Caminho_7034" data-name="Caminho 7034" d="M551.064,407.41V519.521c0,5.584.165,10.114.354,10.114h3.461c.185,0,.352-4.53.352-10.114V407.41Z" transform="translate(-551.064 -407.41)" fill="#0f4696"/>
            <path id="Caminho_7035" data-name="Caminho 7035" d="M596.115,407.41V519.521c0,5.584.163,10.114.35,10.114h3.459c.19,0,.355-4.53.355-10.114V407.41Z" transform="translate(-572.685 -407.41)" fill="#0f4696"/>
          </g>
          <g id="Grupo_3352" data-name="Grupo 3352" transform="translate(4.417 137.764)">
            <path id="Caminho_7036" data-name="Caminho 7036" d="M600.279,794.54V682.428c0-5.585-.162-10.123-.343-10.123H596.47c-.188,0-.355,4.538-.355,10.123V794.54Z" transform="translate(-572.685 -672.305)" fill="#0f4696"/>
            <path id="Caminho_7037" data-name="Caminho 7037" d="M555.23,794.54V682.428c0-5.585-.154-10.123-.345-10.123h-3.457c-.187,0-.364,4.538-.364,10.123V794.54Z" transform="translate(-551.064 -672.305)" fill="#0f4696"/>
          </g>
          <g id="Grupo_3353" data-name="Grupo 3353" transform="translate(1.895 115.216)">
            <path id="Caminho_7038" data-name="Caminho 7038" d="M578.848,667.359a4.216,4.216,0,0,1-2.717,3.732,46.185,46.185,0,0,1-27.2,0,4.2,4.2,0,0,1-2.721-3.732V634.719a4.194,4.194,0,0,1,2.721-3.724,46.192,46.192,0,0,1,27.2,0,4.185,4.185,0,0,1,2.717,3.724Z" transform="translate(-546.213 -628.948)" fill="#7eb3ff"/>
            <path id="Caminho_7039" data-name="Caminho 7039" d="M576.131,633.223a48.959,48.959,0,0,0-27.2,0,3.993,3.993,0,0,0-2.721,3.512v14.216c.1.005.208.047.3.047h32.333V636.735A3.984,3.984,0,0,0,576.131,633.223Z" transform="translate(-546.213 -630.075)" fill="#387bff"/>
            <path id="Caminho_7040" data-name="Caminho 7040" d="M546.213,675.007v14.458a4.2,4.2,0,0,0,2.721,3.732,46.185,46.185,0,0,0,27.2,0,4.216,4.216,0,0,0,2.717-3.732V675.007Z" transform="translate(-546.213 -651.053)" fill="#7eb3ff"/>
            <path id="Caminho_7041" data-name="Caminho 7041" d="M565.125,695.044a43.8,43.8,0,0,1-12.784-1.926,1.568,1.568,0,0,1-.736-1.054V680.4h27.042v11.652a1.519,1.519,0,0,1-.782,1.069,43.386,43.386,0,0,1-12.74,1.921Z" transform="translate(-548.801 -653.642)" fill="#7eb3ff"/>
            <path id="Caminho_7042" data-name="Caminho 7042" d="M564.965,672.937A43.584,43.584,0,0,1,552.143,671a1.606,1.606,0,0,1-.872-1.215V637.143a1.645,1.645,0,0,1,.887-1.226,43.707,43.707,0,0,1,25.637.008,1.7,1.7,0,0,1,.859,1.236v32.623a1.644,1.644,0,0,1-.88,1.223A43.487,43.487,0,0,1,564.965,672.937Z" transform="translate(-548.64 -631.372)" fill="#0253a2"/>
            <path id="Caminho_7043" data-name="Caminho 7043" d="M574.4,675.953V692.1a6.635,6.635,0,0,0,.1,1.221c.5,1.283,1.031,1.934,1.561,1.934s1.044-.651,1.557-1.931a7.159,7.159,0,0,0,.105-1.223V675.953Z" transform="translate(-559.74 -651.507)" fill="#387bff"/>
          </g>
        </g>
        <g id="Grupo_3358" data-name="Grupo 3358" transform="translate(180.78)">
          <path id="Caminho_7044" data-name="Caminho 7044" d="M890.177,407.41V668.133h36.439V407.41Z" transform="translate(-890.177 -407.41)" fill="#1250b3"/>
          <g id="Grupo_3355" data-name="Grupo 3355" transform="translate(4.425)">
            <path id="Caminho_7045" data-name="Caminho 7045" d="M898.685,407.41V519.521c0,5.584.15,10.114.335,10.114h3.461c.2,0,.367-4.53.367-10.114V407.41Z" transform="translate(-898.685 -407.41)" fill="#0f4696"/>
            <path id="Caminho_7046" data-name="Caminho 7046" d="M943.722,407.41V519.521c0,5.584.163,10.114.349,10.114h3.462c.191,0,.354-4.53.354-10.114V407.41Z" transform="translate(-920.3 -407.41)" fill="#0f4696"/>
          </g>
          <g id="Grupo_3356" data-name="Grupo 3356" transform="translate(4.425 137.764)">
            <path id="Caminho_7047" data-name="Caminho 7047" d="M947.887,794.54V682.428c0-5.585-.152-10.123-.346-10.123h-3.452c-.195,0-.367,4.538-.367,10.123V794.54Z" transform="translate(-920.3 -672.305)" fill="#0f4696"/>
            <path id="Caminho_7048" data-name="Caminho 7048" d="M902.849,794.54V682.428c0-5.585-.162-10.123-.356-10.123h-3.451c-.2,0-.357,4.538-.357,10.123V794.54Z" transform="translate(-898.685 -672.305)" fill="#0f4696"/>
          </g>
          <g id="Grupo_3357" data-name="Grupo 3357" transform="translate(1.899 115.216)">
            <path id="Caminho_7049" data-name="Caminho 7049" d="M926.469,667.359a4.242,4.242,0,0,1-2.716,3.732,46.2,46.2,0,0,1-27.2,0,4.2,4.2,0,0,1-2.722-3.732V634.719a4.2,4.2,0,0,1,2.722-3.724,46.211,46.211,0,0,1,27.2,0,4.222,4.222,0,0,1,2.716,3.724Z" transform="translate(-893.828 -628.948)" fill="#7eb3ff"/>
            <path id="Caminho_7050" data-name="Caminho 7050" d="M923.753,633.223a48.979,48.979,0,0,0-27.2,0,4,4,0,0,0-2.722,3.512v14.216c.1.005.2.047.3.047h32.34V636.735A4.019,4.019,0,0,0,923.753,633.223Z" transform="translate(-893.828 -630.075)" fill="#387bff"/>
            <path id="Caminho_7051" data-name="Caminho 7051" d="M893.828,675.007v14.458a4.2,4.2,0,0,0,2.722,3.732,46.2,46.2,0,0,0,27.2,0,4.242,4.242,0,0,0,2.716-3.732V675.007Z" transform="translate(-893.828 -651.053)" fill="#7eb3ff"/>
            <path id="Caminho_7052" data-name="Caminho 7052" d="M912.726,695.044a43.8,43.8,0,0,1-12.779-1.926,1.55,1.55,0,0,1-.747-1.054V680.4H926.25v11.652a1.528,1.528,0,0,1-.776,1.069,43.538,43.538,0,0,1-12.747,1.921Z" transform="translate(-896.407 -653.642)" fill="#7eb3ff"/>
            <path id="Caminho_7053" data-name="Caminho 7053" d="M912.565,672.937A43.468,43.468,0,0,1,899.748,671a1.637,1.637,0,0,1-.883-1.215V637.143a1.664,1.664,0,0,1,.893-1.226,43.7,43.7,0,0,1,25.633.008,1.7,1.7,0,0,1,.872,1.236v32.623a1.687,1.687,0,0,1-.887,1.223A43.493,43.493,0,0,1,912.565,672.937Z" transform="translate(-896.245 -631.372)" fill="#0253a2"/>
            <path id="Caminho_7054" data-name="Caminho 7054" d="M921.988,675.953V692.1a5.556,5.556,0,0,0,.119,1.221c.5,1.283,1.036,1.934,1.555,1.934s1.055-.651,1.553-1.931a6.423,6.423,0,0,0,.11-1.223V675.953Z" transform="translate(-907.343 -651.507)" fill="#387bff"/>
          </g>
        </g>
      </g>
    </g>
    <g id="Grupo_3366" data-name="Grupo 3366" transform="translate(-5134.736 -4148.822)">
      <g id="Grupo_3365" data-name="Grupo 3365" transform="translate(27.967)">
        <g id="Grupo_3363" data-name="Grupo 3363" transform="translate(43.559)">
          <g id="Grupo_3361" data-name="Grupo 3361" transform="translate(25.929)">
            <path id="Caminho_7055" data-name="Caminho 7055" d="M409.819,590.33l-1.3-3.368a12.422,12.422,0,0,0-1.827-3.279c-1.279-1.647-3.1-1.593-4.9-.664a5.342,5.342,0,0,0-2.316,1.915s.212,2.587,2.312,3,5.815,3.971,6.4,3.317A3.7,3.7,0,0,1,409.819,590.33Z" transform="translate(-396.042 -577.071)" fill="#e9d6b8"/>
            <path id="Caminho_7056" data-name="Caminho 7056" d="M396.369,582.945l-1.888-3.56L392.876,576l.835-.068,1.477,2.243,3.919,2.288-.914.826Z" transform="translate(-392.876 -573.979)" fill="#e9d6b8"/>
            <path id="Caminho_7057" data-name="Caminho 7057" d="M399.456,575.921l-.489-3.283.789-.291,1.066,3.154,2.2,2.788-1.909,1.279Z" transform="translate(-395.799 -572.26)" fill="#e9d6b8"/>
            <path id="Caminho_7058" data-name="Caminho 7058" d="M403.26,572.18l.219,2.641-.092,1.775,1.1,1.628,1.831-.523-1.233-1.716-.884-3.432Z" transform="translate(-397.859 -572.18)" fill="#e9d6b8"/>
            <path id="Caminho_7059" data-name="Caminho 7059" d="M407.951,572.851l-.4,4.769.854,1.1,1.279-.283-.612-2.2-.5-2.818Z" transform="translate(-399.918 -572.502)" fill="#e9d6b8"/>
          </g>
          <path id="Caminho_7060" data-name="Caminho 7060" d="M406.278,595.6a4.881,4.881,0,0,0-3.189-2.353s-5.571-1.217-6.181-2.309a9.671,9.671,0,0,0-2.722-2.378s-.617-.966,1.64-.5a9.457,9.457,0,0,1,2.655,1.019s3.414-.43,4.324.007c1.875.9,4.075,5.6,4.075,5.6S406.4,595.845,406.278,595.6Z" transform="translate(-367.538 -579.741)" fill="#e9d6b8"/>
          <path id="Caminho_7061" data-name="Caminho 7061" d="M343.019,644.123s-.448,6.582,19.271,8.093,19.3-2.993,19.3-2.993l1.6-4.719-6.9-13.1-6.441,2.933-.035,1.105a2.72,2.72,0,0,1-2.322.657c-1.25-.342-7.2-.162-18.084-2.611C344.394,632.361,343.1,642.855,343.019,644.123Z" transform="translate(-343.018 -600.604)" fill="#8dcfff"/>
          <g id="Grupo_3362" data-name="Grupo 3362" transform="translate(0 32.801)">
            <path id="Caminho_7062" data-name="Caminho 7062" d="M349.407,635.334c.218.052.434.1.646.143a25.1,25.1,0,0,0-2.721,6.993s-1.3,6.458,18.117,10.342a85.855,85.855,0,0,0,8.7,1.344,69.617,69.617,0,0,1-11.857-.1c-19.72-1.511-19.271-8.093-19.271-8.093C343.1,644.7,344.394,634.206,349.407,635.334Z" transform="translate(-343.018 -635.249)" fill="#7dc2f5"/>
          </g>
          <path id="Caminho_7063" data-name="Caminho 7063" d="M406.3,613.276s11.184-8.815,2.677-20.673c-2.523-3.527,1.081-1,4.371,1.707s8.749,13.214,5.707,21.41-4.892,11.043-8.464,11.358S406.3,613.276,406.3,613.276Z" transform="translate(-373.388 -581.151)" fill="#e9d6b8"/>
          <path id="Caminho_7064" data-name="Caminho 7064" d="M391.78,645.016l-.646-3.647-.173-1.473a2.934,2.934,0,0,0,1.866-.724l-.05,2.8.573,3.312,2.178,4.064Z" transform="translate(-366.027 -604.331)" fill="#7dc2f5"/>
        </g>
        <g id="Grupo_3364" data-name="Grupo 3364" transform="translate(0 7.948)">
          <path id="Caminho_7065" data-name="Caminho 7065" d="M326.629,687.713l-23.052-.5-9.582-32.09s-6.217-19.4,5.7-19.654,25.642-.249,25.642-.249S333.362,642.188,326.629,687.713Z" transform="translate(-275.154 -610.384)" fill="#8dcfff"/>
          <path id="Caminho_7066" data-name="Caminho 7066" d="M309.082,588.888s12.122,11.27,10.618,15.176c-.065.171-1.975,2.008-2.186,3.859-.2,1.742.631,2.772.631,3.467,0,.226.607,1.72.675,2.168.286,2.005-.739,3.662-1.589,3.458a57.947,57.947,0,0,1-6.185-2.4c-.527-.29-1.021-.337-1.153-1.17-.28-1.773-1.212-4.8-2.1-5.651-2.614-2.512-9.952-4.931-7.909-12.143C300.47,593.547,308.046,588.39,309.082,588.888Z" transform="translate(-278.585 -588.131)" fill="#e9d6b8"/>
          <path id="Caminho_7067" data-name="Caminho 7067" d="M325.628,639.66l-.568,3.979-7.32-6.081.846-1.486Z" transform="translate(-287.327 -610.791)" fill="#7dc2f5"/>
          <path id="Caminho_7068" data-name="Caminho 7068" d="M335.469,636.8l-.208-1.336,1.341,2.3.066,4.217-2.894-2.52Z" transform="translate(-295.023 -610.499)" fill="#7dc2f5"/>
          <path id="Caminho_7069" data-name="Caminho 7069" d="M326.928,617.7s-.573.13-1.673.279a9.187,9.187,0,0,0-1.909.428c-2.134.964-1.945,1.085-3.349,1.413a37.827,37.827,0,0,1-5.135.5s1.778.672,2.485.953a4.642,4.642,0,0,0,3.357.033c3.911-1.316,3.914-.94,4.312-1.269A19.729,19.729,0,0,1,326.928,617.7Z" transform="translate(-285.947 -601.974)" fill="#e2c59c"/>
          <path id="Caminho_7070" data-name="Caminho 7070" d="M326.184,598.9a33.683,33.683,0,0,0,3.206,1.742c.469.238,1.086.519,1.13.707a5,5,0,0,1-.048,1.179c-.047.281-.187,1.412-1.128.566A36.6,36.6,0,0,1,326.184,598.9Z" transform="translate(-291.38 -592.953)" fill="#e9d6b8"/>
          <path id="Caminho_7071" data-name="Caminho 7071" d="M298.8,594.636c.708-3.816,5.747-7.4,11.545-7.162a2.9,2.9,0,0,1-.047,2.4,7.57,7.57,0,0,0-6.6,2.215c-2.818,3.11.668,2.729.611,4.135-.047,1.182-.142,2.227-.142,2.227l1.061,2.157-.745.813s-2.083-1.487-2.013-.566c.086,1.112,1.543,2.321,1.731,2.508s.509.5.462.637a28.875,28.875,0,0,1,2.5,3.014c-.384.342-1.329.23-2.574-.716C301.788,604.165,297.939,599.3,298.8,594.636Z" transform="translate(-278.179 -587.463)" fill="#002740"/>
          <path id="Caminho_7072" data-name="Caminho 7072" d="M305.524,612.714a1.7,1.7,0,0,0,2.13,2.642" transform="translate(-281.161 -599.581)" fill="#e9d6b8"/>
          <path id="Caminho_7073" data-name="Caminho 7073" d="M330.108,605.487a17.5,17.5,0,0,1,1.354-1.765c.191-.1.614-.381.753-.237s.249.73-.128,1.792C331.993,605.535,331.77,605.064,330.108,605.487Z" transform="translate(-293.263 -595.133)" fill="#e2c59c"/>
          <rect id="Retângulo_489" data-name="Retângulo 489" width="5.939" height="9.045" transform="translate(44.938 176.398)" fill="#002740"/>
          <rect id="Retângulo_490" data-name="Retângulo 490" width="4.808" height="9.045" transform="translate(2.808 176.398)" fill="#002740"/>
          <path id="Caminho_7074" data-name="Caminho 7074" d="M345.854,944.6h4.337v-1.321l1.882,1.321H363s-.186-1.79-7.536-2.071c-1.887-.074-3.207-2.639-3.207-2.639s-.94-.848-2.353,1.13c-.37.515-4.337-.473-4.337-.473A9.259,9.259,0,0,0,345.854,944.6Z" transform="translate(-300.634 -756.516)" fill="#002740"/>
          <path id="Caminho_7075" data-name="Caminho 7075" d="M342.388,734.717l.517,49.008-10.7,7.593s-4.576-15.746-5.353-30.672S342.388,734.717,342.388,734.717Z" transform="translate(-291.69 -658.134)" fill="#002740"/>
          <path id="Caminho_7076" data-name="Caminho 7076" d="M311.639,733.339l-22.793,53.735L284.7,792.8l-15.975,47.369-5.971-2.47s1.44-25.116,5.146-36.437a128.334,128.334,0,0,1,7.616-18.73l14.622-50.684Z" transform="translate(-260.94 -656.756)" fill="#002740"/>
          <path id="Caminho_7077" data-name="Caminho 7077" d="M338.043,886.977c-1.876-9.618-3.155-28.2-3.294-34.378a182.522,182.522,0,0,1,.538-19.667l11.394-3.981.009,56.584Z" transform="translate(-295.466 -703.36)" fill="#002740"/>
          <path id="Caminho_7078" data-name="Caminho 7078" d="M267.521,944.544h-2.934l-.926-.924-.4-2.269-.932.933-3.064-3.064a9.215,9.215,0,0,1,2.663-3.067s2.108,3.5,2.734,3.4c2.4-.4,2.465.866,2.465.866S266.25,943.156,267.521,944.544Z" transform="translate(-259.263 -754.809)" fill="#002740"/>
          <path id="Caminho_7079" data-name="Caminho 7079" d="M269.283,945.905a3.411,3.411,0,0,0,2.261,1.294c7.353.281,7.541,2.07,7.541,2.07h-9.8Z" transform="translate(-264.072 -759.489)" fill="#002740"/>
        </g>
      </g>
      <g id="man_paper">
        <path id="Caminho_7080" data-name="Caminho 7080" d="M205.488,717.766l22.89-45.676s19.211,0,25.782-.661c18.416-1.845,41-13.281,41-13.281L277.07,707.416s-36.044,8.269-44.821,8.212A162.027,162.027,0,0,0,205.488,717.766Z" transform="translate(-205.488 -613.439)" fill="#e4eef3"/>
      </g>
      <path id="Caminho_7081" data-name="Caminho 7081" d="M273.858,654.384l-13.469,20.645-1.814.252.519,1.739-9.756-.746-2.16-8.46,18.908-27.861a19.935,19.935,0,0,1,15.54-3.98C288.62,636.968,274.894,652.642,273.858,654.384Z" transform="translate(-225.497 -602.688)" fill="#8dcfff"/>
      <path id="Caminho_7082" data-name="Caminho 7082" d="M260.488,712.3l10,27.792s-2.176.664-3.441-.46c-3.427-3.049-9.4-11.343-11.479-15.889a77.517,77.517,0,0,1-4.4-12.933Z" transform="translate(-227.409 -638.71)" fill="#e9d6b8"/>
      <path id="Caminho_7083" data-name="Caminho 7083" d="M282.668,763.591l7.58,2.814.729-5.522-1.584.613-1.884-1.52-2.887,2.612Z" transform="translate(-242.529 -662.308)" fill="#e9d6b8"/>
    </g>
    <g id="Grupo_3368" data-name="Grupo 3368" transform="translate(-4740.828 -4155.687)">
      <g id="Grupo_3367" data-name="Grupo 3367">
        <path id="Caminho_7084" data-name="Caminho 7084" d="M1072.709,751.289h2.217L1023.4,558.981h-2.217Z" transform="translate(-990.869 -558.981)" fill="#b0bfde"/>
        <path id="Caminho_7085" data-name="Caminho 7085" d="M1014.427,751.289h2.219L965.116,558.981H962.9Z" transform="translate(-962.898 -558.981)" fill="#b0bfde"/>
        <path id="Caminho_7086" data-name="Caminho 7086" d="M1000.252,579.859l-.595-2.218H968.605l.594,2.218Z" transform="translate(-965.637 -567.936)" fill="#b0bfde"/>
        <path id="Caminho_7087" data-name="Caminho 7087" d="M1008.963,612.377l-.592-2.218H977.319l.6,2.218Z" transform="translate(-969.819 -583.542)" fill="#b0bfde"/>
        <path id="Caminho_7088" data-name="Caminho 7088" d="M1017.677,644.894l-.595-2.218H986.031l.594,2.218Z" transform="translate(-974 -599.148)" fill="#b0bfde"/>
        <path id="Caminho_7089" data-name="Caminho 7089" d="M1026.39,677.409l-.594-2.218H994.744l.595,2.218Z" transform="translate(-978.182 -614.753)" fill="#b0bfde"/>
        <path id="Caminho_7090" data-name="Caminho 7090" d="M1035.1,709.926l-.593-2.216h-31.052l.6,2.216Z" transform="translate(-982.363 -630.36)" fill="#b0bfde"/>
        <path id="Caminho_7091" data-name="Caminho 7091" d="M1043.818,742.442l-.594-2.215h-31.052l.594,2.215Z" transform="translate(-986.546 -645.966)" fill="#b0bfde"/>
        <path id="Caminho_7092" data-name="Caminho 7092" d="M1052.529,774.959l-.593-2.217h-31.051l.592,2.217Z" transform="translate(-990.727 -661.571)" fill="#b0bfde"/>
        <path id="Caminho_7093" data-name="Caminho 7093" d="M1061.243,807.478l-.6-2.216H1029.6l.6,2.216Z" transform="translate(-994.909 -677.178)" fill="#b0bfde"/>
        <path id="Caminho_7094" data-name="Caminho 7094" d="M1069.954,840l-.594-2.218h-31.05L1038.9,840Z" transform="translate(-999.091 -692.783)" fill="#b0bfde"/>
        <path id="Caminho_7095" data-name="Caminho 7095" d="M1078.668,872.514l-.594-2.217h-31.049l.594,2.217Z" transform="translate(-1003.273 -708.39)" fill="#b0bfde"/>
        <path id="Caminho_7096" data-name="Caminho 7096" d="M1087.381,905.03l-.6-2.217h-31.051l.595,2.217Z" transform="translate(-1007.453 -723.996)" fill="#b0bfde"/>
      </g>
    </g>
    <g id="Grupo_3369" data-name="Grupo 3369" transform="translate(-4760.794 -4261.878)">
      <path id="Caminho_7097" data-name="Caminho 7097" d="M1033.577,636.927c-.308-.314-.176-1.218-.176-1.218s4.829-.933,6.425-.693a8.166,8.166,0,0,1,1.81.68c.113.053.336.412.449.464.2.1.291-.1.466-.013a5.973,5.973,0,0,1,.786.455c.609,2.2.112,3.147.112,3.147s-3.911,1.571-4.892.815C1036.064,638.65,1034.245,637.618,1033.577,636.927Z" transform="translate(-976.755 -489.262)" fill="#002740"/>
      <path id="Caminho_7098" data-name="Caminho 7098" d="M999.238,629.74l.337,3.691-3.569,1.03s-.34-.44-.64-.355c-.255.075-.439.666-.788.766l-1.915.551-7.16,2.062s-.372-.69-.246-1a3.549,3.549,0,0,1,.958-.785c1.7-1.046,6.5-4.187,6.911-6.21C993.624,627.027,999.238,629.74,999.238,629.74Z" transform="translate(-953.65 -486.133)" fill="#002740"/>
      <path id="Caminho_7099" data-name="Caminho 7099" d="M1004.439,382.175l.576-4.465s-3.047-.777-3.081-2.571c-.08-3.6,2.634-8.391,3.822-9.59,3.388-3.407,6.661-10.274,14.091-1.414,2.823,3.374-6.229,12-7.408,14.137a10.171,10.171,0,0,0-.85,5.16l-2.747.9Z" transform="translate(-961.666 -357.19)" fill="#e9d6b8"/>
      <path id="Caminho_7100" data-name="Caminho 7100" d="M1026.727,460.82l-18.57,5.386s10.985,2.445,20.167.477S1027.624,460.918,1026.727,460.82Z" transform="translate(-964.654 -405.679)" fill="#e2c59c"/>
      <path id="Caminho_7101" data-name="Caminho 7101" d="M1023.912,548.156s-7.436,9.312-4.721,17.228c4.828,14.08,8.718,25.368,10.328,30.078.624,1.831,1.127,1.448,1.127,1.448l4.087.126,1.79-1.824-8.428-32.433Z" transform="translate(-969.663 -447.594)" fill="#002740"/>
      <path id="Caminho_7103" data-name="Caminho 7103" d="M1021.5,404.517s4.083-.468,11.851,14.557,6.1,14.929,6.1,14.929l.832,3.747-5.731,2.7-7.945-12.544Z" transform="translate(-971.056 -378.657)" fill="#f03e30"/>
      <path id="Caminho_7104" data-name="Caminho 7104" d="M987.088,485.823s7.589,31.27,17.753,49.088c5.44,9.538,5.094-4.167,5.094-4.167l-8.411-56.266-19.411-.918S984.138,476.119,987.088,485.823Z" transform="translate(-952.154 -411.794)" fill="#002740"/>
      <path id="Caminho_7105" data-name="Caminho 7105" d="M993.628,480.995s-15.6,31.481-16.346,33.728c-3.656,10.968-8.3-2.5-8.53-5.179s.8-16.414,4.469-29.622l3.672-13.205Z" transform="translate(-945.727 -408.509)" fill="#002740"/>
      <path id="Caminho_7106" data-name="Caminho 7106" d="M979.208,546.268s2.666,5.418,5.619,12.475c2.17,5.181,6.6,20.487,8.673,31.408.13.667-7.2.634-7.2.634s-11.046-29.054-13.532-35.556S973.594,542.726,979.208,546.268Z" transform="translate(-947.265 -446.183)" fill="#002740"/>
      <path id="Caminho_7107" data-name="Caminho 7107" d="M1004.636,405.06l-4.744-5.029-2-2.692-8.74-1.223-1.855,2.689-7.172,2.572s-2.011,2.8-1.792,14.039c.238,12.457-5.964,29.518-3.48,31.384,16.272,12.213,24.885,2.654,24.885,2.654S1008.05,425.982,1004.636,405.06Z" transform="translate(-948.385 -374.626)" fill="#f03e30"/>
      <path id="Caminho_7109" data-name="Caminho 7109" d="M1011.3,365.25s1.279-.292,1.165.575-1.29,2.465-1.832,2.465-1.448,2.139-1.448,2.139l.472,2.881,6.589,2.234s2.338-.2,3-1.613,5.787-11.193,5.787-11.193l-3.808-4.012a32.27,32.27,0,0,0-3.571-3.116c-2.368-1.639-3.393-.425-3.557.335s-1.01.565-2.067.206-2.637.013-2.233.7c.169.281-1.1.568-.949,1.487.223,1.312,2.1,2.35,1.654,4.194C1010.3,363.364,1009.726,366.164,1011.3,365.25Z" transform="translate(-964.98 -354.795)" fill="#002740"/>
      <g id="man_hand">
        <path id="Caminho_7102" data-name="Caminho 7102" d="M941.444,387.687,930,373.816s4.387,19.086,10.592,20.627S941.444,387.687,941.444,387.687Z" transform="translate(-927.142 -363.924)" fill="#e9d6b8"/>
        <path id="Caminho_7108" data-name="Caminho 7108" d="M975.874,403.733s.981,2.088-4.773,3.722c-9.808,2.793-20.087,1.8-22.1,1.671s-4.829-.4-6.728-4.048c-1.458-2.784-1.959-3.7-1.959-3.7l5.528-3.893,1.231,1.5.533.923s7.432-.41,14.4-.854C978.269,398.021,975.874,403.733,975.874,403.733Z" transform="translate(-932.092 -375.284)" fill="#f03e30"/>
        <path id="Caminho_7110" data-name="Caminho 7110" d="M928.081,370.93s2.761-1.305,2.962-2.153.722-4.01.722-4.01l.056-.819s-.864-.573-1.194,1.551-.733,1-.733,1l-.439-2.048-.73-2.471-.187-1.136a2.077,2.077,0,0,0-.2-.8c-.419-.42-.578.056-.578.056l.346,4.472-1.441-4.051s-.273-.489-.56-.452c-.271.036-.223.207-.223.207l.552,4.953-.975-2.005s-.274-.475-.558-.452c-.31.025-.394.023-.394.023l2.7,8.244Z" transform="translate(-924.508 -357.232)" fill="#e9d6b8"/>
      </g>
    </g>
    <g id="Grupo_3383" data-name="Grupo 3383" transform="translate(-4832.288 -4023.874)">
      <g id="Grupo_3374" data-name="Grupo 3374" transform="translate(21.245)">
        <path id="Caminho_7111" data-name="Caminho 7111" d="M860.042,836.437c3.5.881,9.952,4.02,11.3,9.386,2.027,8.055-2.029,19.882,4.394,31.452,2.049,3.685-35.481,8.645-35.481,8.645l-7.24-40.71s9.045-8.837,10.9-9.43C847.744,834.547,853.047,834.678,860.042,836.437Z" transform="translate(-830.35 -823.247)" fill="#00c3ff"/>
        <g id="Grupo_3370" data-name="Grupo 3370" transform="translate(0 21.906)">
          <path id="Caminho_7112" data-name="Caminho 7112" d="M830.5,854.634c-1.3,3.253-4.6,22.607-.925,27.168.422.528-1.9,1.346-1.485,3.754.072.4.775,2.321.775,2.321l3,.783,9.063-5.161-1.735-2.111-.823.017a1.857,1.857,0,0,1-.561-1.613c.215-.885-2.078-2.33-5.545-17.35C831.239,858.026,830.783,853.917,830.5,854.634Z" transform="translate(-827.889 -854.552)" fill="#229ac4"/>
          <path id="Caminho_7113" data-name="Caminho 7113" d="M836.787,904.481l2.682-.59,1.085-.173a1.986,1.986,0,0,0,.6,1.284l-2.076.065-2.437.523-2.943,1.678Z" transform="translate(-830.674 -878.148)" fill="#ecb60d"/>
        </g>
        <path id="Caminho_7114" data-name="Caminho 7114" d="M841.762,909.993a8.028,8.028,0,0,0-3.838,1.062c-1.344.827-2.579,2.628-1.345,3.6a20,20,0,0,0,3.138,1.884S844.436,916.668,841.762,909.993Z" transform="translate(-831.816 -859.254)" fill="#c4d1e1"/>
        <path id="Caminho_7115" data-name="Caminho 7115" d="M836.677,918.664l1.264-.27s4.346-.394,4.965-.056,2.613,1.689,2.613,1.689l.409.377a2.094,2.094,0,0,1-2.275-.311c-1.314-.915-1.42-.212-1.42-.212l.22,1.16-.018,1.478.2.623s.184.339.039.464a.828.828,0,0,1-.825.187l-1.322-2.31L840.169,924a.921.921,0,0,1-.592.429c-.388.083-.392-.02-.392-.02l-.3-.638a.774.774,0,0,1-.264.436,1.247,1.247,0,0,1-.788.224l.123-2.643-.541,1.343a1,1,0,0,1-.594.429c-.441.1-.558.134-.558.134Z" transform="translate(-831.908 -863.193)" fill="#e4eef3"/>
        <g id="Grupo_3372" data-name="Grupo 3372" transform="translate(11.457 17.161)">
          <g id="Grupo_3371" data-name="Grupo 3371" transform="translate(3.385)">
            <path id="Caminho_7116" data-name="Caminho 7116" d="M868.87,896.385s-3.155,7.994-10.737,10.134c-1.313.37-2.118,1.788-1.487,2.242.811.585,1.923.711,3.827.7,3.962-.006,9.359-1.241,13.092-4.853,5.525-5.346,7.265-7.776,6.706-10.464S868.87,896.385,868.87,896.385Z" transform="translate(-856.427 -868.425)" fill="#e9d6b8"/>
            <path id="Caminho_7117" data-name="Caminho 7117" d="M889.875,848.151c1.6,2.638,2.534,6.878,2.523,12.942-.012,4.695-4.06,12.381-4.682,14.743-.106.393-.351,2.085-.351,2.085l-4.488,4.4-9.006-6.1,2.738-4.2.815.088a13.882,13.882,0,0,0,.38-3.221c-.142-.9,2.493-13.01,3.794-20.772C882.35,843.645,888.283,845.535,889.875,848.151Z" transform="translate(-864.799 -845.429)" fill="#229ac4"/>
            <path id="Caminho_7118" data-name="Caminho 7118" d="M885.093,895.445l-2.621-.812-1.068-.265a1.99,1.99,0,0,1-.7,1.23l2.067.24,2.384.727,2.791,1.917Z" transform="translate(-868.078 -868.916)" fill="#e8b00e"/>
          </g>
          <path id="Caminho_7119" data-name="Caminho 7119" d="M855.587,917.47,851,916.216s-1.3,1.743-1.054,2.175a12.154,12.154,0,0,1,0,3.011l2.221,1.888,1.807-.6s.127-.789-.492-.865.416-.524.741-.712S857.207,919.559,855.587,917.47Z" transform="translate(-849.918 -879.401)" fill="#e9d6b8"/>
        </g>
        <path id="Caminho_7120" data-name="Caminho 7120" d="M864.758,829.216a2.811,2.811,0,0,1-1.718,3.572l-2.6.913a2.81,2.81,0,0,1-3.571-1.718l-2.318-6.615a2.811,2.811,0,0,1,1.718-3.572l2.6-.912a2.81,2.81,0,0,1,3.571,1.718Z" transform="translate(-840.608 -816.413)" fill="#e4eef3"/>
        <g id="head_man">
          <path id="Caminho_7121" data-name="Caminho 7121" d="M849.481,833.38a1.808,1.808,0,0,0,2.223,1.262l7.851-2.164a1.81,1.81,0,0,0,1.263-2.226l-3.206-11.628a1.8,1.8,0,0,0-2.224-1.261l-7.85,2.161a1.812,1.812,0,0,0-1.262,2.225Z" transform="translate(-836.682 -814.767)" fill="#e9d6b8"/>
          <path id="Caminho_7122" data-name="Caminho 7122" d="M845.866,826.513a6.928,6.928,0,0,1-1.751-1.475,2.709,2.709,0,0,1,.515-2.485c.732-.748,1.717-.007,1.717-.007s-1.178,1.161-1.171,1.474S845.866,826.513,845.866,826.513Z" transform="translate(-835.621 -817.128)" fill="#002740"/>
          <path id="Caminho_7123" data-name="Caminho 7123" d="M858.945,821.3s-.044-4.8-.625-6.042-.974-2.119-2.613-1.82c-2.451.44-2.341.957-3.7.552s-3.937-1.582-4.7-1.558a2.484,2.484,0,0,0-2.5,3.228,2.606,2.606,0,0,1-.487,2.43c.147.177.638.248,1.5.419,2.48.489,3.851.343,5.4-.551s4.405-2.7,5.107-1.566,1.6,4.957,1.828,5.206S858.714,821.6,858.945,821.3Z" transform="translate(-835.772 -812.431)" fill="#002740"/>
          <path id="Caminho_7124" data-name="Caminho 7124" d="M868.735,833.51a.6.6,0,0,0,.741.418l1.7-.464a.6.6,0,0,0,.42-.743l-.853-3.1A.6.6,0,0,0,870,829.2l-1.695.466a.6.6,0,0,0-.422.743Z" transform="translate(-847.071 -820.468)" fill="#e9d6b8"/>
          <path id="Caminho_7125" data-name="Caminho 7125" d="M849.285,838.866a.608.608,0,0,0,.744.424l1.7-.469a.6.6,0,0,0,.421-.74l-.854-3.1a.6.6,0,0,0-.742-.419l-1.7.47a.6.6,0,0,0-.422.741Z" transform="translate(-837.737 -823.04)" fill="#e9d6b8"/>
          <path id="Caminho_7126" data-name="Caminho 7126" d="M861.182,831.847s1.263,4.578,1.685,6.106c.379,1.377.662,4.56-7.132,6.707-4.615,1.267-5.38-2.165-5.687-3.282a10.229,10.229,0,0,1,.38-4.277c.011-.018.521,1.891.521,1.891a3.818,3.818,0,0,1,2.646-2.711c3.54-.973,4.911.876,6.461.411C861.247,836.333,861.612,834.124,861.182,831.847Z" transform="translate(-838.48 -821.749)" fill="#002740"/>
          <path id="Caminho_7127" data-name="Caminho 7127" d="M858.331,844.38l-2.422.669a.6.6,0,0,1-.741-.423l-.094-.335,3.585-.991.092.342A.6.6,0,0,1,858.331,844.38Z" transform="translate(-840.936 -827.246)" fill="#e9d6b8"/>
        </g>
      </g>
      <path id="Caminho_7128" data-name="Caminho 7128" d="M787.387,920.177c1.116,3.089,20.7,14.46,27.264,13.785l19.779.942c16.822-2.054,24.781-28.186,24.781-28.186-.672-6.563-17.244,2.948-23.148,5.9-9.356,4.668-15.27,4.9-15.27,4.9-6.257.639-13.511-4.188-21.41-4.356C790.708,912.979,785.625,915.307,787.387,920.177Z" transform="translate(-787.04 -856.596)" fill="#002740"/>
      <g id="Grupo_3377" data-name="Grupo 3377" transform="translate(5.382 41.348)">
        <path id="Caminho_7129" data-name="Caminho 7129" d="M839.027,927.291c.005-.009.011-.017.016-.025v-.824L805,925.821l-.015.822a.065.065,0,0,0,0,.029l.084.153a2.237,2.237,0,0,0,2.106.881l29.629.538a2.23,2.23,0,0,0,2.136-.8Z" transform="translate(-801.032 -908.198)" fill="#b6c2c9"/>
        <path id="Caminho_7130" data-name="Caminho 7130" d="M854.667,928.014a.039.039,0,0,0,0,.022l.079.128a1.422,1.422,0,0,0,.49.427l5.178.092a2.354,2.354,0,0,0,2.053-.642l.084-.124a.159.159,0,0,0,.016-.022l0-.4-7.888-.144Z" transform="translate(-824.877 -908.932)" fill="#d8e5ed"/>
        <g id="Grupo_3375" data-name="Grupo 3375" transform="translate(8.184 17.89)">
          <rect id="Retângulo_491" data-name="Retângulo 491" width="0.581" height="17.016" transform="translate(0 0.581) rotate(-88.95)" fill="#879ba6"/>
        </g>
        <g id="Grupo_3376" data-name="Grupo 3376">
          <path id="Caminho_7131" data-name="Caminho 7131" d="M827.006,910,822.9,893.185a1.118,1.118,0,0,0-1-.817l-23.885-.432a.593.593,0,0,0-.6.785l4.109,16.812Z" transform="translate(-797.389 -891.936)" fill="#b0bfde"/>
          <path id="Caminho_7132" data-name="Caminho 7132" d="M825.773,907.879a1.15,1.15,0,0,1-1.166,1.525,2.163,2.163,0,0,1-1.928-1.581,1.152,1.152,0,0,1,1.167-1.525A2.148,2.148,0,0,1,825.773,907.879Z" transform="translate(-809.504 -898.828)" fill="#e1eefe"/>
        </g>
      </g>
      <g id="Grupo_3379" data-name="Grupo 3379" transform="translate(40.174 72.298)">
        <path id="Caminho_7133" data-name="Caminho 7133" d="M874.525,961.813c-2.355.4-4.15-2.333-4.15-2.333l-6.088-4.792,1.289-3.24,11.853,5.328S876.884,961.41,874.525,961.813Z" transform="translate(-864.287 -951.447)" fill="#e9d6b8"/>
        <path id="Caminho_7134" data-name="Caminho 7134" d="M875.975,962.873a6.056,6.056,0,0,0,.448,1.53c.455,1.252,1.009,1.686,1.6,1.859,2.273.671,3.908.332,9.375,1.384s7.105.261,8.7-2.259-.06-4.5-2.726-4.7c-3.858-.288-6.006.151-8.015-.153-2.1-.321-2.238-.792-3.468-1.552-1.157-.708-2.222,3.519-1.128,4.5C881.727,964.343,876.8,964.476,875.975,962.873Z" transform="translate(-869.896 -955.024)" fill="#f03e30"/>
        <path id="Caminho_7135" data-name="Caminho 7135" d="M877.861,967.622c2.272.67,3.91.332,9.376,1.385s7.1.259,8.706-2.26a2.913,2.913,0,0,0,.344-3.016c1.2.826,1.612,2.274.53,3.975-1.6,2.519-3.239,3.313-8.7,2.259s-7.1-.714-9.375-1.384a2.1,2.1,0,0,1-1.271-1.125A1.946,1.946,0,0,0,877.861,967.622Z" transform="translate(-870.612 -957.342)" fill="#fff"/>
        <path id="Caminho_7136" data-name="Caminho 7136" d="M875.983,966.613a.519.519,0,0,1-.008-.074.82.82,0,0,0,.053.084Z" transform="translate(-869.896 -958.69)" fill="#e9d6b8"/>
        <g id="Grupo_3378" data-name="Grupo 3378" transform="translate(14.143 5.091)">
          <path id="Caminho_7137" data-name="Caminho 7137" d="M898.435,966.193c.178.065.334-.264.387-.729a13.129,13.129,0,0,1,.633-2.817c.159-.461.154-.87-.036-.923s-.5.278-.652.728a13.232,13.232,0,0,0-.6,2.787C898.122,965.7,898.262,966.125,898.435,966.193Z" transform="translate(-894.686 -961.468)" fill="#fff"/>
          <path id="Caminho_7138" data-name="Caminho 7138" d="M895.163,965.849c.189.039.354-.287.407-.721a11.985,11.985,0,0,1,.624-2.651c.154-.434.146-.808-.058-.834s-.52.3-.667.733a11.992,11.992,0,0,0-.591,2.621C894.834,965.428,894.982,965.806,895.163,965.849Z" transform="translate(-893.107 -961.43)" fill="#fff"/>
          <path id="Caminho_7139" data-name="Caminho 7139" d="M891.76,965.575c.192.026.384-.317.453-.768a13.494,13.494,0,0,1,.741-2.735c.17-.448.173-.826-.041-.836s-.544.342-.713.784a13.135,13.135,0,0,0-.7,2.707C891.433,965.173,891.569,965.551,891.76,965.575Z" transform="translate(-891.481 -961.236)" fill="#fff"/>
        </g>
      </g>
      <path id="Caminho_7140" data-name="Caminho 7140" d="M837.167,940.441s-41.838-17.2-44.227-17.226c-8.08-.076-6.227,8.1-2.133,11.948,4.831,4.539,41.561,12.845,41.561,12.845Z" transform="translate(-787.168 -865.599)" fill="#002740"/>
      <g id="Grupo_3382" data-name="Grupo 3382" transform="translate(13.018 41.291)">
        <path id="Caminho_7141" data-name="Caminho 7141" d="M845.808,947.638l11.422-10.828-4.869-4.821L839.891,945.1Z" transform="translate(-825.422 -911.101)" fill="#e9d6b8"/>
        <path id="Caminho_7142" data-name="Caminho 7142" d="M846.718,919.849s29.064-26.641,31.024-27.437c6.634-2.694,10.745,4.633,10.512,7.166-.3,3.282-29.831,29.964-29.831,29.964Z" transform="translate(-828.699 -891.827)" fill="#002740"/>
        <g id="Grupo_3381" data-name="Grupo 3381" transform="translate(0 31.836)">
          <path id="Caminho_7143" data-name="Caminho 7143" d="M812.865,958.588a4.778,4.778,0,0,0-.8,2.474s9.7,3.668,13.106,3.734a17.331,17.331,0,0,0,4-.76c.258-.068.849-.734,1.1-.809.465-.135.569.316.969.189a12.2,12.2,0,0,0,1.8-.662c2.049-4.357,1.354-6.5,1.354-6.5s-4.456,1.274-3.694.277c1.636-2.132-3.034-4.317-4.077-3.179C822.475,957.9,814.835,956.773,812.865,958.588Z" transform="translate(-812.07 -953.041)" fill="#f03e30"/>
          <path id="Caminho_7144" data-name="Caminho 7144" d="M812.325,965.448c2.982,1.184,9.247,3.632,10.494,3.718,5.1.361,8.672-1.452,11.058-2.519a19.958,19.958,0,0,1-.834,2.063,12.173,12.173,0,0,1-1.8.662c-.4.127-.5-.324-.969-.189-.25.075-.841.741-1.1.809a17.329,17.329,0,0,1-4,.76c-3.406-.067-13.106-3.734-13.106-3.734A6.629,6.629,0,0,1,812.325,965.448Z" transform="translate(-812.07 -958.995)" fill="#fff"/>
          <g id="Grupo_3380" data-name="Grupo 3380" transform="translate(7.099 2.035)">
            <path id="Caminho_7145" data-name="Caminho 7145" d="M825.734,959.838c-.09.169.288.366.832.48a18.468,18.468,0,0,1,3.276.992c.531.218,1.014.266,1.089.081s-.295-.535-.818-.744a18.419,18.419,0,0,0-3.24-.956C826.333,959.586,825.825,959.671,825.734,959.838Z" transform="translate(-825.72 -958.245)" fill="#fff"/>
            <path id="Caminho_7146" data-name="Caminho 7146" d="M829.917,958.386c-.082.174.289.416.817.571A18.718,18.718,0,0,1,833.9,960.2c.51.256.976.335,1.044.142s-.283-.583-.791-.831a18.3,18.3,0,0,0-3.136-1.2C830.495,958.163,830,958.216,829.917,958.386Z" transform="translate(-827.729 -957.564)" fill="#fff"/>
            <path id="Caminho_7147" data-name="Caminho 7147" d="M833.948,957.1c-.078.18.283.458.8.655a18.961,18.961,0,0,1,3.05,1.484c.49.293.935.4,1,.2s-.269-.625-.755-.912a18.509,18.509,0,0,0-3.029-1.44C834.5,956.9,834.023,956.921,833.948,957.1Z" transform="translate(-829.664 -956.954)" fill="#fff"/>
          </g>
        </g>
      </g>
    </g>
    <g id="Grupo_3460" data-name="Grupo 3460" transform="translate(-4977.138 -4299.197)">
      <path id="Caminho_7233" data-name="Caminho 7233" d="M550.941,393.69s21.909.046,30.367.175c5.852.087,6.384-8.255,4.075-9.51-7.006-3.815-28.87-5.772-28.87-5.772l-14.871,13.656S542.477,392.216,550.941,393.69Z" transform="translate(-524.416 -328.893)" fill="#002740"/>
      <path id="Caminho_7234" data-name="Caminho 7234" d="M597.639,321.533s5.635-1.578,8.085,5.778c3.767,11.289,3.433,21.644,2.909,23.85-.242,1.015-.965,4.523-7.259,4.659-2.552.056-1.533-5.414-1.533-5.414a119.241,119.241,0,0,1-3.378-12.5C594.719,330.042,597.639,321.533,597.639,321.533Z" transform="translate(-550.46 -301.444)" fill="#b0bfde"/>
      <path id="Caminho_7235" data-name="Caminho 7235" d="M571.642,317.893,557.2,313.22l-10.938-.736-11.98,3.628s-3.922,2.7-.282,11.386,2.242,22.3,2.242,22.3l30.911.99a250.96,250.96,0,0,1,2.632-25.165C570.239,322.812,570.3,319.508,571.642,317.893Z" transform="translate(-520.004 -297.17)" fill="#bdcfe8"/>
      <path id="Caminho_7236" data-name="Caminho 7236" d="M566.928,351.015h1.577a131.036,131.036,0,0,0-.246-36.787c-.473.284-.946.566-1.424.848C567.235,327.455,566.554,339.836,566.928,351.015Z" transform="translate(-536.495 -298.007)" fill="#b0bfde"/>
      <g id="Grupo_3452" data-name="Grupo 3452" transform="translate(25.435 4.589)">
        <path id="Caminho_7237" data-name="Caminho 7237" d="M568.567,306.728a3.592,3.592,0,0,1-3.014,3.19h-4.081a3.589,3.589,0,0,1-3.013-3.19q-.5-4.13-1-8.265c-.223-1.652.757-4.966,2.931-5.947a7.8,7.8,0,0,1,6.251,0c2.172.981,3.154,4.294,2.932,5.947Q569.068,302.6,568.567,306.728Z" transform="translate(-557.425 -291.863)" fill="#e2c59c"/>
      </g>
      <path id="Caminho_7238" data-name="Caminho 7238" d="M562.04,321.362l-2.594,4.251-4.75-5.941.747-3.125,1.542-1.265.02,2.351Z" transform="translate(-530.68 -298.512)" fill="#b0bfde"/>
      <path id="Caminho_7239" data-name="Caminho 7239" d="M569.422,321.338l2.59,4.251,4.422-5.536-.725-3.392-1.107-1.43-.449,2.78Z" transform="translate(-537.748 -298.488)" fill="#b0bfde"/>
      <g id="Grupo_3453" data-name="Grupo 3453" transform="translate(24.516 0)">
        <path id="Caminho_7240" data-name="Caminho 7240" d="M562.048,283.038a3.258,3.258,0,0,0-2.735,1.478h-1.121a2.531,2.531,0,0,0-2.532,2.533V293.3h1.78v-2.545a1.782,1.782,0,0,1,1.782-1.779h.483a3.269,3.269,0,0,0,3.268-3.269v-2.672Z" transform="translate(-555.659 -283.038)" fill="#002740"/>
        <path id="Caminho_7241" data-name="Caminho 7241" d="M558.89,304.086a1.551,1.551,0,0,1-1.552,1.55h-.129a1.55,1.55,0,0,1-1.549-1.55V302.2a1.551,1.551,0,0,1,1.549-1.55h.129a1.56,1.56,0,0,1,1.422.924" transform="translate(-555.659 -291.493)" fill="#e2c59c"/>
        <path id="Caminho_7242" data-name="Caminho 7242" d="M565.271,285.522v-2.484h5.365a3.267,3.267,0,0,1,3.27,3.267v2.485h-5.369A3.266,3.266,0,0,1,565.271,285.522Z" transform="translate(-560.272 -283.038)" fill="#002740"/>
        <path id="Caminho_7243" data-name="Caminho 7243" d="M569.54,299.364a5.114,5.114,0,0,1-2.643,4.194,9.506,9.506,0,0,1-7.121,0,5.1,5.1,0,0,1-2.643-4.194V288.3a2.747,2.747,0,0,1,2.9-2.438h6.6a2.745,2.745,0,0,1,2.906,2.438Z" transform="translate(-556.366 -284.392)" fill="#e9d6b8"/>
        <path id="Caminho_7244" data-name="Caminho 7244" d="M568.992,283.038a3.25,3.25,0,0,1,2.73,1.478h1.125a2.533,2.533,0,0,1,2.531,2.533V293.3H573.6v-2.545a1.78,1.78,0,0,0-1.782-1.779h-2.275a3.267,3.267,0,0,1-3.268-3.269v-2.672Z" transform="translate(-560.752 -283.038)" fill="#002740"/>
        <path id="Caminho_7245" data-name="Caminho 7245" d="M577.616,302.2a1.548,1.548,0,0,1,1.551-1.548h.131a1.548,1.548,0,0,1,1.55,1.548v1.882a1.551,1.551,0,0,1-1.55,1.551h-.131a1.556,1.556,0,0,1-1.419-.923" transform="translate(-566.197 -291.493)" fill="#e9d6b8"/>
        <path id="Caminho_7246" data-name="Caminho 7246" d="M561.178,286.163a3.358,3.358,0,0,0,.062-.64v-2.484h-2.312a3.267,3.267,0,0,0-3.27,3.267v2.485h2.315a3.128,3.128,0,0,0,.67-.071A3.282,3.282,0,0,1,561.178,286.163Z" transform="translate(-555.659 -283.038)" fill="#002740"/>
      </g>
      <path id="Caminho_7247" data-name="Caminho 7247" d="M510.946,483.322c-.334.408-.089,1.484-.089,1.484s5.9.657,7.794.211a10.125,10.125,0,0,0,2.113-.99c.129-.075.366-.529.493-.6.237-.143.361.095.563-.032a6.371,6.371,0,0,0,.9-.621c.52-2.706-.172-3.794-.172-3.794s-5.02-1.67-5.963-.51C514.373,481.207,511.684,482.426,510.946,483.322Z" transform="translate(-509.6 -376.632)" fill="#002740"/>
      <g id="Grupo_3454" data-name="Grupo 3454" transform="translate(34.644 47.34)">
        <path id="Caminho_7249" data-name="Caminho 7249" d="M590.215,374.068l-15.081,6.159s10.7,1.526,17.384.165C597.04,379.466,590.419,373.873,590.215,374.068Z" transform="translate(-575.134 -374.063)" fill="#e9d6b8"/>
      </g>
      <path id="Caminho_7250" data-name="Caminho 7250" d="M526.428,391.034s-1.45,13.772-1.246,21.054a157.644,157.644,0,0,1-1.133,24.983c-.081.55-7.1.138-7.1.138s-2.518-34.142-3.265-39.763S515.116,387.767,526.428,391.034Z" transform="translate(-510.937 -334.308)" fill="#002740"/>
      <path id="Caminho_7252" data-name="Caminho 7252" d="M546.9,393.332s-11.977,1.71-19.971,2.547c-2.932.307-5.468-7.9-5.807-8.252a6.058,6.058,0,0,0-4.18-2.038c1.732-1.872,10.7-3.61,20.075-5.809s10.8-.814,10.8-.814Z" transform="translate(-512.562 -328.87)" fill="#002740"/>
      <path id="Caminho_7253" data-name="Caminho 7253" d="M537.019,379.78c-9.372,2.2-18.342,3.937-20.075,5.809a6.059,6.059,0,0,1,4.18,2.038c.09.1.631,2.73,1.015,3.669-1.526-2.753,20.5-10.517,25.26-12.525C546.51,378.485,543.919,378.161,537.019,379.78Z" transform="translate(-512.562 -328.87)" fill="#002740"/>
      <path id="Caminho_7254" data-name="Caminho 7254" d="M531.148,404.438l-.918,26.8-.915,6.213-.1-6.213.2-3.875-2.138-6.008-1.122-13.962,1.633.611-.2-6.114Z" transform="translate(-516.983 -340.079)" fill="#002740"/>
      <g id="Grupo_5172" data-name="Grupo 5172">
        <path id="Caminho_7248" data-name="Caminho 7248" d="M617.1,480.155l.409,4.454,4.46.437s.31-.6.687-.56c.318.031.669.691,1.1.732.938.1,1.98.195,2.395.237l8.951.874s.293-.9.075-1.24a4.285,4.285,0,0,0-1.31-.72c-2.242-.872-8.634-3.538-9.566-5.852C623.164,475.7,617.1,480.155,617.1,480.155Z" transform="translate(-560.63 -376.406)" fill="#002740"/>
        <path id="Caminho_7251" data-name="Caminho 7251" d="M614.864,396.27s-2.259,3.57-8.458,4.415c-2.243.307,3.611,39.964,3.611,39.964l9.162-2.934-1.772-43.858Z" transform="translate(-555.252 -336.223)" fill="#002740"/>
        <path id="Caminho_7255" data-name="Caminho 7255" d="M619.234,392.1l2.239.612.82,32.2-4.688,11.514,2.24-7.846-.916-16.2s-3.262,7.844-3.262,7.439,2.753-17.018,2.753-17.018a36.581,36.581,0,0,0-2.753,2.445C615.976,405.139,617.5,393.625,619.234,392.1Z" transform="translate(-559.932 -335.378)" fill="#002740"/>
      </g>
      <path id="Caminho_7256" data-name="Caminho 7256" d="M529.415,318.775S524.6,315,519.892,322c-6.9,10.257-9.9,21.172-11,24.328-.836,2.424-.374,9.27,2.445,12.092.68.681,4.757.134,4.757.134l2.676-1.849-1.12-2.151-.061-1.7s3.424-8.254,7.622-16.054S529.415,318.775,529.415,318.775Z" transform="translate(-508.519 -299.702)" fill="#bdcfe8"/>
      <g id="Grupo_3456" data-name="Grupo 3456" transform="translate(7.93 49.51)">
        <path id="Caminho_7257" data-name="Caminho 7257" d="M524.965,380.022l15.631.814s-15.056,6.909-15.552,5.717C522.22,379.807,524.965,380.022,524.965,380.022Z" transform="translate(-523.768 -379.093)" fill="#e9d6b8"/>
        <g id="Grupo_3455" data-name="Grupo 3455" transform="translate(9.662)">
          <path id="Caminho_7258" data-name="Caminho 7258" d="M542.48,378.683c.912-.438.829-.446.829-.446a3.75,3.75,0,0,0,2.044,1.178c.6.092,2.542.118,2.542.118l2.878.068,1.334-.072a2.445,2.445,0,0,1,.954.03c.584.37.086.672.086.672l-5.159.729,4.956.617s.622.183.652.521c.027.314-.18.3-.18.3l-5.757.617,2.524.6s.6.195.646.523c.054.355.074.454.074.454l-5.293-.519S541.567,379.123,542.48,378.683Z" transform="translate(-542.346 -378.237)" fill="#e9d6b8"/>
          <path id="Caminho_7259" data-name="Caminho 7259" d="M553.1,385.23l3.468.631a2.876,2.876,0,0,1,1.139.311.467.467,0,0,1,.168.648l-5.313-.446Z" transform="translate(-547.249 -381.593)" fill="#e9d6b8"/>
        </g>
      </g>
      <g id="Grupo_3459" data-name="Grupo 3459" transform="translate(14.377 33.809)">
        <path id="Caminho_7260" data-name="Caminho 7260" d="M566.961,389.53a.2.2,0,0,1,.014-.03l-.014-.987h-30.8v.987a.087.087,0,0,0,0,.03l.107.186a2.669,2.669,0,0,0,2.542,1.007h25.5a2.669,2.669,0,0,0,2.542-1.007Z" transform="translate(-536.164 -367.468)" fill="#b6c2c9"/>
        <g id="Grupo_3457" data-name="Grupo 3457" transform="translate(5.211 21.276)">
          <rect id="Retângulo_495" data-name="Retângulo 495" width="20.389" height="0.695" fill="#879ba6"/>
        </g>
        <g id="Grupo_3458" data-name="Grupo 3458" transform="translate(0.026)">
          <path id="Caminho_7261" data-name="Caminho 7261" d="M566.966,369.2l.08-20.193a.956.956,0,0,0-.96-.961H537.263a.968.968,0,0,0-.966.961l-.082,20.193Z" transform="translate(-536.215 -348.047)" fill="#e4eef3"/>
          <path id="Caminho_7262" data-name="Caminho 7262" d="M566.005,366.661a1.88,1.88,0,0,1-1.875,1.866,1.866,1.866,0,1,1,1.875-1.866Z" transform="translate(-548.72 -356.085)" fill="#b6c2c9"/>
        </g>
      </g>
      <path id="Caminho_7263" data-name="Caminho 7263" d="M521.177,387.021l-1.073-6.854,1.781-1.831,3.948.632-.808,7.583Z" transform="translate(-514.079 -328.774)" fill="#b0bfde"/>
      <path id="Caminho_7264" data-name="Caminho 7264" d="M607.591,379.117,608,376.6l-4.991-4.484-2.7,1.22,3.531,6.762Z" transform="translate(-552.57 -325.788)" fill="#bdcfe8"/>
    </g>
  </g>
</svg>
