<svg xmlns="http://www.w3.org/2000/svg" width="536" height="368.593" viewBox="0 0 536 368.593">
  <g id="palacio_woman" transform="translate(4315 3786.302)">
    <g id="leaf_2">
      <path id="Caminho_6831" data-name="Caminho 6831" d="M430.4,753.412c9.167,4.942,15.026,12.232,21.984,19.481,7.454,7.766,13.074,16.9,14.022,27.826-21.653,2.254-50.944,3.3-68.9-11.712-6.694-5.6-11.447-13.132-15.774-20.708q-5.7-9.987-10.68-20.366C390.708,742.675,412.488,743.756,430.4,753.412Z" transform="translate(-4686.049 -4261.063)" fill="#2fac66"/>
    </g>
    <g id="leaf_1">
      <path id="Caminho_6832" data-name="Caminho 6832" d="M485.33,736.7c-1.175-.457-7.05-2.742-8.8-3.443-13.154-5.287-26.29-11.423-37.175-20.072-.244-.164-.473-.36-.7-.539-.669-.538-1.338-1.109-1.991-1.681A66.911,66.911,0,0,1,420.446,690.6c-.1-.18-.175-.361-.261-.538-.5-1.025-1.012-2.04-1.485-3.068a118.044,118.044,0,0,1-9.6-30.745q-.221-1.249-.392-2.5a115.756,115.756,0,0,1-.718-28.509q.073-1.028.2-2.056c.327.033.652.071.979.115a56.607,56.607,0,0,1,28.493,12.778c.685.555,1.371,1.142,2.04,1.746a91.794,91.794,0,0,1,20.366,25.816c.1.194.212.408.327.6.457.816.9,1.648,1.322,2.48a226.43,226.43,0,0,1,11.064,24.12c.457,1.142.881,2.284,1.306,3.443.751,1.991,1.452,3.982,2.138,5.989q3.109,9.13,5.418,18.473C482.164,720.807,484.056,736.212,485.33,736.7Z" transform="translate(-4704.513 -4199.347)" fill="#5cc78b"/>
      <path id="Caminho_6833" data-name="Caminho 6833" d="M482.366,735.331c-1.746-.686-3.508-1.371-5.255-2.073-5.173-6.609-9.318-14.067-13.3-21.606a1.878,1.878,0,0,1-.6,0,49.877,49.877,0,0,0-18.734.212,34.559,34.559,0,0,0-4.537,1.322c-.244-.164-.473-.36-.7-.539-.669-.538-1.338-1.109-1.991-1.681a45.839,45.839,0,0,1,7.735-2.235,49.524,49.524,0,0,1,8.208-1.045c1.779-.065,6.593,1.028,8.062.392a2.907,2.907,0,0,0,.538-.294c-2.921-5.549-5.826-11.1-9.09-16.335-11.13-4.341-21.052-3.835-31.936-1.387-.522-1.012-1.012-2.04-1.485-3.068,9.5-3.835,20.709-3.247,30.483-.179-5.369-8.372-10.966-16.6-16.6-24.805a1.16,1.16,0,0,1-.816-.13c-7.382-4.382-14.785-5.222-22.667-5.63q-.221-1.249-.392-2.5a44.544,44.544,0,0,1,21.019,4.129c-7.409-10.77-14.818-21.557-21.737-32.638q.073-1.028.2-2.056c.327.033.653.065.979.115,7.654,10.542,14.965,21.378,22.178,32.279a50.313,50.313,0,0,1,6.315-19.5c.685.555,1.371,1.142,2.04,1.746-3.117,6.789-6.021,13.414-6.087,21.2,5.924,9.024,18.2,27.872,18.456,28.3a69.857,69.857,0,0,1,8-23.678c.1.2.212.408.327.6.457.816.9,1.648,1.322,2.48a52.483,52.483,0,0,0-6.707,23.369,1.91,1.91,0,0,1-.506,1.159c2.954,4.928,5.647,9.987,8.339,15.046,2.66-3.231,4.471-9.4,6.756-12.174a26.392,26.392,0,0,1,3.182-3.28c.457,1.142.881,2.284,1.306,3.443-4.243,4.243-6.854,9.514-9.286,15.715,1.24,2.334,2.48,4.667,3.77,6.968A108.2,108.2,0,0,0,482.366,735.331Z" transform="translate(-4705.09 -4199.347)" fill="#2fac66"/>
    </g>
    <g id="leaf_4">
      <path id="Caminho_6834" data-name="Caminho 6834" d="M1362.579,811.517c-9.167,4.942-15.026,12.232-21.984,19.481-7.454,7.765-13.074,16.9-14.022,27.826,21.654,2.253,50.944,3.3,68.9-11.713,6.694-5.6,11.447-13.131,15.774-20.708q5.7-9.987,10.679-20.366C1402.272,800.779,1380.492,801.861,1362.579,811.517Z" transform="translate(-5200.931 -4304.547)" fill="#2fac66"/>
    </g>
    <g id="leaf_3">
      <path id="Caminho_6835" data-name="Caminho 6835" d="M1325.642,794.806c1.175-.457,7.05-2.742,8.8-3.443,13.153-5.287,26.29-11.423,37.174-20.072.245-.163.473-.359.7-.538.669-.538,1.338-1.11,1.991-1.681a66.913,66.913,0,0,0,16.221-20.366c.1-.179.175-.361.261-.538.5-1.024,1.012-2.04,1.485-3.068a118.055,118.055,0,0,0,9.6-30.745q.22-1.249.391-2.5a115.778,115.778,0,0,0,.718-28.509q-.073-1.028-.2-2.056c-.326.033-.652.071-.979.114a56.605,56.605,0,0,0-28.493,12.778c-.685.555-1.371,1.142-2.04,1.746a91.8,91.8,0,0,0-20.366,25.816c-.1.194-.212.408-.327.6-.457.816-.9,1.648-1.322,2.48a226.542,226.542,0,0,0-11.064,24.12c-.456,1.142-.881,2.284-1.305,3.443-.751,1.991-1.453,3.982-2.138,5.989q-3.109,9.13-5.418,18.473C1328.808,778.912,1326.915,794.317,1325.642,794.806Z" transform="translate(-5200.458 -4242.832)" fill="#5cc78b"/>
      <path id="Caminho_6836" data-name="Caminho 6836" d="M1332.832,793.435c1.746-.685,3.508-1.37,5.255-2.072,5.173-6.609,9.318-14.067,13.3-21.606a1.877,1.877,0,0,0,.6,0,49.886,49.886,0,0,1,18.734.212,34.562,34.562,0,0,1,4.536,1.322c.245-.163.473-.359.7-.538.669-.538,1.338-1.11,1.991-1.681a45.84,45.84,0,0,0-7.735-2.235,49.525,49.525,0,0,0-8.208-1.045c-1.779-.065-6.593,1.028-8.062.392a2.908,2.908,0,0,1-.539-.294c2.921-5.549,5.826-11.1,9.09-16.335,11.129-4.34,21.051-3.835,31.936-1.387.522-1.012,1.012-2.04,1.485-3.068-9.5-3.835-20.709-3.248-30.484-.18,5.369-8.371,10.967-16.6,16.6-24.8a1.162,1.162,0,0,0,.816-.13c7.383-4.379,14.784-5.222,22.667-5.63q.22-1.249.392-2.5a44.538,44.538,0,0,0-21.019,4.129c7.409-10.77,14.817-21.557,21.737-32.638q-.073-1.028-.2-2.056c-.326.033-.653.066-.979.114-7.653,10.542-14.964,21.378-22.177,32.279a50.308,50.308,0,0,0-6.315-19.5c-.685.555-1.371,1.142-2.04,1.746,3.117,6.789,6.021,13.414,6.086,21.2-5.923,9.024-18.2,27.872-18.456,28.3a69.865,69.865,0,0,0-8-23.679c-.1.2-.212.408-.327.6-.457.816-.9,1.648-1.322,2.48a52.475,52.475,0,0,1,6.707,23.369,1.912,1.912,0,0,0,.506,1.159c-2.954,4.928-5.646,9.987-8.339,15.046-2.66-3.231-4.471-9.4-6.756-12.174a26.328,26.328,0,0,0-3.182-3.28c-.457,1.142-.881,2.284-1.305,3.443,4.243,4.243,6.854,9.514,9.286,15.715-1.241,2.334-2.48,4.667-3.77,6.969A108.152,108.152,0,0,1,1332.832,793.435Z" transform="translate(-5204.106 -4242.832)" fill="#2fac66"/>
    </g>
    <g id="Grupo_3262" data-name="Grupo 3262" transform="translate(-4273.78 -3778.46)">
      <rect id="Retângulo_441" data-name="Retângulo 441" width="203.548" height="196.551" transform="translate(47.445 107.461)" fill="#878787"/>
      <path id="Retângulo_442" data-name="Retângulo 442" d="M0,0H46.7a0,0,0,0,1,0,0V7.6a1.83,1.83,0,0,1-1.83,1.83H1.83A1.83,1.83,0,0,1,0,7.6V0A0,0,0,0,1,0,0Z" transform="translate(31.318 125.721)" fill="#dadada"/>
      <path id="Retângulo_443" data-name="Retângulo 443" d="M0,0H38.26a0,0,0,0,1,0,0V4.541a1.745,1.745,0,0,1-1.745,1.745H1.745A1.745,1.745,0,0,1,0,4.541V0A0,0,0,0,1,0,0Z" transform="translate(35.509 135.15)" fill="#ededed"/>
      <path id="Caminho_6837" data-name="Caminho 6837" d="M565.1,628.031H534.119l1.759-128.415h27.464Z" transform="translate(-495.019 -358.18)" fill="#ededed"/>
      <path id="Retângulo_444" data-name="Retângulo 444" d="M0,0H46.7a0,0,0,0,1,0,0V7.6a1.83,1.83,0,0,1-1.83,1.83H1.83A1.83,1.83,0,0,1,0,7.6V0A0,0,0,0,1,0,0Z" transform="translate(78.014 284.219) rotate(180)" fill="#dadada"/>
      <path id="Retângulo_445" data-name="Retângulo 445" d="M0,0H38.261a0,0,0,0,1,0,0V4.541a1.745,1.745,0,0,1-1.745,1.745H1.745A1.745,1.745,0,0,1,0,4.541V0A0,0,0,0,1,0,0Z" transform="translate(73.824 274.79) rotate(180)" fill="#ededed"/>
      <path id="Retângulo_446" data-name="Retângulo 446" d="M0,0H46.7a0,0,0,0,1,0,0V7.6a1.83,1.83,0,0,1-1.83,1.83H1.83A1.83,1.83,0,0,1,0,7.6V0A0,0,0,0,1,0,0Z" transform="translate(95.974 125.721)" fill="#dadada"/>
      <path id="Retângulo_447" data-name="Retângulo 447" d="M0,0H38.261a0,0,0,0,1,0,0V4.541a1.745,1.745,0,0,1-1.745,1.745H1.745A1.745,1.745,0,0,1,0,4.541V0A0,0,0,0,1,0,0Z" transform="translate(100.165 135.15)" fill="#ededed"/>
      <path id="Retângulo_448" data-name="Retângulo 448" d="M0,0H46.7a0,0,0,0,1,0,0V7.6a1.83,1.83,0,0,1-1.83,1.83H1.83A1.83,1.83,0,0,1,0,7.6V0A0,0,0,0,1,0,0Z" transform="translate(160.631 125.721)" fill="#dadada"/>
      <path id="Retângulo_449" data-name="Retângulo 449" d="M0,0H38.26a0,0,0,0,1,0,0V4.541a1.745,1.745,0,0,1-1.745,1.745H1.745A1.745,1.745,0,0,1,0,4.542V0A0,0,0,0,1,0,0Z" transform="translate(164.822 135.15)" fill="#2fac66"/>
      <path id="Caminho_6838" data-name="Caminho 6838" d="M827.639,628.031H796.658l1.759-128.415H825.88Z" transform="translate(-628.244 -358.18)" fill="#ededed"/>
      <path id="Retângulo_450" data-name="Retângulo 450" d="M0,0H46.7a0,0,0,0,1,0,0V7.6a1.83,1.83,0,0,1-1.83,1.83H1.83A1.83,1.83,0,0,1,0,7.6V0A0,0,0,0,1,0,0Z" transform="translate(207.327 284.219) rotate(180)" fill="#dadada"/>
      <path id="Retângulo_451" data-name="Retângulo 451" d="M0,0H38.261a0,0,0,0,1,0,0V4.541a1.745,1.745,0,0,1-1.745,1.745H1.745A1.745,1.745,0,0,1,0,4.541V0A0,0,0,0,1,0,0Z" transform="translate(203.136 274.79) rotate(180)" fill="#ededed"/>
      <path id="Retângulo_452" data-name="Retângulo 452" d="M0,0H46.7a0,0,0,0,1,0,0V7.6a1.83,1.83,0,0,1-1.83,1.83H1.83A1.83,1.83,0,0,1,0,7.6V0A0,0,0,0,1,0,0Z" transform="translate(225.287 125.721)" fill="#dadada"/>
      <path id="Retângulo_453" data-name="Retângulo 453" d="M0,0H38.26a0,0,0,0,1,0,0V4.541a1.745,1.745,0,0,1-1.745,1.745H1.745A1.745,1.745,0,0,1,0,4.541V0A0,0,0,0,1,0,0Z" transform="translate(229.478 135.15)" fill="#ededed"/>
      <path id="Caminho_6839" data-name="Caminho 6839" d="M958.908,628.031H927.926l1.759-128.415h27.464Z" transform="translate(-694.856 -358.18)" fill="#ededed"/>
      <path id="Retângulo_454" data-name="Retângulo 454" d="M0,0H46.7a0,0,0,0,1,0,0V7.6a1.83,1.83,0,0,1-1.83,1.83H1.83A1.83,1.83,0,0,1,0,7.6V0A0,0,0,0,1,0,0Z" transform="translate(271.984 284.219) rotate(180)" fill="#dadada"/>
      <path id="Retângulo_455" data-name="Retângulo 455" d="M0,0H38.26a0,0,0,0,1,0,0V4.541a1.745,1.745,0,0,1-1.745,1.745H1.745A1.745,1.745,0,0,1,0,4.541V0A0,0,0,0,1,0,0Z" transform="translate(267.793 274.79) rotate(180)" fill="#ededed"/>
      <path id="Caminho_6840" data-name="Caminho 6840" d="M624.294,441.274H491.2v9.8a3.218,3.218,0,0,0,3.218,3.218H754.171a3.218,3.218,0,0,0,3.218-3.218v-9.8Z" transform="translate(-473.238 -328.574)" fill="#ededed"/>
      <g id="Grupo_3259" data-name="Grupo 3259">
        <path id="Caminho_6841" data-name="Caminho 6841" d="M467.231,328.383v-6.231l144.9-94.755,144.9,94.755v6.231Z" transform="translate(-461.076 -220.042)" fill="#b2b2b2"/>
        <path id="Caminho_6842" data-name="Caminho 6842" d="M605.79,227.173,739.56,314.65H472.021Zm0-14.708L456.614,310.017a4.15,4.15,0,0,0-1.879,3.474v9.878a3.592,3.592,0,0,0,3.592,3.592H753.254a3.592,3.592,0,0,0,3.592-3.592v-9.878a4.15,4.15,0,0,0-1.879-3.474Z" transform="translate(-454.735 -212.465)" fill="#c6c6c6"/>
      </g>
      <path id="Caminho_6843" data-name="Caminho 6843" d="M754.146,816.013H478.713a3.013,3.013,0,0,0-3.012,3.012v10.458H757.158V819.025A3.012,3.012,0,0,0,754.146,816.013Z" transform="translate(-465.374 -518.736)" fill="#dadada"/>
      <path id="Caminho_6844" data-name="Caminho 6844" d="M753.915,843.361h-290.7a3.012,3.012,0,0,0-3.012,3.012v10.458H756.927V846.373A3.012,3.012,0,0,0,753.915,843.361Z" transform="translate(-457.51 -532.614)" fill="#c6c6c6"/>
      <path id="Caminho_6851" data-name="Caminho 6851" d="M696.37,628.031H665.388l1.759-128.415h27.464Z" transform="translate(-561.631 -358.18)" fill="#ededed"/>
      <path id="Retângulo_456" data-name="Retângulo 456" d="M0,0H46.7a0,0,0,0,1,0,0V7.6a1.83,1.83,0,0,1-1.83,1.83H1.83A1.83,1.83,0,0,1,0,7.6V0A0,0,0,0,1,0,0Z" transform="translate(142.671 284.219) rotate(180)" fill="#dadada"/>
      <path id="Retângulo_457" data-name="Retângulo 457" d="M0,0H38.26a0,0,0,0,1,0,0V4.541a1.745,1.745,0,0,1-1.745,1.745H1.745A1.745,1.745,0,0,1,0,4.541V0A0,0,0,0,1,0,0Z" transform="translate(138.48 274.79) rotate(180)" fill="#ededed"/>
      <path id="Caminho_6852" data-name="Caminho 6852" d="M754.377,788.666H494.21a3.012,3.012,0,0,0-3.012,3.012v10.458H757.389V791.678A3.012,3.012,0,0,0,754.377,788.666Z" transform="translate(-473.238 -504.859)" fill="#ededed"/>
    </g>
    <g id="Grupo_4793" data-name="Grupo 4793" transform="translate(-4038.805 -3728.983)">
      <g id="Grupo_3268" data-name="Grupo 3268">
        <path id="Caminho_6899" data-name="Caminho 6899" d="M1164.753,246.671h-60.188c-36.513,0-51.684,15.155-51.684,51.684V506.261c0,36.528,15.171,51.684,51.684,51.684h60.188c36.512,0,51.684-15.156,51.684-51.684V298.355C1216.437,261.826,1201.265,246.671,1164.753,246.671Z" transform="translate(-1052.881 -246.671)" fill="#00c3ff"/>
        <path id="Caminho_6900" data-name="Caminho 6900" d="M1112.885,556.3c-30.692,0-41.71-10.578-41.71-41.71V306.67c0-31.187,11.07-41.709,41.71-41.709h59.524c30.692,0,41.709,10.578,41.709,41.709V514.589c0,30.692-10.578,41.71-41.709,41.71Z" transform="translate(-1061.206 -254.994)" fill="#fff"/>
        <path id="Caminho_6901" data-name="Caminho 6901" d="M1190.356,391.072c.58-3.163,18.919-47.343-27.8-71.975a591.735,591.735,0,0,1,45.7-40.57c-6.122-9.756-17.446-13.565-35.847-13.565h-13.143c-40.984,35.6-64.2,62.305-88.091,96.423V443.1c9.436-17.588,19.127-33.7,29.137-48.623a53.715,53.715,0,0,0,48.316,30.219c.572,0,1.144-.009,1.712-.027-32.476,31.86-46.472,59.014-72.742,118.909,4.242,6.2,10.778,9.846,20.133,11.546,19.962-70.925,60.968-116.209,116.388-161.155v-23.23C1209.7,374.2,1194.392,387.859,1190.356,391.072Z" transform="translate(-1061.206 -254.994)" fill="#f6f6f6"/>
        <path id="Caminho_6902" data-name="Caminho 6902" d="M1202.6,252.052h-31.646c-3.725,0-3.727,4.1,0,4.1H1202.6C1206.329,256.153,1206.332,252.052,1202.6,252.052Z" transform="translate(-1105.341 -249.12)" fill="#0a2740"/>
        <path id="Caminho_6903" data-name="Caminho 6903" d="M1203.427,773.573h-41.614c-3.725,0-3.727,4.1,0,4.1h41.614C1207.152,777.674,1207.154,773.573,1203.427,773.573Z" transform="translate(-1101.179 -486.437)" fill="#19619e"/>
        <path id="Caminho_6904" data-name="Caminho 6904" d="M1110.571,284.024h-4.118c-3.725,0-3.728,4.1,0,4.1h4.118C1114.3,288.125,1114.3,284.024,1110.571,284.024Z" transform="translate(-1075.987 -263.668)" fill="#19619e"/>
        <path id="Caminho_6905" data-name="Caminho 6905" d="M1134.7,284.024h-4.118c-3.725,0-3.727,4.1,0,4.1h4.118C1138.429,288.125,1138.431,284.024,1134.7,284.024Z" transform="translate(-1086.969 -263.668)" fill="#19619e"/>
        <path id="Caminho_6906" data-name="Caminho 6906" d="M1150.453,252.052a2.051,2.051,0,0,0,0,4.1A2.051,2.051,0,0,0,1150.453,252.052Z" transform="translate(-1096.353 -249.12)" fill="#0a2740"/>
        <path id="Caminho_6907" data-name="Caminho 6907" d="M1255.58,284.024a2.051,2.051,0,0,0,0,4.1A2.051,2.051,0,0,0,1255.58,284.024Z" transform="translate(-1144.191 -263.668)" fill="#19619e"/>
        <path id="Caminho_6908" data-name="Caminho 6908" d="M1267.692,284.024a2.051,2.051,0,0,0,0,4.1A2.051,2.051,0,0,0,1267.692,284.024Z" transform="translate(-1149.702 -263.668)" fill="#19619e"/>
        <path id="Caminho_6909" data-name="Caminho 6909" d="M1279.8,284.024a2.051,2.051,0,0,0,0,4.1A2.051,2.051,0,0,0,1279.8,284.024Z" transform="translate(-1155.214 -263.668)" fill="#19619e"/>
        <path id="Caminho_6910" data-name="Caminho 6910" d="M1291.916,284.024a2.051,2.051,0,0,0,0,4.1A2.051,2.051,0,0,0,1291.916,284.024Z" transform="translate(-1160.725 -263.668)" fill="#19619e"/>
      </g>
      <g id="dolar">
        <path id="Caminho_6912" data-name="Caminho 6912" d="M1198.928,434.284c-4.134-2.241-17.3-4-11.731-11.53,1.793-2.424,4.415-3.018,7.278-2.616,2.258.317,7.882,4.726,9.8,1.525,2.132-3.553-3.677-6.65-5.689-7.656a13.507,13.507,0,0,0-6.939-1.275,16.594,16.594,0,0,0-12.458,6.846,11.841,11.841,0,0,0-1.959,5.075c-.774,5.9,3.781,10.587,8.715,12.958,4.514,2.168,12.313,1.793,13.96,7.661a6.747,6.747,0,0,1,.2,2.154c-.128,2.6-1.589,5.42-4.134,5.985-4.27.948-9.913-.935-12.493-4.539-3.3-4.606-11-.177-7.668,4.483,7.781,10.87,29.678,12.34,31.6-4.135C1208.145,442.95,1204.308,437.2,1198.928,434.284Z" transform="translate(-1108.448 -322.221)" fill="#1250b3"/>
        <path id="Caminho_6913" data-name="Caminho 6913" d="M1205.663,404.038c-.479-1.162-1.092-1.836-1.871-1.817-2.5.063-3.392,5-3.4,7.291-.019,7.992.482,15.812.669,23.688.107,4.494-.03,8.99.029,13.484a82.026,82.026,0,0,0,.82,13.513c.3,1.688,2.133,4.329,3.622,1.779a5.417,5.417,0,0,0,.559-1.974c1.3-8.833.617-17.879.829-26.8C1207,429.776,1208.182,410.15,1205.663,404.038Z" transform="translate(-1120.006 -317.454)" fill="#1250b3"/>
      </g>
    </g>
    <g id="Grupo_3263" data-name="Grupo 3263" transform="translate(-4165.081 -3686.058)">
      <path id="Caminho_6853" data-name="Caminho 6853" d="M877.366,913.444c-1.693,1.171-17.27.064-17.423-1.031-.153-1.158-.369-2.2-.5-3.131a.961.961,0,0,1-.038-.242c1.342-9.685,3.12-24.181,3.12-24.181s7.416-.97,10.547,3.37c0,0-8.308,19.156-4.579,20.963.153.076.318.153.522.242a30,30,0,0,0,8.095,2.291S879.058,912.273,877.366,913.444Z" transform="translate(-768.785 -646.028)" fill="#f5a784"/>
      <path id="Caminho_6854" data-name="Caminho 6854" d="M877.368,938.451c-1.693,1.171-17.27.064-17.423-1.031-.153-1.158-.369-2.2-.5-3.131-.013-.089-.025-.166-.038-.242a31.043,31.043,0,0,0,9.609.395,30,30,0,0,0,8.095,2.291S879.06,937.281,877.368,938.451Z" transform="translate(-768.787 -671.035)" fill="#f03e30"/>
      <path id="Caminho_6855" data-name="Caminho 6855" d="M676.114,913.677c1.692,1.171,17.27.064,17.423-1.031.153-1.158.369-2.2.5-3.131.013-.089.025-.165.038-.242.611-4.531,7.9-18.2,7.9-18.2s-6.7-5.762-9.835-1.422c0,0-3.427,17.971-7.156,19.778-.152.076-.318.153-.522.242a29.963,29.963,0,0,1-8.094,2.291S674.421,912.507,676.114,913.677Z" transform="translate(-675.422 -647.683)" fill="#f5a784"/>
      <path id="Caminho_6856" data-name="Caminho 6856" d="M676.114,935.564c1.692,1.171,17.27.063,17.423-1.031.153-1.158.369-2.2.5-3.131.013-.089.025-.166.038-.242a31.028,31.028,0,0,1-9.609.395,29.963,29.963,0,0,1-8.094,2.291S674.421,934.394,676.114,935.564Z" transform="translate(-675.422 -669.57)" fill="#f03e30"/>
      <path id="Caminho_6857" data-name="Caminho 6857" d="M795.162,706.275c-.038.368-.084.727-.127,1.1-.632,4.982-1.569,10.018-2.654,14.852-.137.643-.284,1.275-.432,1.9-.98,4.234-2.064,8.29-3.128,11.976-.158.548-.316,1.1-.474,1.622-1.853,6.268-3.6,11.344-4.666,14.294-.243.675-1.043,2.813-1.043,2.813-15.485,5.372-30.411,1.338-30.411,1.338L774.559,699a5.566,5.566,0,0,0,.305-1.085,5.343,5.343,0,0,0,.074-1.475,5.64,5.64,0,0,0-.337-1.612c-2.78-7.468-21.983-56.449-21.983-56.449-.579,2.854-2.391,7.71-4.856,13.388-.232.537-.474,1.085-.716,1.633-1.38,3.118-2.928,6.425-4.55,9.764-.232.485-.474.958-.706,1.433-3.034,6.151-6.279,12.292-9.164,17.285-.295.516-.59,1.022-.885,1.506-.706,1.2-1.39,2.317-2.033,3.339-1.812,2.855-3.234,5.214-4.361,7.152-.263.463-.516.9-.737,1.306-3.107,5.477-3.434,7.026-3.434,7.026q-.474,3.966-1.127,7.742c-.084.5-.169.991-.264,1.486-.969,5.393-2.17,10.449-3.465,15.083-.127.432-.243.864-.369,1.286-1.516,5.256-3.149,9.964-4.7,13.978-.179.453-.348.906-.526,1.338-1.938,4.919-3.718,8.7-4.909,11.1-.253.505-.474.948-.674,1.338-.558,1.064-.874,1.633-.874,1.633-12.166,5.688-28.841-2.054-28.841-2.054,1.454-1.285,3.571-5.435,6.036-11.218.105-.242.211-.485.316-.737,1.643-3.887,3.423-8.437,5.256-13.315.147-.4.3-.8.453-1.2,1.844-4.929,22.732-63.527,22.963-64.211,1.959-6.025,10.618-34.718,10.723-35.076a4.124,4.124,0,0,1,1.2-1.749c2.244-2.107,7.225-4.287,13.345-6.088.432-.127.864-.253,1.306-.379a109.743,109.743,0,0,1,22.078-3.771c.706-.032,1.4-.063,2.086-.084,7.341-.221,13.546.737,16.232,3.529,2.107,2.18,4.32,7.476,6.351,14.273.151.5.305,1,.453,1.517,1.159,3.929,2.286,8.3,3.35,12.8.168.705.34,1.421.506,2.127,1.354,5.787,2.56,11.713,3.624,17.19.084.453,4.129,23.195,4.129,23.195A101.27,101.27,0,0,1,795.162,706.275Z" transform="translate(-675.426 -510.29)" fill="#1250b3"/>
      <g id="left_arm">
        <path id="Caminho_6858" data-name="Caminho 6858" d="M879.37,499.65a6.676,6.676,0,0,1-7.343,1.858c-3.627-1.311-9.825-4.709-19.535-13.261-.293-.255-.6-.509-.891-.776,0,0-6.274-12.358.471-22.246A1,1,0,0,1,853.51,465c.585.471,1.514,1.247,2.838,2.431,3.08,2.762,8.285,7.764,16.227,16.392,0,0,4.544-18.594,6.783-26.688.255-.967.482-1.778.673-2.388l7.075,1.648s.079.893.142,2.433C887.6,466.434,887.935,489.876,879.37,499.65Z" transform="translate(-763.477 -427.811)" fill="#37a4d6"/>
        <path id="Caminho_6859" data-name="Caminho 6859" d="M911.287,436.063s4.17,3.669,7.076,1.648a17.676,17.676,0,0,1,1.581-5.5c1.322-2.712,4.422-8.212,4.3-10.418a4.458,4.458,0,0,0-.328-1.171,4.368,4.368,0,0,0-.472-.876,4.111,4.111,0,0,0-1.036-1.053,4.06,4.06,0,0,0-.631-.345,4.533,4.533,0,0,0-1.222-.354,6.979,6.979,0,0,0-.758-.059h-.278a1.39,1.39,0,0,0-1.222.792c-.808,1.668-2.872,5.736-4.161,6.982,0,0,.758-4.11-.253-4.927l-.885-.127a37.646,37.646,0,0,1-1.777,7.269A12.323,12.323,0,0,0,911.287,436.063Z" transform="translate(-794.734 -409.132)" fill="#f5a784"/>
        <path id="Caminho_6860" data-name="Caminho 6860" d="M921.842,425.193c-.025.042.034.084.059.05a18.132,18.132,0,0,0,4.38-7.252,6.979,6.979,0,0,0-.758-.059A26.8,26.8,0,0,1,921.842,425.193Z" transform="translate(-800.465 -409.132)" fill="#e0855c"/>
        <path id="Caminho_6861" data-name="Caminho 6861" d="M925.4,426.663c-.025.033.034.075.068.05a18.1,18.1,0,0,0,4.472-7.6,4.056,4.056,0,0,0-.631-.345A27.967,27.967,0,0,1,925.4,426.663Z" transform="translate(-802.27 -409.557)" fill="#e0855c"/>
        <path id="Caminho_6862" data-name="Caminho 6862" d="M928.956,429.24c-.025.034.034.076.067.051a18.366,18.366,0,0,0,4.228-6.806,4.064,4.064,0,0,0-.472-.876A27.83,27.83,0,0,1,928.956,429.24Z" transform="translate(-804.075 -410.998)" fill="#e0855c"/>
        <path id="Caminho_6863" data-name="Caminho 6863" d="M918.106,434.923c1.152.783,1.182,3.2.769,4.373-.056.16-.327.175-.325-.028a12.457,12.457,0,0,0-.072-2.285,10.594,10.594,0,0,1-.459-2.005C918.02,434.938,918.065,434.895,918.106,434.923Z" transform="translate(-798.528 -417.749)" fill="#e0855c"/>
      </g>
      <path id="Caminho_6864" data-name="Caminho 6864" d="M816.443,525.93s-1.778-24.885-1.9-26.781-3.2-20.263-4.74-23.345c-1.323-2.645-10.623-.054-14.489.058.78,3.967-.919,8.547.558,13.314,2.129,6.872-15.8-10.614-17.944-13.233-2.977-.139-9.016-.432-12.5,2.1-5.214,3.792-.3,14.352,2.778,36.037s-6.162,44.2-6.162,44.2,8.532,2.607,15.4.948,13.865-5.452,21.8-4.385,22.16,2.133,27.611-4.74C826.871,550.1,816.324,533.751,816.443,525.93Z" transform="translate(-719.382 -437.897)" fill="#00c3ff"/>
      <path id="Caminho_6865" data-name="Caminho 6865" d="M810.5,484.147c-5.7-8.836-14.06-18.371-16.209-20.993,1.486.063,2.547.021,2.821-.611.474-1.127.348-4.729.158-7.447-.116-1.844-.266-3.276-.266-3.276-.421-6.1,12.874,1.328,12.874,1.328a41.08,41.08,0,0,0-.6,5.456c-.053,1.98.145,3.82.99,4.287a3.006,3.006,0,0,0,1.409.182C812.46,467.043,814.1,489.724,810.5,484.147Z" transform="translate(-735.744 -425.108)" fill="#f5a784"/>
      <path id="Caminho_6866" data-name="Caminho 6866" d="M812.667,453.148a41.091,41.091,0,0,0-.6,5.456c-6.71,2.181-10.512-1.5-12.008-3.507-.116-1.844-.266-3.276-.266-3.276C799.372,445.721,812.667,453.148,812.667,453.148Z" transform="translate(-738.529 -425.108)" fill="#e0855c"/>
      <g id="head">
        <path id="Caminho_6867" data-name="Caminho 6867" d="M777.319,417.96a3.363,3.363,0,0,1,2.5-3.244,3.359,3.359,0,0,1,2.244-5.806,6.514,6.514,0,0,1,10.365-6.242,10.793,10.793,0,0,0,9.106-1.172,3.371,3.371,0,0,1,3.371,3.372,4.569,4.569,0,0,0,.587,0,143.351,143.351,0,0,0,6.156,7.406,3.355,3.355,0,0,1-.954,2.343,3.332,3.332,0,0,1,.532,5.2,3.358,3.358,0,0,1-2.163,5.751,3.372,3.372,0,1,1-3.037-1.542,3.348,3.348,0,0,1,.474-4.21,3.318,3.318,0,0,1-.052-4.713,12.889,12.889,0,0,0-4.327-6.861,4.571,4.571,0,0,0-.587,0,3.351,3.351,0,0,0-5.831-1.432,3.35,3.35,0,0,0-5.811,1.432,3.274,3.274,0,0,0-4.715,2.61A3.335,3.335,0,0,1,783,415.517a3.313,3.313,0,0,1,.611,4.09,3.307,3.307,0,0,1,1.918,4.057,3.411,3.411,0,1,1-3.641,2.381,3.331,3.331,0,0,1-2.5-4.976A3.371,3.371,0,0,1,777.319,417.96Z" transform="translate(-727.13 -400.065)" fill="#112545"/>
        <path id="Caminho_6868" data-name="Caminho 6868" d="M824.937,428.82c.612-.311,1.756-.395,2.2.242a.189.189,0,0,1-.163.284c-.3-.015-.572-.163-.877-.188a2.476,2.476,0,0,0-.957.147A.267.267,0,0,1,824.937,428.82Z" transform="translate(-751.228 -414.536)" fill="#112545"/>
        <path id="Caminho_6869" data-name="Caminho 6869" d="M806.781,429.808c.349-.868,1.865-.951,2.512-.413a.245.245,0,0,1-.107.406,5.579,5.579,0,0,1-1.169.01,3.848,3.848,0,0,0-.937.3A.244.244,0,0,1,806.781,429.808Z" transform="translate(-742.074 -414.777)" fill="#112545"/>
        <path id="Caminho_6870" data-name="Caminho 6870" d="M812.383,424.638s.28-12.322-2.918-13.97c-7.6-3.916-22.943,1.933-21,10.242s2.641,5.98,2.641,5.98S811.762,425.7,812.383,424.638Z" transform="translate(-732.699 -404.814)" fill="#112545"/>
        <path id="Caminho_6871" data-name="Caminho 6871" d="M833.538,435.942s1.9-2.284,3.808,0-1.333,6.658-3.808,6.851C833.538,442.793,833.253,436.926,833.538,435.942Z" transform="translate(-755.594 -417.756)" fill="#e0855c"/>
        <path id="Caminho_6872" data-name="Caminho 6872" d="M814.05,420.712c1.265,1.316,1.37,4.268,1.476,7.533.32,9.882-2.64,12.968-7.688,13.512s-10.328-1.4-11.415-10.561c-.544-4.582-1.123-8.815.543-10.794C799.451,417.45,810.167,416.674,814.05,420.712Z" transform="translate(-736.541 -409.132)" fill="#f5a784"/>
        <path id="Caminho_6873" data-name="Caminho 6873" d="M793.467,439.539s-1.545-4.093-3.982-1.923.934,8.353,4.662,7.895C794.148,445.51,794.655,440.939,793.467,439.539Z" transform="translate(-732.884 -418.798)" fill="#f5a784"/>
        <path id="Caminho_6874" data-name="Caminho 6874" d="M792.425,442.045a3.444,3.444,0,0,1,1.481.967,4.16,4.16,0,0,1,1.088,1.385c.064.165-.167.267-.279.163-.316-.294-.569-.646-.864-.963a1.936,1.936,0,0,1-.715.564c-.224.083-.391-.2-.293-.38a1.756,1.756,0,0,1,.591-.565,9,9,0,0,1-1.177-.882A.174.174,0,0,1,792.425,442.045Z" transform="translate(-734.685 -421.366)" fill="#e0855c"/>
        <path id="Caminho_6875" data-name="Caminho 6875" d="M826.445,435.94s.854.318.725-1.195c-.117-1.36-.725-1.176-.725-1.176s-.594,0-.5,1.186S826.445,435.94,826.445,435.94Z" transform="translate(-751.799 -417.062)" fill="#112545"/>
        <path id="Caminho_6876" data-name="Caminho 6876" d="M808.866,435.94s.855.318.724-1.195c-.116-1.36-.724-1.176-.724-1.176s-.594,0-.5,1.186S808.866,435.94,808.866,435.94Z" transform="translate(-742.878 -417.062)" fill="#112545"/>
        <path id="Caminho_6877" data-name="Caminho 6877" d="M818.951,438.824c.433-.065,1.425.194,1.629-.274a12.658,12.658,0,0,0-.625-3.08,38.879,38.879,0,0,1-1-4.085.081.081,0,0,1,.151-.041c1,2.263,1.375,5.061,1.982,7.464a.215.215,0,0,1-.205.269c-.634-.01-1.251.124-1.884.128C818.791,439.206,818.73,438.857,818.951,438.824Z" transform="translate(-748.185 -415.917)" fill="#e0855c"/>
        <path id="Caminho_6878" data-name="Caminho 6878" d="M818.728,450.924a9.27,9.27,0,0,1-5.49.03,4.57,4.57,0,0,0,3.109,2.025C818.311,453.154,818.728,450.924,818.728,450.924Z" transform="translate(-745.357 -425.873)" fill="#fff"/>
        <path id="Caminho_6879" data-name="Caminho 6879" d="M824.544,427.883c.588-.3,1.688-.379,2.116.232a.183.183,0,0,1-.157.273c-.293-.015-.551-.157-.844-.181a2.384,2.384,0,0,0-.92.141A.256.256,0,0,1,824.544,427.883Z" transform="translate(-751.031 -414.066)" fill="#112545"/>
        <path id="Caminho_6880" data-name="Caminho 6880" d="M805.83,428.271c.335-.835,1.793-.915,2.415-.4a.235.235,0,0,1-.1.39,5.384,5.384,0,0,1-1.124.01,3.7,3.7,0,0,0-.9.283A.234.234,0,0,1,805.83,428.271Z" transform="translate(-741.591 -414.012)" fill="#112545"/>
      </g>
      <g id="right_arm">
        <g id="Grupo_5171" data-name="Grupo 5171">
          <path id="Caminho_6881" data-name="Caminho 6881" d="M897.206,585.512s2.417.164,5.4.685,9.507,1.732,11.6.995a5.469,5.469,0,0,0,.806-.693,1.973,1.973,0,0,0,.191-.219,5.51,5.51,0,0,0,1.046-1.814c.02-.056.043-.12.063-.185a5.421,5.421,0,0,0,.254-1.934c0-.061-.009-.122-.014-.183a7.78,7.78,0,0,0-.329-1.822s-6.676-1.07-8.652-2.209c0,0,4.152-.407,4.666-1.608l-.127-.886s-4.518-.074-6.528-.291c-4.888-.529-8.755,2.913-8.755,2.913S894.46,583.277,897.206,585.512Z" transform="translate(-787.293 -488.985)" fill="#f5a784"/>
          <path id="Caminho_6882" data-name="Caminho 6882" d="M772.671,481.508c5.951,6.32,20.821,40.821,24.56,42.035,3.886,1.257,22.7,4.145,30.32,5.276,1.977.3,3.2.479,3.2.479,4.042,2.953,1.766,8.123,1.766,8.123s-1.618.094-4.259.173c-7.565.257-23.493.488-33.134-1.53-4.82-1.009-21.4-14.24-28.582-34.192C757.767,477.479,769.964,478.635,772.671,481.508Z" transform="translate(-720.074 -440.639)" fill="#37a4d6"/>
        </g>
        <path id="Caminho_6883" data-name="Caminho 6883" d="M928.6,587.765c0-.061-.009-.122-.014-.183a67.609,67.609,0,0,1-8.921-1.611.057.057,0,0,0-.039.1A21.81,21.81,0,0,0,928.6,587.765Z" transform="translate(-799.333 -494.402)" fill="#e0855c"/>
        <path id="Caminho_6884" data-name="Caminho 6884" d="M928.04,592.075c.02-.056.042-.12.063-.185a69.08,69.08,0,0,1-8.923-1.6c-.058-.012-.093.075-.036.1A21.587,21.587,0,0,0,928.04,592.075Z" transform="translate(-799.085 -496.593)" fill="#e0855c"/>
        <path id="Caminho_6885" data-name="Caminho 6885" d="M926.164,596.215a1.8,1.8,0,0,0,.191-.219,72.578,72.578,0,0,1-8.434-1.553c-.056-.02-.092.068-.037.1A19.647,19.647,0,0,0,926.164,596.215Z" transform="translate(-798.446 -498.701)" fill="#e0855c"/>
      </g>
    </g>
    <path id="Caminho_6830" data-name="Caminho 6830" d="M1009.152,387.727a.815.815,0,0,1-.573-1.4c2.707-2.671,4.868-4.892,6.8-6.992a.816.816,0,0,1,1.2,1.105c-1.954,2.12-4.131,4.359-6.857,7.047A.812.812,0,0,1,1009.152,387.727Zm13.156-14.489a.815.815,0,0,1-.648-1.312,66.793,66.793,0,0,0,5.341-8.054.816.816,0,1,1,1.424.8,68.411,68.411,0,0,1-5.469,8.251A.814.814,0,0,1,1022.308,373.238Zm9.337-17.1a.816.816,0,0,1-.776-1.066c.385-1.194.719-2.41.99-3.613a41.407,41.407,0,0,0,.87-5.785.827.827,0,0,1,.877-.749.815.815,0,0,1,.748.878,42.76,42.76,0,0,1-.9,6.015c-.282,1.253-.628,2.516-1.028,3.756A.816.816,0,0,1,1031.645,356.142Zm1.6-19.351a.816.816,0,0,1-.808-.707,52.156,52.156,0,0,0-2.181-9.376.815.815,0,1,1,1.548-.513,53.558,53.558,0,0,1,2.25,9.671.815.815,0,0,1-.7.917A.76.76,0,0,1,1033.244,336.79Zm-6.062-18.516a.818.818,0,0,1-.723-.435q-.654-1.241-1.366-2.445a64.342,64.342,0,0,0-3.806-5.707.817.817,0,0,1,1.309-.977,66.4,66.4,0,0,1,3.9,5.853q.734,1.238,1.409,2.514a.816.816,0,0,1-.723,1.2Zm-11.659-15.642a.815.815,0,0,1-.575-.236,64.842,64.842,0,0,0-7.346-6.269.816.816,0,1,1,.962-1.318,66.6,66.6,0,0,1,7.535,6.428.816.816,0,0,1-.575,1.395Zm-102.811-1.687a.816.816,0,0,1-.01-1.631c3.256-.028,6.523-.19,9.71-.478a.8.8,0,0,1,.887.738.817.817,0,0,1-.738.887C919.331,300.753,916.014,300.931,912.713,300.945Zm-9.787-.3q-3.775-.26-7.475-.732-1.19-.151-2.376-.323a.816.816,0,1,1,.235-1.614q1.167.168,2.345.319c2.433.309,4.9.552,7.327.722a.816.816,0,0,1-.058,1.629Zm29.26-1.489a.816.816,0,0,1-.145-1.618c3.209-.581,6.393-1.311,9.465-2.171a.816.816,0,0,1,.441,1.572c-3.122.873-6.357,1.615-9.616,2.205A.873.873,0,0,1,932.186,299.152Zm-48.625-1.289a.787.787,0,0,1-.171-.018c-3.141-.673-6.355-1.467-9.554-2.362a.816.816,0,1,1,.44-1.571c3.167.885,6.346,1.672,9.455,2.338a.816.816,0,0,1-.171,1.614Zm67.445-4.007a.816.816,0,0,1-.3-1.575q2.194-.863,4.349-1.836c1.631-.74,3.09-1.46,4.456-2.2a.815.815,0,1,1,.779,1.433c-1.4.762-2.893,1.5-4.563,2.257q-2.191.992-4.422,1.867A.811.811,0,0,1,951.005,293.856Zm-86.3-1.248a.82.82,0,0,1-.263-.044c-3.036-1.035-6.138-2.182-9.222-3.41a.816.816,0,1,1,.6-1.516c3.06,1.218,6.137,2.356,9.145,3.383a.816.816,0,0,1-.264,1.587ZM999.8,291.09a.808.808,0,0,1-.389-.1c-2.566-1.389-5.348-2.738-8.749-4.245a.817.817,0,0,1,.663-1.492c3.44,1.525,6.258,2.893,8.864,4.3a.816.816,0,0,1-.389,1.533Zm-153.283-5.707a.808.808,0,0,1-.335-.072c-2.911-1.313-5.895-2.734-8.871-4.223a.817.817,0,0,1,.731-1.46c2.957,1.481,5.92,2.892,8.811,4.2a.816.816,0,0,1-.336,1.56Zm121.416-1.171a.816.816,0,0,1-.549-1.42,28.939,28.939,0,0,0,2.467-2.522,24.229,24.229,0,0,0,3.291-4.954.816.816,0,1,1,1.458.731c-.284.569-.59,1.125-.911,1.665,2.816,1.282,5.677,2.486,8.6,3.708a.816.816,0,1,1-.628,1.505c-3.01-1.257-5.957-2.5-8.862-3.823a25.173,25.173,0,0,1-1.715,2.233,30.906,30.906,0,0,1-2.6,2.664A.815.815,0,0,1,967.928,284.213Zm-3.667-9.544a.809.809,0,0,1-.406-.108,68.227,68.227,0,0,1-6.538-4.244q-.847-.627-1.677-1.292a.815.815,0,1,1,1.022-1.27c.535.43,1.078.847,1.623,1.251a66.67,66.67,0,0,0,6.382,4.14.816.816,0,0,1-.406,1.523Zm12.352-7.517a.835.835,0,0,1-.81-.91,28.638,28.638,0,0,0,.191-3.337,29.186,29.186,0,0,0-.65-6.132.816.816,0,0,1,1.6-.344,30.894,30.894,0,0,1,.688,6.475,29.943,29.943,0,0,1-.2,3.527A.816.816,0,0,1,976.613,267.152Zm-27.175-5.026a.816.816,0,0,1-.676-.358,21.236,21.236,0,0,1-3.177-7.095,15.612,15.612,0,0,1-.353-2.371.817.817,0,0,1,1.629-.115,13.661,13.661,0,0,0,.314,2.12,19.56,19.56,0,0,0,2.938,6.546.816.816,0,0,1-.676,1.273Zm23.036-13.733a.814.814,0,0,1-.688-.377,23.943,23.943,0,0,0-3-3.8,20.239,20.239,0,0,0-3.537-2.911.816.816,0,1,1,.885-1.371,21.881,21.881,0,0,1,3.823,3.146,25.479,25.479,0,0,1,3.2,4.064.816.816,0,0,1-.25,1.126A.8.8,0,0,1,972.474,248.393Zm-24.064-4.663a.815.815,0,0,1-.682-1.265,11.665,11.665,0,0,1,5.952-4.744,11.459,11.459,0,0,1,2.7-.569.8.8,0,0,1,.885.741.814.814,0,0,1-.74.885,9.67,9.67,0,0,0-7.434,4.586A.818.818,0,0,1,948.41,243.729Z" transform="translate(-4922.423 -4023.451)" fill="#999898"/>
  </g>
</svg>
