<svg xmlns="http://www.w3.org/2000/svg" width="525.093" height="348.981" viewBox="0 0 525.093 348.981">
  <g id="phone_woman" transform="translate(4951 2953)">
    <g id="leaf_5">
      <path id="Caminho_6898" data-name="Caminho 6898" d="M1332.173,686.718c-5.313,7.084-7.234,14.8-10.02,22.88-2.984,8.653-4.062,17.712-.9,26.48,17.518-5.985,40.5-15.624,49.008-33.621,3.171-6.707,4.151-14.219,4.788-21.611q.84-9.744.978-19.53C1358.981,664.27,1342.555,672.874,1332.173,686.718Z" transform="translate(-5801.938 -3388.355)" fill="#2fac66"/>
    </g>
    <g id="Grupo_3271" data-name="Grupo 3271" transform="translate(-4627.805 -2953)">
      <g id="Grupo_3268" data-name="Grupo 3268">
        <path id="Caminho_6899" data-name="Caminho 6899" d="M1164.753,246.671h-60.188c-36.513,0-51.684,15.155-51.684,51.684V506.261c0,36.528,15.171,51.684,51.684,51.684h60.188c36.512,0,51.684-15.156,51.684-51.684V298.355C1216.437,261.826,1201.265,246.671,1164.753,246.671Z" transform="translate(-1052.881 -246.671)" fill="#00c3ff"/>
        <path id="Caminho_6900" data-name="Caminho 6900" d="M1112.885,556.3c-30.692,0-41.71-10.578-41.71-41.71V306.67c0-31.187,11.07-41.709,41.71-41.709h59.524c30.692,0,41.709,10.578,41.709,41.709V514.589c0,30.692-10.578,41.71-41.709,41.71Z" transform="translate(-1061.206 -254.994)" fill="#fff"/>
        <path id="Caminho_6901" data-name="Caminho 6901" d="M1190.356,391.072c.58-3.163,18.919-47.343-27.8-71.975a591.735,591.735,0,0,1,45.7-40.57c-6.122-9.756-17.446-13.565-35.847-13.565h-13.143c-40.984,35.6-64.2,62.305-88.091,96.423V443.1c9.436-17.588,19.127-33.7,29.137-48.623a53.715,53.715,0,0,0,48.316,30.219c.572,0,1.144-.009,1.712-.027-32.476,31.86-46.472,59.014-72.742,118.909,4.242,6.2,10.778,9.846,20.133,11.546,19.962-70.925,60.968-116.209,116.388-161.155v-23.23C1209.7,374.2,1194.392,387.859,1190.356,391.072Z" transform="translate(-1061.206 -254.994)" fill="#f6f6f6"/>
        <path id="Caminho_6902" data-name="Caminho 6902" d="M1202.6,252.052h-31.646c-3.725,0-3.727,4.1,0,4.1H1202.6C1206.329,256.153,1206.332,252.052,1202.6,252.052Z" transform="translate(-1105.341 -249.12)" fill="#0a2740"/>
        <path id="Caminho_6903" data-name="Caminho 6903" d="M1203.427,773.573h-41.614c-3.725,0-3.727,4.1,0,4.1h41.614C1207.152,777.674,1207.154,773.573,1203.427,773.573Z" transform="translate(-1101.179 -486.437)" fill="#19619e"/>
        <path id="Caminho_6904" data-name="Caminho 6904" d="M1110.571,284.024h-4.118c-3.725,0-3.728,4.1,0,4.1h4.118C1114.3,288.125,1114.3,284.024,1110.571,284.024Z" transform="translate(-1075.987 -263.668)" fill="#19619e"/>
        <path id="Caminho_6905" data-name="Caminho 6905" d="M1134.7,284.024h-4.118c-3.725,0-3.727,4.1,0,4.1h4.118C1138.429,288.125,1138.431,284.024,1134.7,284.024Z" transform="translate(-1086.969 -263.668)" fill="#19619e"/>
        <path id="Caminho_6906" data-name="Caminho 6906" d="M1150.453,252.052a2.051,2.051,0,0,0,0,4.1A2.051,2.051,0,0,0,1150.453,252.052Z" transform="translate(-1096.353 -249.12)" fill="#0a2740"/>
        <path id="Caminho_6907" data-name="Caminho 6907" d="M1255.58,284.024a2.051,2.051,0,0,0,0,4.1A2.051,2.051,0,0,0,1255.58,284.024Z" transform="translate(-1144.191 -263.668)" fill="#19619e"/>
        <path id="Caminho_6908" data-name="Caminho 6908" d="M1267.692,284.024a2.051,2.051,0,0,0,0,4.1A2.051,2.051,0,0,0,1267.692,284.024Z" transform="translate(-1149.702 -263.668)" fill="#19619e"/>
        <path id="Caminho_6909" data-name="Caminho 6909" d="M1279.8,284.024a2.051,2.051,0,0,0,0,4.1A2.051,2.051,0,0,0,1279.8,284.024Z" transform="translate(-1155.214 -263.668)" fill="#19619e"/>
        <path id="Caminho_6910" data-name="Caminho 6910" d="M1291.916,284.024a2.051,2.051,0,0,0,0,4.1A2.051,2.051,0,0,0,1291.916,284.024Z" transform="translate(-1160.725 -263.668)" fill="#19619e"/>
      </g>
      <g id="dolar">
        <path id="Caminho_6912" data-name="Caminho 6912" d="M1198.928,434.284c-4.134-2.241-17.3-4-11.731-11.53,1.793-2.424,4.415-3.018,7.278-2.616,2.258.317,7.882,4.726,9.8,1.525,2.132-3.553-3.677-6.65-5.689-7.656a13.507,13.507,0,0,0-6.939-1.275,16.594,16.594,0,0,0-12.458,6.846,11.841,11.841,0,0,0-1.959,5.075c-.774,5.9,3.781,10.587,8.715,12.958,4.514,2.168,12.313,1.793,13.96,7.661a6.747,6.747,0,0,1,.2,2.154c-.128,2.6-1.589,5.42-4.134,5.985-4.27.948-9.913-.935-12.493-4.539-3.3-4.606-11-.177-7.668,4.483,7.781,10.87,29.678,12.34,31.6-4.135C1208.145,442.95,1204.308,437.2,1198.928,434.284Z" transform="translate(-1108.448 -322.221)" fill="#1250b3"/>
        <path id="Caminho_6913" data-name="Caminho 6913" d="M1205.663,404.038c-.479-1.162-1.092-1.836-1.871-1.817-2.5.063-3.392,5-3.4,7.291-.019,7.992.482,15.812.669,23.688.107,4.494-.03,8.99.029,13.484a82.026,82.026,0,0,0,.82,13.513c.3,1.688,2.133,4.329,3.622,1.779a5.417,5.417,0,0,0,.559-1.974c1.3-8.833.617-17.879.829-26.8C1207,429.776,1208.182,410.15,1205.663,404.038Z" transform="translate(-1120.006 -317.454)" fill="#1250b3"/>
      </g>
    </g>
    <g id="leaf_4">
      <path id="Caminho_6917" data-name="Caminho 6917" d="M874.716,698.284c-9.862,8.862-14.926,19.64-21.363,30.7-6.9,11.843-11.11,24.837-9.01,38.635,27.47-3.7,64.029-11.186,81.752-35.15,6.605-8.931,10.228-19.68,13.311-30.353q4.064-14.068,7.109-28.4C920.614,673.1,893.987,680.965,874.716,698.284Z" transform="translate(-5585.544 -3393.98)" fill="#2fac66"/>
    </g>
    <g id="leaf_3">
      <path id="Caminho_6918" data-name="Caminho 6918" d="M841.805,704.48c1.317-.918,7.9-5.506,9.852-6.9,14.691-10.486,29.107-22.017,39.983-35.982.254-.276.479-.586.707-.877.667-.866,1.323-1.774,1.96-2.676a85.192,85.192,0,0,0,13.966-30.064c.067-.252.109-.5.161-.745.308-1.417.641-2.828.918-4.242a150.3,150.3,0,0,0,2.657-40.92q-.1-1.611-.264-3.207a147.408,147.408,0,0,0-7.658-35.493q-.4-1.25-.859-2.486c-.395.138-.785.283-1.178.435-12.757,4.927-23.249,13.543-31.427,24.353-.682.892-1.354,1.825-2,2.772A116.9,116.9,0,0,0,851.162,606.5c-.068.27-.14.568-.223.845-.32,1.147-.616,2.308-.892,3.465a288.481,288.481,0,0,0-6.46,33.162c-.223,1.551-.405,3.092-.583,4.652-.332,2.688-.6,5.362-.85,8.052q-1.109,12.23-1.166,24.483C840.958,683.863,843.234,703.493,841.805,704.48Z" transform="translate(-5584.264 -3333.557)" fill="#5cc78b"/>
      <path id="Caminho_6919" data-name="Caminho 6919" d="M847.46,701.722c1.955-1.371,3.931-2.748,5.881-4.139,4.42-9.729,7.313-20.2,9.98-30.723a2.4,2.4,0,0,0,.747-.181,63.5,63.5,0,0,1,23.245-5.354,43.989,43.989,0,0,1,6.01.276c.254-.276.479-.586.707-.877.667-.866,1.323-1.774,1.96-2.676a58.241,58.241,0,0,0-10.242-.447,63.04,63.04,0,0,0-10.471,1.168c-2.221.453-7.849,3.249-9.858,2.9a3.7,3.7,0,0,1-.754-.2c1.951-7.741,3.882-15.478,6.351-22.938,12.471-8.708,24.9-11.056,39.1-11.29.343-1.409.641-2.828.918-4.242-12.9-1.9-26.6,2.19-37.775,8.916,4.134-11.969,8.595-23.824,13.1-35.669a1.478,1.478,0,0,0,.971-.406c7.82-7.636,16.729-10.894,26.36-13.762q-.1-1.611-.264-3.207c-9.024,1.93-17.753,5.52-24.771,11.41,5.939-15.548,11.873-31.117,17.114-46.9q-.4-1.25-.859-2.486c-.395.138-.788.276-1.178.435-6.31,15.339-12.108,30.939-17.766,46.591a64.058,64.058,0,0,0-13.661-22.238c-.682.892-1.354,1.825-2,2.772,5.892,7.466,11.473,14.793,13.887,24.406-4.625,12.943-14.16,39.944-14.356,40.548-4.35-10.191-9.6-19.053-16.993-26.9-.062.272-.14.568-.223.845-.32,1.147-.616,2.308-.892,3.465a66.808,66.808,0,0,1,15.3,26.906A2.43,2.43,0,0,0,868.01,639c-2.178,6.984-3.993,14.051-5.808,21.118-4.26-3.2-8.351-10.29-12.01-13.039a33.566,33.566,0,0,0-4.921-3.105c-.223,1.551-.406,3.092-.583,4.652,6.522,3.978,11.333,9.718,16.2,16.662-.835,3.259-1.67,6.519-2.576,9.752A137.725,137.725,0,0,1,847.46,701.722Z" transform="translate(-5585.948 -3333.557)" fill="#2fac66"/>
    </g>
    <g id="leaf_1">
      <path id="Caminho_6920" data-name="Caminho 6920" d="M510.283,770.672c7.8,4.194,12.788,10.388,18.711,16.545,6.345,6.6,11.132,14.363,11.949,23.649-18.411,1.936-43.316,2.854-58.6-9.9-5.7-4.753-9.746-11.156-13.432-17.594q-4.859-8.486-9.1-17.308C476.521,761.577,495.042,762.477,510.283,770.672Z" transform="translate(-5410.809 -3434.802)" fill="#2fac66"/>
    </g>
    <g id="leaf_2">
      <path id="Caminho_6921" data-name="Caminho 6921" d="M554.018,766.376c-1-.388-6-2.325-7.483-2.92-11.189-4.484-22.365-9.689-31.629-17.034-.208-.139-.4-.305-.6-.458-.569-.457-1.139-.942-1.695-1.427a56.905,56.905,0,0,1-13.812-17.3c-.083-.153-.149-.307-.222-.458-.423-.87-.862-1.734-1.265-2.607a100.351,100.351,0,0,1-8.187-26.135q-.189-1.061-.336-2.123a98.444,98.444,0,0,1-.637-24.242q.061-.874.165-1.749.416.042.833.1a48.1,48.1,0,0,1,24.24,10.84c.583.471,1.167.97,1.736,1.483a78.056,78.056,0,0,1,17.341,21.934c.087.165.181.347.278.513.389.693.765,1.4,1.126,2.108a192.593,192.593,0,0,1,9.43,20.5c.39.971.751,1.942,1.113,2.926.64,1.692,1.239,3.385,1.823,5.091q2.652,7.761,4.624,15.7C551.311,752.864,552.935,765.961,554.018,766.376Z" transform="translate(-5423.496 -3392.271)" fill="#5cc78b"/>
      <path id="Caminho_6922" data-name="Caminho 6922" d="M551.395,765.214c-1.486-.581-2.985-1.162-4.47-1.757A121.732,121.732,0,0,1,535.6,745.1a1.6,1.6,0,0,1-.513,0,42.421,42.421,0,0,0-15.93.2,29.37,29.37,0,0,0-3.857,1.129c-.208-.139-.4-.305-.6-.458-.57-.457-1.139-.942-1.695-1.427a38.9,38.9,0,0,1,6.575-1.908,42.175,42.175,0,0,1,6.979-.9c1.512-.057,5.607.868,6.855.325a2.476,2.476,0,0,0,.458-.25c-2.489-4.715-4.964-9.431-7.744-13.882-9.468-3.681-17.9-3.241-27.158-1.15-.445-.859-.862-1.734-1.265-2.607,8.072-3.27,17.606-2.78,25.921-.18-4.573-7.114-9.34-14.1-14.135-21.077a.99.99,0,0,1-.694-.111c-6.282-3.718-12.577-4.427-19.279-4.767q-.189-1.061-.336-2.123a37.873,37.873,0,0,1,17.877,3.491c-6.309-9.151-12.619-18.317-18.513-27.733q.061-.874.165-1.749c.277.028.555.055.833.1,6.518,8.957,12.744,18.165,18.887,27.427a42.78,42.78,0,0,1,5.353-16.588c.583.471,1.167.97,1.736,1.483-2.644,5.775-5.108,11.412-5.156,18.031,5.045,7.669,15.5,23.684,15.72,24.045a59.394,59.394,0,0,1,6.778-20.142c.083.167.181.347.278.513.389.693.765,1.4,1.126,2.108a44.628,44.628,0,0,0-5.682,19.877,1.625,1.625,0,0,1-.429.986c2.516,4.188,4.81,8.487,7.1,12.786,2.259-2.75,3.793-8,5.734-10.358a22.433,22.433,0,0,1,2.7-2.792c.39.971.752,1.942,1.113,2.926-3.6,3.612-5.819,8.1-7.881,13.371,1.057,1.984,2.113,3.967,3.212,5.922A91.957,91.957,0,0,0,551.395,765.214Z" transform="translate(-5423.885 -3392.271)" fill="#2fac66"/>
    </g>
    <g id="Grupo_3276" data-name="Grupo 3276" transform="translate(-4893.214 -2916.949)">
      <g id="Grupo_3274" data-name="Grupo 3274">
        <path id="Caminho_6923" data-name="Caminho 6923" d="M677.72,312.826H617.532c-36.512,0-51.684,15.156-51.684,51.684V572.416c0,36.528,15.171,51.684,51.684,51.684H677.72c36.512,0,51.684-15.156,51.684-51.684V364.51C729.4,327.982,714.232,312.826,677.72,312.826Z" transform="translate(-565.848 -312.826)" fill="#37a4d6"/>
        <path id="Caminho_6924" data-name="Caminho 6924" d="M625.852,622.454c-30.691,0-41.709-10.578-41.709-41.709V372.825c0-31.187,11.069-41.709,41.709-41.709h59.523c30.692,0,41.711,10.577,41.711,41.708v207.92c0,30.692-10.578,41.709-41.71,41.709Z" transform="translate(-574.173 -321.149)" fill="#fff"/>
        <path id="Caminho_6925" data-name="Caminho 6925" d="M608.456,467.978c-8.321,12.83-16.405,26.546-24.315,41.274v-81.71c23.888-34.124,47.112-60.828,88.086-96.423h13.147c18.4,0,29.724,3.814,35.847,13.559-71.3,48.295-111.056,120.643-112.591,123.031-.063.079-.095.143-.127.174Z" transform="translate(-574.172 -321.15)" fill="#f6f6f6"/>
        <path id="Caminho_6926" data-name="Caminho 6926" d="M715.573,318.207H683.927c-3.725,0-3.727,4.1,0,4.1h31.646C719.3,322.308,719.3,318.207,715.573,318.207Z" transform="translate(-618.308 -315.275)" fill="#0a2740"/>
        <path id="Caminho_6927" data-name="Caminho 6927" d="M716.394,839.728H674.781c-3.725,0-3.727,4.1,0,4.1h41.614C720.119,843.829,720.121,839.728,716.394,839.728Z" transform="translate(-614.146 -552.592)" fill="#19619e"/>
        <path id="Caminho_6928" data-name="Caminho 6928" d="M623.538,350.18H619.42c-3.725,0-3.727,4.1,0,4.1h4.118C627.263,354.281,627.266,350.18,623.538,350.18Z" transform="translate(-588.954 -329.824)" fill="#19619e"/>
        <path id="Caminho_6929" data-name="Caminho 6929" d="M647.671,350.18h-4.118c-3.725,0-3.727,4.1,0,4.1h4.118C651.4,354.281,651.4,350.18,647.671,350.18Z" transform="translate(-599.936 -329.824)" fill="#19619e"/>
        <path id="Caminho_6930" data-name="Caminho 6930" d="M663.42,318.207a2.051,2.051,0,0,0,0,4.1A2.051,2.051,0,0,0,663.42,318.207Z" transform="translate(-609.32 -315.275)" fill="#0a2740"/>
        <path id="Caminho_6931" data-name="Caminho 6931" d="M768.548,350.18a2.051,2.051,0,0,0,0,4.1A2.051,2.051,0,0,0,768.548,350.18Z" transform="translate(-657.158 -329.824)" fill="#19619e"/>
        <path id="Caminho_6932" data-name="Caminho 6932" d="M780.659,350.18a2.051,2.051,0,0,0,0,4.1A2.051,2.051,0,0,0,780.659,350.18Z" transform="translate(-662.669 -329.824)" fill="#19619e"/>
        <path id="Caminho_6933" data-name="Caminho 6933" d="M792.771,350.18a2.051,2.051,0,0,0,0,4.1A2.051,2.051,0,0,0,792.771,350.18Z" transform="translate(-668.181 -329.824)" fill="#19619e"/>
        <path id="Caminho_6934" data-name="Caminho 6934" d="M804.883,350.18a2.051,2.051,0,0,0,0,4.1A2.051,2.051,0,0,0,804.883,350.18Z" transform="translate(-673.692 -329.824)" fill="#19619e"/>
      </g>
      <path id="Caminho_6935" data-name="Caminho 6935" d="M718.85,695.77v2.041a6.063,6.063,0,0,1-6.059,6.075H637.709a6.063,6.063,0,0,1-6.059-6.075V695.77a6.063,6.063,0,0,1,6.059-6.075H712.79A6.063,6.063,0,0,1,718.85,695.77Z" transform="translate(-595.791 -484.32)" fill="#b2b2b2"/>
      <path id="Caminho_6936" data-name="Caminho 6936" d="M683.365,689.7v14.191H637.709a6.063,6.063,0,0,1-6.059-6.075V695.77a6.063,6.063,0,0,1,6.059-6.075Z" transform="translate(-595.791 -484.32)" fill="#9d9d9c"/>
      <g id="Grupo_3275" data-name="Grupo 3275" transform="translate(22.955 90.755)">
        <path id="Caminho_6937" data-name="Caminho 6937" d="M721.34,484.936v62.631a5.584,5.584,0,0,1-5.582,5.582H613.544a5.582,5.582,0,0,1-5.572-5.582V484.936a5.572,5.572,0,0,1,5.572-5.572H715.758A5.574,5.574,0,0,1,721.34,484.936Z" transform="translate(-607.972 -479.364)" fill="#1250b3"/>
        <path id="Caminho_6938" data-name="Caminho 6938" d="M746.1,484.936v62.631a5.584,5.584,0,0,1-5.582,5.582H662.391l47.64-73.785h30.491A5.574,5.574,0,0,1,746.1,484.936Z" transform="translate(-632.735 -479.364)" fill="#0d4699"/>
        <rect id="Retângulo_459" data-name="Retângulo 459" width="43.01" height="3.599" transform="translate(5.663 7.379)" fill="#3c90d6"/>
        <rect id="Retângulo_460" data-name="Retângulo 460" width="30.864" height="3.599" transform="translate(5.663 13.498)" fill="#3c90d6"/>
        <rect id="Retângulo_461" data-name="Retângulo 461" width="19.674" height="5.861" transform="translate(5.663 35.809)" fill="#0f3d63"/>
        <rect id="Retângulo_462" data-name="Retângulo 462" width="19.674" height="5.861" transform="translate(33.117 35.809)" fill="#0f3d63"/>
        <rect id="Retângulo_463" data-name="Retângulo 463" width="19.674" height="5.861" transform="translate(60.572 35.809)" fill="#0f3d63"/>
        <rect id="Retângulo_464" data-name="Retângulo 464" width="19.674" height="5.861" transform="translate(88.026 35.809)" fill="#0f3d63"/>
        <circle id="Elipse_46" data-name="Elipse 46" cx="8.098" cy="8.098" r="8.098" transform="translate(91.594 51.388)" fill="#3c90d6"/>
        <rect id="Retângulo_465" data-name="Retângulo 465" width="11.202" height="4.859" transform="translate(41.82 58.113)" fill="#3c90d6"/>
        <rect id="Retângulo_466" data-name="Retângulo 466" width="11.202" height="4.859" transform="translate(61.833 58.113)" fill="#3c90d6"/>
        <path id="Caminho_6939" data-name="Caminho 6939" d="M706.013,593.5a.528.528,0,0,1-.471-.767l5.67-11.2a.528.528,0,1,1,.942.477l-5.67,11.2A.527.527,0,0,1,706.013,593.5Z" transform="translate(-652.345 -525.724)" fill="#3c90d6"/>
      </g>
    </g>
    <g id="Grupo_3277" data-name="Grupo 3277" transform="translate(-4683.089 -2869.196)">
      <path id="Caminho_6940" data-name="Caminho 6940" d="M966.343,474.444l-7.717,2.743a.723.723,0,0,1-.923-.439l-5.278-14.84a.724.724,0,0,1,.439-.925l7.72-2.743a.724.724,0,0,1,.925.439l5.273,14.841A.724.724,0,0,1,966.343,474.444Z" transform="translate(-951.865 -426.731)" fill="#112545"/>
      <path id="Caminho_6941" data-name="Caminho 6941" d="M1019.473,585.13c-12.827-4.733-23.017,12.339-23.017,12.339S959.69,639.72,962.9,653.463c3.192,13.681,31.875,55.463,32.124,55.846a33.762,33.762,0,0,1,3.922,7.64,5.722,5.722,0,0,1-.661,2.9,16.361,16.361,0,0,1-3.99,5.974s-1.275,1.835.978,1.636,11.833-9.72,11.2-10.746c-.687-1.094-1.28-2.1-1.783-3a46.808,46.808,0,0,1-2.611-5.281s-.5-1.4-1.41-3.763c0,0-7.7-34.943-19.759-50.06,0,0-.3-4.352,13.862-12.14s31.264-21.817,33.137-29S1032.3,589.862,1019.473,585.13Z" transform="translate(-956.559 -484.113)" fill="#f5a784"/>
      <path id="Caminho_6942" data-name="Caminho 6942" d="M1086.4,745.159c-.51-1.188-.938-2.275-1.295-3.245a46.719,46.719,0,0,1-1.759-5.621s-.268-1.426-.791-3.855c0,0-4.174-38.627-8.526-50.865-1.849-5.2-5.268-8.015-6.413-21.528s0-61.92,0-61.92c-.009-1.6-2.978-4.733-18.663-2.754s-11.571,30.316-9.968,38.413,16.95,47.333,19.011,53.289,20.533,54.222,20.933,57.15a5.73,5.73,0,0,1-1.1,2.764,16.377,16.377,0,0,1-4.87,5.282s-1.544,1.615.712,1.768S1086.86,746.27,1086.4,745.159Z" transform="translate(-990.496 -488.861)" fill="#f5a784"/>
      <path id="Caminho_6943" data-name="Caminho 6943" d="M1036.57,439.19s-10.991,2.55-11.923-4.67a4.622,4.622,0,0,0-1.417-2.792c-1.525-1.414-3.521-4.337-1.2-8.851a4.541,4.541,0,0,0,.46-3.034c-.433-2.009-.62-5.416,2.664-6.552a4.438,4.438,0,0,0,3.017-3.582c.314-2.47,1.729-5.455,6.743-5.4a4.46,4.46,0,0,0,3.222-1.353c1.778-1.8,5.328-4.173,9.79-.794a4.454,4.454,0,0,0,3.758.783c2.133-.526,5.372-.543,6.924,3.421a4.491,4.491,0,0,0,2.884,2.607c1.9.585,4.254,2.125,4.013,6.178a4.62,4.62,0,0,0,1.022,3.042c1.41,1.851,3.163,5.346.313,9.084a4.43,4.43,0,0,0-.925,3.229c.289,2.246.038,5.921-4.361,6.958a4.511,4.511,0,0,0-2.3,1.277c-1.845,1.974-6.426,5.7-12.1,1.787C1039.889,435.515,1036.57,439.19,1036.57,439.19Z" transform="translate(-983.075 -400.455)" fill="#112545"/>
      <path id="Caminho_6944" data-name="Caminho 6944" d="M1061.861,538.961l-37.218,4.093a209.3,209.3,0,0,1,4.846-30.2c2.6-10.83.152-11.625,0-15.056s6.1-9.528,8.235-13.957c1.741-3.584,3.523-6.566,3.584-10.892a18.382,18.382,0,0,0-.255-3.308s6.251-8.378,9.488-3.258a7.7,7.7,0,0,1,.132,1.547c.112,2.107.377,5.742,2.087,7.055,0,0,8.185,4.611,6.963,16.054s-7.4,22.732-5.151,27.313S1061.861,526.592,1061.861,538.961Z" transform="translate(-984.747 -429.699)" fill="#f5a784"/>
      <path id="Caminho_6945" data-name="Caminho 6945" d="M1064.376,467.925c-2.494,3.716-6.7,4.754-9.365,5.019a18.382,18.382,0,0,0-.255-3.308s6.25-8.378,9.488-3.258A7.715,7.715,0,0,1,1064.376,467.925Z" transform="translate(-998.45 -429.699)" fill="#e0855c"/>
      <path id="Caminho_6946" data-name="Caminho 6946" d="M1032.551,824.778c.633,1.026-8.937,10.542-11.2,10.746s-.978-1.636-.978-1.636a16.354,16.354,0,0,0,3.99-5.974,19.1,19.1,0,0,0,6.4-6.139C1031.272,822.677,1031.865,823.684,1032.551,824.778Z" transform="translate(-982.64 -592.176)" fill="#112545"/>
      <path id="Caminho_6947" data-name="Caminho 6947" d="M1115.751,868.058c.465,1.112-10.466,9.027-12.733,8.877s-.712-1.768-.712-1.768a16.372,16.372,0,0,0,4.87-5.282,19.108,19.108,0,0,0,7.281-5.071C1114.813,865.783,1115.242,866.87,1115.751,868.058Z" transform="translate(-1019.853 -611.76)" fill="#112545"/>
      <path id="Caminho_6948" data-name="Caminho 6948" d="M1041.649,438.926a16.905,16.905,0,0,1-.022-14.79c3.836-7.887,13.86-5.258,13.86-5.258s9.284,1.835,9.792,11.088-6.349,12.192-6.349,12.192Z" transform="translate(-991.702 -408.647)" fill="#00c3ff"/>
      <path id="Caminho_6949" data-name="Caminho 6949" d="M1042.53,439.286s-4.145-14.3,9.043-14.261c15.315.045,14.011,11.8,11.538,15.838S1042.051,445.566,1042.53,439.286Z" transform="translate(-992.605 -411.635)" fill="#112545"/>
      <path id="Caminho_6950" data-name="Caminho 6950" d="M1142.91,624.448a19.5,19.5,0,0,0,4.234,3.474c2.041,1.4,6.89,3.894,7.7,5.521a4.447,4.447,0,0,1,.077.866,1.705,1.705,0,0,1-.013.237,4.509,4.509,0,0,1-.421,1.66c-.02.044-.043.095-.068.145a4.443,4.443,0,0,1-.954,1.278c-.037.034-.075.066-.113.1a6.4,6.4,0,0,1-1.232.881s-4.526-3.18-6.333-3.638c0,0,2.2,2.605,1.82,3.6l-.579.448s-2.692-2.533-3.994-3.552A11.962,11.962,0,0,1,1139.1,629S1140.025,624.193,1142.91,624.448Z" transform="translate(-1036.828 -502.378)" fill="#f5a784"/>
      <path id="Caminho_6951" data-name="Caminho 6951" d="M1160.216,645.2l-.113.1a55.142,55.142,0,0,0-6.15-4.142.047.047,0,0,1,.036-.083A17.844,17.844,0,0,1,1160.216,645.2Z" transform="translate(-1043.58 -509.947)" fill="#e0855c"/>
      <path id="Caminho_6952" data-name="Caminho 6952" d="M1162.132,642.623c-.02.044-.044.094-.068.145a56.393,56.393,0,0,0-6.147-4.148c-.04-.026-.011-.1.033-.077A17.668,17.668,0,0,1,1162.132,642.623Z" transform="translate(-1044.474 -508.794)" fill="#e0855c"/>
      <path id="Caminho_6953" data-name="Caminho 6953" d="M1163.234,639.429a1.567,1.567,0,0,1-.013.237,59.41,59.41,0,0,0-5.832-3.9c-.045-.02-.015-.093.033-.077A16.067,16.067,0,0,1,1163.234,639.429Z" transform="translate(-1045.143 -507.497)" fill="#e0855c"/>
      <path id="Caminho_6954" data-name="Caminho 6954" d="M1044.431,436.313c-.982,1.382-1.272,3.966-1.37,7-.3,9.181,4.136,12.553,7.143,12.555,3.089,0,9.6-1.3,10.606-9.813.505-4.257.475-7.834-.505-10.029C1058.251,431.423,1048.743,430.25,1044.431,436.313Z" transform="translate(-993.121 -414.883)" fill="#f5a784"/>
      <path id="Caminho_6955" data-name="Caminho 6955" d="M1050.283,451.855s-.794.3-.674-1.11c.109-1.263.674-1.093.674-1.093s.552,0,.468,1.1S1050.283,451.855,1050.283,451.855Z" transform="translate(-996.102 -422.839)" fill="#112545"/>
      <path id="Caminho_6956" data-name="Caminho 6956" d="M1064.077,452.194s-.793.3-.673-1.11c.108-1.263.673-1.093.673-1.093s.552,0,.469,1.1S1064.077,452.194,1064.077,452.194Z" transform="translate(-1002.379 -422.992)" fill="#112545"/>
      <path id="Caminho_6957" data-name="Caminho 6957" d="M1056.747,455.6c-.4-.06-1.324.18-1.514-.254a11.728,11.728,0,0,1,.581-2.862c.1-.4.2-.76.3-1.113a1.213,1.213,0,0,0-.108-.075,1.008,1.008,0,0,0-.256-.1c-.376,1.465-.643,3-.994,4.386a.2.2,0,0,0,.19.251c.59-.01,1.162.115,1.751.118C1056.9,455.951,1056.953,455.626,1056.747,455.6Z" transform="translate(-998.448 -423.544)" fill="#e0855c"/>
      <path id="Caminho_6958" data-name="Caminho 6958" d="M1050.724,445.685c-.569-.289-1.632-.367-2.045.225a.176.176,0,0,0,.151.264c.282-.014.532-.151.815-.175a2.3,2.3,0,0,1,.889.137A.248.248,0,0,0,1050.724,445.685Z" transform="translate(-995.673 -420.936)" fill="#112545"/>
      <path id="Caminho_6959" data-name="Caminho 6959" d="M1064.827,446.9c-.324-.807-1.734-.884-2.335-.384a.228.228,0,0,0,.1.377,5.237,5.237,0,0,0,1.087.01,3.577,3.577,0,0,1,.871.274A.227.227,0,0,0,1064.827,446.9Z" transform="translate(-1001.939 -421.272)" fill="#112545"/>
      <path id="Caminho_6960" data-name="Caminho 6960" d="M1057.438,463.247a3.853,3.853,0,0,1-1.633.623c-.51.021-1.062-.222-1.543-.049a.136.136,0,0,0-.08.2c.372.549,1.338.6,1.94.55a2.148,2.148,0,0,0,1.743-.9A.314.314,0,0,0,1057.438,463.247Z" transform="translate(-998.179 -429.012)" fill="#e0855c"/>
      <path id="Caminho_6961" data-name="Caminho 6961" d="M1058.641,431.191a2.829,2.829,0,0,0,1.038,1.726,5.233,5.233,0,0,0,1.972.619,2.311,2.311,0,0,1,1.7,1.1,6.233,6.233,0,0,1,.27,1.434,2.615,2.615,0,0,0,1.211,1.723c.556.326,1.253.446,1.655.961a7.046,7.046,0,0,1,.569,1.276c.208.418.68.786,1.088.584a12.756,12.756,0,0,0,1.774-4.509,7.75,7.75,0,0,0-2.689-6.8,8.268,8.268,0,0,0-6.973-1.655C1058.423,428.034,1058.263,429.482,1058.641,431.191Z" transform="translate(-1000.142 -412.742)" fill="#112545"/>
      <path id="Caminho_6962" data-name="Caminho 6962" d="M1073.842,451.983s1.435-3.8,3.7-1.787-.851,7.458-4.315,7.032C1073.227,457.228,1072.738,453.284,1073.842,451.983Z" transform="translate(-1006.806 -422.821)" fill="#f5a784"/>
      <path id="Caminho_6963" data-name="Caminho 6963" d="M1077.193,453.839a3.2,3.2,0,0,0-1.376.9,3.86,3.86,0,0,0-1.011,1.287c-.059.154.155.248.26.151.293-.273.528-.6.8-.9a1.8,1.8,0,0,0,.664.525c.209.077.364-.182.272-.353a1.63,1.63,0,0,0-.549-.525,8.315,8.315,0,0,0,1.093-.819A.162.162,0,0,0,1077.193,453.839Z" transform="translate(-1007.569 -424.746)" fill="#e0855c"/>
      <path id="Caminho_6964" data-name="Caminho 6964" d="M1069.2,492.861s4.588-1.819,9.963,7.664,9.846,30.129,13.6,37.744,20.492,29.989,20.492,29.989L1109,571.572s-19.047-20.414-24.549-29.632S1063.163,499.609,1069.2,492.861Z" transform="translate(-1004.407 -442.441)" fill="#f5a784"/>
      <path id="Caminho_6965" data-name="Caminho 6965" d="M964.692,491.423s-3.1-2.788-6.207-5.556c-1.877-1.671-6.439-4.808-7.045-6.551a4.49,4.49,0,0,1,.034-.882,1.64,1.64,0,0,1,.043-.237,4.564,4.564,0,0,1,.637-1.618c.026-.042.055-.09.087-.137a4.509,4.509,0,0,1,1.126-1.165c.042-.029.084-.057.126-.086a6.452,6.452,0,0,1,1.354-.73s4.149,3.784,5.912,4.478c0,0-1.884-2.908-1.37-3.864l.641-.376s2.386,2.9,3.567,4.09a12.145,12.145,0,0,1,3.133,7.028S967.567,492.05,964.692,491.423Z" transform="translate(-951.432 -434.131)" fill="#f5a784"/>
      <path id="Caminho_6966" data-name="Caminho 6966" d="M954.982,475.885l.126-.086a56.114,56.114,0,0,0,5.663,4.962.047.047,0,0,1-.047.079A18.119,18.119,0,0,1,954.982,475.885Z" transform="translate(-953.048 -434.74)" fill="#e0855c"/>
      <path id="Caminho_6967" data-name="Caminho 6967" d="M952.757,478.232l.087-.137a57.362,57.362,0,0,0,5.659,4.968c.038.031,0,.1-.043.073A17.928,17.928,0,0,1,952.757,478.232Z" transform="translate(-952.035 -435.785)" fill="#e0855c"/>
      <path id="Caminho_6968" data-name="Caminho 6968" d="M951.509,481.553a1.5,1.5,0,0,1,.043-.237,60.332,60.332,0,0,0,5.373,4.676c.043.026,0,.1-.047.075A16.331,16.331,0,0,1,951.509,481.553Z" transform="translate(-951.467 -437.251)" fill="#e0855c"/>
      <path id="Caminho_6969" data-name="Caminho 6969" d="M1055.626,606.623c-3.359,7.635-14,4.947-25.806,7.024s-18.324.306-26-13.437-24.086-19.678-24.086-19.678c.407-1.222,2.728-4.449,5.782-8.368.224-.3.458-.6.7-.906,1.68-2.137,12.368-15.108,12.6-15.392a23.98,23.98,0,0,0,3.166-4.9c.234-.509.458-1.018.672-1.537a23.721,23.721,0,0,0,1.476-5.833c.163-1.384.387-2.86.631-4.357.062-.4.123-.8.193-1.2.285-1.659,1.12-6.036,1.232-6.525.519-2.627,1-4.815,1.262-6.007,0,0,.061-.743.092-1.985.01-.387.02-.814.02-1.293a56.766,56.766,0,0,0-.5-7.91c-.092-.713-.2-1.425-.346-2.148a33.785,33.785,0,0,0-1.028-4.184,19.073,19.073,0,0,1,.825-4.978c.112-.356.234-.723.377-1.089a18.145,18.145,0,0,1,3.5-5.8c.723-.8,1.425-1.537,2.1-2.22.427-.427.855-.825,1.262-1.2a34.478,34.478,0,0,1,6.536-4.968l12.033-4.184s5.375.509,7.258,8c.122.438.214.906.305,1.395a30.661,30.661,0,0,1,.326,5.538c0,.1-.01.214-.01.316a7.727,7.727,0,0,1-.01.967,69.547,69.547,0,0,1-1.812,9.477c-.112.459-2.463,9.987-2.586,10.5a36.072,36.072,0,0,0-1.089,5.772,5.119,5.119,0,0,0,.285,1.578,12.391,12.391,0,0,0,.6,1.435c1.466,3.034,4.378,6.912,5.833,11.829.051.163.092.326.133.489.1.377.193.774.275,1.2a63.539,63.539,0,0,1,.926,10.089c.01.549.031,1.109.041,1.669.071,4.215,0,8.806-.112,13.285-.01.56-.2,8.236-.193,8.5.01.56.051,1.14.112,1.741a45.427,45.427,0,0,0,3.807,12.654c.193.438.387.875.591,1.313,1.4,3.054,2.942,5.935,4.337,8.368.285.5.57.987.834,1.456C1054.151,604.455,1055.626,606.623,1055.626,606.623Z" transform="translate(-964.311 -438.266)" fill="#f03e30"/>
      <path id="Caminho_6970" data-name="Caminho 6970" d="M1031.918,499.59s5.5-9.225-5.5-12.862c-7.052-2.332-18.834,27.841-29.435,28.161-1.515.045-25.709-26.5-25.709-26.5l-4.219,3.5s18.924,31.835,27.1,34.34C1001.757,528.551,1018.624,521.275,1031.918,499.59Z" transform="translate(-958.542 -439.655)" fill="#f5a784"/>
    </g>
    <path id="Caminho_6971" data-name="Caminho 6971" d="M733.218,407.328a.792.792,0,0,1-.647-1.248c1.824-2.591,3.731-5.174,5.669-7.678a.792.792,0,1,1,1.252.971c-1.923,2.483-3.816,5.047-5.628,7.619A.79.79,0,0,1,733.218,407.328Zm11.63-15.036a.792.792,0,0,1-.6-1.3c2.069-2.44,4.2-4.84,6.33-7.137a.792.792,0,0,1,1.161,1.078c-2.117,2.278-4.23,4.662-6.285,7.083A.788.788,0,0,1,744.847,392.291Zm12.932-13.921a.792.792,0,0,1-.553-1.355c2.28-2.239,4.625-4.43,6.968-6.513a.791.791,0,0,1,1.053,1.181c-2.328,2.066-4.654,4.241-6.915,6.459A.789.789,0,0,1,757.78,378.371Zm14.194-12.619a.792.792,0,0,1-.5-1.409c2.473-1.984,5.027-3.926,7.593-5.771a.791.791,0,1,1,.924,1.285c-2.543,1.828-5.076,3.751-7.526,5.721A.8.8,0,0,1,771.974,365.752ZM787.4,354.685a.792.792,0,0,1-.425-1.459c2.7-1.718,5.46-3.362,8.194-4.883a.791.791,0,0,1,.771,1.38c-2.71,1.509-5.439,3.136-8.115,4.838A.8.8,0,0,1,787.4,354.685ZM959.939,352.1a.8.8,0,0,1-.359-.087c-2.774-1.408-5.644-2.769-8.538-4.046a.791.791,0,1,1,.638-1.447c2.919,1.287,5.818,2.662,8.617,4.084a.791.791,0,0,1-.359,1.5ZM803.98,345.466a.792.792,0,0,1-.342-1.505c2.866-1.374,5.8-2.668,8.726-3.847a.791.791,0,0,1,.593,1.468c-2.894,1.165-5.8,2.446-8.635,3.805A.772.772,0,0,1,803.98,345.466Zm138.6-1.028a.808.808,0,0,1-.282-.052c-2.908-1.107-5.907-2.158-8.915-3.13a.79.79,0,0,1,.485-1.5c3.033.979,6.059,2.04,8.994,3.155a.792.792,0,0,1-.282,1.532ZM924.528,338.6a.78.78,0,0,1-.2-.029c-3.014-.811-6.1-1.563-9.182-2.239a.792.792,0,0,1,.339-1.547c3.1.682,6.217,1.441,9.253,2.257a.792.792,0,0,1-.205,1.557Zm-102.957-.22a.791.791,0,0,1-.246-1.542c3.014-.993,6.091-1.895,9.151-2.68a.792.792,0,0,1,.393,1.534c-3.026.775-6.071,1.667-9.052,2.647A.739.739,0,0,1,821.571,338.383ZM906,334.531a.767.767,0,0,1-.135-.012c-3.065-.529-6.21-1-9.346-1.4a.792.792,0,0,1,.2-1.571c3.159.407,6.328.879,9.416,1.412a.791.791,0,0,1-.135,1.571Zm-66.069-.862a.791.791,0,0,1-.145-1.569c3.088-.577,6.26-1.059,9.424-1.434a.782.782,0,0,1,.879.692.792.792,0,0,1-.692.879c-3.132.371-6.268.848-9.321,1.418A.7.7,0,0,1,839.928,333.669Zm47.255-1.544c-3.149-.267-6.324-.476-9.5-.621a.789.789,0,0,1-.755-.825.819.819,0,0,1,.825-.755c3.2.145,6.4.355,9.5.622a.791.791,0,0,1-.068,1.579Zm-28.436-.682a.791.791,0,0,1-.042-1.581c2.529-.131,5.1-.2,7.647-.2l1.888.006a.792.792,0,0,1-.006,1.584l-1.882-.006c-2.519,0-5.064.064-7.563.193Z" transform="translate(-5534.863 -3237.438)" fill="#999898"/>
    <g id="dolar-2" data-name="dolar">
      <path id="Caminho_6973" data-name="Caminho 6973" d="M962.493,337.664c-2.18-1.181-9.121-2.111-6.185-6.079a3.776,3.776,0,0,1,3.838-1.379c1.19.167,4.156,2.492,5.169.8,1.124-1.874-1.939-3.506-3-4.036a7.119,7.119,0,0,0-3.659-.672,8.749,8.749,0,0,0-6.569,3.61,6.238,6.238,0,0,0-1.033,2.676c-.408,3.109,1.994,5.582,4.6,6.833,2.38,1.143,6.492.946,7.361,4.04a3.54,3.54,0,0,1,.106,1.136,3.264,3.264,0,0,1-2.18,3.156,6.875,6.875,0,0,1-6.587-2.393c-1.739-2.429-5.8-.094-4.043,2.363,4.1,5.732,15.649,6.507,16.663-2.18A8.132,8.132,0,0,0,962.493,337.664Z" transform="translate(-5633.812 -3245.898)" fill="#1250b3"/>
      <path id="Caminho_6974" data-name="Caminho 6974" d="M966.045,321.716c-.252-.613-.576-.968-.987-.958-1.32.033-1.789,2.637-1.792,3.845-.01,4.214.254,8.337.353,12.49.057,2.37-.016,4.74.015,7.11a43.171,43.171,0,0,0,.433,7.125c.159.89,1.124,2.282,1.909.938a2.852,2.852,0,0,0,.295-1.041c.683-4.657.325-9.427.437-14.132C966.751,335.287,967.373,324.939,966.045,321.716Z" transform="translate(-5639.907 -3243.385)" fill="#1250b3"/>
    </g>
  </g>
</svg>
