<svg id="provedores_3" xmlns="http://www.w3.org/2000/svg" width="56.11" height="78.554" viewBox="0 0 56.11 78.554">
  <g id="Grupo_3286" data-name="Grupo 3286" transform="translate(2.494 31.805)">
    <path id="Caminho_6978" data-name="Caminho 6978" d="M707.915,145.283V125.54l-5.96,4.589a8.709,8.709,0,0,0-2.768,6.4v25.748h23.691v-4.988s4.988-3.017,4.988-8.728v-3.741Z" transform="translate(-697.94 -123.006)" fill="none"/>
    <path id="Caminho_6979" data-name="Caminho 6979" d="M724.372,164.022H698.187V137.027a9.956,9.956,0,0,1,3.17-7.313l8.052-6.206v21l19.95-.465v5.016a11.939,11.939,0,0,1-4.987,9.383Zm-23.691-2.494h21.2v-4.444l.6-.363c.176-.108,4.387-2.751,4.387-7.662v-2.465l-19.95.466V128.575l-3.951,3.044a7.422,7.422,0,0,0-2.283,5.408Z" transform="translate(-698.187 -123.508)" fill="#f2f5f7"/>
  </g>
  <g id="Grupo_3287" data-name="Grupo 3287" transform="translate(12.469 1.247)">
    <path id="Caminho_6980" data-name="Caminho 6980" d="M706.187,110.222h11.222V99" transform="translate(-706.186 -99)" fill="#8bd9f1"/>
    <path id="Caminho_6981" data-name="Caminho 6981" d="M718.655,111.469H706.187v-2.494h9.975V99h2.494Z" transform="translate(-706.187 -99)" fill="#f2f5f7"/>
  </g>
  <g id="Grupo_3288" data-name="Grupo 3288" transform="translate(11.223 0)">
    <path id="Caminho_6982" data-name="Caminho 6982" d="M746.334,152.863H708.928v-2.494h37.406a1.249,1.249,0,0,0,1.247-1.247V101.741a1.249,1.249,0,0,0-1.247-1.247H716.925l-9.244,9.244v35.643h-2.494V108.706L715.891,98h30.443a3.745,3.745,0,0,1,3.741,3.741v47.381A3.745,3.745,0,0,1,746.334,152.863Z" transform="translate(-705.187 -98)" fill="#f2f5f7"/>
  </g>
  <g id="Grupo_3289" data-name="Grupo 3289" transform="translate(16.209 4.988)">
    <path id="Caminho_6983" data-name="Caminho 6983" d="M709.187,109.481h7.481V102" transform="translate(-709.186 -102)" fill="#8bd9f1"/>
    <path id="Caminho_6984" data-name="Caminho 6984" d="M717.915,110.728h-8.728v-2.494h6.234V102h2.494Z" transform="translate(-709.187 -102)" fill="#f2f5f7"/>
  </g>
  <g id="Grupo_3290" data-name="Grupo 3290" transform="translate(20.782 22.443)">
    <line id="Linha_110" data-name="Linha 110" x2="25" transform="translate(0.215 1.474)" fill="#2a5082"/>
    <rect id="Retângulo_468" data-name="Retângulo 468" width="25" height="2" transform="translate(0.215 0.474)" fill="#f2f5f7"/>
  </g>
  <g id="Grupo_3291" data-name="Grupo 3291" transform="translate(20.782 27.639)">
    <line id="Linha_111" data-name="Linha 111" x2="15" transform="translate(0.215 1.278)" fill="#2a5082"/>
    <rect id="Retângulo_469" data-name="Retângulo 469" width="15" height="2" transform="translate(0.215 0.278)" fill="#f2f5f7"/>
  </g>
  <g id="Grupo_3292" data-name="Grupo 3292" transform="translate(20.782 17.248)">
    <line id="Linha_112" data-name="Linha 112" x2="25" transform="translate(0.215 0.669)" fill="#2a5082"/>
    <rect id="Retângulo_470" data-name="Retângulo 470" width="25" height="3" transform="translate(0.215 -0.331)" fill="#f2f5f7"/>
  </g>
  <g id="Grupo_3293" data-name="Grupo 3293" transform="translate(8.174 37.028)">
    <path id="Caminho_6985" data-name="Caminho 6985" d="M716.932,128.373c-2.893,2.893-14.189,13.94-14.189,13.94l9.963,13a11.335,11.335,0,0,0,1.409-11.347s5.037-5.636,6.272-7.344C723.116,132.55,719.824,125.48,716.932,128.373Z" transform="translate(-702.742 -127.696)" fill="#f2f5f7"/>
  </g>
  <g id="Grupo_3294" data-name="Grupo 3294" transform="translate(7.29 35.778)">
    <path id="Caminho_6986" data-name="Caminho 6986" d="M702.732,142.313s11.3-11.047,14.19-13.94,6.2,4.19,3.441,8.267c-1.234,1.708-6.272,7.344-6.272,7.344a11.368,11.368,0,0,1-1.409,11.347" transform="translate(-701.86 -126.446)" fill="#1250b3"/>
    <path id="Caminho_6987" data-name="Caminho 6987" d="M713.816,156.371l-1.924-1.586a10.029,10.029,0,0,0,1.233-10.045l-.33-.737.54-.6c.05-.056,5.007-5.606,6.191-7.243,1.465-2.17.688-5.7-.587-6.759-.325-.267-.541-.315-.963.1-2.865,2.865-14.086,13.839-14.2,13.95l-1.744-1.783c.113-.111,11.324-11.076,14.18-13.93a3.022,3.022,0,0,1,4.312-.264c2.291,1.89,3.267,6.822,1.044,10.111-1.05,1.454-4.524,5.393-5.855,6.894A12.592,12.592,0,0,1,713.816,156.371Z" transform="translate(-702.033 -126.694)" fill="#f2f5f7"/>
  </g>
  <g id="Grupo_3298" data-name="Grupo 3298" transform="translate(0 68.578)">
    <g id="Grupo_3295" data-name="Grupo 3295">
      <path id="Caminho_6988" data-name="Caminho 6988" d="M697.187,162.728V154h29.925v8.728" transform="translate(-695.94 -152.753)" fill="#f2f5f7"/>
      <path id="Caminho_6989" data-name="Caminho 6989" d="M728.605,162.975h-2.494v-7.481H698.68v7.481h-2.494V153h32.419Z" transform="translate(-696.187 -153)" fill="#f2f5f7"/>
    </g>
    <g id="Grupo_3296" data-name="Grupo 3296" transform="translate(5.195 4.78)">
      <line id="Linha_113" data-name="Linha 113" x2="3" transform="translate(-0.199 0.559)" fill="#f2f5f7"/>
      <rect id="Retângulo_471" data-name="Retângulo 471" width="3" height="4" transform="translate(-0.199 -0.441)" fill="#f2f5f7"/>
    </g>
    <g id="Grupo_3297" data-name="Grupo 3297">
      <path id="Caminho_6990" data-name="Caminho 6990" d="M697.187,162.728V154h29.925v8.728" transform="translate(-695.94 -152.753)" fill="#8bd9f1"/>
      <path id="Caminho_6991" data-name="Caminho 6991" d="M728.605,162.975h-2.494v-7.481H698.68v7.481h-2.494V153h32.419Z" transform="translate(-696.187 -153)" fill="#f2f5f7"/>
    </g>
  </g>
</svg>
