<svg xmlns="http://www.w3.org/2000/svg" width="85.5" height="78.988" viewBox="0 0 85.5 78.988">
  <g id="provedores_4" transform="translate(0 0.001)">
    <g id="Grupo_3335" data-name="Grupo 3335" transform="translate(34.077 0)">
      <path id="Caminho_7017" data-name="Caminho 7017" d="M633.606,429.9l-2.939-.014c-1.128,0-1.789-.8-5.05-6.086-.727-1.18-1.623-2.637-1.961-3.052l-.434-.171-.272-.616a1.5,1.5,0,0,1,.142-1.274c2.469-4.429,8.117-2.833,11.5-1.877a7.536,7.536,0,0,0,3.51.455c.552-.157,2.011-.57,2.9.5a1.863,1.863,0,0,1-.123,2.554c-.274.352-1.019,1.565-1.739,2.74C635.49,429,634.766,429.9,633.606,429.9Zm-.627-2.572Zm-1.87-.2h2.067a65.437,65.437,0,0,0,3.609-5.511c.36-.587.67-1.092.936-1.517a12.614,12.614,0,0,1-3.888-.637c-3.241-.918-6.27-1.6-7.8-.141.434.605,1.045,1.589,1.934,3.031A56.111,56.111,0,0,0,631.109,427.124Z" transform="translate(-622.865 -415.723)" fill="#f2f5f7"/>
    </g>
    <path id="Caminho_7018" data-name="Caminho 7018" d="M638.219,424.312a8.18,8.18,0,0,0-8.274,0c-9.833,5.282-13.79,15.514-13.79,20.548,0,10.164,8.026,13.928,17.928,13.928s17.928-3.627,17.928-13.79C652.009,440.115,647.789,430.131,638.219,424.312Z" transform="translate(-591.331 -412.897)" fill="#8bd9f1"/>
    <path id="Caminho_7019" data-name="Caminho 7019" d="M634.461,460.545c-12.269,0-19.307-5.58-19.307-15.307,0-5.8,4.5-16.384,14.517-21.763a9.644,9.644,0,0,1,9.644.037h0c9.968,6.061,14.452,16.434,14.452,21.863C653.767,455.158,646.912,460.545,634.461,460.545Zm.139-35.611a7.8,7.8,0,0,0-3.623.971c-9.871,5.3-13.065,15.314-13.065,19.333,0,10.372,9,12.549,16.549,12.549s16.548-2.154,16.548-12.411c0-4.647-4.171-14.061-13.127-19.508A6.232,6.232,0,0,0,634.6,424.934Z" transform="translate(-591.71 -413.275)" fill="#f2f5f7"/>
    <g id="Grupo_3339" data-name="Grupo 3339" transform="translate(37.234 16.93)">
      <g id="Grupo_3336" data-name="Grupo 3336" transform="translate(0 2.758)">
        <path id="Caminho_7020" data-name="Caminho 7020" d="M632.049,446.549h-2.758a4.142,4.142,0,0,1-4.137-4.137h2.758a1.38,1.38,0,0,0,1.379,1.379h2.758a1.38,1.38,0,0,0,1.379-1.379v-.772a1.373,1.373,0,0,0-.941-1.31l-4.5-1.506a4.124,4.124,0,0,1-2.83-3.928v-.758A4.142,4.142,0,0,1,629.291,430h2.758a4.141,4.141,0,0,1,4.137,4.137h-2.758a1.38,1.38,0,0,0-1.379-1.379h-2.758a1.38,1.38,0,0,0-1.379,1.379v.758a1.378,1.378,0,0,0,.942,1.312l4.5,1.5a4.124,4.124,0,0,1,2.83,3.928v.772A4.141,4.141,0,0,1,632.049,446.549Z" transform="translate(-625.154 -430)" fill="#f2f5f7"/>
      </g>
      <g id="Grupo_3337" data-name="Grupo 3337" transform="translate(4.138)">
        <rect id="Retângulo_482" data-name="Retângulo 482" width="2.758" height="4.137" fill="#f2f5f7"/>
      </g>
      <g id="Grupo_3338" data-name="Grupo 3338" transform="translate(4.138 17.928)">
        <rect id="Retângulo_483" data-name="Retângulo 483" width="2.758" height="4.137" fill="#f2f5f7"/>
      </g>
    </g>
    <g id="Grupo_3340" data-name="Grupo 3340" transform="translate(67.572 22.446)">
      <path id="Caminho_7021" data-name="Caminho 7021" d="M649.912,484.4h-2.758v-.439c-.005-3-.01-5.837,1.827-7.656.616-.614,2.816-2.781,5.351-5.279l5.534-5.453a8.237,8.237,0,0,0,2.458-5.886V434.97a5.814,5.814,0,0,0-2.728,1.724c-1.284,1.462-1.762,3.534-1.42,6.16l.047.357-2.892,7.228-2.561-1.023,2.627-6.57c-.436-4.078.9-6.579,2.127-7.971A8.494,8.494,0,0,1,663.7,432h1.379v27.691a10.976,10.976,0,0,1-3.277,7.847l-5.537,5.457c-2.529,2.492-4.723,4.653-5.34,5.269-1.023,1.012-1.021,3.288-1.016,5.7Z" transform="translate(-647.154 -432)" fill="#f2f5f7"/>
    </g>
    <g id="Grupo_3341" data-name="Grupo 3341" transform="translate(49.645 39.396)">
      <path id="Caminho_7022" data-name="Caminho 7022" d="M636.912,479.759h-2.758V468.726c0-4.359,1.026-7.6,3.052-9.622l5.735-5.737a9.975,9.975,0,0,1,4.367-2.033,7.878,7.878,0,0,0,2.583-1.015l4.47-4.468a5.647,5.647,0,0,1,7.8,0,5.519,5.519,0,0,1,0,7.8l-8.371,8.371-1.95-1.95,8.371-8.371a2.756,2.756,0,0,0-3.9-3.9l-4.469,4.468a8.645,8.645,0,0,1-3.773,1.717,8.526,8.526,0,0,0-3.181,1.335l-5.731,5.733c-1.467,1.469-2.244,4.122-2.244,7.672Z" transform="translate(-634.154 -444.291)" fill="#f2f5f7"/>
    </g>
    <g id="Grupo_3342" data-name="Grupo 3342" transform="translate(48.266 72.092)">
      <rect id="Retângulo_484" data-name="Retângulo 484" width="24.74" height="6.895" fill="#8bd9f1"/>
    </g>
    <g id="Grupo_3343" data-name="Grupo 3343" transform="translate(46.888 70.713)">
      <path id="Caminho_7023" data-name="Caminho 7023" d="M659.652,475.274h-2.758v-5.516H634.912v5.516h-2.758V467h27.5Z" transform="translate(-632.154 -467)" fill="#f2f5f7"/>
    </g>
    <g id="Grupo_3344" data-name="Grupo 3344" transform="translate(52.404 76.229)">
      <rect id="Retângulo_485" data-name="Retângulo 485" width="4.137" height="2.758" fill="#f2f5f7"/>
    </g>
    <g id="Grupo_3345" data-name="Grupo 3345" transform="translate(0 22.446)">
      <path id="Caminho_7024" data-name="Caminho 7024" d="M616.082,484.4h-2.758v-.436c0-2.412.007-4.69-1.012-5.7-.648-.647-3.013-2.976-5.683-5.607l-5.2-5.12a10.985,10.985,0,0,1-3.278-7.848V432h1.379a8.5,8.5,0,0,1,6.179,2.874c1.222,1.391,2.562,3.893,2.126,7.972l2.629,6.57-2.561,1.023-2.892-7.228.047-.357c.341-2.626-.138-4.7-1.422-6.16a5.807,5.807,0,0,0-2.728-1.724v24.721a8.252,8.252,0,0,0,2.459,5.889l5.192,5.116c2.678,2.637,5.047,4.97,5.694,5.615,1.833,1.818,1.829,4.656,1.824,7.661Z" transform="translate(-598.154 -432)" fill="#f2f5f7"/>
    </g>
    <g id="Grupo_3346" data-name="Grupo 3346" transform="translate(6.238 39.345)">
      <path id="Caminho_7025" data-name="Caminho 7025" d="M632.294,479.773h-2.758V468.74c0-3.55-.775-6.2-2.245-7.672l-5.735-5.737A8.533,8.533,0,0,0,618.379,454a8.651,8.651,0,0,1-3.773-1.717l-4.468-4.468a2.756,2.756,0,1,0-3.9,3.9l8.371,8.371-1.95,1.95-8.371-8.371a5.513,5.513,0,1,1,7.8-7.8l4.468,4.468a7.891,7.891,0,0,0,2.583,1.015,9.971,9.971,0,0,1,4.363,2.029l5.74,5.741c2.026,2.026,3.053,5.264,3.053,9.622Z" transform="translate(-602.678 -444.254)" fill="#f2f5f7"/>
    </g>
    <g id="Grupo_3347" data-name="Grupo 3347" transform="translate(12.411 72.092)">
      <rect id="Retângulo_486" data-name="Retângulo 486" width="24.823" height="6.895" fill="#8bd9f1"/>
    </g>
    <g id="Grupo_3348" data-name="Grupo 3348" transform="translate(11.033 70.713)">
      <path id="Caminho_7026" data-name="Caminho 7026" d="M633.735,475.274h-2.758v-5.516H608.912v5.516h-2.758V467h27.581Z" transform="translate(-606.154 -467)" fill="#f2f5f7"/>
    </g>
    <g id="Grupo_3349" data-name="Grupo 3349" transform="translate(28.96 76.229)">
      <rect id="Retângulo_487" data-name="Retângulo 487" width="4.137" height="2.758" fill="#f2f5f7"/>
    </g>
  </g>
</svg>
