<svg id="provedores_1" xmlns="http://www.w3.org/2000/svg" width="87.624" height="75.993" viewBox="0 0 87.624 75.993">
  <g id="Grupo_3319" data-name="Grupo 3319" transform="translate(9.326 1.379)">
    <path id="Caminho_7002" data-name="Caminho 7002" d="M723.519,192.671c-7.614,0-13.794,3.09-13.794,6.9h0v34.486l27.589-15.174V199.568C737.314,195.761,731.134,192.671,723.519,192.671Z" transform="translate(-709.725 -192.671)" fill="#8bd9f1"/>
  </g>
  <g id="Grupo_3320" data-name="Grupo 3320" transform="translate(7.948 0)">
    <path id="Caminho_7003" data-name="Caminho 7003" d="M723.9,208.224c-8.508,0-15.174-3.636-15.174-8.277s6.665-8.277,15.174-8.277,15.174,3.636,15.174,8.277S732.408,208.224,723.9,208.224Zm0-13.794c-7.317,0-12.415,2.908-12.415,5.518s5.1,5.518,12.415,5.518,12.415-2.908,12.415-5.518S731.215,194.43,723.9,194.43Z" transform="translate(-708.726 -191.671)" fill="#f2f5f7"/>
  </g>
  <g id="Grupo_3321" data-name="Grupo 3321" transform="translate(7.948 8.277)">
    <path id="Caminho_7004" data-name="Caminho 7004" d="M723.9,212.845c-8.508,0-15.174-3.636-15.174-8.277v-6.9h2.759v6.9c0,2.61,5.1,5.518,12.415,5.518s12.415-2.908,12.415-5.518v-6.9h2.759v6.9C739.074,209.209,732.408,212.845,723.9,212.845Z" transform="translate(-708.726 -197.671)" fill="#f2f5f7"/>
  </g>
  <g id="Grupo_3322" data-name="Grupo 3322" transform="translate(35.537 13.794)">
    <path id="Caminho_7005" data-name="Caminho 7005" d="M730.106,211.327a1.379,1.379,0,0,1-1.38-1.379v-6.9a1.379,1.379,0,0,1,2.759,0v6.9A1.38,1.38,0,0,1,730.106,211.327Z" transform="translate(-728.726 -201.671)" fill="#f2f5f7"/>
  </g>
  <g id="Grupo_3323" data-name="Grupo 3323" transform="translate(7.948 13.794)">
    <path id="Caminho_7006" data-name="Caminho 7006" d="M719.763,217.907a1.463,1.463,0,0,1-.218-.017c-6.572-1.039-10.819-4.156-10.819-7.943v-6.9a1.379,1.379,0,1,1,2.759,0v6.9c0,2.246,3.57,4.44,8.492,5.217a1.38,1.38,0,0,1-.214,2.742Z" transform="translate(-708.726 -201.671)" fill="#f2f5f7"/>
  </g>
  <g id="Grupo_3324" data-name="Grupo 3324" transform="translate(7.948 20.692)">
    <path id="Caminho_7007" data-name="Caminho 7007" d="M714.242,221.252a1.379,1.379,0,0,1-.608-.142c-3.166-1.556-4.908-3.745-4.908-6.162v-6.9a1.379,1.379,0,1,1,2.759,0v6.9c0,1.29,1.226,2.635,3.367,3.686a1.38,1.38,0,0,1-.61,2.618Z" transform="translate(-708.726 -206.671)" fill="#f2f5f7"/>
  </g>
  <g id="Grupo_3325" data-name="Grupo 3325" transform="translate(7.948 20.692)">
    <path id="Caminho_7008" data-name="Caminho 7008" d="M710.105,224.6a1.379,1.379,0,0,1-1.379-1.379V208.05a1.379,1.379,0,1,1,2.759,0v15.174A1.38,1.38,0,0,1,710.105,224.6Z" transform="translate(-708.726 -206.671)" fill="#f2f5f7"/>
  </g>
  <g id="Grupo_3326" data-name="Grupo 3326" transform="translate(0.001 15.173)">
    <path id="Caminho_7009" data-name="Caminho 7009" d="M733.6,249.944a1.371,1.371,0,0,1-.641-.159L703.7,234.433a1.38,1.38,0,0,1,0-2.443l55.607-29.161a1.376,1.376,0,0,1,1.281,0l29.258,15.353a1.38,1.38,0,0,1,0,2.443l-55.605,29.161A1.391,1.391,0,0,1,733.6,249.944Zm-26.289-16.731L733.6,247.007,786.239,219.4,759.95,205.608Z" transform="translate(-702.965 -202.671)" fill="#f2f5f7"/>
  </g>
  <g id="Grupo_3327" data-name="Grupo 3327" transform="translate(0 37.299)">
    <path id="Caminho_7010" data-name="Caminho 7010" d="M733.6,250.631a1.37,1.37,0,0,1-.641-.159L703.7,235.12a1.38,1.38,0,1,1,1.283-2.443L733.6,247.693l54.965-28.825a1.38,1.38,0,0,1,1.281,2.444l-55.6,29.16A1.375,1.375,0,0,1,733.6,250.631Z" transform="translate(-702.964 -218.71)" fill="#f2f5f7"/>
  </g>
  <g id="Grupo_3328" data-name="Grupo 3328" transform="translate(0 44.072)">
    <path id="Caminho_7011" data-name="Caminho 7011" d="M733.6,255.541a1.37,1.37,0,0,1-.641-.159L703.7,240.03a1.379,1.379,0,1,1,1.283-2.442L733.6,252.6l54.965-28.825a1.379,1.379,0,1,1,1.281,2.443l-55.6,29.161A1.375,1.375,0,0,1,733.6,255.541Z" transform="translate(-702.964 -223.62)" fill="#f2f5f7"/>
  </g>
  <g id="Grupo_3329" data-name="Grupo 3329" transform="translate(14 23.188)">
    <path id="Caminho_7012" data-name="Caminho 7012" d="M733.642,239.751l-.641-.337a5.056,5.056,0,0,0-4.555-.012l-.639.334-14.669-7.688,2.312-1.226a2.629,2.629,0,0,0,.479-.312,2.921,2.921,0,0,0-.487-.31l-2.329-1.222,39.081-20.5.639.334a5.075,5.075,0,0,0,4.572,0l.641-.337,14.688,7.7-2.341,1.219a2.845,2.845,0,0,0-.49.309,2.719,2.719,0,0,0,.5.323l2.326,1.222Zm-2.934-3.647a7.8,7.8,0,0,1,2.894.553l33.769-17.709a2.446,2.446,0,0,1-.342-1.247,2.42,2.42,0,0,1,.335-1.218L758,211.575a7.839,7.839,0,0,1-5.763,0l-33.77,17.711a2.4,2.4,0,0,1,.337,1.214,2.43,2.43,0,0,1-.334,1.231l9.379,4.915A7.76,7.76,0,0,1,730.708,236.1Z" transform="translate(-713.113 -208.481)" fill="#f2f5f7"/>
  </g>
  <g id="Grupo_3330" data-name="Grupo 3330" transform="translate(56.228 30.347)">
    <rect id="Ret창ngulo_480" data-name="Ret창ngulo 480" width="2.759" height="2.759" fill="#f2f5f7"/>
  </g>
  <g id="Grupo_3331" data-name="Grupo 3331" transform="translate(28.639 44.142)">
    <rect id="Ret창ngulo_481" data-name="Ret창ngulo 481" width="2.759" height="2.759" fill="#f2f5f7"/>
  </g>
  <g id="Grupo_3332" data-name="Grupo 3332" transform="translate(34.454 33.266)">
    <path id="Caminho_7013" data-name="Caminho 7013" d="M742.244,218.144c3.228,1.7,3.449,4.331.483,5.89s-7.987,1.435-11.215-.262-3.449-4.331-.483-5.89S739.016,216.447,742.244,218.144Z" transform="translate(-727.562 -215.407)" fill="#fff"/>
    <path id="Caminho_7014" data-name="Caminho 7014" d="M737.949,226.889a14.754,14.754,0,0,1-6.7-1.516c-2.134-1.121-3.309-2.683-3.309-4.4,0-.913.367-2.64,2.826-3.933,3.365-1.768,8.856-1.654,12.5.262,2.134,1.121,3.309,2.684,3.309,4.4,0,.913-.365,2.64-2.825,3.933A12.745,12.745,0,0,1,737.949,226.889Zm-1.4-8.34a9.979,9.979,0,0,0-4.5.934c-.858.451-1.35,1-1.35,1.491,0,.48.481,1.246,1.835,1.956,2.825,1.486,7.373,1.607,9.932.263.858-.451,1.349-.995,1.349-1.491,0-.48-.481-1.247-1.833-1.957A12.088,12.088,0,0,0,736.55,218.549Z" transform="translate(-727.941 -215.787)" fill="#2a5082"/>
  </g>
  <g id="Grupo_3333" data-name="Grupo 3333" transform="translate(18.983 24.829)">
    <path id="Caminho_7015" data-name="Caminho 7015" d="M748.073,234.742l-30.348-17.174,13.794-6.9,31.727,16.512v16.7l-15.174,8.166Z" transform="translate(-716.346 -209.291)" fill="#8bd9f1"/>
    <path id="Caminho_7016" data-name="Caminho 7016" d="M748.453,253.813a1.381,1.381,0,0,1-1.379-1.379V235.926l-29.648-16.778a1.38,1.38,0,0,1,.062-2.435l13.794-6.9a1.377,1.377,0,0,1,1.254.011l31.727,16.51a1.383,1.383,0,0,1,.744,1.225v16.7a1.379,1.379,0,0,1-.727,1.214l-15.174,8.166A1.365,1.365,0,0,1,748.453,253.813ZM721.04,218.024l28.092,15.9a1.383,1.383,0,0,1,.7,1.2v15l12.415-6.682V228.4l-30.36-15.8Z" transform="translate(-716.726 -209.67)" fill="#f2f5f7"/>
  </g>
</svg>
