<svg id="provedores_2" xmlns="http://www.w3.org/2000/svg" width="77.233" height="78.263" viewBox="0 0 77.233 78.263">
  <g id="Grupo_3300" data-name="Grupo 3300" transform="translate(1.43 22.483)">
    <path id="Caminho_6992" data-name="Caminho 6992" d="M644.975,280.779V255.035c-3.189,0-7.151-3.962-7.151-7.151v-14.3c0-3.79,5.12-8.581,10.012-8.581h11.442c4.448,0,10.012,4.062,10.012,10.012v12.872c0,3.189-3.962,7.151-7.151,7.151v25.744Z" transform="translate(-637.824 -225)" fill="#8bd9f1"/>
  </g>
  <g id="Grupo_3301" data-name="Grupo 3301" transform="translate(44.337 22.483)">
    <path id="Caminho_6993" data-name="Caminho 6993" d="M674.975,280.779V255.035c-2.861,0-7.151-3.962-7.151-7.151v-14.3c0-3.79,5.12-8.581,10.012-8.581h11.442c4.448,0,10.012,4.062,10.012,10.012v12.872c0,3.189-4.291,7.151-7.151,7.151v25.744Z" transform="translate(-667.824 -225)" fill="none"/>
  </g>
  <g id="Grupo_3302" data-name="Grupo 3302" transform="translate(8.581 0)">
    <path id="Caminho_6994" data-name="Caminho 6994" d="M651.406,228.46a8.625,8.625,0,0,1-8.581-8.438v-2.3a8.583,8.583,0,0,1,17.163,0v2.3A8.625,8.625,0,0,1,651.406,228.46Zm0-16.319a5.727,5.727,0,0,0-5.721,5.578v2.3a5.723,5.723,0,0,0,11.442,0v-2.3A5.727,5.727,0,0,0,651.406,212.14Z" transform="translate(-642.824 -209.28)" fill="#f2f5f7"/>
  </g>
  <g id="Grupo_3303" data-name="Grupo 3303" transform="translate(0 21.053)">
    <path id="Caminho_6995" data-name="Caminho 6995" d="M645.405,256.9c-4.009,0-8.581-4.571-8.581-8.581V235.442c0-6.549,6.041-11.442,11.442-11.442h11.442c5.525,0,11.442,6.715,11.442,11.442h-2.86c0-2.983-4.545-8.581-8.581-8.581H648.266c-3.5,0-8.581,3.342-8.581,8.581v12.872c0,2.406,3.315,5.721,5.721,5.721Z" transform="translate(-636.824 -224)" fill="#f2f5f7"/>
  </g>
  <g id="Grupo_3304" data-name="Grupo 3304" transform="translate(7.152 32.495)">
    <rect id="Retângulo_472" data-name="Retângulo 472" width="2.86" height="45.768" fill="#f2f5f7"/>
  </g>
  <g id="Grupo_3305" data-name="Grupo 3305" transform="translate(24.314 41.076)">
    <path id="Caminho_6996" data-name="Caminho 6996" d="M656.685,275.186h-2.86V248.012h1.43c2.407,0,5.721-3.315,5.721-5.721V238h2.861v4.291c0,3.538-3.558,7.513-7.151,8.4Z" transform="translate(-653.824 -238)" fill="#f2f5f7"/>
  </g>
  <g id="Grupo_3306" data-name="Grupo 3306" transform="translate(15.733 52.518)">
    <rect id="Retângulo_473" data-name="Retângulo 473" width="2.86" height="25.744" fill="#f2f5f7"/>
  </g>
  <g id="Grupo_3307" data-name="Grupo 3307" transform="translate(17.163 35.356)">
    <rect id="Retângulo_474" data-name="Retângulo 474" width="14.302" height="2.86" fill="#f2f5f7"/>
  </g>
  <g id="Grupo_3308" data-name="Grupo 3308" transform="translate(34.326 35.356)">
    <rect id="Retângulo_475" data-name="Retângulo 475" width="2.86" height="2.86" fill="#f2f5f7"/>
  </g>
  <g id="Grupo_3309" data-name="Grupo 3309" transform="translate(51.489 0)">
    <path id="Caminho_6997" data-name="Caminho 6997" d="M681.405,228.46a8.625,8.625,0,0,1-8.581-8.438v-2.3a8.583,8.583,0,0,1,17.163,0v2.3A8.625,8.625,0,0,1,681.405,228.46Zm0-16.319a5.727,5.727,0,0,0-5.721,5.578v2.3a5.723,5.723,0,0,0,11.442,0v-2.3A5.727,5.727,0,0,0,681.405,212.14Z" transform="translate(-672.824 -209.28)" fill="#f2f5f7"/>
  </g>
  <g id="Grupo_3310" data-name="Grupo 3310" transform="translate(42.907 21.053)">
    <path id="Caminho_6998" data-name="Caminho 6998" d="M692.568,256.9v-2.86c2.407,0,5.721-3.315,5.721-5.721V235.442c0-5.239-5.082-8.581-8.581-8.581H678.266c-4.035,0-8.581,5.6-8.581,8.581h-2.861c0-4.727,5.918-11.442,11.442-11.442h11.442c5.4,0,11.442,4.893,11.442,11.442v12.872C701.15,252.324,696.579,256.9,692.568,256.9Z" transform="translate(-666.824 -224)" fill="#f2f5f7"/>
  </g>
  <g id="Grupo_3311" data-name="Grupo 3311" transform="translate(67.222 32.495)">
    <rect id="Retângulo_476" data-name="Retângulo 476" width="2.86" height="45.768" fill="#f2f5f7"/>
  </g>
  <g id="Grupo_3312" data-name="Grupo 3312" transform="translate(42.907 41.076)">
    <path id="Caminho_6999" data-name="Caminho 6999" d="M676.836,275.186h-2.86V250.662c-3.328-.928-7.151-4.763-7.151-8.371V238h2.861v4.291c0,2.414,3.65,5.721,5.721,5.721h1.43Z" transform="translate(-666.824 -238)" fill="#f2f5f7"/>
  </g>
  <g id="Grupo_3313" data-name="Grupo 3313" transform="translate(58.64 52.518)">
    <rect id="Retângulo_477" data-name="Retângulo 477" width="2.86" height="25.744" fill="#f2f5f7"/>
  </g>
  <g id="Grupo_3314" data-name="Grupo 3314" transform="translate(45.768 35.356)">
    <rect id="Retângulo_478" data-name="Retângulo 478" width="14.302" height="2.86" fill="#f2f5f7"/>
  </g>
  <g id="Grupo_3315" data-name="Grupo 3315" transform="translate(53.338 28.623)">
    <path id="Caminho_7000" data-name="Caminho 7000" d="M676.14,245.618l-2.022-2.022,6.14-6.14-6.14-6.14,2.022-2.022,8.162,8.162Z" transform="translate(-674.117 -229.293)" fill="#f2f5f7"/>
  </g>
  <g id="Grupo_3316" data-name="Grupo 3316" transform="translate(13.711 28.623)">
    <path id="Caminho_7001" data-name="Caminho 7001" d="M654.573,245.618l-8.162-8.162,8.162-8.162,2.023,2.022-6.14,6.14,6.14,6.14Z" transform="translate(-646.41 -229.293)" fill="#f2f5f7"/>
  </g>
  <g id="Grupo_3317" data-name="Grupo 3317" transform="translate(40.047 35.356)">
    <rect id="Retângulo_479" data-name="Retângulo 479" width="2.86" height="2.86" fill="#f2f5f7"/>
  </g>
</svg>
