<svg xmlns="http://www.w3.org/2000/svg" width="84.65" height="83.15" viewBox="0 0 84.65 83.15">
  <g id="tecnologia_2" transform="translate(-619.829 -102)">
    <g id="Grupo_4222" data-name="Grupo 4222" transform="translate(661.419 121.303)">
      <path id="Caminho_7880" data-name="Caminho 7880" d="M662.145,128.363H647.839v-2.97h12.72L667.521,115h12.984v2.97h-11.4Z" transform="translate(-647.839 -115)" fill="#f2f5f7"/>
    </g>
    <g id="Grupo_4223" data-name="Grupo 4223" transform="translate(674.782 140.605)">
      <rect id="Retângulo_525" data-name="Retângulo 525" width="22" height="3" transform="translate(-0.133 -0.03)" fill="#f2f5f7"/>
    </g>
    <g id="Grupo_4224" data-name="Grupo 4224" transform="translate(686.661 116.848)">
      <circle id="Elipse_56" data-name="Elipse 56" cx="5.197" cy="5.197" r="5.197" transform="translate(1.485 1.485)" fill="#8bd9f1"/>
      <path id="Caminho_7881" data-name="Caminho 7881" d="M671.521,125.363a6.682,6.682,0,1,1,6.682-6.682A6.689,6.689,0,0,1,671.521,125.363Zm0-10.394a3.712,3.712,0,1,0,3.712,3.712A3.716,3.716,0,0,0,671.521,114.97Z" transform="translate(-664.839 -112)" fill="#f2f5f7"/>
    </g>
    <g id="Grupo_4225" data-name="Grupo 4225" transform="translate(671.813 149.514)">
      <path id="Caminho_7882" data-name="Caminho 7882" d="M677.111,145.879H664.183l-6.741-8.909h-2.6V134h4.079l6.741,8.909h11.452Z" transform="translate(-654.839 -134)" fill="#f2f5f7"/>
    </g>
    <g id="Grupo_4226" data-name="Grupo 4226" transform="translate(686.661 153.999)">
      <path id="Caminho_7883" data-name="Caminho 7883" d="M665.839,143.2a5.2,5.2,0,1,1,5.2,5.182A5.2,5.2,0,0,1,665.839,143.2Z" transform="translate(-664.354 -136.535)" fill="#8bd9f1"/>
      <path id="Caminho_7884" data-name="Caminho 7884" d="M671.521,150.354a6.667,6.667,0,1,1,6.682-6.667A6.681,6.681,0,0,1,671.521,150.354Zm0-10.364a3.7,3.7,0,1,0,3.712,3.7A3.708,3.708,0,0,0,671.521,139.99Z" transform="translate(-664.839 -137.02)" fill="#f2f5f7"/>
    </g>
    <g id="Grupo_4227" data-name="Grupo 4227" transform="translate(691.115 134.666)">
      <circle id="Elipse_57" data-name="Elipse 57" cx="5.197" cy="5.197" r="5.197" transform="translate(1.485 1.485)" fill="#8bd9f1"/>
      <path id="Caminho_7885" data-name="Caminho 7885" d="M674.521,137.363a6.682,6.682,0,1,1,6.682-6.682A6.689,6.689,0,0,1,674.521,137.363Zm0-10.394a3.712,3.712,0,1,0,3.712,3.712A3.716,3.716,0,0,0,674.521,126.97Z" transform="translate(-667.839 -124)" fill="#f2f5f7"/>
    </g>
    <g id="Grupo_4228" data-name="Grupo 4228" transform="translate(658.449 159.908)">
      <path id="Caminho_7886" data-name="Caminho 7886" d="M667.918,161.85l-12.462-17.88h-9.618V141h11.17l13.346,19.152Z" transform="translate(-645.839 -141)" fill="#f2f5f7"/>
    </g>
    <g id="Grupo_4229" data-name="Grupo 4229" transform="translate(674.782 171.787)">
      <circle id="Elipse_58" data-name="Elipse 58" cx="5.197" cy="5.197" r="5.197" transform="translate(1.485 1.485)" fill="#8bd9f1"/>
      <path id="Caminho_7887" data-name="Caminho 7887" d="M663.521,162.363a6.682,6.682,0,1,1,6.682-6.682A6.689,6.689,0,0,1,663.521,162.363Zm0-10.394a3.712,3.712,0,1,0,3.712,3.712A3.716,3.716,0,0,0,663.521,151.97Z" transform="translate(-656.839 -149)" fill="#f2f5f7"/>
    </g>
    <g id="Grupo_4230" data-name="Grupo 4230" transform="translate(668.843 106.696)">
      <path id="Caminho_7888" data-name="Caminho 7888" d="M656.336,121.254h-3.5v-2.97h2.146l11.435-13.122,2.239,1.951Z" transform="translate(-652.839 -105.163)" fill="#f2f5f7"/>
    </g>
    <g id="Grupo_4231" data-name="Grupo 4231" transform="translate(677.752 102)">
      <circle id="Elipse_59" data-name="Elipse 59" cx="5.197" cy="5.197" r="5.197" transform="translate(1.485 1.485)" fill="#8bd9f1"/>
      <path id="Caminho_7889" data-name="Caminho 7889" d="M665.521,115.363a6.682,6.682,0,1,1,6.682-6.682A6.689,6.689,0,0,1,665.521,115.363Zm0-10.394a3.712,3.712,0,1,0,3.712,3.712A3.716,3.716,0,0,0,665.521,104.97Z" transform="translate(-658.839 -102)" fill="#f2f5f7"/>
    </g>
    <g id="Grupo_4232" data-name="Grupo 4232" transform="translate(619.829 104.984)">
      <path id="Caminho_7890" data-name="Caminho 7890" d="M664.389,179.721H649.564l-.046-7.978a30.278,30.278,0,0,1-7.28-3.059l-5.489,5.057-10.513-10.749,4.607-5.908a39.853,39.853,0,0,1-3.271-8.53h-7.743V132.222h7.925a32.193,32.193,0,0,1,3.045-6.97l-4.624-5.23,10.516-10.7,5.491,4.468a29.641,29.641,0,0,1,7.338-2.956l.046-6.827h14.823v7.424h-2.97V106.98h-8.9l-.045,6.2-1.136.267a26.882,26.882,0,0,0-8.478,3.414l-.9.578-5.039-4.1-6.679,6.795,4.233,4.79-.573.935a29.309,29.309,0,0,0-3.568,8.211l-.279,1.126H622.8v10.394h7.126l.263,1.157a35.314,35.314,0,0,0,3.709,9.7l.535.878-4.257,5.458,6.682,6.832,5.036-4.64.965.618a27.342,27.342,0,0,0,8.48,3.562l1.136.269.044,7.338h8.9v-7.424h2.97Z" transform="translate(-619.829 -104.01)" fill="#f2f5f7"/>
    </g>
    <g id="Grupo_4233" data-name="Grupo 4233" transform="translate(647.848 131.696)">
      <path id="Caminho_7891" data-name="Caminho 7891" d="M652.27,142.788H649.2a10.394,10.394,0,1,1,0-20.788h3.072v2.97H649.2a7.425,7.425,0,1,0,0,14.848h3.072Z" transform="translate(-638.699 -122)" fill="#f2f5f7"/>
    </g>
    <g id="Grupo_4234" data-name="Grupo 4234" transform="translate(636.177 119.818)">
      <path id="Caminho_7892" data-name="Caminho 7892" d="M653.111,157.06c-12.282,0-22.272-9.325-22.272-20.788,0-11.865,10.409-22.272,22.272-22.272v2.97c-10.282,0-19.3,9.02-19.3,19.3,0,9.825,8.66,17.818,19.3,17.818Z" transform="translate(-630.839 -114)" fill="#f2f5f7"/>
    </g>
    <g id="Grupo_4235" data-name="Grupo 4235" transform="translate(661.419 140.605)">
      <rect id="Retângulo_526" data-name="Retângulo 526" width="3" height="3" transform="translate(0.23 -0.03)" fill="#f2f5f7"/>
    </g>
    <g id="Grupo_4236" data-name="Grupo 4236" transform="translate(668.843 140.605)">
      <rect id="Retângulo_527" data-name="Retângulo 527" width="3" height="3" transform="translate(-0.194 -0.03)" fill="#f2f5f7"/>
    </g>
    <g id="Grupo_4237" data-name="Grupo 4237" transform="translate(661.419 119.818)">
      <rect id="Retângulo_528" data-name="Retângulo 528" width="3" height="3" transform="translate(0.23 -0.243)" fill="#f2f5f7"/>
    </g>
    <g id="Grupo_4238" data-name="Grupo 4238" transform="translate(664.388 149.514)">
      <rect id="Retângulo_529" data-name="Retângulo 529" width="4" height="3" transform="translate(0.261 0.061)" fill="#f2f5f7"/>
    </g>
  </g>
</svg>
