<svg xmlns="http://www.w3.org/2000/svg" width="100.665" height="81.025" viewBox="0 0 100.665 81.025">
  <g id="tecnologia_1" transform="translate(-397 -208.127)">
    <g id="Grupo_4240" data-name="Grupo 4240" transform="translate(403.292 229.948)">
      <path id="Caminho_7893" data-name="Caminho 7893" d="M423.021,234.583H418.1l-6.417-9.437H401V222h12.347l6.418,9.437h3.256Z" transform="translate(-401 -222)" fill="#f2f5f7"/>
    </g>
    <g id="Grupo_4241" data-name="Grupo 4241" transform="translate(403.292 247.25)">
      <rect id="Retângulo_530" data-name="Retângulo 530" width="28.312" height="3.146" fill="#f2f5f7"/>
    </g>
    <g id="Grupo_4242" data-name="Grupo 4242" transform="translate(397 225.229)">
      <circle id="Elipse_60" data-name="Elipse 60" cx="4.719" cy="4.719" r="4.719" transform="translate(1.573 1.573)" fill="#8bd9f1"/>
      <path id="Caminho_7894" data-name="Caminho 7894" d="M403.292,231.583a6.292,6.292,0,1,1,6.292-6.292A6.3,6.3,0,0,1,403.292,231.583Zm0-9.437a3.146,3.146,0,1,0,3.146,3.146A3.149,3.149,0,0,0,403.292,222.146Z" transform="translate(-397 -219)" fill="#f2f5f7"/>
    </g>
    <g id="Grupo_4243" data-name="Grupo 4243" transform="translate(403.292 255.114)">
      <path id="Caminho_7895" data-name="Caminho 7895" d="M413.36,250.583H401v-3.146h10.668L417.9,238h11.416v3.146h-9.723Z" transform="translate(-401 -238)" fill="#f2f5f7"/>
    </g>
    <g id="Grupo_4244" data-name="Grupo 4244" transform="translate(397 259.833)">
      <circle id="Elipse_61" data-name="Elipse 61" cx="4.719" cy="4.719" r="4.719" transform="translate(1.573 1.573)" fill="#8bd9f1"/>
      <path id="Caminho_7896" data-name="Caminho 7896" d="M403.292,253.583a6.292,6.292,0,1,1,6.292-6.292A6.3,6.3,0,0,1,403.292,253.583Zm0-9.437a3.146,3.146,0,1,0,3.146,3.146A3.149,3.149,0,0,0,403.292,244.146Z" transform="translate(-397 -241)" fill="#f2f5f7"/>
    </g>
    <g id="Grupo_4245" data-name="Grupo 4245" transform="translate(397 242.531)">
      <circle id="Elipse_62" data-name="Elipse 62" cx="4.719" cy="4.719" r="4.719" transform="translate(1.573 1.573)" fill="#8bd9f1"/>
      <path id="Caminho_7897" data-name="Caminho 7897" d="M403.292,242.583a6.292,6.292,0,1,1,6.292-6.292A6.3,6.3,0,0,1,403.292,242.583Zm0-9.437a3.146,3.146,0,1,0,3.146,3.146A3.149,3.149,0,0,0,403.292,233.146Z" transform="translate(-397 -230)" fill="#f2f5f7"/>
    </g>
    <g id="Grupo_4246" data-name="Grupo 4246" transform="translate(416.724 262.979)">
      <path id="Caminho_7898" data-name="Caminho 7898" d="M412.121,261.2l-2.581-1.8L420.956,243h12.9v3.146H422.6Z" transform="translate(-409.54 -243)" fill="#f2f5f7"/>
    </g>
    <g id="Grupo_4247" data-name="Grupo 4247" transform="translate(411.156 273.989)">
      <circle id="Elipse_63" data-name="Elipse 63" cx="4.719" cy="4.719" r="4.719" transform="translate(1.573 1.573)" fill="#8bd9f1"/>
      <path id="Caminho_7899" data-name="Caminho 7899" d="M412.292,262.583a6.292,6.292,0,1,1,6.292-6.292A6.3,6.3,0,0,1,412.292,262.583Zm0-9.437a3.146,3.146,0,1,0,3.146,3.146A3.149,3.149,0,0,0,412.292,253.146Z" transform="translate(-406 -250)" fill="#f2f5f7"/>
    </g>
    <g id="Grupo_4248" data-name="Grupo 4248" transform="translate(416.827 219.478)">
      <path id="Caminho_7900" data-name="Caminho 7900" d="M433.819,230.532h-12.8l-11.419-13.124,2.375-2.064,10.476,12.042h11.364Z" transform="translate(-409.605 -215.344)" fill="#f2f5f7"/>
    </g>
    <g id="Grupo_4249" data-name="Grupo 4249" transform="translate(411.156 214.219)">
      <circle id="Elipse_64" data-name="Elipse 64" cx="4.719" cy="4.719" r="4.719" transform="translate(1.573 1.573)" fill="#8bd9f1"/>
      <path id="Caminho_7901" data-name="Caminho 7901" d="M412.292,224.583a6.292,6.292,0,1,1,6.292-6.292A6.3,6.3,0,0,1,412.292,224.583Zm0-9.437a3.146,3.146,0,1,0,3.146,3.146A3.149,3.149,0,0,0,412.292,215.146Z" transform="translate(-406 -212)" fill="#f2f5f7"/>
    </g>
    <g id="Grupo_4250" data-name="Grupo 4250" transform="translate(431.604 247.25)">
      <rect id="Retângulo_531" data-name="Retângulo 531" width="9.437" height="3.146" fill="#f2f5f7"/>
    </g>
    <g id="Grupo_4251" data-name="Grupo 4251" transform="translate(431.604 233.173)">
      <path id="Caminho_7902" data-name="Caminho 7902" d="M444.166,255.25v-6.113H419v-3.146h28.312v3.325l13.7-9.291-13.7-9.842v3.226H422.146v-3.146h22.021v-6.212L466.512,240.1Z" transform="translate(-419 -224.051)" fill="#f2f5f7"/>
    </g>
    <g id="Grupo_4252" data-name="Grupo 4252" transform="translate(450.478 247.25)">
      <rect id="Retângulo_532" data-name="Retângulo 532" width="3.146" height="3.146" fill="#f2f5f7"/>
    </g>
    <g id="Grupo_4253" data-name="Grupo 4253" transform="translate(444.187 247.25)">
      <rect id="Retângulo_533" data-name="Retângulo 533" width="3.146" height="3.146" fill="#f2f5f7"/>
    </g>
    <g id="Grupo_4254" data-name="Grupo 4254" transform="translate(444.187 231.521)">
      <rect id="Retângulo_534" data-name="Retângulo 534" width="3.146" height="3.146" fill="#f2f5f7"/>
    </g>
    <g id="Grupo_4255" data-name="Grupo 4255" transform="translate(444.187 262.979)">
      <rect id="Retângulo_535" data-name="Retângulo 535" width="3.146" height="3.146" fill="#f2f5f7"/>
    </g>
    <g id="Grupo_4256" data-name="Grupo 4256" transform="translate(429.628 276.449)">
      <path id="Caminho_7903" data-name="Caminho 7903" d="M444.933,264.267a40.752,40.752,0,0,1-27.189-10.356l2.1-2.347a37.613,37.613,0,0,0,25.094,9.557Z" transform="translate(-417.744 -251.564)" fill="#f2f5f7"/>
    </g>
    <g id="Grupo_4257" data-name="Grupo 4257" transform="translate(463.763 208.127)">
      <path id="Caminho_7904" data-name="Caminho 7904" d="M473.348,248.288H470.2a37.7,37.7,0,0,0-30.756-37.068l.577-3.092A40.843,40.843,0,0,1,473.348,248.288Z" transform="translate(-439.446 -208.127)" fill="#f2f5f7"/>
    </g>
    <g id="Grupo_4258" data-name="Grupo 4258" transform="translate(475.959 262.098)">
      <path id="Caminho_7905" data-name="Caminho 7905" d="M448.773,264.627,447.2,261.9A38.618,38.618,0,0,0,463.87,242.44l2.933,1.132A41.753,41.753,0,0,1,448.773,264.627Z" transform="translate(-447.2 -242.44)" fill="#f2f5f7"/>
    </g>
    <g id="Grupo_4259" data-name="Grupo 4259" transform="translate(432.739 215.666)">
      <path id="Caminho_7906" data-name="Caminho 7906" d="M454.367,278.395l-1.093-2.949a30.642,30.642,0,1,0-31.417-51.256l-2.134-2.312a33.788,33.788,0,1,1,34.645,56.517Z" transform="translate(-419.722 -212.92)" fill="#f2f5f7"/>
    </g>
    <g id="Grupo_4260" data-name="Grupo 4260" transform="translate(428.458 239.385)">
      <rect id="Retângulo_536" data-name="Retângulo 536" width="3.146" height="3.146" fill="#f2f5f7"/>
    </g>
  </g>
</svg>
