<svg xmlns="http://www.w3.org/2000/svg" width="93.75" height="83.496" viewBox="0 0 93.75 83.496">
  <g id="tecnologia_3" transform="translate(-653.22 -101)">
    <g id="Grupo_4262" data-name="Grupo 4262" transform="translate(713.278 125.902)">
      <path id="Caminho_7907" data-name="Caminho 7907" d="M706.714,129.719H694.22v-2.93h10.943L711.14,118h6.517v2.93H712.69Z" transform="translate(-694.22 -118)" fill="#f2f5f7"/>
    </g>
    <g id="Grupo_4263" data-name="Grupo 4263" transform="translate(712.963 142.288)">
      <rect id="Retângulo_537" data-name="Retângulo 537" width="24" height="2" transform="translate(0.256 0.287)" fill="#f2f5f7"/>
    </g>
    <g id="Grupo_4264" data-name="Grupo 4264" transform="translate(735.251 121.508)">
      <path id="Caminho_7908" data-name="Caminho 7908" d="M715.079,126.719a5.859,5.859,0,1,1,5.859-5.859A5.865,5.865,0,0,1,715.079,126.719Zm0-8.789a2.93,2.93,0,1,0,2.93,2.93A2.933,2.933,0,0,0,715.079,117.93Z" transform="translate(-709.22 -115)" fill="#f2f5f7"/>
    </g>
    <g id="Grupo_4265" data-name="Grupo 4265" transform="translate(713.278 149.34)">
      <path id="Caminho_7909" data-name="Caminho 7909" d="M717.657,145.719h-6.53l-5.8-8.789H694.22V134H706.9l5.8,8.789h4.954Z" transform="translate(-694.22 -134)" fill="#f2f5f7"/>
    </g>
    <g id="Grupo_4266" data-name="Grupo 4266" transform="translate(735.251 153.734)">
      <path id="Caminho_7910" data-name="Caminho 7910" d="M715.079,148.719a5.859,5.859,0,1,1,5.859-5.859A5.865,5.865,0,0,1,715.079,148.719Zm0-8.789a2.93,2.93,0,1,0,2.93,2.93A2.933,2.933,0,0,0,715.079,139.93Z" transform="translate(-709.22 -137)" fill="#f2f5f7"/>
    </g>
    <g id="Grupo_4267" data-name="Grupo 4267" transform="translate(735.251 137.621)">
      <path id="Caminho_7911" data-name="Caminho 7911" d="M715.079,137.719a5.859,5.859,0,1,1,5.859-5.859A5.865,5.865,0,0,1,715.079,137.719Zm0-8.789a2.93,2.93,0,1,0,2.93,2.93A2.933,2.933,0,0,0,715.079,128.93Z" transform="translate(-709.22 -126)" fill="#f2f5f7"/>
    </g>
    <g id="Grupo_4268" data-name="Grupo 4268" transform="translate(698.257 150.561)">
      <rect id="Retângulo_538" data-name="Retângulo 538" width="4" height="24" transform="translate(-0.038 0.014)" fill="#f2f5f7"/>
    </g>
    <g id="Grupo_4269" data-name="Grupo 4269" transform="translate(712.044 150.561)">
      <rect id="Retângulo_539" data-name="Retângulo 539" width="3" height="24" transform="translate(0.175 0.014)" fill="#f2f5f7"/>
    </g>
    <g id="Grupo_4270" data-name="Grupo 4270" transform="translate(685.389 150.561)">
      <rect id="Retângulo_540" data-name="Retângulo 540" width="3" height="24" transform="translate(-0.17 0.014)" fill="#f2f5f7"/>
    </g>
    <g id="Grupo_4271" data-name="Grupo 4271" transform="translate(698.257 110.119)">
      <rect id="Retângulo_541" data-name="Retângulo 541" width="4" height="20" transform="translate(-0.038 0.456)" fill="#f2f5f7"/>
    </g>
    <g id="Grupo_4272" data-name="Grupo 4272" transform="translate(694.236 101)">
      <path id="Caminho_7912" data-name="Caminho 7912" d="M687.079,112.719a5.859,5.859,0,1,1,5.859-5.859A5.865,5.865,0,0,1,687.079,112.719Zm0-8.789a2.93,2.93,0,1,0,2.93,2.93A2.933,2.933,0,0,0,687.079,103.93Z" transform="translate(-681.22 -101)" fill="#f2f5f7"/>
    </g>
    <g id="Grupo_4273" data-name="Grupo 4273" transform="translate(712.044 110.119)">
      <rect id="Retângulo_542" data-name="Retângulo 542" width="3" height="20" transform="translate(0.175 0.456)" fill="#f2f5f7"/>
    </g>
    <g id="Grupo_4274" data-name="Grupo 4274" transform="translate(707.419 101)">
      <path id="Caminho_7913" data-name="Caminho 7913" d="M696.079,112.719a5.859,5.859,0,1,1,5.859-5.859A5.865,5.865,0,0,1,696.079,112.719Zm0-8.789a2.93,2.93,0,1,0,2.93,2.93A2.933,2.933,0,0,0,696.079,103.93Z" transform="translate(-690.22 -101)" fill="#f2f5f7"/>
    </g>
    <g id="Grupo_4275" data-name="Grupo 4275" transform="translate(685.389 110.119)">
      <rect id="Retângulo_543" data-name="Retângulo 543" width="3" height="20" transform="translate(-0.17 0.456)" fill="#f2f5f7"/>
    </g>
    <g id="Grupo_4276" data-name="Grupo 4276" transform="translate(681.052 101)">
      <path id="Caminho_7914" data-name="Caminho 7914" d="M678.079,112.719a5.859,5.859,0,1,1,5.859-5.859A5.865,5.865,0,0,1,678.079,112.719Zm0-8.789a2.93,2.93,0,1,0,2.93,2.93A2.933,2.933,0,0,0,678.079,103.93Z" transform="translate(-672.22 -101)" fill="#f2f5f7"/>
    </g>
    <g id="Grupo_4277" data-name="Grupo 4277" transform="translate(663.474 125.902)">
      <path id="Caminho_7915" data-name="Caminho 7915" d="M683.657,129.719H671.163l-5.977-8.789H660.22V118h6.517l5.977,8.789h10.943Z" transform="translate(-660.22 -118)" fill="#f2f5f7"/>
    </g>
    <g id="Grupo_4278" data-name="Grupo 4278" transform="translate(663.33 142.288)">
      <rect id="Retângulo_544" data-name="Retângulo 544" width="24" height="2" transform="translate(-0.111 0.287)" fill="#f2f5f7"/>
    </g>
    <g id="Grupo_4279" data-name="Grupo 4279" transform="translate(653.22 121.508)">
      <path id="Caminho_7916" data-name="Caminho 7916" d="M659.079,126.719a5.859,5.859,0,1,1,5.859-5.859A5.865,5.865,0,0,1,659.079,126.719Zm0-8.789a2.93,2.93,0,1,0,2.93,2.93A2.933,2.933,0,0,0,659.079,117.93Z" transform="translate(-653.22 -115)" fill="#f2f5f7"/>
    </g>
    <g id="Grupo_4280" data-name="Grupo 4280" transform="translate(663.474 149.34)">
      <path id="Caminho_7917" data-name="Caminho 7917" d="M666.75,145.719h-6.53v-2.93h4.954l5.8-8.789h12.683v2.93H672.551Z" transform="translate(-660.22 -134)" fill="#f2f5f7"/>
    </g>
    <g id="Grupo_4281" data-name="Grupo 4281" transform="translate(653.22 153.734)">
      <path id="Caminho_7918" data-name="Caminho 7918" d="M659.079,148.719a5.859,5.859,0,1,1,5.859-5.859A5.865,5.865,0,0,1,659.079,148.719Zm0-8.789a2.93,2.93,0,1,0,2.93,2.93A2.933,2.933,0,0,0,659.079,139.93Z" transform="translate(-653.22 -137)" fill="#f2f5f7"/>
    </g>
    <g id="Grupo_4282" data-name="Grupo 4282" transform="translate(653.22 137.621)">
      <path id="Caminho_7919" data-name="Caminho 7919" d="M659.079,137.719a5.859,5.859,0,1,1,5.859-5.859A5.865,5.865,0,0,1,659.079,137.719Zm0-8.789a2.93,2.93,0,1,0,2.93,2.93A2.933,2.933,0,0,0,659.079,128.93Z" transform="translate(-653.22 -126)" fill="#f2f5f7"/>
    </g>
    <g id="Grupo_4283" data-name="Grupo 4283" transform="translate(679.587 124.438)">
      <path id="Caminho_7920" data-name="Caminho 7920" d="M710.306,148.762a4.389,4.389,0,0,1-4.395,4.395h-29.3a4.389,4.389,0,0,1-4.395-4.395V122.395A4.389,4.389,0,0,1,676.615,118h29.3a4.389,4.389,0,0,1,4.395,4.395Z" transform="translate(-670.755 -116.535)" fill="#8bd9f1"/>
      <path id="Caminho_7921" data-name="Caminho 7921" d="M706.376,155.086h-29.3a5.865,5.865,0,0,1-5.859-5.859V122.859A5.865,5.865,0,0,1,677.079,117h29.3a5.865,5.865,0,0,1,5.859,5.859v26.367A5.865,5.865,0,0,1,706.376,155.086Zm-29.3-35.156a2.933,2.933,0,0,0-2.93,2.93v26.367a2.933,2.933,0,0,0,2.93,2.93h29.3a2.933,2.933,0,0,0,2.93-2.93V122.859a2.933,2.933,0,0,0-2.93-2.93Z" transform="translate(-671.22 -117)" fill="#f2f5f7"/>
    </g>
    <g id="Grupo_4284" data-name="Grupo 4284" transform="translate(691.306 134.691)">
      <rect id="Retângulo_545" data-name="Retângulo 545" width="14" height="15" transform="translate(1.913 0.884)" fill="#f2f5f7"/>
      <path id="Caminho_7922" data-name="Caminho 7922" d="M696.8,141.578H679.22V124H696.8Zm-14.648-2.93h11.719V126.93H682.15Z" transform="translate(-679.22 -124)" fill="#f2f5f7"/>
    </g>
    <g id="Grupo_4285" data-name="Grupo 4285" transform="translate(685.389 135.855)">
      <rect id="Retângulo_546" data-name="Retângulo 546" width="3" height="4" transform="translate(-0.17 -0.279)" fill="#f2f5f7"/>
    </g>
    <g id="Grupo_4286" data-name="Grupo 4286" transform="translate(685.389 142.288)">
      <rect id="Retângulo_547" data-name="Retângulo 547" width="3" height="2" transform="translate(-0.17 0.287)" fill="#f2f5f7"/>
    </g>
    <g id="Grupo_4287" data-name="Grupo 4287" transform="translate(685.389 147.803)">
      <rect id="Retângulo_548" data-name="Retângulo 548" width="3" height="3" transform="translate(-0.17 -0.228)" fill="#f2f5f7"/>
    </g>
    <g id="Grupo_4288" data-name="Grupo 4288" transform="translate(712.044 135.855)">
      <rect id="Retângulo_549" data-name="Retângulo 549" width="3" height="4" transform="translate(0.175 -0.279)" fill="#f2f5f7"/>
    </g>
    <g id="Grupo_4289" data-name="Grupo 4289" transform="translate(712.044 142.288)">
      <rect id="Retângulo_550" data-name="Retângulo 550" width="3" height="2" transform="translate(0.175 0.287)" fill="#f2f5f7"/>
    </g>
    <g id="Grupo_4290" data-name="Grupo 4290" transform="translate(712.044 147.803)">
      <rect id="Retângulo_551" data-name="Retângulo 551" width="3" height="3" transform="translate(0.175 -0.228)" fill="#f2f5f7"/>
    </g>
    <g id="Grupo_4291" data-name="Grupo 4291" transform="translate(694.236 172.777)">
      <path id="Caminho_7923" data-name="Caminho 7923" d="M687.079,161.719a5.859,5.859,0,1,1,5.859-5.859A5.865,5.865,0,0,1,687.079,161.719Zm0-8.789a2.93,2.93,0,1,0,2.93,2.93A2.933,2.933,0,0,0,687.079,152.93Z" transform="translate(-681.22 -150)" fill="#f2f5f7"/>
    </g>
    <g id="Grupo_4292" data-name="Grupo 4292" transform="translate(707.419 172.777)">
      <path id="Caminho_7924" data-name="Caminho 7924" d="M696.079,161.719a5.859,5.859,0,1,1,5.859-5.859A5.865,5.865,0,0,1,696.079,161.719Zm0-8.789a2.93,2.93,0,1,0,2.93,2.93A2.933,2.933,0,0,0,696.079,152.93Z" transform="translate(-690.22 -150)" fill="#f2f5f7"/>
    </g>
    <g id="Grupo_4293" data-name="Grupo 4293" transform="translate(681.052 172.777)">
      <path id="Caminho_7925" data-name="Caminho 7925" d="M678.079,161.719a5.859,5.859,0,1,1,5.859-5.859A5.865,5.865,0,0,1,678.079,161.719Zm0-8.789a2.93,2.93,0,1,0,2.93,2.93A2.933,2.933,0,0,0,678.079,152.93Z" transform="translate(-672.22 -150)" fill="#f2f5f7"/>
    </g>
  </g>
</svg>
