<svg xmlns="http://www.w3.org/2000/svg" xmlns:xlink="http://www.w3.org/1999/xlink" width="543.556" height="335.651" viewBox="0 0 543.556 335.651">
  <defs>
    <linearGradient id="linear-gradient" y1="0.5" x2="1" y2="0.5" gradientUnits="objectBoundingBox">
      <stop offset="0" stop-color="#dae3fe"/>
      <stop offset="1" stop-color="#e9effd"/>
    </linearGradient>
    <linearGradient id="linear-gradient-3" x1="-22.829" y1="0.5" x2="-21.829" y2="0.5" gradientUnits="objectBoundingBox">
      <stop offset="0" stop-color="#ff928e"/>
      <stop offset="1" stop-color="#feb3b1"/>
    </linearGradient>
    <linearGradient id="linear-gradient-4" x1="-34.948" y1="0.5" x2="-33.948" y2="0.5" xlink:href="#linear-gradient-3"/>
    <linearGradient id="linear-gradient-5" x1="0.154" y1="-0.492" x2="0.5" y2="0.348" xlink:href="#linear-gradient-3"/>
    <linearGradient id="linear-gradient-6" x1="0.237" y1="0.04" x2="1.266" y2="1.767" xlink:href="#linear-gradient-3"/>
    <linearGradient id="linear-gradient-7" x1="2.843" y1="-1.846" x2="-1.818" y2="2.536" xlink:href="#linear-gradient-3"/>
    <linearGradient id="linear-gradient-8" x1="-4.871" y1="0.5" x2="-3.871" y2="0.5" xlink:href="#linear-gradient-3"/>
    <linearGradient id="linear-gradient-9" x1="1.825" y1="-1.142" x2="1.4" y2="-0.602" xlink:href="#linear-gradient-3"/>
    <linearGradient id="linear-gradient-10" x1="0.568" y1="-0.675" x2="0.425" y2="1.676" xlink:href="#linear-gradient-3"/>
    <linearGradient id="linear-gradient-11" x1="-134.199" y1="-55.545" x2="-134.35" y2="-54.594" xlink:href="#linear-gradient-3"/>
    <linearGradient id="linear-gradient-12" x1="-440.575" y1="-271.964" x2="-441.067" y2="-267.352" xlink:href="#linear-gradient-3"/>
    <linearGradient id="linear-gradient-21" x1="0" y1="0.5" x2="1" y2="0.5" xlink:href="#linear-gradient"/>
    <linearGradient id="linear-gradient-22" x1="-180.188" y1="-19.007" x2="-179.467" y2="-30.915" gradientUnits="objectBoundingBox">
      <stop offset="0" stop-color="#4042e2"/>
      <stop offset="1" stop-color="#4f52ff"/>
    </linearGradient>
    <linearGradient id="linear-gradient-23" x1="-403.462" y1="-29.701" x2="-402.548" y2="-29.701" xlink:href="#linear-gradient-3"/>
    <linearGradient id="linear-gradient-24" x1="-114.125" y1="-17.734" x2="-113.665" y2="-29.788" xlink:href="#linear-gradient-22"/>
    <linearGradient id="linear-gradient-25" x1="-528.569" y1="-9.605" x2="-527.386" y2="-9.605" xlink:href="#linear-gradient-3"/>
    <linearGradient id="linear-gradient-26" x1="-127.059" y1="-5.136" x2="-125.987" y2="-5.136" xlink:href="#linear-gradient-3"/>
    <linearGradient id="linear-gradient-27" x1="-93.894" y1="-10.48" x2="-96.276" y2="-7.426" xlink:href="#linear-gradient-3"/>
    <linearGradient id="linear-gradient-28" x1="1.061" y1="-1.847" x2="-0.566" y2="4.613" xlink:href="#linear-gradient-3"/>
    <linearGradient id="linear-gradient-29" x1="-159.594" y1="-12.97" x2="-162.445" y2="-8.864" xlink:href="#linear-gradient-3"/>
    <linearGradient id="linear-gradient-30" x1="-121.093" y1="-31.669" x2="-122.22" y2="-30.387" xlink:href="#linear-gradient-3"/>
    <linearGradient id="linear-gradient-31" x1="-346.349" y1="-101.798" x2="-343.798" y2="-104.395" xlink:href="#linear-gradient-3"/>
    <linearGradient id="linear-gradient-32" x1="2.827" y1="2.356" x2="1.815" y2="1.486" xlink:href="#linear-gradient-3"/>
    <linearGradient id="linear-gradient-33" x1="0" y1="0.5" x2="1" y2="0.5" xlink:href="#linear-gradient-3"/>
    <linearGradient id="linear-gradient-35" x1="0.325" y1="1.62" x2="0.492" y2="0.483" xlink:href="#linear-gradient-3"/>
    <linearGradient id="linear-gradient-37" x1="0.95" y1="0.531" x2="4.932" y2="0.806" xlink:href="#linear-gradient-3"/>
    <linearGradient id="linear-gradient-44" x1="0" y1="0.5" x2="1" y2="0.5" xlink:href="#linear-gradient"/>
    <linearGradient id="linear-gradient-47" x1="0" y1="0.5" x2="1" y2="0.5" xlink:href="#linear-gradient"/>
    <linearGradient id="linear-gradient-48" x1="0" y1="0.5" x2="1" y2="0.5" xlink:href="#linear-gradient"/>
    <linearGradient id="linear-gradient-50" x1="0" y1="0.501" x2="1" y2="0.501" xlink:href="#linear-gradient"/>
  </defs>
  <g id="torne-se2" transform="translate(-118.353 -154)">
    <path id="Caminho_8448" data-name="Caminho 8448" d="M341,474.633s-46.2-5.978-68.13-1.31-76.27-20.657-58.262-60.408,40.827-49.523,17.269-71.26-33.4-77.994-9.106-101.258,31.6.672,50.952-7.9-5.221-53.258,49.446-65.888,97.147,25.531,122,21.221,63.074-30.732,89.9-29.62,23.5,40.009,59.09,37.741,63.534-6.185,86.593,26.927,17.513,75.108-4.47,91.7-17.694,38.915,22.838,40.2,35.967,47.572,2.892,81.747-61.45,34.553-94.488,36.793S341,474.633,341,474.633Z" transform="translate(-67.966 -3.145)" fill="#f2f5f7"/>
    <g id="Grupo_4460" data-name="Grupo 4460" transform="translate(195.111 182.44)">
      <path id="Caminho_8449" data-name="Caminho 8449" d="M437.291,492.488H575.716a7.993,7.993,0,0,0,7.993-7.992V277.166a7.992,7.992,0,0,0-7.971-7.992L436.206,268.8a7.992,7.992,0,0,0-8.014,8.035l1.107,207.7A7.993,7.993,0,0,0,437.291,492.488Z" transform="translate(-428.192 -268.799)" fill="#37a4d6"/>
      <path id="Caminho_8450" data-name="Caminho 8450" d="M467.525,310.094l123.775.762A8.11,8.11,0,0,1,599.36,319L598.5,505.088a8.11,8.11,0,0,1-7.962,8.071l-120.262,2.194a8.11,8.11,0,0,1-8.257-7.995l-2.649-189.041A8.109,8.109,0,0,1,467.525,310.094Z" transform="translate(-451.643 -299.863)" fill="#00c3ff"/>
      <rect id="Retângulo_566" data-name="Retângulo 566" width="100.22" height="5.706" rx="2.853" transform="translate(20.915 18.229)" fill="#b5edff"/>
      <path id="Caminho_8451" data-name="Caminho 8451" d="M555.557,387.735h0a2.426,2.426,0,0,0,2.378,2.295l83.4,1.52a2.426,2.426,0,0,0,2.47-2.426v-.2a2.426,2.426,0,0,0-2.388-2.426l-83.4-1.322A2.426,2.426,0,0,0,555.557,387.735Z" transform="translate(-524.001 -356.346)" fill="#b5edff"/>
      <path id="Caminho_8452" data-name="Caminho 8452" d="M492,602.189a6.929,6.929,0,0,1-6.911-6.789L482.382,443.2a6.922,6.922,0,0,1,6.776-7.034l112.612-2.192a6.912,6.912,0,0,1,7.046,6.78l2.9,153.033a6.912,6.912,0,0,1-6.828,7.043l-112.808,1.354ZM601.907,436.278h-.092L489.2,438.47a4.62,4.62,0,0,0-4.522,4.694h0l2.706,152.195a4.629,4.629,0,0,0,4.667,4.53l112.808-1.354a4.611,4.611,0,0,0,4.556-4.7l-2.9-153.033a4.612,4.612,0,0,0-4.609-4.525Z" transform="translate(-468.956 -393.057)" fill="#b5edff"/>
      <path id="Caminho_8453" data-name="Caminho 8453" d="M612.288,498.087H489.432a1.15,1.15,0,0,1,0-2.3H612.288a1.15,1.15,0,0,1,0,2.3Z" transform="translate(-473.395 -439.553)" fill="#fff" opacity="0.61"/>
    </g>
    <g id="Grupo_4467" data-name="Grupo 4467" transform="translate(118.353 180.133)">
      <g id="Grupo_4463" data-name="Grupo 4463" transform="translate(0 24.435)">
        <g id="Grupo_4461" data-name="Grupo 4461" transform="translate(34.371)">
          <path id="Caminho_8454" data-name="Caminho 8454" d="M321.472,559.346a4.522,4.522,0,0,1-7.192,2.153c-13.712-11.221-49.61-46.454-49.4-107.619.177-51.651-4.635-79.675-7.7-92.246a2.835,2.835,0,0,1,4.574-2.845C284.925,378.136,355.433,448.057,321.472,559.346Z" transform="translate(-257.092 -358.118)" fill="#b6f1ff"/>
          <path id="Caminho_8455" data-name="Caminho 8455" d="M382.531,731.228a.863.863,0,0,1-.779-.492c-.337-.708-33.735-71.62-36.729-143.37a.862.862,0,0,1,1.723-.072c2.98,71.39,36.228,142,36.564,142.7a.863.863,0,0,1-.778,1.234Z" transform="translate(-323.238 -529.896)" fill="url(#linear-gradient)"/>
        </g>
        <g id="Grupo_4462" data-name="Grupo 4462" transform="translate(0 103.954)">
          <path id="Caminho_8456" data-name="Caminho 8456" d="M118.374,778.533c4.791,19.058,36.965,135.553,110.465,148.2a3.034,3.034,0,0,0,3.412-3.88c-4.215-13.738-20.079-56.435-64.039-97.039-31.718-29.3-44.525-43.081-48.732-47.864A.642.642,0,0,0,118.374,778.533Z" transform="translate(-118.353 -777.731)" fill="#b6f1ff"/>
          <path id="Caminho_8457" data-name="Caminho 8457" d="M298.616,1033.739a.858.858,0,0,1-.557-.2c-27.193-23.028-50.431-50.791-65.137-70.027-15.045-19.679-26.255-37.249-26.345-38.6a.863.863,0,0,1,1.706-.228c1.083,2.912,39.142,63.719,90.891,107.542a.863.863,0,0,1-.558,1.521ZM208.3,924.787v0Z" transform="translate(-184.719 -887.751)" fill="#bdd0fb"/>
        </g>
      </g>
      <g id="Grupo_4466" data-name="Grupo 4466" transform="translate(433.337 0)">
        <g id="Grupo_4464" data-name="Grupo 4464">
          <path id="Caminho_8458" data-name="Caminho 8458" d="M1876.614,460.713a4.522,4.522,0,0,0,7.192,2.154c13.711-11.222,49.61-46.454,49.4-107.619-.177-51.651,4.635-79.675,7.7-92.245a2.835,2.835,0,0,0-4.574-2.846C1913.162,279.5,1842.653,349.424,1876.614,460.713Z" transform="translate(-1867.529 -259.485)" fill="#b6f1ff"/>
          <path id="Caminho_8459" data-name="Caminho 8459" d="M1922.119,632.594a.863.863,0,0,1-.778-1.233c.336-.705,33.584-71.311,36.564-142.7a.847.847,0,0,1,.9-.826.862.862,0,0,1,.826.9c-2.994,71.75-36.392,142.662-36.729,143.37A.863.863,0,0,1,1922.119,632.594Z" transform="translate(-1907.946 -431.263)" fill="#fff"/>
        </g>
        <g id="Grupo_4465" data-name="Grupo 4465" transform="translate(7.199 89.604)">
          <path id="Caminho_8460" data-name="Caminho 8460" d="M2002.084,621.957c-2.4,21.324-20.2,152.1-97.894,176.525a3.313,3.313,0,0,1-4.259-3.7c2.554-15.483,13.484-64.008,55.127-114.373,30.045-36.339,41.891-53.128,45.746-58.919A.7.7,0,0,1,2002.084,621.957Z" transform="translate(-1899.069 -621.175)" fill="#b6f1ff"/>
          <path id="Caminho_8461" data-name="Caminho 8461" d="M1897.451,924.735a.862.862,0,0,1-.64-1.44c25.719-28.512,46.581-61.5,59.553-84.144,14.391-25.126,22.764-43.917,23.118-45.559a.863.863,0,0,1,1.722-.009c.1,1.471-9.461,22.1-22.86,45.582-13.1,22.962-34.192,56.4-60.251,85.286A.86.86,0,0,1,1897.451,924.735ZM1979.482,793.7v0Zm0-.129Z" transform="translate(-1896.589 -750.265)" fill="url(#linear-gradient)"/>
        </g>
      </g>
    </g>
    <g id="Grupo_4470" data-name="Grupo 4470" transform="translate(187.407 226.077)">
      <g id="Grupo_4469" data-name="Grupo 4469" transform="translate(18.987)">
        <path id="Caminho_8462" data-name="Caminho 8462" d="M851.557,672.1a6.7,6.7,0,0,1-6.684,6.678H483.424a6.7,6.7,0,0,1-6.684-6.678L473.732,464.39c0-3.672,4.327-10.843,12.257-10.3l353.248-9.14a16.844,16.844,0,0,1,17.283,17.227Z" transform="translate(-473.732 -444.94)" fill="#002740"/>
        <path id="Caminho_8463" data-name="Caminho 8463" d="M873.035,689.749a6.342,6.342,0,0,1-6.324,6.324H520.218a6.342,6.342,0,0,1-6.323-6.324l-2.838-188.565c.334-11.347,10.283-15.426,16.313-15.185l338.566-9.083A11.822,11.822,0,0,1,878.07,489.03Z" transform="translate(-501.809 -468.991)" fill="#f2f5f7"/>
        <g id="Grupo_4468" data-name="Grupo 4468" transform="translate(13.844 18.056)">
          <path id="Caminho_8464" data-name="Caminho 8464" d="M535.2,923.088a.575.575,0,0,1-.575-.567L534.4,907.23a.576.576,0,0,1,.567-.584.6.6,0,0,1,.584.567l.225,15.292a.575.575,0,0,1-.567.583Z" transform="translate(-533.214 -810.32)" fill="#7d97f4"/>
          <path id="Caminho_8465" data-name="Caminho 8465" d="M531.048,593.119a.575.575,0,0,1-.575-.567l-.86-58.569c.018-3.931,1.23-7.071,3.6-9.344,4.311-4.131,11.055-3.922,11.339-3.912l108.112-2.9a.566.566,0,0,1,.59.559.575.575,0,0,1-.559.59l-108.145,2.9c-.309-.01-6.577-.2-10.54,3.593a11.351,11.351,0,0,0-3.247,8.508l.86,58.559a.575.575,0,0,1-.567.583Z" transform="translate(-529.613 -517.825)" fill="#37a4d6"/>
        </g>
        <path id="Caminho_8466" data-name="Caminho 8466" d="M582.012,722.313c.363-15.585.228-153.6-.666-165.515s17.669-14.155,46.169-15.5,268.969-6.652,275.161-7.154c13.917-1.129,16.8,19.673,15.405,64.833C917.036,632.909,915.3,688.8,914.5,714.5a14.183,14.183,0,0,1-14.149,13.746c-57.867.159-279.652.795-294.417,1.234C588.947,729.988,581.869,728.492,582.012,722.313Z" transform="translate(-554.663 -512.015)" fill="#00c3ff" opacity="0.18"/>
      </g>
      <path id="Caminho_8467" data-name="Caminho 8467" d="M823.225,1393.909a9.152,9.152,0,0,1-9.125,9.125H406.216a9.152,9.152,0,0,1-9.125-9.125h0a9.152,9.152,0,0,1,9.125-9.125H814.1a9.152,9.152,0,0,1,9.125,9.125Z" transform="translate(-397.091 -1151.949)" fill="#002740"/>
    </g>
    <g id="Grupo_4475" data-name="Grupo 4475" transform="translate(558.552 348.924)">
      <path id="Caminho_8468" data-name="Caminho 8468" d="M2016.239,1458.156s.473,2.674.7,5.321a1.824,1.824,0,0,1-1.745,1.976c-3.525.147-11.066.432-13.772.312a.593.593,0,0,1-.522-.813h0a1.328,1.328,0,0,1,.679-.716l12.456-5.725Z" transform="translate(-1974.693 -1329.991)" fill="#1250b3"/>
      <path id="Caminho_8469" data-name="Caminho 8469" d="M2052.193,1450.313l-.38,3.2s-2.182,1.016-3.672-.128l.9-3.565Z" transform="translate(-2010.259 -1323.719)" fill="url(#linear-gradient-3)"/>
      <path id="Caminho_8470" data-name="Caminho 8470" d="M2052.7,1209.064c.164.835.88,41.685-3.487,59.991a.622.622,0,0,0,.364.723,10.821,10.821,0,0,0,3.556.723,1.071,1.071,0,0,0,1.062-.768c1.248-4.247,7.229-25.527,8.009-45.856.872-22.715,0-.773,0-.773l-.511-14.041Z" transform="translate(-2011.055 -1142.607)" fill="#1250b3"/>
      <path id="Caminho_8471" data-name="Caminho 8471" d="M2105.6,1463.787a19.264,19.264,0,0,1,1.48,4.937,1.113,1.113,0,0,1-.979,1.333c-1.164.114-2.956.261-4.391.252a1.109,1.109,0,0,1-1.1-1.238,9.359,9.359,0,0,1,2.184-5.132Z" transform="translate(-2049.721 -1334.227)" fill="#1250b3"/>
      <path id="Caminho_8472" data-name="Caminho 8472" d="M2112.813,1446.609l-.887,4.837a3.128,3.128,0,0,1-2.612.179l.424-5.2Z" transform="translate(-2056.278 -1321.163)" fill="url(#linear-gradient-4)"/>
      <path id="Caminho_8473" data-name="Caminho 8473" d="M2079.529,1207.264c3.571,21.552-.775,53.269-2.24,59.476a.968.968,0,0,1-.782.735,6.5,6.5,0,0,1-2.793-.111.887.887,0,0,1-.638-.817c-.2-5.019.157-35.829-3.17-48a2.765,2.765,0,0,0-1.067-1.526l-6.458-4.591-.5-7.422Z" transform="translate(-2020.598 -1139.554)" fill="#1250b3"/>
      <g id="Grupo_4471" data-name="Grupo 4471" transform="translate(4.562 10.297)">
        <path id="Caminho_8474" data-name="Caminho 8474" d="M1994.339,1043.974c10.7-.177,22.511,2.81,22.511,2.81,3.19,18.614.558,40.084.558,40.084-8.285,2.173-17.632-1.329-17.632-1.329-1.377-7.78-7.8-29.677-7.8-29.677a35.253,35.253,0,0,1-13.084-4.152,22.948,22.948,0,0,0,4.535-9.487A35.906,35.906,0,0,0,1994.339,1043.974Z" transform="translate(-1962.727 -1027.399)" fill="#00c3ff"/>
        <path id="Caminho_8475" data-name="Caminho 8475" d="M1913.646,983.192a2.048,2.048,0,0,1,2.382-.669c1.575,6.653,9.833,12.047,18.317,14.683a22.946,22.946,0,0,1-4.535,9.487C1915.729,998.777,1913.646,983.192,1913.646,983.192Z" transform="translate(-1913.646 -982.381)" fill="url(#linear-gradient-5)"/>
      </g>
      <g id="Grupo_4472" data-name="Grupo 4472" transform="translate(0)">
        <path id="Caminho_8476" data-name="Caminho 8476" d="M1900.047,952.246c-.11.35,1.164.882,1.914-.548.026-.686.443-3.622.034-4.181a54.7,54.7,0,0,0-6.411-6.7,1.006,1.006,0,0,0-.126,1.4l2.052,2.138a9.941,9.941,0,0,0-1.2,2.368,2.875,2.875,0,0,0,.286,2.116c.36.649.852,1.492,1.316,2.152A2.839,2.839,0,0,0,1900.047,952.246Z" transform="translate(-1895.229 -940.815)" fill="url(#linear-gradient-6)"/>
        <path id="Caminho_8477" data-name="Caminho 8477" d="M1906.8,960.685l1.87,1.585.587,1.578-1.667,1.849a21.511,21.511,0,0,0-.978-3.809C1906.2,961.211,1906.411,960.883,1906.8,960.685Z" transform="translate(-1903.622 -955.763)" fill="url(#linear-gradient-7)"/>
      </g>
      <path id="Caminho_8478" data-name="Caminho 8478" d="M2115.547,1070.992l4.105-10.363s10,6.792,11.64,15.4a23.657,23.657,0,0,0-8.69,2.329C2121.863,1074.3,2115.547,1070.992,2115.547,1070.992Z" transform="translate(-2060.966 -1030.947)" fill="#00c3ff"/>
      <path id="Caminho_8479" data-name="Caminho 8479" d="M2075.775,1127.517s11.223,6.343,15.01.927a4.254,4.254,0,0,0,.781-3.308,23.665,23.665,0,0,1,8.69-2.329,11.886,11.886,0,0,1-1.292,8.148c-6.634,12.134-24.675-.671-24.675-.671Z" transform="translate(-2029.929 -1077.721)" fill="url(#linear-gradient-8)"/>
      <g id="Grupo_4473" data-name="Grupo 4473" transform="translate(19.155 32.575)">
        <path id="Caminho_8480" data-name="Caminho 8480" d="M2000.589,1103.859l-6.125-21.391a.624.624,0,0,0-.528-.449c-1.11-.13-4.325-.493-8.038-.807a91.248,91.248,0,0,0-12.77-.424.626.626,0,0,0-.512.9c1.765,3.571,9.025,18.1,12.66,22.853a.63.63,0,0,0,.505.248l14.212-.132A.626.626,0,0,0,2000.589,1103.859Z" transform="translate(-1972.55 -1078.613)" fill="#002740"/>
        <path id="Caminho_8481" data-name="Caminho 8481" d="M2009.248,1073.047l-4.441-.74a.319.319,0,0,0-.355.414l.44,1.332a.318.318,0,0,0,.26.216l4.274.571a.319.319,0,0,0,.353-.388l-.272-1.163A.319.319,0,0,0,2009.248,1073.047Z" transform="translate(-1996.536 -1072.303)" fill="#7d97f4"/>
        <path id="Caminho_8482" data-name="Caminho 8482" d="M2006.283,1080.848l-.366-1.906a.44.44,0,0,0-.388-.355l-8.97-.91a.441.441,0,0,0-.473.541l.571,2.375a.44.44,0,0,0,.406.337l8.766.441A.441.441,0,0,0,2006.283,1080.848Z" transform="translate(-1990.246 -1076.344)" fill="#7d97f4"/>
        <path id="Caminho_8483" data-name="Caminho 8483" d="M2056.769,1131.2s.853-3.509.509-4.753-1.011-2.845-3.234-2.49a32.531,32.531,0,0,0-4.845,1.292,1.273,1.273,0,0,0,1.822,1.1l-1.048.811s.15,1.3,1.577.6l-.974,1.075a1.135,1.135,0,0,0,1.663.383C2053.288,1128.54,2053.792,1131.626,2056.769,1131.2Z" transform="translate(-2030.21 -1111.125)" fill="url(#linear-gradient-9)"/>
      </g>
      <path id="Caminho_8484" data-name="Caminho 8484" d="M2063.962,1014.214l3.405,9.848a.355.355,0,0,1-.161.427,8.006,8.006,0,0,1-8.3-.558,1.67,1.67,0,0,1-.769-1.193l-1.1-8.524Z" transform="translate(-2016.947 -996.03)" fill="url(#linear-gradient-10)"/>
      <g id="man_head1">
        <path id="Caminho_8485" data-name="Caminho 8485" d="M2045.072,977.4s-3.739,7.039-3.26,9.882,5.114,2.639,9.161.33l2.828-7.6Z" transform="translate(-2005.466 -968.339)" fill="url(#linear-gradient-11)"/>
        <path id="Caminho_8486" data-name="Caminho 8486" d="M2055.009,968.342a.29.29,0,0,1-.126-.425,7.577,7.577,0,0,0,1.04-2.209s.672-.431-1.711-1-5.937-1.456-6.684-3.484c-.728-1.978,1.185-6.952,4.238-2.988a.29.29,0,0,0,.46,0,2.991,2.991,0,0,1,3.643-1.184,2.743,2.743,0,0,1,1.879,2.651.288.288,0,0,0,.342.3,3.346,3.346,0,0,1,3.906,1.821c.8,1.753.279,2.745-.192,3.23a.289.289,0,0,0,.124.48,1.74,1.74,0,0,1,1.228,1.986c-.1,1.84-2.158,1.678-2.744,1.594a.291.291,0,0,0-.258.091c-.5.556-2.765,2.915-5.213,3.2a.292.292,0,0,1-.307-.387l1.06-3.081a.292.292,0,0,0-.157-.361Z" transform="translate(-2009.681 -952.798)" fill="#002740"/>
        <path id="Caminho_8487" data-name="Caminho 8487" d="M2073.974,1002.577s2.662-1.827,2.857-.288-2.4,2.228-3.682,1.655Z" transform="translate(-2029.072 -986.596)" fill="url(#linear-gradient-12)"/>
      </g>
    </g>
    <g id="Grupo_4496" data-name="Grupo 4496" transform="translate(244.559 269.503)">
      <g id="Grupo_4479" data-name="Grupo 4479" transform="translate(149.094 14.609)">
        <g id="detalhe_4">
          <path id="Caminho_8488" data-name="Caminho 8488" d="M1684.091,852.862a.575.575,0,0,1-.56-.446c-.169-.734-.355-1.477-.554-2.208a.575.575,0,1,1,1.11-.3c.2.745.393,1.5.565,2.252a.575.575,0,0,1-.561.7Z" transform="translate(-1570.646 -807.297)" fill="#00c3ff"/>
          <path id="Caminho_8489" data-name="Caminho 8489" d="M1384.239,951.554c-.927,0-1.87-.023-2.8-.068a.575.575,0,0,1-.547-.6.588.588,0,0,1,.6-.547c1.476.071,2.962.084,4.424.041a.575.575,0,1,1,.034,1.149Q1385.1,951.553,1384.239,951.554Zm8.918-.7a.575.575,0,0,1-.089-1.143c1.451-.23,2.91-.521,4.337-.865a.575.575,0,1,1,.27,1.118c-1.456.351-2.946.648-4.426.883A.615.615,0,0,1,1393.157,950.851Zm-18.906-.168a.572.572,0,0,1-.1-.009c-1.477-.259-2.962-.58-4.413-.954a.575.575,0,1,1,.287-1.113c1.422.366,2.877.68,4.324.934a.575.575,0,0,1-.1,1.141Zm30.221-2.854a.575.575,0,0,1-.2-1.112c1.37-.523,2.738-1.108,4.065-1.737a.575.575,0,1,1,.493,1.039c-1.354.642-2.75,1.239-4.148,1.773A.574.574,0,0,1,1404.471,947.829Zm-41.489-.346a.576.576,0,0,1-.213-.041c-1.392-.556-2.779-1.175-4.123-1.839a.575.575,0,0,1,.51-1.031c1.317.651,2.676,1.257,4.04,1.8a.575.575,0,0,1-.214,1.109Zm51.941-4.929a.575.575,0,0,1-.311-1.059c1.237-.793,2.458-1.644,3.628-2.529a.575.575,0,1,1,.694.917c-1.195.9-2.44,1.772-3.7,2.581A.572.572,0,0,1,1414.923,942.554Zm9.165-7.29a.575.575,0,0,1-.4-.986c1.052-1.028,2.075-2.108,3.042-3.213a.575.575,0,0,1,.865.758c-.986,1.127-2.03,2.229-3.1,3.278A.574.574,0,0,1,1424.088,935.264Zm7.5-9a.575.575,0,0,1-.476-.9c.821-1.219,1.6-2.486,2.325-3.765a.575.575,0,0,1,1,.566c-.737,1.3-1.535,2.6-2.373,3.841A.574.574,0,0,1,1431.587,926.266Zm5.51-10.34a.576.576,0,0,1-.532-.792c.554-1.36,1.06-2.759,1.506-4.158a.575.575,0,1,1,1.1.349c-.454,1.428-.971,2.855-1.536,4.243A.575.575,0,0,1,1437.1,915.926Zm3.28-11.241a.581.581,0,0,1-.1-.009.575.575,0,0,1-.461-.669c.264-1.44.476-2.913.63-4.378a.575.575,0,1,1,1.144.12c-.157,1.493-.373,3-.643,4.466A.575.575,0,0,1,1440.377,904.685Zm.942-11.674a.575.575,0,0,1-.575-.563c-.03-1.472-.118-2.958-.262-4.416a.575.575,0,0,1,1.145-.113c.146,1.488.236,3,.267,4.506a.575.575,0,0,1-.563.587Z" transform="translate(-1326.439 -835.822)" fill="#00c3ff"/>
          <path id="Caminho_8490" data-name="Caminho 8490" d="M1327.673,1100.388a.574.574,0,0,1-.318-.1c-.644-.429-1.286-.875-1.906-1.326a.575.575,0,0,1,.676-.931c.608.442,1.237.879,1.868,1.3a.575.575,0,0,1-.319,1.054Z" transform="translate(-1301.528 -994.193)" fill="#00c3ff"/>
          <path id="Caminho_8491" data-name="Caminho 8491" d="M1232.835,946.539a.575.575,0,0,1-.565-.471c-.139-.762-.265-1.534-.372-2.292a.575.575,0,1,1,1.139-.161c.1.744.228,1.5.364,2.246a.576.576,0,0,1-.462.669A.6.6,0,0,1,1232.835,946.539Z" transform="translate(-1231.327 -877.738)" fill="#00c3ff"/>
          <path id="Caminho_8492" data-name="Caminho 8492" d="M1230.194,738.616a.575.575,0,0,1-.575-.566q-.007-.461-.007-.923c0-1.167.036-2.35.106-3.516a.575.575,0,1,1,1.148.069c-.068,1.143-.1,2.3-.1,3.447,0,.3,0,.6.008.905a.575.575,0,0,1-.566.584Zm.961-11.483a.585.585,0,0,1-.105-.009.576.576,0,0,1-.461-.67c.269-1.453.6-2.911.973-4.331a.575.575,0,0,1,1.112.295c-.37,1.393-.691,2.821-.954,4.245A.575.575,0,0,1,1231.156,727.132Zm3.221-11.061a.576.576,0,0,1-.533-.791c.553-1.367,1.167-2.731,1.824-4.052a.575.575,0,0,1,1.03.512c-.645,1.295-1.246,2.631-1.788,3.971A.575.575,0,0,1,1234.377,716.071Zm5.384-10.2a.575.575,0,0,1-.478-.894c.817-1.227,1.692-2.439,2.6-3.6a.575.575,0,1,1,.906.709c-.891,1.138-1.749,2.326-2.549,3.529A.574.574,0,0,1,1239.761,705.876Zm7.318-8.9a.575.575,0,0,1-.405-.983c1.047-1.04,2.146-2.053,3.267-3.008a.575.575,0,1,1,.745.875c-1.1.936-2.176,1.928-3.2,2.948A.572.572,0,0,1,1247.078,696.971Zm8.945-7.265a.575.575,0,0,1-.317-1.055c1.233-.811,2.512-1.583,3.8-2.3a.575.575,0,1,1,.557,1.006c-1.262.7-2.516,1.455-3.725,2.25A.574.574,0,0,1,1256.024,689.706Zm59.042-2.194a.571.571,0,0,1-.279-.073c-1.263-.7-2.569-1.365-3.882-1.968a.575.575,0,0,1,.479-1.045c1.34.615,2.673,1.291,3.962,2.008a.575.575,0,0,1-.28,1.077Zm-48.832-3.135a.575.575,0,0,1-.213-1.109c1.37-.547,2.776-1.046,4.182-1.485a.575.575,0,0,1,.343,1.1c-1.377.43-2.756.919-4.1,1.455A.579.579,0,0,1,1266.234,684.377Zm38.244-1.416a.573.573,0,0,1-.173-.027c-1.377-.432-2.79-.816-4.2-1.142a.575.575,0,1,1,.258-1.121c1.439.332,2.882.724,4.287,1.165a.575.575,0,0,1-.172,1.124Zm-27.169-1.747a.575.575,0,0,1-.1-1.141c1.448-.258,2.927-.463,4.4-.609a.575.575,0,1,1,.114,1.144c-1.441.143-2.891.344-4.31.6A.57.57,0,0,1,1277.31,681.214Zm15.88-.575a.543.543,0,0,1-.059,0q-.407-.042-.817-.078c-1.17-.1-2.358-.172-3.529-.2a.575.575,0,0,1-.559-.59.564.564,0,0,1,.59-.56c1.2.031,2.406.1,3.6.207q.417.037.832.08a.575.575,0,0,1-.058,1.147Z" transform="translate(-1229.612 -679.204)" fill="#00c3ff"/>
          <path id="Caminho_8493" data-name="Caminho 8493" d="M1599.01,726.305a.573.573,0,0,1-.359-.126c-.591-.472-1.2-.938-1.806-1.385a.575.575,0,0,1,.681-.927c.62.455,1.239.931,1.843,1.413a.575.575,0,0,1-.359,1.024Z" transform="translate(-1505.692 -712.719)" fill="#00c3ff"/>
        </g>
        <g id="engrenagem_4">
          <path id="Caminho_8494" data-name="Caminho 8494" d="M1358.038,747.2a.684.684,0,0,0-.775-.185l-7.735,3.152a36.326,36.326,0,0,0-10.557-5.247l-2.184-8.073a.686.686,0,0,0-.616-.506l-9.992-.675a.687.687,0,0,0-.678.419l-3.244,7.706a36.309,36.309,0,0,0-11.163,3.781l-7.243-4.163a.684.684,0,0,0-.792.079l-7.541,6.606a.688.688,0,0,0-.184.777l3.144,7.754a36.5,36.5,0,0,0-5.235,10.583l-8.053,2.189a.687.687,0,0,0-.5.617l-.673,10.017a.688.688,0,0,0,.418.68l7.687,3.252a36.509,36.509,0,0,0,3.771,11.191l-4.153,7.261a.689.689,0,0,0,.079.795l6.59,7.56a.685.685,0,0,0,.775.185l7.734-3.152a36.329,36.329,0,0,0,10.557,5.247l2.184,8.073a.686.686,0,0,0,.616.506l9.993.675a.685.685,0,0,0,.678-.419l3.244-7.707a36.308,36.308,0,0,0,11.164-3.781l7.243,4.163a.685.685,0,0,0,.793-.079l7.541-6.606a.689.689,0,0,0,.184-.777l-3.144-7.754a36.486,36.486,0,0,0,5.234-10.583l8.053-2.189a.687.687,0,0,0,.5-.617l.673-10.017a.688.688,0,0,0-.418-.68L1364.325,774a36.535,36.535,0,0,0-3.771-11.191l4.153-7.261a.688.688,0,0,0-.079-.794Z" transform="translate(-1270.533 -721.675)" fill="#00c3ff"/>
          <path id="Caminho_8495" data-name="Caminho 8495" d="M1432.822,894.646a9.766,9.766,0,0,1-9.577-8.03,9.786,9.786,0,0,1,7.851-11.369,9.756,9.756,0,0,1,11.344,7.869,9.776,9.776,0,0,1-9.618,11.53Zm.038-17.834a8.111,8.111,0,0,0-1.455.132h0a8.06,8.06,0,0,0-3.132,14.544,7.962,7.962,0,0,0,6.006,1.3,8.06,8.06,0,0,0,3.131-14.544A7.957,7.957,0,0,0,1432.86,876.811Zm-1.609-.716h0Z" transform="translate(-1375.156 -826.559)" fill="#f2f5f7"/>
          <path id="Caminho_8496" data-name="Caminho 8496" d="M1385.906,864.088q-.856,0-1.718-.058a25.1,25.1,0,0,1-23.346-25.019q0-.844.057-1.7a25.036,25.036,0,0,1,31.9-22.426l-.478,1.658a23.4,23.4,0,0,0-4.888-.856h0a23.323,23.323,0,0,0-24.816,21.74q-.054.8-.053,1.591a23.369,23.369,0,0,0,21.738,23.289,23.324,23.324,0,0,0,24.816-21.74q.053-.793.052-1.584a23.354,23.354,0,0,0-2.544-10.609l1.536-.784A25.077,25.077,0,0,1,1410.9,839q0,.842-.057,1.687a25.054,25.054,0,0,1-24.935,23.4Z" transform="translate(-1328.331 -780.538)" fill="#f2f5f7"/>
        </g>
      </g>
      <g id="Grupo_4483" data-name="Grupo 4483" transform="translate(26.41 24.595)">
        <g id="detalhe_2">
          <path id="Caminho_8497" data-name="Caminho 8497" d="M1096.714,870.983a.575.575,0,0,1-.569-.495c-.106-.747-.232-1.5-.375-2.238a.575.575,0,1,1,1.129-.219c.146.757.276,1.529.384,2.3a.575.575,0,0,1-.489.65A.566.566,0,0,1,1096.714,870.983Z" transform="translate(-1006.236 -830.887)" fill="#00c3ff"/>
          <path id="Caminho_8498" data-name="Caminho 8498" d="M856.976,952.7a.575.575,0,0,1-.039-1.149,44.416,44.416,0,0,0,4.625-.563.575.575,0,1,1,.2,1.133,45.558,45.558,0,0,1-4.745.578Zm-7.662-.13a.532.532,0,0,1-.059,0c-.935-.1-1.881-.221-2.813-.375-.642-.106-1.285-.225-1.912-.356a.575.575,0,0,1,.235-1.126c.611.127,1.238.244,1.864.347.908.15,1.831.273,2.742.366a.575.575,0,0,1-.058,1.147Zm19.754-2.406a.575.575,0,0,1-.194-1.116,44.737,44.737,0,0,0,4.3-1.8.575.575,0,0,1,.5,1.036,46.015,46.015,0,0,1-4.406,1.848A.572.572,0,0,1,869.068,950.162Zm-31.767-.5a.573.573,0,0,1-.21-.04,45.544,45.544,0,0,1-4.351-1.982.575.575,0,1,1,.531-1.02,44.409,44.409,0,0,0,4.241,1.932.575.575,0,0,1-.211,1.111Zm42.716-5.221a.575.575,0,0,1-.334-1.044,45.063,45.063,0,0,0,3.652-2.9.575.575,0,1,1,.76.863,46.463,46.463,0,0,1-3.745,2.969A.573.573,0,0,1,880.017,944.437Zm9-8.466a.575.575,0,0,1-.447-.936,44.67,44.67,0,0,0,2.736-3.774.575.575,0,0,1,.966.626,45.945,45.945,0,0,1-2.806,3.871A.575.575,0,0,1,889.017,935.971Zm6.375-10.587a.575.575,0,0,1-.528-.8,44.812,44.812,0,0,0,1.607-4.373.575.575,0,1,1,1.1.34,45.943,45.943,0,0,1-1.648,4.486A.575.575,0,0,1,895.393,925.384Zm3.271-11.915a.582.582,0,0,1-.077-.005.575.575,0,0,1-.494-.646,45.373,45.373,0,0,0,.378-4.646.575.575,0,1,1,1.149.034,46.428,46.428,0,0,1-.388,4.764A.575.575,0,0,1,898.663,913.469Z" transform="translate(-808.142 -861.013)" fill="#00c3ff"/>
          <path id="Caminho_8499" data-name="Caminho 8499" d="M801.351,1044.905a.571.571,0,0,1-.348-.118c-.615-.469-1.226-.96-1.814-1.459a.575.575,0,0,1,.743-.878c.574.486,1.169.965,1.769,1.422a.575.575,0,0,1-.349,1.032Z" transform="translate(-782.982 -962.344)" fill="#00c3ff"/>
          <path id="Caminho_8500" data-name="Caminho 8500" d="M735.152,916.209a.575.575,0,0,1-.571-.514c-.082-.769-.146-1.55-.188-2.321a.575.575,0,0,1,1.148-.064c.042.752.1,1.513.183,2.262a.575.575,0,0,1-.51.633A.592.592,0,0,1,735.152,916.209Z" transform="translate(-734.392 -864.891)" fill="#00c3ff"/>
          <path id="Caminho_8501" data-name="Caminho 8501" d="M735.817,761a.621.621,0,0,1-.064,0,.575.575,0,0,1-.508-.635c.088-.795.2-1.6.328-2.387.123-.751.266-1.509.426-2.253a.575.575,0,1,1,1.124.241c-.156.726-.3,1.465-.415,2.2-.126.77-.234,1.554-.32,2.328A.575.575,0,0,1,735.817,761Zm2.929-11.8a.575.575,0,0,1-.534-.787,45.8,45.8,0,0,1,1.957-4.278.575.575,0,0,1,1.02.532,44.535,44.535,0,0,0-1.908,4.171A.576.576,0,0,1,738.746,749.2Zm5.966-10.6a.575.575,0,0,1-.458-.922,46.142,46.142,0,0,1,3.028-3.6.575.575,0,0,1,.841.784,44.953,44.953,0,0,0-2.952,3.508A.575.575,0,0,1,744.711,738.605Zm8.575-8.621a.575.575,0,0,1-.35-1.032,46.2,46.2,0,0,1,3.874-2.665.575.575,0,0,1,.6.979,44.978,44.978,0,0,0-3.776,2.6A.574.574,0,0,1,753.286,729.984Zm50.255-3.148a.573.573,0,0,1-.29-.079,44.34,44.34,0,0,0-4.071-2.108.575.575,0,0,1,.475-1.047,45.64,45.64,0,0,1,4.177,2.163.575.575,0,0,1-.291,1.071Zm-39.7-2.889a.575.575,0,0,1-.216-1.108,45.728,45.728,0,0,1,4.441-1.539.575.575,0,0,1,.32,1.1,44.648,44.648,0,0,0-4.33,1.5A.571.571,0,0,1,763.838,723.948Zm28.475-1.776a.578.578,0,0,1-.147-.019c-1.374-.363-2.785-.664-4.194-.9l-.295-.047a.575.575,0,0,1,.18-1.136l.257.041q2.233.367,4.345.926a.575.575,0,0,1-.147,1.131Zm-16.7-1.225a.575.575,0,0,1-.064-1.146,45.559,45.559,0,0,1,4.693-.289h.006a.575.575,0,0,1,.005,1.15,44.4,44.4,0,0,0-4.574.282A.584.584,0,0,1,775.613,720.947Z" transform="translate(-735.03 -719.511)" fill="#00c3ff"/>
          <path id="Caminho_8502" data-name="Caminho 8502" d="M1035.889,764.714a.573.573,0,0,1-.392-.154c-.55-.512-1.122-1.017-1.7-1.5a.575.575,0,1,1,.739-.881c.593.5,1.18,1.016,1.745,1.541a.575.575,0,0,1-.392,1Z" transform="translate(-959.468 -751.505)" fill="#00c3ff"/>
        </g>
        <g id="engrenagem_2">
          <path id="Caminho_8503" data-name="Caminho 8503" d="M839.376,777.245a.542.542,0,0,0-.589-.223l-6.383,1.694a28.752,28.752,0,0,0-7.756-5.179l-.9-6.553a.543.543,0,0,0-.433-.459l-7.771-1.536a.543.543,0,0,0-.574.26l-3.317,5.719a28.7,28.7,0,0,0-9.136,1.842l-5.265-3.995a.542.542,0,0,0-.629-.018l-6.578,4.423a.545.545,0,0,0-.223.591l1.69,6.4a28.844,28.844,0,0,0-5.166,7.775l-6.537.907a.543.543,0,0,0-.458.434l-1.531,7.79a.545.545,0,0,0,.26.575l5.7,3.325a28.9,28.9,0,0,0,1.837,9.159l-3.985,5.278a.546.546,0,0,0-.018.631l4.412,6.594a.542.542,0,0,0,.59.223L793,821.208a28.755,28.755,0,0,0,7.756,5.179l.9,6.553a.543.543,0,0,0,.432.459l7.771,1.535a.542.542,0,0,0,.574-.26l3.317-5.719a28.7,28.7,0,0,0,9.136-1.842l5.265,3.995a.541.541,0,0,0,.629.018l6.578-4.423a.544.544,0,0,0,.222-.591l-1.69-6.4a28.834,28.834,0,0,0,5.166-7.775l6.537-.907a.543.543,0,0,0,.458-.434l1.532-7.79a.545.545,0,0,0-.26-.575l-5.7-3.325a28.906,28.906,0,0,0-1.837-9.159l3.985-5.278a.545.545,0,0,0,.018-.631Z" transform="translate(-767.051 -753.715)" fill="#37a4d6"/>
          <path id="Caminho_8504" data-name="Caminho 8504" d="M894.679,890.071a7.9,7.9,0,0,1-7.874-7.5,7.9,7.9,0,1,1,8.3,7.485Q894.891,890.071,894.679,890.071Zm.018-14.1c-.11,0-.221,0-.333.009a6.192,6.192,0,0,0-3.8,10.779,6.113,6.113,0,0,0,4.451,1.579,6.192,6.192,0,0,0,3.8-10.779A6.118,6.118,0,0,0,894.7,875.97Z" transform="translate(-849.038 -835.911)" fill="#f2f5f7"/>
          <path id="Caminho_8505" data-name="Caminho 8505" d="M857.515,865.825a20.021,20.021,0,0,1-19.639-23.9,19.977,19.977,0,0,1,23.46-15.773h0q.485.1.964.215a20.131,20.131,0,0,1,2.5.8l.041.016.018.007.034.013.039.016.059.024q.207.084.411.172L864.714,829A18.347,18.347,0,0,0,861,827.846q-.226-.044-.452-.083a18.4,18.4,0,0,0-2.53-.258,18.266,18.266,0,0,0-18.451,14.755,18.3,18.3,0,0,0,14.377,21.489,18.251,18.251,0,0,0,21.433-14.414,18.327,18.327,0,0,0-.725-9.719l1.623-.583a20.018,20.018,0,0,1-18.761,26.792Z" transform="translate(-811.954 -799.445)" fill="#f2f5f7"/>
        </g>
      </g>
      <g id="Grupo_4487" data-name="Grupo 4487" transform="translate(251.966 15.802)">
        <g id="detalhe_5">
          <path id="Caminho_8506" data-name="Caminho 8506" d="M1880.628,783.611a.575.575,0,0,1-.57-.51c-.084-.743-.2-1.493-.342-2.228a.575.575,0,0,1,1.129-.219c.148.764.268,1.544.355,2.317a.575.575,0,0,1-.506.636A.6.6,0,0,1,1880.628,783.611Z" transform="translate(-1821.524 -756.363)" fill="#00c3ff"/>
          <path id="Caminho_8507" data-name="Caminho 8507" d="M1733.2,845.875a.575.575,0,0,1-.024-1.149,28.552,28.552,0,0,0,4.465-.547.575.575,0,0,1,.23,1.127,29.677,29.677,0,0,1-4.646.569Zm-7.419-.627a.577.577,0,0,1-.12-.013,30,30,0,0,1-4.487-1.331.575.575,0,1,1,.412-1.074,28.854,28.854,0,0,0,4.315,1.28.575.575,0,0,1-.119,1.137Zm19.021-2.335a.575.575,0,0,1-.254-1.091,28.98,28.98,0,0,0,3.873-2.291.575.575,0,0,1,.661.941,30.143,30.143,0,0,1-4.027,2.382A.575.575,0,0,1,1744.8,842.914Zm9.457-7.348a.575.575,0,0,1-.437-.948,28.844,28.844,0,0,0,2.642-3.643.575.575,0,1,1,.981.6,30.013,30.013,0,0,1-2.748,3.789A.574.574,0,0,1,1754.261,835.566Zm5.742-10.51a.576.576,0,0,1-.551-.742,29.386,29.386,0,0,0,.87-3.749c.035-.215.068-.431.1-.646a.575.575,0,1,1,1.139.161q-.047.335-.1.671a30.5,30.5,0,0,1-.9,3.9A.575.575,0,0,1,1760,825.056Z" transform="translate(-1701.99 -785.878)" fill="#00c3ff"/>
          <path id="Caminho_8508" data-name="Caminho 8508" d="M1689.33,896.258a.571.571,0,0,1-.335-.109c-.632-.455-1.253-.941-1.847-1.443a.575.575,0,0,1,.743-.878c.571.483,1.168.95,1.776,1.387a.575.575,0,0,1-.337,1.042Z" transform="translate(-1676.517 -841.748)" fill="#00c3ff"/>
          <path id="Caminho_8509" data-name="Caminho 8509" d="M1645.583,809.738a.575.575,0,0,1-.571-.514c-.083-.772-.136-1.559-.158-2.339a.575.575,0,0,1,.559-.591.568.568,0,0,1,.591.559c.021.75.072,1.507.151,2.249a.578.578,0,0,1-.573.636Z" transform="translate(-1644.854 -776)" fill="#00c3ff"/>
          <path id="Caminho_8510" data-name="Caminho 8510" d="M1648.268,708.166a.576.576,0,0,1-.562-.7,30.2,30.2,0,0,1,1.339-4.4.575.575,0,1,1,1.072.418,28.975,28.975,0,0,0-1.288,4.233A.576.576,0,0,1,1648.268,708.166Zm4.808-10.752a.575.575,0,0,1-.466-.91,30.052,30.052,0,0,1,2.965-3.52.575.575,0,0,1,.82.806,28.887,28.887,0,0,0-2.851,3.385A.574.574,0,0,1,1653.076,697.415Zm8.651-8a.575.575,0,0,1-.3-1.067,30.1,30.1,0,0,1,4.105-2.078.575.575,0,1,1,.439,1.063,28.964,28.964,0,0,0-3.948,2A.574.574,0,0,1,1661.727,689.416Zm27.1-1.721a.573.573,0,0,1-.233-.05,28.825,28.825,0,0,0-4.172-1.478.575.575,0,1,1,.3-1.11,29.934,29.934,0,0,1,4.339,1.537.575.575,0,0,1-.234,1.1Zm-16.013-2.244a.575.575,0,0,1-.08-1.144,29.769,29.769,0,0,1,4.139-.29c.154,0,.3,0,.454,0a.575.575,0,0,1,.566.584.586.586,0,0,1-.584.566c-.146,0-.294-.007-.437,0a28.561,28.561,0,0,0-3.979.279A.579.579,0,0,1,1672.816,685.451Z" transform="translate(-1646.989 -684.016)" fill="#00c3ff"/>
          <path id="Caminho_8511" data-name="Caminho 8511" d="M1839.124,712.241a.572.572,0,0,1-.391-.154c-.549-.51-1.124-1-1.709-1.469a.575.575,0,0,1,.715-.9c.609.483,1.207,1,1.777,1.527a.575.575,0,0,1-.391,1Z" transform="translate(-1789.252 -703.257)" fill="#00c3ff"/>
        </g>
        <g id="engrenagem_5">
          <path id="Caminho_8512" data-name="Caminho 8512" d="M1713.994,722.338a.353.353,0,0,0-.383-.145l-4.146,1.1a18.674,18.674,0,0,0-5.037-3.364l-.588-4.256a.352.352,0,0,0-.281-.3l-5.047-1a.352.352,0,0,0-.373.169l-2.154,3.715a18.644,18.644,0,0,0-5.934,1.2l-3.419-2.595a.352.352,0,0,0-.409-.012l-4.272,2.873a.354.354,0,0,0-.144.384l1.1,4.156a18.733,18.733,0,0,0-3.356,5.05l-4.245.589a.353.353,0,0,0-.3.282l-.995,5.06a.354.354,0,0,0,.168.374l3.705,2.159a18.765,18.765,0,0,0,1.193,5.949l-2.589,3.428a.354.354,0,0,0-.011.41l2.865,4.283a.352.352,0,0,0,.383.145l4.146-1.1a18.683,18.683,0,0,0,5.038,3.364l.588,4.256a.353.353,0,0,0,.281.3l5.048,1a.351.351,0,0,0,.373-.169l2.154-3.714a18.636,18.636,0,0,0,5.934-1.2l3.42,2.595a.352.352,0,0,0,.409.012l4.272-2.873a.354.354,0,0,0,.144-.384l-1.1-4.156a18.724,18.724,0,0,0,3.355-5.05l4.246-.589a.352.352,0,0,0,.3-.281l.995-5.06a.353.353,0,0,0-.168-.374l-3.705-2.16a18.777,18.777,0,0,0-1.193-5.948l2.588-3.428a.354.354,0,0,0,.012-.41Z" transform="translate(-1666.782 -706.852)" fill="#37a4d6"/>
          <path id="Caminho_8513" data-name="Caminho 8513" d="M1749,795a5.435,5.435,0,0,1-5.416-5.155,5.444,5.444,0,0,1,5.137-5.721h0a5.435,5.435,0,0,1,5.709,5.148,5.444,5.444,0,0,1-5.137,5.721Q1749.141,795,1749,795Zm-.189-9.153a3.72,3.72,0,0,0-2.282,6.475,3.675,3.675,0,0,0,2.673.948,3.72,3.72,0,0,0,2.283-6.475,3.654,3.654,0,0,0-2.673-.948Z" transform="translate(-1719.115 -759.321)" fill="#f2f5f7"/>
          <path id="Caminho_8514" data-name="Caminho 8514" d="M1724.859,779.257a13.307,13.307,0,0,1-13.053-15.883,13.277,13.277,0,0,1,18.293-9.645l-.685,1.584a11.59,11.59,0,0,0-2.35-.729h0l-.111-.021a11.452,11.452,0,0,0-8.483,1.716l-.073.049a11.507,11.507,0,0,0-4.9,7.379,11.584,11.584,0,0,0,9.1,13.6,11.552,11.552,0,0,0,13.566-9.123,11.606,11.606,0,0,0-.459-6.153l1.624-.583a13.3,13.3,0,0,1-12.469,17.807Z" transform="translate(-1695.03 -735.636)" fill="#f2f5f7"/>
        </g>
      </g>
      <g id="Grupo_4491" data-name="Grupo 4491" transform="translate(107.963 75.316)">
        <g id="detalhe_3">
          <path id="Caminho_8515" data-name="Caminho 8515" d="M1299.359,1023.837a.575.575,0,0,1-.57-.511c-.084-.743-.2-1.493-.341-2.227a.575.575,0,1,1,1.129-.219c.148.764.268,1.544.355,2.317a.575.575,0,0,1-.507.636A.607.607,0,0,1,1299.359,1023.837Z" transform="translate(-1240.255 -996.59)" fill="#00c3ff"/>
          <path id="Caminho_8516" data-name="Caminho 8516" d="M1151.935,1086.1a.575.575,0,0,1-.024-1.149,28.585,28.585,0,0,0,4.465-.547.575.575,0,1,1,.23,1.127,29.653,29.653,0,0,1-4.646.568Zm-7.419-.626a.571.571,0,0,1-.12-.013,30.043,30.043,0,0,1-4.487-1.331.575.575,0,1,1,.412-1.074,28.867,28.867,0,0,0,4.314,1.28.575.575,0,0,1-.12,1.137Zm19.021-2.335a.575.575,0,0,1-.254-1.091,28.974,28.974,0,0,0,3.873-2.291.575.575,0,0,1,.661.941,30.18,30.18,0,0,1-4.028,2.382A.572.572,0,0,1,1163.537,1083.142Zm9.457-7.348a.575.575,0,0,1-.437-.948,28.832,28.832,0,0,0,2.642-3.643.575.575,0,1,1,.981.6,30.035,30.035,0,0,1-2.748,3.789A.574.574,0,0,1,1172.994,1075.793Zm5.742-10.51a.576.576,0,0,1-.551-.742,29.3,29.3,0,0,0,.87-3.749q.053-.323.1-.646a.575.575,0,1,1,1.139.162q-.047.335-.1.67a30.449,30.449,0,0,1-.9,3.9A.575.575,0,0,1,1178.736,1065.283Z" transform="translate(-1120.723 -1026.107)" fill="#00c3ff"/>
          <path id="Caminho_8517" data-name="Caminho 8517" d="M1108.061,1136.486a.571.571,0,0,1-.335-.109c-.632-.455-1.254-.941-1.847-1.443a.575.575,0,0,1,.743-.878c.571.483,1.168.95,1.776,1.388a.575.575,0,0,1-.337,1.042Z" transform="translate(-1095.248 -1081.977)" fill="#00c3ff"/>
          <path id="Caminho_8518" data-name="Caminho 8518" d="M1064.314,1049.965a.575.575,0,0,1-.571-.514c-.083-.773-.135-1.56-.157-2.339a.575.575,0,0,1,.559-.591.56.56,0,0,1,.591.559c.021.749.072,1.506.151,2.249a.575.575,0,0,1-.51.633A.6.6,0,0,1,1064.314,1049.965Z" transform="translate(-1063.586 -1016.229)" fill="#00c3ff"/>
          <path id="Caminho_8519" data-name="Caminho 8519" d="M1067,948.4a.576.576,0,0,1-.562-.7,30.171,30.171,0,0,1,1.339-4.4.575.575,0,0,1,1.072.418,28.945,28.945,0,0,0-1.288,4.233A.575.575,0,0,1,1067,948.4Zm4.808-10.752a.575.575,0,0,1-.466-.91,30.064,30.064,0,0,1,2.965-3.52.575.575,0,0,1,.82.806,28.9,28.9,0,0,0-2.851,3.385A.574.574,0,0,1,1071.807,937.646Zm8.65-8a.575.575,0,0,1-.3-1.067,30.109,30.109,0,0,1,4.105-2.078.575.575,0,0,1,.439,1.063,28.976,28.976,0,0,0-3.948,2A.573.573,0,0,1,1080.457,929.648Zm27.1-1.722a.573.573,0,0,1-.233-.05,28.791,28.791,0,0,0-4.172-1.478.575.575,0,0,1,.3-1.11,29.879,29.879,0,0,1,4.339,1.537.575.575,0,0,1-.233,1.1Zm-16.013-2.243a.575.575,0,0,1-.079-1.145,29.9,29.9,0,0,1,4.593-.287.575.575,0,0,1,.566.584.584.584,0,0,1-.584.566,28.735,28.735,0,0,0-4.415.276A.56.56,0,0,1,1091.547,925.683Z" transform="translate(-1065.72 -924.248)" fill="#00c3ff"/>
          <path id="Caminho_8520" data-name="Caminho 8520" d="M1257.854,952.469a.572.572,0,0,1-.391-.154c-.549-.51-1.124-1-1.71-1.469a.575.575,0,1,1,.715-.9c.609.483,1.207,1,1.778,1.527a.575.575,0,0,1-.392,1Z" transform="translate(-1207.983 -943.486)" fill="#00c3ff"/>
        </g>
        <g id="engrenagem_3">
          <path id="Caminho_8521" data-name="Caminho 8521" d="M1132.724,962.566a.352.352,0,0,0-.383-.145l-4.146,1.1a18.682,18.682,0,0,0-5.038-3.364l-.588-4.256a.352.352,0,0,0-.281-.3l-5.047-1a.352.352,0,0,0-.373.169l-2.155,3.715a18.637,18.637,0,0,0-5.934,1.2l-3.42-2.595a.352.352,0,0,0-.409-.012l-4.273,2.873a.354.354,0,0,0-.144.384l1.1,4.156a18.736,18.736,0,0,0-3.356,5.05l-4.246.589a.352.352,0,0,0-.3.282l-.995,5.06a.354.354,0,0,0,.168.374l3.705,2.159a18.769,18.769,0,0,0,1.194,5.949l-2.589,3.428a.355.355,0,0,0-.012.41l2.866,4.283a.352.352,0,0,0,.383.145l4.146-1.1a18.677,18.677,0,0,0,5.037,3.364l.588,4.256a.353.353,0,0,0,.281.3l5.048,1a.352.352,0,0,0,.373-.169l2.154-3.714a18.643,18.643,0,0,0,5.934-1.2l3.42,2.595a.351.351,0,0,0,.409.012l4.272-2.873a.354.354,0,0,0,.144-.384l-1.1-4.156a18.725,18.725,0,0,0,3.356-5.05l4.246-.589a.352.352,0,0,0,.3-.282l.995-5.06a.354.354,0,0,0-.168-.374l-3.706-2.16a18.77,18.77,0,0,0-1.194-5.949l2.588-3.428a.354.354,0,0,0,.012-.41Z" transform="translate(-1085.512 -947.08)" fill="#00c3ff"/>
          <path id="Caminho_8522" data-name="Caminho 8522" d="M1167.725,1035.232a5.435,5.435,0,0,1-5.416-5.156,5.444,5.444,0,0,1,5.137-5.721,5.435,5.435,0,0,1,5.709,5.148,5.444,5.444,0,0,1-5.137,5.721Q1167.871,1035.232,1167.725,1035.232Zm.011-9.159c-.066,0-.132,0-.2.005a3.72,3.72,0,0,0-2.283,6.475,3.665,3.665,0,0,0,2.673.948,3.72,3.72,0,0,0,2.283-6.475A3.673,3.673,0,0,0,1167.736,1026.074Z" transform="translate(-1137.846 -999.55)" fill="#f2f5f7"/>
          <path id="Caminho_8523" data-name="Caminho 8523" d="M1143.589,1019.485a13.306,13.306,0,0,1-13.052-15.883,13.275,13.275,0,0,1,18.292-9.645l-.684,1.584a11.582,11.582,0,0,0-2.35-.729h0q-.159-.031-.318-.058a11.448,11.448,0,0,0-8.276,1.753l-.073.049a11.507,11.507,0,0,0-4.9,7.379,11.584,11.584,0,0,0,9.1,13.6,11.553,11.553,0,0,0,13.566-9.124,11.613,11.613,0,0,0-.46-6.152l1.623-.583a13.3,13.3,0,0,1-12.47,17.807Z" transform="translate(-1113.761 -975.865)" fill="#f2f5f7"/>
        </g>
      </g>
      <g id="Grupo_4495" data-name="Grupo 4495">
        <g id="detalhe_1">
          <path id="Caminho_8524" data-name="Caminho 8524" d="M835.352,707.386a.575.575,0,0,1-.571-.517c-.076-.742-.187-1.49-.329-2.224a.575.575,0,0,1,1.129-.219c.148.767.264,1.549.344,2.325a.575.575,0,0,1-.513.631A.542.542,0,0,1,835.352,707.386Z" transform="translate(-783.246 -683.219)" fill="#00c3ff"/>
          <path id="Caminho_8525" data-name="Caminho 8525" d="M706.17,766.6a.513.513,0,0,1-.068,0q-.615-.072-1.234-.173a26.756,26.756,0,0,1-3.63-.861.575.575,0,1,1,.344-1.1,25.519,25.519,0,0,0,3.473.824q.591.1,1.181.166a.575.575,0,0,1-.066,1.146Zm7.878-.292a.575.575,0,0,1-.109-1.14,25.164,25.164,0,0,0,4.56-1.343.575.575,0,1,1,.428,1.067,26.33,26.33,0,0,1-4.769,1.405A.6.6,0,0,1,714.049,766.31Zm11.452-5.388a.575.575,0,0,1-.365-1.02,25.429,25.429,0,0,0,3.381-3.346.575.575,0,1,1,.882.738,26.575,26.575,0,0,1-3.534,3.5A.573.573,0,0,1,725.5,760.922Zm7.532-10.174a.576.576,0,0,1-.532-.794,25.454,25.454,0,0,0,1.383-4.551.575.575,0,1,1,1.127.23,26.618,26.618,0,0,1-1.446,4.757A.575.575,0,0,1,733.033,750.748Z" transform="translate(-682.739 -714.048)" fill="#00c3ff"/>
          <path id="Caminho_8526" data-name="Caminho 8526" d="M667.239,806.382a.57.57,0,0,1-.331-.1c-.639-.45-1.265-.933-1.859-1.437a.575.575,0,0,1,.744-.878c.569.482,1.167.944,1.778,1.375a.575.575,0,0,1-.331,1.045Z" transform="translate(-655.665 -758.343)" fill="#00c3ff"/>
          <path id="Caminho_8527" data-name="Caminho 8527" d="M628.5,729.261a.575.575,0,0,1-.571-.514c-.083-.776-.132-1.565-.145-2.346a.575.575,0,0,1,.565-.585.59.59,0,0,1,.585.565c.013.746.059,1.5.138,2.244a.575.575,0,0,1-.511.633A.568.568,0,0,1,628.5,729.261Z" transform="translate(-627.789 -699.659)" fill="#00c3ff"/>
          <path id="Caminho_8528" data-name="Caminho 8528" d="M632.483,639.847a.576.576,0,0,1-.553-.735,26.483,26.483,0,0,1,1.783-4.554.575.575,0,0,1,1.028.517,25.278,25.278,0,0,0-1.705,4.356A.576.576,0,0,1,632.483,639.847Zm6.233-10.78a.575.575,0,0,1-.414-.974,26.572,26.572,0,0,1,3.706-3.19.575.575,0,0,1,.667.937,25.435,25.435,0,0,0-3.545,3.051A.571.571,0,0,1,638.716,629.068Zm27.58-6.281a.574.574,0,0,1-.2-.036,25.424,25.424,0,0,0-4.517-1.215.575.575,0,1,1,.2-1.133,26.589,26.589,0,0,1,4.723,1.27.575.575,0,0,1-.2,1.114Zm-17.036-.34a.575.575,0,0,1-.18-1.122,26.226,26.226,0,0,1,4.768-1.088.575.575,0,0,1,.15,1.14,25.113,25.113,0,0,0-4.558,1.04A.574.574,0,0,1,649.259,622.447Z" transform="translate(-630.887 -620.232)" fill="#00c3ff"/>
          <path id="Caminho_8529" data-name="Caminho 8529" d="M798.145,643.8a.573.573,0,0,1-.391-.154c-.548-.51-1.124-1-1.713-1.456a.575.575,0,1,1,.7-.908c.615.477,1.218.989,1.791,1.522a.575.575,0,0,1-.391,1Z" transform="translate(-754.191 -635.977)" fill="#00c3ff"/>
        </g>
        <g id="engrenagem_1">
          <path id="Caminho_8530" data-name="Caminho 8530" d="M688.923,653.344a.309.309,0,0,0-.337-.127l-3.648.968a16.437,16.437,0,0,0-4.432-2.959l-.517-3.745a.31.31,0,0,0-.247-.262l-4.441-.878a.31.31,0,0,0-.328.149l-1.9,3.268a16.406,16.406,0,0,0-5.221,1.053l-3.009-2.283a.31.31,0,0,0-.36-.01l-3.759,2.527a.311.311,0,0,0-.127.338l.965,3.657a16.481,16.481,0,0,0-2.952,4.443l-3.735.518a.31.31,0,0,0-.262.248l-.875,4.452a.311.311,0,0,0,.148.329l3.26,1.9a16.509,16.509,0,0,0,1.05,5.234l-2.277,3.016a.312.312,0,0,0-.01.361l2.521,3.768a.31.31,0,0,0,.337.127l3.648-.968a16.43,16.43,0,0,0,4.432,2.96l.517,3.745a.31.31,0,0,0,.247.262l4.441.878a.31.31,0,0,0,.328-.149l1.9-3.268a16.4,16.4,0,0,0,5.221-1.053l3.009,2.283a.31.31,0,0,0,.36.01l3.759-2.527a.312.312,0,0,0,.127-.338l-.966-3.657a16.483,16.483,0,0,0,2.952-4.443l3.735-.518a.31.31,0,0,0,.262-.248l.875-4.452a.312.312,0,0,0-.148-.329l-3.26-1.9a16.52,16.52,0,0,0-1.05-5.234l2.277-3.016a.311.311,0,0,0,.01-.361Z" transform="translate(-647.309 -639.868)" fill="#00c3ff"/>
          <path id="Caminho_8531" data-name="Caminho 8531" d="M719.4,717.067a4.886,4.886,0,0,1-4.869-4.634,4.882,4.882,0,1,1,5.132,4.627C719.578,717.064,719.49,717.067,719.4,717.067Zm.01-8.058c-.057,0-.113,0-.17,0h0a3.169,3.169,0,0,0-1.944,5.517,3.131,3.131,0,0,0,2.277.807,3.169,3.169,0,0,0,1.944-5.516A3.126,3.126,0,0,0,719.413,709.009Zm-.216-.857h0Z" transform="translate(-693.039 -685.718)" fill="#f2f5f7"/>
          <path id="Caminho_8532" data-name="Caminho 8532" d="M698.167,703.21a11.811,11.811,0,0,1-11.586-14.1,11.785,11.785,0,0,1,16.1-8.621l.007,0,.134.057-.684,1.584a10.087,10.087,0,0,0-2.046-.635h0l-.023,0a10.061,10.061,0,0,0-11.791,7.95,10.087,10.087,0,0,0,7.925,11.846,10.061,10.061,0,0,0,11.814-7.945,10.111,10.111,0,0,0-.4-5.358l1.623-.583a11.809,11.809,0,0,1-11.068,15.805Z" transform="translate(-671.847 -664.878)" fill="#f2f5f7"/>
        </g>
      </g>
    </g>
    <g id="foguete">
      <path id="Caminho_8533" data-name="Caminho 8533" d="M1151.389,585.081l.293-1.11c.008-.031.026-.092.053-.181.095-.315.293-.972.511-1.894a.537.537,0,0,1,.582-.392.414.414,0,0,1,.369.511c-.093.393-.183.739-.262,1.033a.457.457,0,0,1,.411.168.451.451,0,0,1-.135.64c-.514.361-.8.55-.8.55Zm3.869-3.122a.41.41,0,0,1-.1-.083.447.447,0,0,1,.1-.642c.84-.644,1.69-1.319,2.523-2a.5.5,0,0,1,.686.017.442.442,0,0,1-.079.643c-.844.693-1.7,1.375-2.552,2.026A.521.521,0,0,1,1155.258,581.959Zm-2.278-2.592a.4.4,0,0,1-.186-.4,27.152,27.152,0,0,0,.245-2.934.525.525,0,0,1,.5-.484.426.426,0,0,1,.475.425,27.992,27.992,0,0,1-.253,3.028.533.533,0,0,1-.546.438A.467.467,0,0,1,1152.98,579.367Zm.139-5.939a.4.4,0,0,1-.187-.3,16.79,16.79,0,0,0-.539-2.807.493.493,0,0,1,.349-.582.453.453,0,0,1,.595.275,17.577,17.577,0,0,1,.565,2.943.512.512,0,0,1-.437.532A.485.485,0,0,1,1153.118,573.429Zm7.142,4.422a.425.425,0,0,1-.019-.7c.8-.706,1.6-1.431,2.376-2.156a.515.515,0,0,1,.689-.031.435.435,0,0,1-.029.643c-.781.733-1.589,1.466-2.4,2.18A.523.523,0,0,1,1160.26,577.851Zm-8.777-9.992a.411.411,0,0,1-.142-.152,11.663,11.663,0,0,0-1.092-1.679q-.271-.346-.514-.683a.454.454,0,0,1,.151-.638.492.492,0,0,1,.673.085q.234.324.495.657a12.452,12.452,0,0,1,1.167,1.794.47.47,0,0,1-.23.624A.511.511,0,0,1,1151.483,567.859Zm-9.13-6.7-.758-.5a2.717,2.717,0,0,0,.386-2.045.509.509,0,0,1,.422-.542.439.439,0,0,1,.545.347,3.993,3.993,0,0,1-.106,1.784.444.444,0,0,1-.083.532Zm6.005,1.8a.4.4,0,0,1-.151-.171,10.379,10.379,0,0,1-.9-2.882.509.509,0,0,1,.418-.545.44.44,0,0,1,.549.343,9.57,9.57,0,0,0,.835,2.657.476.476,0,0,1-.26.616A.507.507,0,0,1,1148.358,562.959Zm16.6,10.479a.521.521,0,0,1-.048-.036.431.431,0,0,1,0-.641c.754-.761,1.5-1.537,2.2-2.306a.523.523,0,0,1,.689-.082.428.428,0,0,1,.027.638c-.716.779-1.467,1.564-2.231,2.335A.527.527,0,0,1,1164.957,573.439Zm-20.6-14.917a.467.467,0,0,1-.047-.035.431.431,0,0,1,0-.641c.879-.891,1.651-1.658,2.3-2.28a.519.519,0,0,1,.689-.04.433.433,0,0,1-.018.643c-.639.616-1.406,1.377-2.278,2.261A.526.526,0,0,1,1144.359,558.522Zm-2.91-2.451a.4.4,0,0,1-.174-.23c-.24-.843-.492-1.774-.7-2.873a.5.5,0,0,1,.4-.558.445.445,0,0,1,.564.322c.2,1.067.448,1.977.684,2.8a.494.494,0,0,1-.35.582A.5.5,0,0,1,1141.448,556.071Zm6.207,1.163a.408.408,0,0,1-.174-.461,9.038,9.038,0,0,1,1.105-2.4c.094-.153.171-.276.217-.371a.573.573,0,0,1,.628-.367.393.393,0,0,1,.321.52,1.474,1.474,0,0,1-.064.153c-.056.119-.15.273-.267.464a8.039,8.039,0,0,0-1,2.149.538.538,0,0,1-.6.373A.457.457,0,0,1,1147.655,557.234Zm21.633,11.484-.017-.011a.425.425,0,0,1-.058-.634c.61-.724,1.2-1.456,1.763-2.178l.219-.285a.53.53,0,0,1,.683-.142h0a.421.421,0,0,1,.091.627l-.223.289c-.569.733-1.171,1.477-1.79,2.211A.528.528,0,0,1,1169.288,568.718Zm-28.9-18.4a.4.4,0,0,1-.19-.315,27.313,27.313,0,0,1-.029-3.008.526.526,0,0,1,.508-.477.425.425,0,0,1,.467.433,26.436,26.436,0,0,0,.028,2.915.516.516,0,0,1-.457.519A.483.483,0,0,1,1140.384,550.321Zm.247-5.937a.4.4,0,0,1-.186-.4q.045-.32.1-.648a20.643,20.643,0,0,1,.515-2.372.538.538,0,0,1,.6-.372.414.414,0,0,1,.346.526,19.787,19.787,0,0,0-.492,2.269c-.034.214-.064.425-.094.635a.532.532,0,0,1-.547.436A.469.469,0,0,1,1140.631,544.385Zm32.517,19.287a.418.418,0,0,1-.106-.6c.6-.873,1.169-1.756,1.692-2.624a.537.537,0,0,1,.667-.215.409.409,0,0,1,.172.607c-.533.885-1.113,1.784-1.724,2.674a.534.534,0,0,1-.677.178Zm-30.87-25.137a.412.412,0,0,1-.149-.528,21.77,21.77,0,0,1,1.528-2.807.535.535,0,0,1,.672-.2.42.42,0,0,1,.152.613,20.911,20.911,0,0,0-1.458,2.68.54.54,0,0,1-.642.288A.454.454,0,0,1,1142.278,538.535Zm34.1,19.756a.413.413,0,0,1-.138-.55c.476-.924.914-1.859,1.3-2.779a.541.541,0,0,1,.636-.3.413.413,0,0,1,.268.569c-.4.941-.846,1.9-1.333,2.845a.539.539,0,0,1-.654.257A.459.459,0,0,1,1176.383,558.291Zm-30.716-25.042-.02-.013a.424.424,0,0,1-.053-.635,25.8,25.8,0,0,1,2.287-2.347.51.51,0,0,1,.688-.018.437.437,0,0,1-.042.644,24.751,24.751,0,0,0-2.192,2.249A.529.529,0,0,1,1145.667,533.249Zm33.108,19.349a.408.408,0,0,1-.168-.479c.313-.966.577-1.939.786-2.894a.537.537,0,0,1,.577-.4.416.416,0,0,1,.378.5c-.216.983-.487,1.985-.809,2.979a.54.54,0,0,1-.61.35A.448.448,0,0,1,1178.775,552.6Zm-28.34-23.665a.416.416,0,0,1-.108-.1.452.452,0,0,1,.137-.64,14.547,14.547,0,0,1,3.005-1.7v-.007l1.361-.32a.442.442,0,0,1,.56.328.5.5,0,0,1-.4.554l-1.4.331A15.446,15.446,0,0,0,1151,528.9.519.519,0,0,1,1150.434,528.933Zm29.625,17.758a.4.4,0,0,1-.187-.39,25.538,25.538,0,0,0,.15-2.924.521.521,0,0,1,.484-.5.429.429,0,0,1,.491.409,26.438,26.438,0,0,1-.156,3.023.531.531,0,0,1-.534.45A.47.47,0,0,1,1180.06,546.691Zm-.042-5.916a.4.4,0,0,1-.187-.291,24.1,24.1,0,0,0-.534-2.827.5.5,0,0,1,.366-.574.45.45,0,0,1,.584.292,24.965,24.965,0,0,1,.553,2.922.511.511,0,0,1-.428.539A.49.49,0,0,1,1180.018,540.775Zm-22.26-14.521a.4.4,0,0,1-.183-.271.505.505,0,0,1,.4-.554l3.148-.74a.441.441,0,0,1,.56.328.5.5,0,0,1-.4.554l-3.149.741A.489.489,0,0,1,1157.758,526.254Zm20.841,8.87a.4.4,0,0,1-.163-.2,26.858,26.858,0,0,0-1.16-2.617.5.5,0,0,1,.888-.448,27.7,27.7,0,0,1,1.195,2.694.485.485,0,0,1-.3.6A.5.5,0,0,1,1178.6,535.124Zm-14.543-10.351a.4.4,0,0,1-.184-.271.505.505,0,0,1,.4-.554l3.149-.741a.442.442,0,0,1,.56.328.505.505,0,0,1-.4.554l-3.15.741A.492.492,0,0,1,1164.056,524.773Zm11.919,5.177a.409.409,0,0,1-.126-.125c-.5-.786-1.061-1.577-1.658-2.351a.451.451,0,0,1,.132-.64.493.493,0,0,1,.677.067c.611.792,1.182,1.6,1.7,2.407a.46.46,0,0,1-.184.633A.514.514,0,0,1,1175.974,529.95Zm-3.553-4.619a.4.4,0,0,1-.086-.073c-.577-.638-1.194-1.278-1.837-1.907a.415.415,0,0,1-.328-.33.505.505,0,0,1,.4-.554l.343-.081.178.173c.7.683,1.381,1.381,2.009,2.077a.443.443,0,0,1-.083.644A.522.522,0,0,1,1172.421,525.331Z" transform="translate(-768.65 -277.123)" fill="url(#linear-gradient)"/>
      <path id="Caminho_8534" data-name="Caminho 8534" d="M1194.76,535s-12.425,7.311-8.455,15.961,10.371,16.259,8.5,20.641c0,0,21.349-18.118,4.936-37.256Z" transform="translate(-802.791 -286.116)" fill="#00c3ff"/>
      <path id="Caminho_8535" data-name="Caminho 8535" d="M1111.873,447.041s-13.746,2.944-15.38,7.184c-1.553,4.033,1.818,32.814,2.151,35.613a.23.23,0,0,0,.269.191h0a4.007,4.007,0,0,0,2.828-1.674c3.1-4.474,12.251-17.9,13.7-22.672C1117.185,459.919,1111.873,447.041,1111.873,447.041Z" transform="translate(-735.512 -220.444)" fill="#00c3ff"/>
      <path id="Caminho_8536" data-name="Caminho 8536" d="M1102.836,485.246a.262.262,0,0,1-.123-.2c-.016-.159-1.566-15.976-1.946-22.833a3.391,3.391,0,0,1,1.824-3.079,55.569,55.569,0,0,1,9.4-4.177.3.3,0,0,1,.388.181.324.324,0,0,1-.23.381,55.86,55.86,0,0,0-9.27,4.121,2.741,2.741,0,0,0-1.474,2.49c.379,6.845,1.928,22.651,1.944,22.809a.336.336,0,0,1-.289.347A.317.317,0,0,1,1102.836,485.246Z" transform="translate(-739.03 -226.387)" fill="#fff" opacity="0.49"/>
      <path id="Caminho_8537" data-name="Caminho 8537" d="M1281.175,432.476s13.839-.143,15.74,3.7c1.808,3.657.361,32.977.215,35.83a.28.28,0,0,1-.255.25h0a3.386,3.386,0,0,1-2.918-1.031c-3.375-3.75-13.342-15.034-15.092-19.45C1276.752,446.443,1281.175,432.476,1281.175,432.476Z" transform="translate(-872.58 -209.486)" fill="#00c3ff"/>
      <path id="Caminho_8538" data-name="Caminho 8538" d="M1313.6,465.392a.263.263,0,0,1-.125-.233c.005-.162.5-16.2.425-23.075a2.26,2.26,0,0,0-1.628-2.143,48.619,48.619,0,0,0-9.474-2.023.271.271,0,0,1-.253-.327.351.351,0,0,1,.374-.266,49.274,49.274,0,0,1,9.605,2.049,2.8,2.8,0,0,1,2.014,2.65c.075,6.891-.42,22.937-.425,23.1a.344.344,0,0,1-.328.315A.312.312,0,0,1,1313.6,465.392Z" transform="translate(-890.822 -213.134)" fill="#fff" opacity="0.49"/>
      <path id="Caminho_8539" data-name="Caminho 8539" d="M1145.916,260.318a64.514,64.514,0,0,0-2.883,20.887c.714,23.812,5.678,40.828,7.232,45.62a2.378,2.378,0,0,0,2.044,1.583,52.287,52.287,0,0,0,22.894-2.4,4.267,4.267,0,0,0,2.834-3.006,183.12,183.12,0,0,0,4-46.164,59.553,59.553,0,0,0-4.187-19.961C1165.015,255.007,1152.774,258.164,1145.916,260.318Z" transform="translate(-770.807 -76.964)" fill="#1250b3"/>
      <path id="Caminho_8540" data-name="Caminho 8540" d="M1186.682,188.5a61.263,61.263,0,0,0-15.807-22.787,1.425,1.425,0,0,0-1.978.221,75.627,75.627,0,0,0-14.143,26C1161.613,189.781,1173.853,186.623,1186.682,188.5Z" transform="translate(-779.646 -8.58)" fill="#00c3ff"/>
      <path id="Caminho_8541" data-name="Caminho 8541" d="M1195.2,306.053c.2,6.166-5.414,11.811-12.549,12.61s-13.084-3.552-13.288-9.718,5.414-11.811,12.548-12.61S1194.992,299.887,1195.2,306.053Z" transform="translate(-790.629 -107.002)" fill="#37a4d6"/>
      <path id="Caminho_8542" data-name="Caminho 8542" d="M1201.962,311.869c.163,4.913-4.314,9.411-10,10.047s-10.425-2.83-10.588-7.743,4.314-9.411,10-10.048S1201.8,306.956,1201.962,311.869Z" transform="translate(-799.668 -112.877)" fill="#8bd9f1"/>
      <path id="Caminho_8543" data-name="Caminho 8543" d="M1193.239,317.535a.266.266,0,0,1-.113-.3,8.883,8.883,0,0,1,7.556-6,8.793,8.793,0,0,1,2.625.092.27.27,0,0,1,.216.351.352.352,0,0,1-.4.234,8.369,8.369,0,0,0-9.385,5.425.352.352,0,0,1-.392.241A.293.293,0,0,1,1193.239,317.535Z" transform="translate(-808.503 -118.239)" fill="#37a4d6"/>
      <path id="Caminho_8544" data-name="Caminho 8544" d="M1207.13,408.707c.135,4.073-3.576,7.8-8.29,8.33s-8.644-2.347-8.778-6.42,3.576-7.8,8.29-8.33S1206.995,404.634,1207.13,408.707Z" transform="translate(-806.203 -186.73)" fill="#37a4d6"/>
      <path id="Caminho_8545" data-name="Caminho 8545" d="M1211.6,412.549c.108,3.246-2.85,6.217-6.606,6.638s-6.887-1.87-6.994-5.116,2.85-6.217,6.605-6.638S1211.492,409.3,1211.6,412.549Z" transform="translate(-812.176 -190.611)" fill="#8bd9f1"/>
      <path id="Caminho_8546" data-name="Caminho 8546" d="M1205.442,416.072a.266.266,0,0,1-.113-.3,5.988,5.988,0,0,1,5.092-4.045,5.918,5.918,0,0,1,1.768.063.27.27,0,0,1,.216.351.353.353,0,0,1-.4.233,5.408,5.408,0,0,0-6.064,3.5.352.352,0,0,1-.391.241A.3.3,0,0,1,1205.442,416.072Z" transform="translate(-817.682 -193.847)" fill="#37a4d6"/>
    </g>
    <g id="lampada">
      <path id="Caminho_8547" data-name="Caminho 8547" d="M2049.848,811.766c-.05-.62-.683-1.156-1.755-1.587,1.165-.642,1.81-1.331,1.755-2.006-.165-2.044-6.636-3.189-14.455-2.559s-14.023,2.8-13.858,4.842c.05.62.683,1.156,1.755,1.586-1.165.643-1.81,1.331-1.755,2.006.05.62.683,1.156,1.755,1.587-1.165.643-1.81,1.331-1.755,2.006.05.62.683,1.156,1.755,1.587-1.165.642-1.81,1.331-1.755,2.006.073.9,1.381,1.632,3.492,2.108a18.027,18.027,0,0,0,.053,2.208c.305,3.766,4.542,6.718,10.144,6.718s10.452-4.026,10.506-7.8a19.094,19.094,0,0,0-.109-2.465c2.68-.9,4.313-1.989,4.227-3.049-.05-.62-.683-1.157-1.755-1.587,1.165-.642,1.81-1.331,1.755-2.006-.05-.62-.683-1.156-1.755-1.587C2049.258,813.13,2049.9,812.441,2049.848,811.766Z" transform="translate(-1431.689 -490.055)" fill="#37a4d6"/>
      <g id="Grupo_4501" data-name="Grupo 4501" transform="translate(591.93 320.313)">
        <path id="Caminho_8548" data-name="Caminho 8548" d="M2043.585,874.755a33.785,33.785,0,0,1-6.2-.507.188.188,0,0,1,.071-.369,40.45,40.45,0,0,0,10.331.326,44.42,44.42,0,0,0,8.665-1.494.188.188,0,0,1,.105.361,44.811,44.811,0,0,1-8.739,1.508C2046.36,874.7,2044.939,874.755,2043.585,874.755Z" transform="translate(-2035.429 -860.967)" fill="#1250b3"/>
        <path id="Caminho_8549" data-name="Caminho 8549" d="M2039.5,857.258a29.507,29.507,0,0,1-7.615-.825.188.188,0,1,1,.1-.361,43.445,43.445,0,0,0,23.022-1.829.188.188,0,0,1,.157.341,37.056,37.056,0,0,1-11.476,2.5C2042.26,857.2,2040.848,857.258,2039.5,857.258Z" transform="translate(-2031.307 -847.066)" fill="#1250b3"/>
        <path id="Caminho_8550" data-name="Caminho 8550" d="M2038.118,842.758a27.424,27.424,0,0,1-8.027-.966.188.188,0,0,1,.118-.357c2.67.88,7.2,1.17,12.108.774a36.675,36.675,0,0,0,11.349-2.47.188.188,0,0,1,.157.341,37.061,37.061,0,0,1-11.476,2.5C2040.892,842.7,2039.47,842.758,2038.118,842.758Z" transform="translate(-2029.962 -836.156)" fill="#1250b3"/>
        <path id="Caminho_8551" data-name="Caminho 8551" d="M2042.006,828.334a32.371,32.371,0,0,1-6.761-.615.188.188,0,1,1,.082-.367,39.154,39.154,0,0,0,10.853.434,36.952,36.952,0,0,0,11.291-2.443.188.188,0,1,1,.156.342,37.331,37.331,0,0,1-11.417,2.475C2044.773,828.277,2043.357,828.334,2042.006,828.334Z" transform="translate(-2033.825 -825.327)" fill="#1250b3"/>
      </g>
      <path id="Caminho_8552" data-name="Caminho 8552" d="M1945.765,522.739a26.445,26.445,0,0,0-4.735-9.244,61.194,61.194,0,0,1-13.182-34.079c-1.359-23.684,19.645-35.541,38.812-33.931s38.08,15.881,36.009,37.914c-1.274,13.557-8.862,23.84-14.511,29.745a31.378,31.378,0,0,0-7.532,13.345c-1.7,6.121-5.73,13.75-15.321,14.215C1952.9,541.305,1947.741,529.738,1945.765,522.739Z" transform="translate(-1361.168 -219.164)" fill="#00c3ff"/>
      <path id="Caminho_8553" data-name="Caminho 8553" d="M2091.985,674.583l6.707-43.62c.139-.9.582-1.506.991-1.352s.627,1.01.489,1.911l-.013.077-7.639,43.214c-.058.325-.223.53-.369.459S2091.937,674.9,2091.985,674.583Z" transform="translate(-1484.678 -357.767)" fill="#37a4d6"/>
      <path id="Caminho_8554" data-name="Caminho 8554" d="M2038.947,675.982l-6.707-43.62c-.138-.9-.582-1.506-.99-1.352s-.627,1.011-.489,1.912c0,.024.009.054.013.077l7.639,43.214c.057.325.222.53.369.458S2039,676.3,2038.947,675.982Z" transform="translate(-1438.602 -358.818)" fill="#37a4d6"/>
      <path id="Caminho_8555" data-name="Caminho 8555" d="M2059.153,604a.7.7,0,0,0-.88-.229l-3.734,1.745-1.3-3.693a.793.793,0,0,0-.454-.457.923.923,0,0,0-1.148.354l-.007.012-3.071,5.6-2.85-7.971,0-.013a.911.911,0,0,0-.431-.487,1.119,1.119,0,0,0-1.41.278l-4.293,5.911a.518.518,0,0,0,.151.746.72.72,0,0,0,.913-.1l3.78-4.217,3.4,7.583,0,.006a.6.6,0,0,0,.3.294.712.712,0,0,0,.891-.23l3.284-5.271,1.236,2.666.01.024a.608.608,0,0,0,.031.057.7.7,0,0,0,.879.228l4.433-2.071A.527.527,0,0,0,2059.153,604Z" transform="translate(-1445.188 -334.551)" fill="#fff" opacity="0.71"/>
      <path id="Caminho_8556" data-name="Caminho 8556" d="M2169.452,676.543a.862.862,0,0,1-.692-1.376,49.412,49.412,0,0,0,3.111-4.725.863.863,0,1,1,1.494.863,51.25,51.25,0,0,1-3.219,4.89A.861.861,0,0,1,2169.452,676.543Z" transform="translate(-1542.316 -388.175)" fill="#fff" opacity="0.64"/>
      <path id="Caminho_8557" data-name="Caminho 8557" d="M2191.721,559.246a.863.863,0,0,1-.791-1.206,39.831,39.831,0,0,0,.913-30.147.862.862,0,0,1,1.568-.718c.269.585,6.49,14.537-.9,31.553A.863.863,0,0,1,2191.721,559.246Z" transform="translate(-1559.068 -280.346)" fill="#fff" opacity="0.64"/>
    </g>
    <g id="Grupo_4505" data-name="Grupo 4505" transform="translate(559.291 168.334)">
      <path id="Caminho_8558" data-name="Caminho 8558" d="M1933.116,257.512l-28.344,2.986a5.937,5.937,0,0,1-6.559-5.9V221.877A5.937,5.937,0,0,1,1903.3,216l28.344-4.081a5.937,5.937,0,0,1,6.784,5.877v33.811A5.937,5.937,0,0,1,1933.116,257.512Z" transform="translate(-1898.213 -211.858)" fill="#00c3ff"/>
      <g id="Grupo_4504" data-name="Grupo 4504" transform="translate(6.286 10.973)">
        <path id="Caminho_8559" data-name="Caminho 8559" d="M1927.788,346.058a4.2,4.2,0,1,1,4.2-4.2A4.207,4.207,0,0,1,1927.788,346.058Zm0-6.737a2.534,2.534,0,1,0,2.534,2.535A2.538,2.538,0,0,0,1927.788,339.321Z" transform="translate(-1923.586 -317.462)" fill="url(#linear-gradient)"/>
        <g id="Grupo_4503" data-name="Grupo 4503" transform="translate(0.08)">
          <path id="Caminho_8560" data-name="Caminho 8560" d="M1934.616,310.831a8.975,8.975,0,0,1,8.965,8.965,8.625,8.625,0,0,1-.048.907.612.612,0,0,0,.695.678l1.3-.195a.614.614,0,0,0,.52-.566c.02-.272.031-.547.031-.824a11.48,11.48,0,0,0-11.467-11.467,11.289,11.289,0,0,0-1.414.089.613.613,0,0,0-.531.71l.216,1.268a.607.607,0,0,0,.673.5A8.54,8.54,0,0,1,1934.616,310.831Z" transform="translate(-1930.494 -295.403)" fill="url(#linear-gradient)"/>
          <path id="Caminho_8561" data-name="Caminho 8561" d="M1931.323,284.742a15.446,15.446,0,0,1,15.428,15.428v.007a.606.606,0,0,0,.693.605l1.28-.191.529-.611a17.951,17.951,0,0,0-17.929-17.74,17.758,17.758,0,0,0-2.525.182.606.606,0,0,0-.5.7l.215,1.265a.606.606,0,0,0,.678.5A15.278,15.278,0,0,1,1931.323,284.742Z" transform="translate(-1927.2 -275.777)" fill="url(#linear-gradient)"/>
          <path id="Caminho_8562" data-name="Caminho 8562" d="M1928.032,258.653a21.915,21.915,0,0,1,21.867,20.956.612.612,0,0,0,.7.586l1.27-.19a.611.611,0,0,0,.522-.629,24.354,24.354,0,0,0-27.966-22.951.61.61,0,0,0-.5.707l.215,1.263a.61.61,0,0,0,.7.5A21.767,21.767,0,0,1,1928.032,258.653Z" transform="translate(-1923.91 -256.151)" fill="url(#linear-gradient)"/>
        </g>
      </g>
    </g>
    <g id="Grupo_4506" data-name="Grupo 4506" transform="translate(507.527 196.754)">
      <path id="Caminho_8563" data-name="Caminho 8563" d="M1709.872,351.3h-16.613c-1.384,0-3.993-1.122-3.993-2.506V330.643a2.506,2.506,0,0,1,2.3-2.5l19.284-1.561a2.506,2.506,0,0,1,2.7,2.649l-1.184,19.709A2.506,2.506,0,0,1,1709.872,351.3Z" transform="translate(-1689.266 -326.576)" fill="#00c3ff"/>
      <path id="Caminho_8564" data-name="Caminho 8564" d="M1703.974,363.286a1.917,1.917,0,0,1-1.918-1.917V349.734a.594.594,0,0,1,1.189,0v11.636a.729.729,0,0,0,.771.727l13.789-.821a.73.73,0,0,0,.685-.727V349.124a.729.729,0,0,0-.8-.725l-11.47,1.136a.728.728,0,0,0-.518,1.152l4.375,6.037a.722.722,0,0,0,.584.3h.006a.722.722,0,0,0,.583-.291l4.819-6.42a.594.594,0,0,1,.95.713l-4.819,6.42a1.862,1.862,0,0,1-1.549.766,1.9,1.9,0,0,1-1.537-.792l-4.375-6.037a1.917,1.917,0,0,1,1.364-3.033l11.469-1.136a1.917,1.917,0,0,1,2.106,1.908v11.424a1.919,1.919,0,0,1-1.8,1.914l-13.788.821C1704.05,363.285,1704.011,363.286,1703.974,363.286Z" transform="translate(-1698.888 -342.097)" fill="url(#linear-gradient)"/>
    </g>
    <g id="Grupo_4507" data-name="Grupo 4507" transform="translate(225.203 307.352)">
      <path id="Caminho_8565" data-name="Caminho 8565" d="M1166.33,787.771a.575.575,0,0,1-.323-1.051c.618-.419,1.239-.864,1.846-1.323a.575.575,0,1,1,.694.918c-.623.471-1.26.927-1.894,1.357A.571.571,0,0,1,1166.33,787.771Z" transform="translate(-1013.124 -782.241)" fill="url(#linear-gradient)"/>
      <path id="Caminho_8566" data-name="Caminho 8566" d="M951.681,891.169a.575.575,0,0,1-.564-.468,22.1,22.1,0,0,0-1.257-4.291.575.575,0,0,1,1.064-.437,23.25,23.25,0,0,1,1.323,4.514.575.575,0,0,1-.458.671A.548.548,0,0,1,951.681,891.169Zm-253.4-3.7a.575.575,0,0,1,0-1.15q2.291,0,4.587-.029h.006a.575.575,0,0,1,.006,1.15q-2.3.025-4.6.029Zm-5.752-.027h-.006q-2.309-.025-4.609-.075a.575.575,0,0,1-.563-.587.563.563,0,0,1,.587-.563q2.294.05,4.6.075a.575.575,0,0,1-.006,1.15Zm16.088-.1a.575.575,0,0,1-.012-1.15q2.293-.05,4.59-.12a.575.575,0,1,1,.035,1.149q-2.3.07-4.6.121Zm-26.441-.143h-.021q-2.308-.082-4.606-.191a.575.575,0,0,1-.547-.6.582.582,0,0,1,.6-.547q2.291.108,4.593.19a.575.575,0,0,1-.02,1.15Zm36.781-.181a.575.575,0,0,1-.023-1.149q2.294-.093,4.591-.2a.575.575,0,0,1,.055,1.149q-2.3.11-4.6.2ZM671.83,886.7h-.037q-2.306-.146-4.6-.321a.575.575,0,1,1,.088-1.147q2.286.174,4.585.319a.575.575,0,0,1-.036,1.149Zm57.465-.179a.575.575,0,0,1-.032-1.149q2.3-.13,4.592-.277a.575.575,0,1,1,.073,1.148q-2.3.146-4.6.277Zm-67.788-.628-.055,0q-2.3-.217-4.588-.465a.575.575,0,0,1,.124-1.143q2.278.248,4.572.463a.575.575,0,0,1-.053,1.148Zm78.128-.036a.575.575,0,0,1-.04-1.149q2.3-.164,4.593-.341a.575.575,0,0,1,.089,1.147q-2.3.178-4.6.342Zm10.339-.806a.575.575,0,0,1-.048-1.148q2.3-.194,4.592-.4a.575.575,0,1,1,.1,1.146q-2.3.2-4.6.4Zm-98.759-.3a.588.588,0,0,1-.074,0q-2.294-.294-4.57-.625a.575.575,0,1,1,.165-1.138q2.266.329,4.552.622a.575.575,0,0,1-.073,1.145Zm109.1-.631a.575.575,0,0,1-.054-1.148q2.3-.219,4.593-.448a.575.575,0,1,1,.114,1.144q-2.3.229-4.6.449Zm-119.341-.881a.608.608,0,0,1-.1-.008c-1.519-.255-3.048-.524-4.543-.8a.575.575,0,0,1,.211-1.13c1.488.277,3.009.546,4.522.8a.575.575,0,0,1-.094,1.142Zm129.678-.155a.575.575,0,0,1-.059-1.147q2.293-.24,4.577-.488a.575.575,0,1,1,.124,1.143q-2.286.248-4.58.489C770.691,883.082,770.67,883.083,770.65,883.083Zm10.3-1.122a.575.575,0,0,1-.064-1.146q2.292-.258,4.573-.522a.575.575,0,0,1,.133,1.142q-2.283.265-4.577.523A.507.507,0,0,1,780.95,881.962Zm166.542-.129a.574.574,0,0,1-.449-.216,21.235,21.235,0,0,0-3.152-3.167.575.575,0,1,1,.727-.891,22.336,22.336,0,0,1,3.323,3.339.575.575,0,0,1-.449.934ZM630.8,881.316a.578.578,0,0,1-.12-.012c-1.509-.319-3.024-.656-4.5-1a.575.575,0,1,1,.261-1.12c1.472.343,2.98.678,4.482,1a.575.575,0,0,1-.118,1.138Zm160.443-.547a.575.575,0,0,1-.067-1.146q2.292-.272,4.571-.548a.575.575,0,1,1,.138,1.142q-2.28.276-4.573.549A.672.672,0,0,1,791.242,880.769Zm10.286-1.248a.575.575,0,0,1-.07-1.146q2.292-.282,4.569-.567a.575.575,0,0,1,.143,1.141l-4.571.568A.606.606,0,0,1,801.527,879.521Zm-180.814-.56a.583.583,0,0,1-.141-.018q-2.218-.559-4.465-1.164a.575.575,0,1,1,.3-1.11q2.235.6,4.446,1.159a.575.575,0,0,1-.14,1.133Zm191.095-.724a.575.575,0,0,1-.071-1.146l4.568-.578a.575.575,0,0,1,.145,1.141l-4.569.578A.551.551,0,0,1,811.808,878.237Zm10.279-1.3a.575.575,0,0,1-.072-1.146l4.569-.579a.575.575,0,0,1,.145,1.141l-4.568.579A.6.6,0,0,1,822.087,876.935Zm-211.368-.7a.578.578,0,0,1-.164-.023c-1.5-.444-2.984-.9-4.413-1.36a.575.575,0,0,1,.352-1.095c1.42.455,2.9.911,4.388,1.352a.575.575,0,0,1-.163,1.126Zm221.648-.6a.575.575,0,0,1-.071-1.146l4.57-.571a.575.575,0,0,1,.142,1.141l-4.569.571A.554.554,0,0,1,832.366,875.635Zm107.072-.173a.572.572,0,0,1-.263-.064,36.9,36.9,0,0,0-4.15-1.809.575.575,0,0,1,.4-1.079,38.2,38.2,0,0,1,4.279,1.866.575.575,0,0,1-.264,1.086Zm-96.789-1.1a.575.575,0,0,1-.068-1.146q2.3-.28,4.573-.551a.575.575,0,1,1,.136,1.142q-2.27.27-4.57.551A.606.606,0,0,1,842.648,874.361Zm10.289-1.22a.575.575,0,0,1-.065-1.146q2.306-.265,4.578-.517a.575.575,0,1,1,.127,1.143q-2.269.251-4.573.516A.573.573,0,0,1,852.937,873.141Zm-252.075-.106a.58.58,0,0,1-.193-.034c-1.47-.524-2.927-1.067-4.33-1.614a.575.575,0,1,1,.417-1.071c1.393.542,2.839,1.081,4.3,1.6a.575.575,0,0,1-.193,1.117Zm262.374-1.027a.575.575,0,0,1-.059-1.147q2.313-.241,4.585-.465a.575.575,0,0,1,.112,1.145q-2.268.223-4.578.465Zm66.483-.044a.568.568,0,0,1-.137-.017c-1.411-.345-2.914-.658-4.468-.93a.575.575,0,0,1,.2-1.133c1.579.276,3.108.595,4.543.946a.575.575,0,0,1-.136,1.133ZM873.549,871a.575.575,0,0,1-.05-1.148q2.321-.207,4.593-.391a.575.575,0,0,1,.093,1.146q-2.266.183-4.583.39Zm45.969-.781a.605.605,0,0,1-.064,0c-1.456-.161-2.991-.3-4.562-.408a.575.575,0,0,1,.08-1.147c1.587.111,3.137.25,4.607.412a.575.575,0,0,1-.062,1.147Zm-35.639-.038a.575.575,0,0,1-.038-1.149q2.331-.159,4.6-.286a.575.575,0,1,1,.064,1.148q-2.265.127-4.589.285Zm10.346-.557a.575.575,0,0,1-.021-1.15c1.565-.059,3.117-.105,4.612-.136a.575.575,0,0,1,.024,1.15c-1.489.031-3.034.077-4.593.135Zm14.961-.1h-.018c-1.472-.046-3.016-.073-4.589-.081a.575.575,0,0,1,0-1.15h0c1.582.008,3.136.036,4.618.082a.575.575,0,0,1-.017,1.15Zm-317.957-.3a.572.572,0,0,1-.23-.048c-1.431-.626-2.845-1.276-4.2-1.931a.575.575,0,1,1,.5-1.036c1.344.649,2.745,1.292,4.164,1.913a.575.575,0,0,1-.231,1.1Zm-9.3-4.553a.572.572,0,0,1-.276-.071c-1.369-.751-2.717-1.531-4.007-2.321a.575.575,0,0,1,.6-.981c1.275.779,2.607,1.551,3.96,2.293a.575.575,0,0,1-.277,1.079Zm-8.79-5.463a.573.573,0,0,1-.331-.105c-1.278-.9-2.525-1.838-3.708-2.783a.575.575,0,1,1,.717-.9c1.166.93,2.395,1.853,3.654,2.742a.575.575,0,0,1-.332,1.045Zm-8.027-6.526a.574.574,0,0,1-.394-.156c-1.137-1.07-2.235-2.18-3.266-3.3a.575.575,0,0,1,.846-.779c1.012,1.1,2.091,2.19,3.208,3.241a.575.575,0,0,1-.394.994Zm-6.7-7.855a.575.575,0,0,1-.489-.272,46.583,46.583,0,0,1-2.246-4.085.575.575,0,0,1,1.033-.505c.7,1.43,1.437,2.771,2.19,3.984a.575.575,0,0,1-.488.878Zm-4.491-9.322a.576.576,0,0,1-.538-.373c-.541-1.439-1.041-2.92-1.485-4.4a.575.575,0,1,1,1.1-.331c.437,1.456.928,2.912,1.46,4.327a.575.575,0,0,1-.538.778Zm-2.882-9.946a.575.575,0,0,1-.563-.461c-.325-1.6-.568-3.153-.721-4.6a.575.575,0,0,1,1.144-.121c.149,1.414.386,2.927.7,4.5a.574.574,0,0,1-.564.689Zm-.806-10.295-.047,0a.575.575,0,0,1-.527-.619,34.221,34.221,0,0,1,.7-4.626.575.575,0,0,1,1.123.249,33.043,33.043,0,0,0-.681,4.47A.575.575,0,0,1,550.234,815.27Zm2.349-10.054a.576.576,0,0,1-.537-.78,44.881,44.881,0,0,1,1.885-4.265.575.575,0,0,1,1.027.518,43.767,43.767,0,0,0-1.836,4.155A.576.576,0,0,1,552.584,805.217Zm4.771-9.172a.575.575,0,0,1-.476-.9,44.864,44.864,0,0,1,2.8-3.725.575.575,0,0,1,.881.739,43.658,43.658,0,0,0-2.731,3.629A.575.575,0,0,1,557.354,796.045Zm6.769-7.806a.575.575,0,0,1-.381-1.006c.459-.406.929-.8,1.394-1.17.74-.587,1.5-1.164,2.267-1.712a.575.575,0,1,1,.671.934c-.749.539-1.5,1.1-2.223,1.679-.45.357-.9.737-1.347,1.131A.572.572,0,0,1,564.123,788.238Zm109.56-1.573h-.316a.575.575,0,0,1,0-1.15h.314c1.442,0,2.872-.043,4.25-.128a.575.575,0,1,1,.071,1.148C676.6,786.622,675.148,786.665,673.683,786.665Zm-6.062-.232-.043,0c-1.494-.111-3.044-.264-4.607-.455a.575.575,0,1,1,.139-1.142c1.545.189,3.077.34,4.553.45a.575.575,0,0,1-.042,1.148Zm16.065-.515a.575.575,0,0,1-.089-1.143c1.518-.24,3.02-.543,4.462-.9a.575.575,0,1,1,.277,1.116c-1.474.366-3.008.675-4.56.92A.59.59,0,0,1,683.686,785.918Zm-26.337-.78a.551.551,0,0,1-.1-.008c-1.471-.254-3-.544-4.542-.863a.575.575,0,0,1,.232-1.126c1.531.316,3.047.6,4.505.856a.575.575,0,0,1-.1,1.142Zm36.339-1.84a.575.575,0,0,1-.2-1.113,44.592,44.592,0,0,0,4.16-1.825.575.575,0,1,1,.516,1.028,45.78,45.78,0,0,1-4.267,1.872A.579.579,0,0,1,693.688,783.3Zm-46.478-.28a.574.574,0,0,1-.135-.016c-1.43-.345-2.937-.725-4.479-1.13a.575.575,0,1,1,.293-1.112c1.535.4,3.034.782,4.456,1.125a.575.575,0,0,1-.134,1.134Zm-74.638-.743a.575.575,0,0,1-.288-1.073c1.335-.769,2.719-1.5,4.115-2.158a.575.575,0,1,1,.493,1.039c-1.368.65-2.725,1.361-4.033,2.115A.572.572,0,0,1,572.572,782.275Zm64.619-1.9a.582.582,0,0,1-.157-.022q-2.244-.635-4.429-1.275a.575.575,0,1,1,.322-1.1q2.178.636,4.42,1.272a.575.575,0,0,1-.156,1.129Zm-55.237-2.443a.575.575,0,0,1-.195-1.116c1.445-.52,2.934-.994,4.427-1.407a.575.575,0,0,1,.307,1.108c-1.465.406-2.926.87-4.344,1.381A.578.578,0,0,1,581.954,777.93Zm45.29-.452a.576.576,0,0,1-.159-.022c-1.468-.421-2.957-.807-4.427-1.147a.575.575,0,0,1,.26-1.12c1.489.345,3,.736,4.484,1.162a.575.575,0,0,1-.158,1.128Zm-35.3-2.222a.575.575,0,0,1-.1-1.141c1.5-.273,3.048-.5,4.593-.671a.575.575,0,0,1,.127,1.143c-1.52.169-3.039.391-4.515.66A.583.583,0,0,1,591.946,775.255Zm25.2-.045a.538.538,0,0,1-.093-.008c-1.509-.245-3.034-.45-4.531-.608a.575.575,0,0,1,.121-1.144c1.518.161,3.064.369,4.594.617a.575.575,0,0,1-.091,1.143Zm-10.3-1.012h-.019q-2.305-.075-4.568-.008a.575.575,0,0,1-.034-1.15q2.3-.068,4.639.008a.575.575,0,0,1-.018,1.15Z" transform="translate(-549.658 -773.008)" fill="url(#linear-gradient)"/>
      <path id="Caminho_8567" data-name="Caminho 8567" d="M2172.211,1271.886h-.042a.575.575,0,0,1-.532-.615c.055-.765.088-1.525.1-2.261a.575.575,0,0,1,.575-.569h.006a.575.575,0,0,1,.569.581c-.008.759-.041,1.544-.1,2.332A.575.575,0,0,1,2172.211,1271.886Z" transform="translate(-1769.81 -1145.702)" fill="url(#linear-gradient-21)"/>
    </g>
    <g id="Grupo_4510" data-name="Grupo 4510" transform="translate(234.003 343.376)">
      <path id="Caminho_8568" data-name="Caminho 8568" d="M622.474,1456.446s-1.156,1.632-1.664,6.341a.771.771,0,0,0,.723.854l8.369.424a.494.494,0,0,0,.5-.625,13.411,13.411,0,0,0-4.926-7.28Z" transform="translate(-611.978 -1322.941)" fill="url(#linear-gradient-22)"/>
      <path id="Caminho_8569" data-name="Caminho 8569" d="M622.961,1444.323l.916,3.9a.748.748,0,0,0,.722.58,6.612,6.612,0,0,0,1.759-.215,1.227,1.227,0,0,0,.869-1.323l-.43-3.812Z" transform="translate(-613.6 -1313.378)" fill="url(#linear-gradient-23)"/>
      <path id="Caminho_8570" data-name="Caminho 8570" d="M699.292,1458.483a11.7,11.7,0,0,0-1.775,5.856,1.48,1.48,0,0,0,1.437,1.5l13.006.454a.623.623,0,0,0,.4-1.12c-2.4-1.814-7.125-5.211-10.58-6.6Z" transform="translate(-669.686 -1324.689)" fill="url(#linear-gradient-24)"/>
      <path id="Caminho_8571" data-name="Caminho 8571" d="M703.374,1437.156l.333,5a1.012,1.012,0,0,0,1.078.952,3.659,3.659,0,0,0,1.2-.318,1.161,1.161,0,0,0,.675-1.1l-.226-6.033Z" transform="translate(-674.092 -1307.514)" fill="url(#linear-gradient-25)"/>
      <path id="Caminho_8572" data-name="Caminho 8572" d="M588.566,1175.518s-3.146,3.473-3.385,7.252,9.069,63.708,9.069,63.708,3.558.187,5.235-1.107c0,0-2.271-39.319-1.666-48.532,0,0,13.076,39.52,16.259,46.568,0,0,3.411.03,4.423-.732,0,0-8.146-52.222-12-61.235Z" transform="translate(-585.177 -1111.825)" fill="#1250b3"/>
      <g id="Grupo_4508" data-name="Grupo 4508" transform="translate(6.362 75.727)">
        <path id="Caminho_8573" data-name="Caminho 8573" d="M616.851,1232.175a.431.431,0,0,1-.4-.276l-2.065-5.367-3.286-1.62a.431.431,0,0,1,.381-.774l3.437,1.695a.434.434,0,0,1,.212.232l2.125,5.524a.431.431,0,0,1-.4.586Z" transform="translate(-610.857 -1224.095)" fill="#0b429a"/>
      </g>
      <path id="Caminho_8574" data-name="Caminho 8574" d="M666.459,1011.772c-14.841.437-18.34,3.913-18.34,3.913l8.324,10.358s14.415-1.914,23.867-11.06a25.438,25.438,0,0,1-4.844-5.72A19.592,19.592,0,0,1,666.459,1011.772Z" transform="translate(-632.526 -986.758)" fill="#00c3ff"/>
      <path id="Caminho_8575" data-name="Caminho 8575" d="M770.091,920.631a.453.453,0,0,0-.878-.075l-1.425,4.215a4.2,4.2,0,0,0-.053,2.519l.921,2.256a4.046,4.046,0,0,1-.459,3.294,28.164,28.164,0,0,1-9.69,9.461,25.435,25.435,0,0,0,4.844,5.72,25.521,25.521,0,0,0,7.444-13.25,1.98,1.98,0,0,0,1.168-2.112Z" transform="translate(-715.566 -919.795)" fill="url(#linear-gradient-26)"/>
      <path id="Caminho_8576" data-name="Caminho 8576" d="M631.124,1022.629c-5.8-4.994-15.948-6.4-21.773-6.794a5.269,5.269,0,0,0-5.478,3.98c-1.79,7.195-6.751,25.947-7.757,29.188-.825,2.658-1.706,5.263-2.269,6.893a1.869,1.869,0,0,0,1.145,2.377c5.063,1.773,14,3.418,17.619,4.045a1.209,1.209,0,0,0,1.408-1.33,3.782,3.782,0,0,1,.317-1.993l10.775-23.606c9.3,8.237,16.641,8.259,21.978,5.625a42.112,42.112,0,0,1-2.821-8.482C635.891,1032.049,631.124,1022.629,631.124,1022.629Z" transform="translate(-591.622 -991.693)" fill="#00c3ff"/>
      <path id="Caminho_8577" data-name="Caminho 8577" d="M815.581,1048.4l-2.975-.989c-4.43,3.839-11.568,9.073-14.917,8.881a42.116,42.116,0,0,0,2.821,8.482C807.541,1061.307,815.581,1048.4,815.581,1048.4Z" transform="translate(-745.042 -1015.458)" fill="url(#linear-gradient-27)"/>
      <path id="Caminho_8578" data-name="Caminho 8578" d="M870.977,1039.645a34.017,34.017,0,0,0-5.017-.3s-5.337-1.311-6.786-1.535c-1.2-.186-1.3,1.571-1.293,2.172,0,.123.005.2.005.2l.424,1.056,5.406.692a7.079,7.079,0,0,0,3.046-.277l4.254-1.355a.337.337,0,0,0-.039-.652Z" transform="translate(-790.322 -1008.224)" fill="url(#linear-gradient-28)"/>
      <path id="Caminho_8579" data-name="Caminho 8579" d="M674.068,970.952l-3.2,11.256s5.461,2.935,9.5,2.142l1.11-9.923Z" transform="translate(-649.642 -957.938)" fill="url(#linear-gradient-29)"/>
      <g id="man_head2">
        <path id="Caminho_8580" data-name="Caminho 8580" d="M688.018,936.451c.117.132,4.464,10.942,4.464,10.942l-6.225,2.351-5.642-9.634S686.058,934.246,688.018,936.451Z" transform="translate(-656.971 -931.611)" fill="url(#linear-gradient-30)"/>
        <path id="Caminho_8581" data-name="Caminho 8581" d="M672.9,928.187l2.573,5.3a.817.817,0,0,0,.124.186c.307.346,1.451,1.46,2.519.22a7.41,7.41,0,0,1,2.778-2.4.823.823,0,0,1,1,.482,35.575,35.575,0,0,1,1.685,5.262.822.822,0,0,1-.565.955,26.546,26.546,0,0,1-6.064,1.2.824.824,0,0,1-.743-.4c-.761-1.266-3.088-5.1-3.9-6.072-.764-.91-2.362-.7-3.027-.566a.809.809,0,0,1-.625-.129,2.134,2.134,0,0,1-.517-3.388.825.825,0,0,0-.152-1.178,2.138,2.138,0,0,1-.628-3.127,3.016,3.016,0,0,1,3.482-1.26.824.824,0,0,0,.944-.475.652.652,0,0,1,.633-.388.811.811,0,0,0,.767-.923,2.459,2.459,0,0,1,1.6-2.762c2.7-1.187,4.752,1.321,5.153,3.319s-2.6,3.119-4.433,3.188c-1.393.052-2.264,1.536-2.6,2.245A.817.817,0,0,0,672.9,928.187Z" transform="translate(-646.666 -918.42)" fill="#002740"/>
        <path id="Caminho_8582" data-name="Caminho 8582" d="M679.74,974.21s-.847-3.453-2.324-3.46-2.761,1.35-1.09,3.154C678.4,976.146,679.74,974.21,679.74,974.21Z" transform="translate(-653.152 -957.786)" fill="url(#linear-gradient-31)"/>
      </g>
    </g>
    <g id="Grupo_4511" data-name="Grupo 4511" transform="translate(447.451 345.509)">
      <path id="Caminho_8583" data-name="Caminho 8583" d="M1559.33,950.224s-14.336,18.355,2.021,37.023l6.149-.573s-11.837-19.007-6.565-34.158l8.711-1.019,4.816-4.8Z" transform="translate(-1527.071 -941.825)" fill="url(#linear-gradient-32)"/>
      <path id="Caminho_8584" data-name="Caminho 8584" d="M1608.674,1303.969s11.615,25.316,17.709,35.8c0,0,1.21,6.6,0,8.673l-1.031.458,4.814-.143s.427-8.875.094-9.37a1.226,1.226,0,0,0-1-.463s-2.064-16.354-8.043-19.844l-5.794-19.954Z" transform="translate(-1568.564 -1206.943)" fill="url(#linear-gradient-33)"/>
      <path id="Caminho_8585" data-name="Caminho 8585" d="M1667.695,1470.85c-.007.116,3.759.063,5.805.026a1.628,1.628,0,0,0,1.561-1.283l1.545-8.117a1.459,1.459,0,0,0-1.109-1.7l-.862-.2a4.62,4.62,0,0,0-.843,3.277c.387,1.589.732,5.7-.247,6.185a14.284,14.284,0,0,1-3.794.563S1667.759,1469.8,1667.695,1470.85Z" transform="translate(-1612.963 -1327.649)" fill="#00223f"/>
      <path id="Caminho_8586" data-name="Caminho 8586" d="M1563.581,1492.81a.425.425,0,0,0,.214.794c3.424-.034,11.1-.143,11.777-.426.88-.366-.321-3.529-1.584-4.6l-6.979,2.278Z" transform="translate(-1534.48 -1349.462)" fill="#00223f"/>
      <path id="Caminho_8587" data-name="Caminho 8587" d="M1555.491,1312.159s7.506,36.311,9.63,43.395l-5.023,3.152s2.517-.428,4.384-.563,3.583-2.278,3.583-2.278l-.6-.96s-1.882-36.114-1.424-40.214Z" transform="translate(-1528.556 -1216.748)" fill="url(#linear-gradient-33)"/>
      <path id="Caminho_8588" data-name="Caminho 8588" d="M1455.069,937.744l2.447-2.02.681-1.058a.395.395,0,0,0-.4-.6c-1.693.283-4.268.832-4.776-.3l-2.3-3.3c-.52-1.163-.716-2.466-1.818-3.106l-.346-.2a.9.9,0,0,0-1.329.562l-.436,1.741c-.469,1.873,5.319,10.433,5.3,11.17-.576,25.685,14.994,35.1,14.994,35.1l4.14-9.443C1454.034,956.633,1455.069,937.744,1455.069,937.744Z" transform="translate(-1446.767 -927.029)" fill="url(#linear-gradient-35)"/>
      <path id="Caminho_8589" data-name="Caminho 8589" d="M1530.5,1079.671c2.877.8,12.624,3.362,18.709,3.257l-3.736,21.083.3,3.439-12.181-.055s-3.429-7.964-6.134-11.934c-.781-1.147-.2-2.514.243-3.83l-.608-.405a1.656,1.656,0,0,1-.656-1.894l2.966-9.075A.906.906,0,0,1,1530.5,1079.671Z" transform="translate(-1506.637 -1041.831)" fill="#bdd0fb"/>
      <path id="Caminho_8590" data-name="Caminho 8590" d="M1548.947,1183.136l.24,2.083s-3.443,10.309,1.721,34.387c0,0,11.183,3.168,20.374-4.413,0,0-2.593-22.726-3.3-23.784-3.528-5.273-5.877-6.419-5.877-6.419l-.106-2.276S1552.167,1184.492,1548.947,1183.136Z" transform="translate(-1522.968 -1119.371)" fill="#f03e30"/>
      <path id="Caminho_8591" data-name="Caminho 8591" d="M1570.879,1062.925c-.043-.056,2.543-7.807,2.543-7.807l3.7.336,1.447,8.792S1572.768,1065.418,1570.879,1062.925Z" transform="translate(-1540.131 -1023.386)" fill="url(#linear-gradient-33)"/>
      <g id="woman_head">
        <path id="Caminho_8592" data-name="Caminho 8592" d="M1572.782,1004.633c-.247.154-7.915,3.323-6.267,11.283a1.494,1.494,0,0,0,.85,1.065,12.991,12.991,0,0,0,6.445,1.067c4.017-.409,6.649-7.418,6.537-9.458S1575.23,1003.109,1572.782,1004.633Z" transform="translate(-1536.674 -985.123)" fill="url(#linear-gradient-37)"/>
        <path id="Caminho_8593" data-name="Caminho 8593" d="M1578.661,992.728c-.2.027-4.431,1.5-2.334,4.564s2.884,4.869,1.892,6.215c-.9,1.226-2.906.527-2.731,3.078a1.431,1.431,0,0,1-.61,1.293c-1.887,1.277-6.49,5.208-1.929,10.814a1.427,1.427,0,0,1,.161,1.6c-1.336,2.4-4.141,9.414,6.016,13.308,10.038,3.847,13.662-2.714,14.674-5.337a1.4,1.4,0,0,1,1.385-.886c1.1.052,2.666-.131,2.594-1.605a3.684,3.684,0,0,0-1.262-2.341,1.4,1.4,0,0,1,.269-2.2,2.74,2.74,0,0,0,1.353-1.7c.608-2.254-.606-8.994-7.066-10.136a1.525,1.525,0,0,1-1.182-1.142l0-.024a1.4,1.4,0,0,1,.518-1.373,3.625,3.625,0,0,0,1.28-4.723,5.293,5.293,0,0,0-4.138-3.131,1.407,1.407,0,0,1-1.153-1.682C1586.852,995.159,1586.453,991.707,1578.661,992.728Z" transform="translate(-1540.219 -976.313)" fill="#002740"/>
      </g>
    </g>
    <g id="Grupo_4512" data-name="Grupo 4512" transform="translate(447.348 200.497)">
      <path id="Caminho_8594" data-name="Caminho 8594" d="M1446.349,345.393V362.06a3.708,3.708,0,0,0,3.534,3.7l20.843.979a3.708,3.708,0,0,0,3.882-3.7V345.393a3.708,3.708,0,0,0-3.708-3.708h-20.843A3.708,3.708,0,0,0,1446.349,345.393Z" transform="translate(-1446.349 -341.685)" fill="#00c3ff"/>
      <path id="Caminho_8595" data-name="Caminho 8595" d="M1465.109,371.349c-.269,0-.5,0-.677-.007a.619.619,0,0,1-.151-1.216h0a30.31,30.31,0,0,0,4.63-1.828c-6.129-.5-7.353-3.647-7.589-5.087-.6-3.631,2.555-7.74,7.025-9.159,4.562-1.447,9.182-.926,11.774,1.329,1.377,1.2,2.87,3.493,2.166,7.623C1480.971,370.73,1468.922,371.349,1465.109,371.349Zm-.527-.153h0Zm-.127-.967h0Zm8.855-3.021-1.942,1.083a42.655,42.655,0,0,1-3.89,1.874c4.732-.285,12.737-1.622,13.713-7.349.5-2.907-.11-5.126-1.8-6.6-2.621-2.282-7.266-2.2-10.708-1.108-3.9,1.238-6.766,4.864-6.264,7.919.456,2.773,3.614,4.325,8.668,4.219Z" transform="translate(-1457.559 -350.379)" fill="url(#linear-gradient)"/>
    </g>
    <g id="Grupo_4522" data-name="Grupo 4522" transform="translate(476.593 154)">
      <path id="Caminho_8596" data-name="Caminho 8596" d="M1564.853,157.132l-.454,28.089a3.184,3.184,0,0,0,3.183,3.235h32.34a3.184,3.184,0,0,0,3.184-3.184V157.184a3.184,3.184,0,0,0-3.184-3.184h-31.886A3.184,3.184,0,0,0,1564.853,157.132Z" transform="translate(-1564.399 -154)" fill="#00c3ff"/>
      <g id="Grupo_4521" data-name="Grupo 4521" transform="translate(4.887 3.038)">
        <path id="Caminho_8597" data-name="Caminho 8597" d="M1598.718,193.349q-.348,0-.7-.015c-7.98-.352-14.207-6.706-13.881-14.164a13.015,13.015,0,0,1,4.683-9.4,14.935,14.935,0,0,1,10.381-3.488c7.98.352,14.208,6.706,13.882,14.164h0a13.019,13.019,0,0,1-4.684,9.4A14.869,14.869,0,0,1,1598.718,193.349Zm-.212-25.176a12.967,12.967,0,0,0-8.447,3.048,11.129,11.129,0,0,0-4.013,8.031c-.28,6.407,5.129,11.869,12.058,12.174a13.033,13.033,0,0,0,9.06-3.035,11.128,11.128,0,0,0,4.014-8.032c.28-6.407-5.129-11.868-12.058-12.174Q1598.812,168.173,1598.506,168.173Z" transform="translate(-1584.127 -166.264)" fill="url(#linear-gradient)"/>
        <g id="Grupo_4520" data-name="Grupo 4520" transform="translate(1.855 0.96)">
          <g id="Grupo_4513" data-name="Grupo 4513" transform="translate(8.839 0.068)">
            <path id="Caminho_8598" data-name="Caminho 8598" d="M1635.519,183.97a38.152,38.152,0,0,1-.545,6.632c-.1.547-.213,1.091-.349,1.63a15.773,15.773,0,0,1-.487,1.594,7.587,7.587,0,0,1-.728,1.5,3.01,3.01,0,0,1-.546.639,1.565,1.565,0,0,1-.358.231,1.07,1.07,0,0,1-.417.1,1.049,1.049,0,0,1-.422-.078,1.462,1.462,0,0,1-.366-.219,2.839,2.839,0,0,1-.558-.629,7.334,7.334,0,0,1-.738-1.5,15.347,15.347,0,0,1-.493-1.593c-.138-.539-.253-1.082-.353-1.629-.2-1.093-.334-2.2-.425-3.3s-.136-2.217-.142-3.328c0-.555.012-1.11.032-1.665s.051-1.109.092-1.663c.082-1.107.2-2.212.386-3.308.091-.548.2-1.093.325-1.634a15.716,15.716,0,0,1,.462-1.6c.093-.262.194-.521.31-.774a5.709,5.709,0,0,1,.4-.735,2.728,2.728,0,0,1,.546-.633,1.386,1.386,0,0,1,.361-.217,1.012,1.012,0,0,1,.415-.074,1.094,1.094,0,0,1,.41.1,1.6,1.6,0,0,1,.356.223,3.044,3.044,0,0,1,.557.623,7.493,7.493,0,0,1,.765,1.48,15.212,15.212,0,0,1,.524,1.581c.147.536.272,1.077.38,1.622A34.924,34.924,0,0,1,1635.519,183.97Zm-.164,0c0-1.106-.04-2.213-.131-3.315a31.916,31.916,0,0,0-.431-3.288c-.1-.543-.22-1.084-.361-1.618a15.087,15.087,0,0,0-.5-1.577,7.435,7.435,0,0,0-.741-1.474,2.967,2.967,0,0,0-.539-.616,1.542,1.542,0,0,0-.342-.22,1.014,1.014,0,0,0-.39-.1.96.96,0,0,0-.394.074,1.339,1.339,0,0,0-.344.213,2.676,2.676,0,0,0-.526.625,5.637,5.637,0,0,0-.384.73c-.112.252-.209.51-.3.771a15.661,15.661,0,0,0-.441,1.6c-.121.539-.222,1.083-.306,1.63-.169,1.093-.279,2.195-.348,3.3s-.094,2.211-.092,3.317.034,2.212.116,3.315.209,2.2.4,3.292c.095.545.205,1.086.338,1.622a15.192,15.192,0,0,0,.477,1.584,7.223,7.223,0,0,0,.715,1.482,2.758,2.758,0,0,0,.534.612,1.377,1.377,0,0,0,.341.208.936.936,0,0,0,.387.074.976.976,0,0,0,.382-.094,1.465,1.465,0,0,0,.335-.22,2.9,2.9,0,0,0,.523-.623,7.475,7.475,0,0,0,.7-1.487,15.658,15.658,0,0,0,.471-1.586c.131-.536.241-1.078.335-1.623.188-1.09.313-2.19.4-3.292S1635.356,185.076,1635.355,183.97Z" transform="translate(-1628.27 -171.395)" fill="url(#linear-gradient)"/>
            <path id="Caminho_8599" data-name="Caminho 8599" d="M1631.079,195.641a1.374,1.374,0,0,1-.51-.1,1.755,1.755,0,0,1-.446-.265,3.114,3.114,0,0,1-.623-.7,7.58,7.58,0,0,1-.773-1.565,15.7,15.7,0,0,1-.5-1.627c-.133-.519-.25-1.06-.358-1.651-.19-1.048-.33-2.139-.429-3.335-.089-1.087-.137-2.215-.143-3.353,0-.595.015-1.182.032-1.678.021-.564.052-1.128.093-1.675.089-1.2.216-2.294.389-3.337.1-.594.207-1.136.329-1.656a15.987,15.987,0,0,1,.472-1.634c.1-.3.21-.559.321-.8a5.959,5.959,0,0,1,.42-.776,3,3,0,0,1,.613-.708,1.7,1.7,0,0,1,.446-.267,1.347,1.347,0,0,1,.545-.1,1.408,1.408,0,0,1,.528.124,1.9,1.9,0,0,1,.429.268,3.326,3.326,0,0,1,.619.688,7.754,7.754,0,0,1,.8,1.545,15.439,15.439,0,0,1,.536,1.616c.144.521.27,1.059.386,1.645a34.986,34.986,0,0,1,.615,6.687h0a38.234,38.234,0,0,1-.55,6.689c-.107.591-.223,1.131-.354,1.652a15.968,15.968,0,0,1-.5,1.628,7.816,7.816,0,0,1-.76,1.568,3.263,3.263,0,0,1-.607.709,1.884,1.884,0,0,1-.432.279,1.382,1.382,0,0,1-.545.127Zm-.168-24.532a.644.644,0,0,0-.244.05,1.022,1.022,0,0,0-.262.163,2.317,2.317,0,0,0-.46.55,5.267,5.267,0,0,0-.361.687c-.1.224-.194.467-.289.745a15.21,15.21,0,0,0-.432,1.562c-.114.505-.212,1.031-.3,1.608-.158,1.023-.271,2.092-.345,3.269-.064,1.006-.094,2.084-.092,3.3,0,1.119.036,2.225.115,3.292.088,1.17.216,2.237.394,3.261.1.572.209,1.1.334,1.6a14.961,14.961,0,0,0,.466,1.551,6.856,6.856,0,0,0,.682,1.415,2.394,2.394,0,0,0,.468.54,1.052,1.052,0,0,0,.259.159.685.685,0,0,0,.255.051.656.656,0,0,0,.258-.065,1.149,1.149,0,0,0,.26-.172,2.546,2.546,0,0,0,.463-.554,7.09,7.09,0,0,0,.672-1.421,15.373,15.373,0,0,0,.461-1.553c.123-.5.231-1.025.33-1.6.175-1.014.3-2.081.392-3.261.081-1.064.122-2.171.122-3.291h0c0-1.116-.042-2.222-.13-3.287a31.493,31.493,0,0,0-.426-3.255c-.106-.567-.223-1.089-.356-1.595a14.73,14.73,0,0,0-.492-1.543,7.051,7.051,0,0,0-.707-1.409,2.641,2.641,0,0,0-.479-.549,1.241,1.241,0,0,0-.27-.174.687.687,0,0,0-.265-.066Z" transform="translate(-1627.292 -170.413)" fill="url(#linear-gradient)"/>
          </g>
          <g id="Grupo_4514" data-name="Grupo 4514" transform="translate(2.547)">
            <path id="Caminho_8600" data-name="Caminho 8600" d="M1621.992,183.764a16.237,16.237,0,0,1-.572,4.238,13.663,13.663,0,0,1-1.766,3.886,11.193,11.193,0,0,1-1.349,1.658,9.449,9.449,0,0,1-1.661,1.342,7.987,7.987,0,0,1-1.937.889,7.219,7.219,0,0,1-4.213,0,7.977,7.977,0,0,1-1.939-.888,9.471,9.471,0,0,1-1.663-1.341,11.205,11.205,0,0,1-1.352-1.658,13.692,13.692,0,0,1-1.771-3.888,15.457,15.457,0,0,1-.429-2.1,15.881,15.881,0,0,1,0-4.28,15.41,15.41,0,0,1,.43-2.1,13.693,13.693,0,0,1,1.773-3.885,11.169,11.169,0,0,1,1.352-1.656,9.446,9.446,0,0,1,1.662-1.339,8.037,8.037,0,0,1,1.938-.885,7.172,7.172,0,0,1,4.207,0,8.017,8.017,0,0,1,1.936.886,9.444,9.444,0,0,1,1.66,1.34,11.208,11.208,0,0,1,1.349,1.656,13.678,13.678,0,0,1,1.768,3.884A16.229,16.229,0,0,1,1621.992,183.764Zm-.188,0a16.049,16.049,0,0,0-.549-4.192,13.609,13.609,0,0,0-1.71-3.86,11.076,11.076,0,0,0-1.319-1.654,9.207,9.207,0,0,0-1.631-1.342,7.858,7.858,0,0,0-1.913-.888,6.993,6.993,0,0,0-4.165,0,7.862,7.862,0,0,0-1.912.889,9.2,9.2,0,0,0-1.629,1.343,11.042,11.042,0,0,0-1.316,1.654,13.572,13.572,0,0,0-1.706,3.858,15.543,15.543,0,0,0-.41,2.076,16.223,16.223,0,0,0,0,4.225,15.617,15.617,0,0,0,.411,2.076,13.585,13.585,0,0,0,1.708,3.856,11.065,11.065,0,0,0,1.316,1.652,9.181,9.181,0,0,0,1.628,1.341,7.9,7.9,0,0,0,1.91.886,6.94,6.94,0,0,0,4.158,0,7.892,7.892,0,0,0,1.911-.884,9.214,9.214,0,0,0,1.631-1.34,11.067,11.067,0,0,0,1.318-1.652,13.6,13.6,0,0,0,1.713-3.857A16.059,16.059,0,0,0,1621.8,183.764Z" transform="translate(-1602.874 -171.121)" fill="url(#linear-gradient)"/>
            <path id="Caminho_8601" data-name="Caminho 8601" d="M1611.622,195.435a7.605,7.605,0,0,1-2.2-.327,8.288,8.288,0,0,1-2.017-.924,9.8,9.8,0,0,1-1.72-1.387,11.558,11.558,0,0,1-1.391-1.706,13.969,13.969,0,0,1-1.813-3.98,15.807,15.807,0,0,1-.438-2.147,16.192,16.192,0,0,1,0-4.366,15.823,15.823,0,0,1,.439-2.145,13.972,13.972,0,0,1,1.816-3.978,11.528,11.528,0,0,1,1.391-1.7,9.783,9.783,0,0,1,1.719-1.384,8.34,8.34,0,0,1,2.016-.92,7.5,7.5,0,0,1,4.393,0,8.34,8.34,0,0,1,2.013.921,9.773,9.773,0,0,1,1.718,1.386,11.51,11.51,0,0,1,1.388,1.7,13.938,13.938,0,0,1,1.811,3.976,16.564,16.564,0,0,1,.587,4.324v0a16.545,16.545,0,0,1-.584,4.323,13.956,13.956,0,0,1-1.809,3.98,11.523,11.523,0,0,1-1.388,1.706,9.816,9.816,0,0,1-1.718,1.388,8.3,8.3,0,0,1-2.016.925A7.621,7.621,0,0,1,1611.622,195.435Zm0-24.581a6.883,6.883,0,0,0-1.987.3,7.553,7.553,0,0,0-1.833.853,8.907,8.907,0,0,0-1.571,1.3,10.769,10.769,0,0,0-1.277,1.606,13.237,13.237,0,0,0-1.664,3.766,15.274,15.274,0,0,0-.4,2.033,15.881,15.881,0,0,0,0,4.141,15.365,15.365,0,0,0,.4,2.032,13.241,13.241,0,0,0,1.667,3.763,10.688,10.688,0,0,0,1.277,1.6,8.873,8.873,0,0,0,1.57,1.294,7.561,7.561,0,0,0,1.831.849,6.621,6.621,0,0,0,3.97,0,7.578,7.578,0,0,0,1.834-.849,8.869,8.869,0,0,0,1.572-1.293,10.781,10.781,0,0,0,1.28-1.6,13.274,13.274,0,0,0,1.671-3.765,15.921,15.921,0,0,0,0-8.213,13.259,13.259,0,0,0-1.668-3.767,10.778,10.778,0,0,0-1.28-1.605,8.907,8.907,0,0,0-1.573-1.3,7.543,7.543,0,0,0-1.833-.851A6.886,6.886,0,0,0,1611.621,170.854Z" transform="translate(-1601.895 -170.139)" fill="url(#linear-gradient)"/>
          </g>
          <g id="Grupo_4515" data-name="Grupo 4515" transform="translate(0.98 7.394)">
            <path id="Caminho_8602" data-name="Caminho 8602" d="M1596.882,201.339l2.82-.023,2.821-.013,5.641-.01,5.641.011,2.82.014,2.821.025a.008.008,0,0,1,.008.008s0,.008-.008.008l-2.821.025-2.82.014-5.641.011-5.641-.01-2.821-.013-2.82-.023a.019.019,0,0,1-.012-.006C1596.87,201.345,1596.875,201.339,1596.882,201.339Z" transform="translate(-1596.548 -200.969)" fill="url(#linear-gradient-44)"/>
            <path id="Caminho_8603" data-name="Caminho 8603" d="M1607.187,200.751l-8.464-.023-2.956-.024-.2-.2v-.145l.007-.316.324-.012,5.642-.036,5.642-.01,8.464.026,3.141.028.008.652-.33.008-5.639.039Z" transform="translate(-1595.57 -199.986)" fill="url(#linear-gradient)"/>
          </g>
          <g id="Grupo_4516" data-name="Grupo 4516" transform="translate(4.252 2.652)">
            <path id="Caminho_8604" data-name="Caminho 8604" d="M1610.09,182.2c.668-.011,1.335-.015,2-.023l2-.013c.667-.005,1.335,0,2-.007l2,0,4.005.012,2,.014c.668.008,1.335.013,2,.025a.014.014,0,0,1,.008,0c0,.009,0,.013-.008.013-.668.012-1.335.016-2,.025l-2,.014-4.005.012-2,0c-.668,0-1.335,0-2-.007l-2-.013c-.667-.008-1.335-.012-2-.023a.013.013,0,0,1-.012-.013A.012.012,0,0,1,1610.09,182.2Z" transform="translate(-1609.756 -181.826)" fill="url(#linear-gradient-44)"/>
            <path id="Caminho_8605" data-name="Caminho 8605" d="M1617.122,181.609l-2.523,0c-.5,0-.99,0-1.486-.006l-2.67-.02c-.446,0-.891-.008-1.337-.016l-.317-.005-.012-.655.329-.012c.431-.007.863-.011,1.294-.016l2.714-.02c.47,0,.94,0,1.411-.005l2.6-.005,6.739.034c.425,0,.851.009,1.276.016l.328.006-.015.65-.319.008c-.44.008-.886.012-1.332.017l-2.671.022Z" transform="translate(-1608.777 -180.844)" fill="url(#linear-gradient-47)"/>
          </g>
          <g id="Grupo_4517" data-name="Grupo 4517" transform="translate(0 12.137)">
            <path id="Caminho_8606" data-name="Caminho 8606" d="M1592.926,220.481l3.066-.023,3.065-.013,6.131-.01,6.131.011,3.065.014,3.066.025a.008.008,0,0,1,.008.008s0,.008-.008.008l-3.066.025-3.065.014-6.131.012-6.131-.01-3.065-.013-3.066-.023a.012.012,0,0,1-.012-.012A.012.012,0,0,1,1592.926,220.481Z" transform="translate(-1592.592 -220.112)" fill="url(#linear-gradient-48)"/>
            <path id="Caminho_8607" data-name="Caminho 8607" d="M1604.21,219.894l-9.2-.023-3.386-.025-.012-.657.332-.012,6.132-.036,6.132-.01,9.2.026,3.2.026.195.2-.013.456-.32.008-6.13.039Z" transform="translate(-1591.613 -219.13)" fill="url(#linear-gradient)"/>
          </g>
          <g id="Grupo_4518" data-name="Grupo 4518" transform="translate(0.98 16.879)">
            <path id="Caminho_8608" data-name="Caminho 8608" d="M1596.882,239.623l2.82-.023,2.821-.013,5.641-.011,5.641.012,2.82.014,2.821.025a.013.013,0,0,1,.008,0c0,.009,0,.013-.008.013l-2.821.025-2.82.014-5.641.011-5.641-.01-2.821-.013-2.82-.023a.012.012,0,0,1-.012-.012A.012.012,0,0,1,1596.882,239.623Z" transform="translate(-1596.548 -239.254)" fill="url(#linear-gradient-50)"/>
            <path id="Caminho_8609" data-name="Caminho 8609" d="M1607.187,239.036l-8.464-.023-2.956-.024-.2-.2v-.145l.007-.316.325-.012,5.642-.036,5.642-.01,8.464.026,3.141.027.008.653-.33.008-5.639.039Z" transform="translate(-1595.57 -238.272)" fill="url(#linear-gradient)"/>
          </g>
          <g id="Grupo_4519" data-name="Grupo 4519" transform="translate(4.625 21.637)">
            <path id="Caminho_8610" data-name="Caminho 8610" d="M1627.645,258.869h-16.02a.043.043,0,0,1,0-.087h16.02a.043.043,0,0,1,0,.087Z" transform="translate(-1611.26 -258.458)" fill="url(#linear-gradient-44)"/>
            <path id="Caminho_8611" data-name="Caminho 8611" d="M1626.666,258.21h-16.019a.367.367,0,0,1,0-.734h16.019a.367.367,0,0,1,0,.734Z" transform="translate(-1610.281 -257.476)" fill="url(#linear-gradient-47)"/>
          </g>
        </g>
      </g>
    </g>
  </g>
</svg>
