<svg xmlns="http://www.w3.org/2000/svg" xmlns:xlink="http://www.w3.org/1999/xlink" width="615.67" height="395.195" viewBox="0 0 615.67 395.195">
  <defs>
    <linearGradient id="linear-gradient" x1="73.01" y1="-0.843" x2="72.503" y2="2.39" gradientUnits="objectBoundingBox">
      <stop offset="0" stop-color="#ff928e"/>
      <stop offset="1" stop-color="#feb3b1"/>
    </linearGradient>
    <linearGradient id="linear-gradient-2" x1="79.186" y1="-0.224" x2="78.671" y2="2.539" xlink:href="#linear-gradient"/>
    <linearGradient id="linear-gradient-3" x1="0.624" y1="0.148" x2="0.395" y2="1.577" xlink:href="#linear-gradient"/>
    <linearGradient id="linear-gradient-4" x1="-0.428" y1="34.829" x2="-0.822" y2="33.85" xlink:href="#linear-gradient"/>
    <linearGradient id="linear-gradient-5" x1="-2.237" y1="112.926" x2="-3.386" y2="109.717" xlink:href="#linear-gradient"/>
    <linearGradient id="linear-gradient-6" y1="0.5" x2="1" y2="0.5" gradientUnits="objectBoundingBox">
      <stop offset="0" stop-color="#dae3fe"/>
      <stop offset="1" stop-color="#e9effd"/>
    </linearGradient>
    <linearGradient id="linear-gradient-7" x1="-10.636" y1="-0.15" x2="-12.39" y2="2.993" xlink:href="#linear-gradient"/>
    <linearGradient id="linear-gradient-8" x1="-11.376" y1="0.019" x2="-10.389" y2="2.089" xlink:href="#linear-gradient"/>
    <linearGradient id="linear-gradient-9" x1="0" y1="0.5" x2="1" y2="0.5" xlink:href="#linear-gradient-6"/>
    <linearGradient id="linear-gradient-80" x1="-0.31" y1="1.246" x2="0.539" y2="0.279" xlink:href="#linear-gradient"/>
    <linearGradient id="linear-gradient-81" x1="-4.916" y1="0.5" x2="-3.916" y2="0.5" xlink:href="#linear-gradient"/>
    <linearGradient id="linear-gradient-82" x1="-11.313" y1="0.5" x2="-10.313" y2="0.5" xlink:href="#linear-gradient"/>
    <linearGradient id="linear-gradient-83" x1="-7.49" y1="0.5" x2="-6.49" y2="0.5" xlink:href="#linear-gradient"/>
    <linearGradient id="linear-gradient-84" x1="0.65" y1="0.329" x2="-0.845" y2="3.12" xlink:href="#linear-gradient"/>
    <linearGradient id="linear-gradient-85" x1="0.327" y1="0.954" x2="-0.491" y2="2.849" xlink:href="#linear-gradient"/>
    <linearGradient id="linear-gradient-86" x1="0.369" y1="0.575" x2="0.801" y2="-0.225" xlink:href="#linear-gradient"/>
    <linearGradient id="linear-gradient-87" x1="-129.518" y1="0.5" x2="-128.518" y2="0.5" xlink:href="#linear-gradient"/>
    <linearGradient id="linear-gradient-88" x1="-158.512" y1="0.5" x2="-157.512" y2="0.5" xlink:href="#linear-gradient"/>
    <linearGradient id="linear-gradient-89" x1="0.031" y1="0.876" x2="0.978" y2="0.306" xlink:href="#linear-gradient"/>
    <linearGradient id="linear-gradient-90" x1="-64.656" y1="0.5" x2="-63.656" y2="0.5" xlink:href="#linear-gradient"/>
    <linearGradient id="linear-gradient-91" x1="-13.75" y1="13.502" x2="-12.618" y2="13.502" xlink:href="#linear-gradient"/>
    <linearGradient id="linear-gradient-92" x1="0.5" y1="-0.061" x2="0.5" y2="1.722" xlink:href="#linear-gradient"/>
    <linearGradient id="linear-gradient-93" x1="-132.368" y1="-78.078" x2="-133.248" y2="-76.504" xlink:href="#linear-gradient"/>
    <linearGradient id="linear-gradient-94" x1="-434.413" y1="-381.703" x2="-437.284" y2="-374.07" xlink:href="#linear-gradient"/>
    <linearGradient id="linear-gradient-95" x1="26.931" y1="-0.385" x2="25.838" y2="0.818" xlink:href="#linear-gradient"/>
    <linearGradient id="linear-gradient-96" x1="0.577" y1="-0.353" x2="0.419" y2="1.453" xlink:href="#linear-gradient"/>
    <linearGradient id="linear-gradient-97" x1="-51.595" y1="-34.372" x2="-53.34" y2="-33.587" xlink:href="#linear-gradient"/>
    <linearGradient id="linear-gradient-98" x1="-146.019" y1="-128.607" x2="-150.89" y2="-125.695" xlink:href="#linear-gradient"/>
    <linearGradient id="linear-gradient-99" x1="0.53" y1="0.561" x2="0.795" y2="1.407" xlink:href="#linear-gradient"/>
    <linearGradient id="linear-gradient-100" x1="-0.66" y1="1.033" x2="1.193" y2="0.027" xlink:href="#linear-gradient"/>
    <linearGradient id="linear-gradient-101" x1="0.457" y1="-0.378" x2="0.505" y2="0.951" xlink:href="#linear-gradient"/>
  </defs>
  <g id="torne-se3" transform="translate(-126.706 -111.989)">
    <path id="Caminho_8612" data-name="Caminho 8612" d="M719.711,354.522c-9.513-4.151-20.4-3.91-30.791-5.153s-21.614-4.792-26.708-13.457c-4.675-7.951-2.714-18.167,2.225-25.973s12.43-13.8,19.469-20c15.991-14.079,30.52-30.287,38.5-49.531s8.691-41.943-1.97-59.986-34-29.738-55.105-24.421c-10.515,2.65-19.515,8.971-29.418,13.24s-22.23,6.244-31.181.386c-8.872-5.806-11.26-16.972-16.339-25.98-8.732-15.487-26.3-25.066-44.337-29.125a107.529,107.529,0,0,0-77.875,12.412c-12.762,7.692-21.783,19.037-31.09,30.637-9.393,11.706-21.006,22.7-36.711,20.05-15.673-2.645-32.341-10.011-45.85-18.589-28.372-18.015-61.474-30.789-95.635-30.659s-69.245,14.681-87.879,41.789-17.005,66.8,7.689,89.152c8.793,7.958,19.841,13.475,28.318,21.733s14.093,21.021,8.625,31.309c-7.641,14.374-28.961,13.59-45.342,17.882-23.763,6.226-41.674,28.585-41.6,51.928s18.13,45.6,41.933,51.687c8.576,2.194,17.795,2.517,25.717,6.322s14.141,13.012,10.233,20.565c-1.632,3.154-4.727,5.442-6.482,8.536-4.2,7.408.93,17.072,8.62,21.278s17.019,4.406,25.9,4.495l375.917,3.769c18.592.187,37.7.29,55.066-6,23.3-8.441,40.485-27.286,55.03-46.471,10.829-14.283,21.042-29.823,23.339-47.27S736.576,361.881,719.711,354.522Z" fill="#f2f5f7"/>
    <g id="Grupo_4526" data-name="Grupo 4526" transform="translate(480.578 247.098)">
      <g id="Grupo_4524" data-name="Grupo 4524">
        <path id="Caminho_8613" data-name="Caminho 8613" d="M1431.207,780.718c-1.632-3.943-2.623-8.087-4.517-11.929-4.016-8.147-9.983-14.316-15.77-21.114-3.976-4.67-10.764-12.952-5.2-18.9,2.734-2.919,7.191-3.289,10.883-2.846,11.163,1.339,15.2,4.035,12.717-9.2-1.376-7.349-5.287-13.963-6.822-21.194-1.551-7.312-2.295-28.571,5.5-33.586,13.852-8.906,22.517,24.751,24.657,32.463a5.591,5.591,0,0,1,.165.926,2,2,0,0,0,3.809.64,9.3,9.3,0,0,0,.994-3.149c.226-4.473-1.163-9.4-2.333-13.684a143.789,143.789,0,0,0-6.062-16.988c-2.607-6.3-4.145-12.873-1.891-19.505,2.218-6.524,6.8-11.919,10.9-17.334,5.414-7.155,9.222-16.914,17.7-21.1,10.011-4.939,20.063,2.535,25.432,10.852,8.7,13.469,3.836,28.273-2.747,41.416-4.662,9.308-16.511,23.438-16.228,34.856a2,2,0,0,0,2.911,1.733c2.06-1.054,3.7-2.906,5.433-4.83,6.122-6.807,11.451-14.441,16.944-21.757,3.78-5.034,9.074-13.939,16.088-14.571,8.211-.74,8.085,14.889,7.437,19.737-3.324,24.859-26.39,37.247-38.574,57.182-2.509,4.105-7.966,11.588-7.4,16.584,1.093,9.616,12.875-1.02,18.007-2.6,7.125-2.2,19.6-2.241,19.7,7.534.109,11.36-9.7,21.139-19.914,24.548-8.195,2.734-17.557,3.674-25.324,7.489-7.106,3.49-2.852,11.35,4.277,9.175,2.943-.9,5.883-2.074,8.748-3.2,2.776-1.087,10.955-5.578,12.987-1.4,1.552,3.186-1.669,8.75-2.951,11.466-14.366,30.436-26.2,24.849-42.8,30.8-4.765,1.709-7.988,5.578-9.71,10.237-.743,2.01-.668,9.558-2.961,10.239-3.161.929-7.581-5.63-8.937-7.509-2.512-3.479-5.558-6.508-8.065-9.992-4.325-6.011-11.411-14.892-10.617-22.839.393-3.937,3.782-5.52,7.437-5.809,6.188-.49,16-1.652,12.062-10.183C1435.223,789.136,1432.992,785.029,1431.207,780.718Z" transform="translate(-1403.618 -601.771)" fill="#b6f1ff"/>
        <path id="Caminho_8614" data-name="Caminho 8614" d="M1546.285,847.192a.864.864,0,0,0,.864-.848c.007-.413.873-41.673,10.005-69.354,9.085-27.54,15.393-81.41,13.759-95.871-1.426-12.621,3.6-65.491,14.5-77.525,1.431-1.579,2.89-2.369,4.369-2.348a.864.864,0,1,0,.025-1.727c-1.986-.018-3.9.952-5.674,2.915-11.936,13.169-16.21,67.652-14.941,78.879,1.449,12.82-4.094,66.069-13.683,95.136-9.215,27.931-10.084,69.447-10.092,69.864a.864.864,0,0,0,.847.879Z" transform="translate(-1506.124 -599.518)" fill="#dce5fe"/>
      </g>
      <g id="Grupo_4525" data-name="Grupo 4525" transform="translate(53.978 125.196)">
        <path id="Caminho_8615" data-name="Caminho 8615" d="M1603.989,1118.787c3.885,1.058,16.415,11.458,15.829,2.613-.752-11.362-13.134-20.406-14.05-32.047-.533-6.781,5.777-10.836,11.912-12.037,10.759-2.107,14.535,19.134,19.894,26.29,1.127,1.505,2.346-27.963,2.6-29.17.738-3.518,2.548-9.949,6.229-11.562,8.9-3.9,12.341,7.664,13.357,14.334a1,1,0,0,0,1.761.492c5.682-6.789,1.321-13.975,4.529-21.838,4.419-10.832,13.627.243,17.36,5.409,6.4,8.859,7.572,20.779-2.453,27.7-9.206,6.355-13.764,10.444-7.715,12.111,7.923,2.183,14.267,10.652,10.29,18.689-4.16,8.405-16.988,12.838-25.229,15.839-3.244,1.182-11.736,1.09-12.392,5.607-.548,3.775,5.152,5.478,7.724,6.815,9.715,5.052,11.879,10.192,1.171,16.751-21.618,13.243-45.455,9.5-45.217-.485.107-4.716-3.071-10.454-4.566-14.765-1.6-4.62-3.186-9.248-4.431-13.979C1599.329,1130.757,1594.881,1116.308,1603.989,1118.787Z" transform="translate(-1598.392 -1051.274)" fill="#c0daff"/>
        <path id="Caminho_8616" data-name="Caminho 8616" d="M1644.732,1171.255a.865.865,0,0,0,.81-.564c.173-.467,17.515-46.857,35.266-60.529,13.942-10.738,24.52-27.382,25.723-40.477.61-6.632-1.046-12.184-4.92-16.5a.864.864,0,1,0-1.286,1.153c3.54,3.946,5.049,9.057,4.485,15.19-1.163,12.653-11.466,28.8-25.056,39.266-7.636,5.881-15.991,17.995-24.832,36-6.561,13.365-10.957,25.176-11,25.293a.865.865,0,0,0,.81,1.165Z" transform="translate(-1631.265 -1052.447)" fill="#dce5fe"/>
      </g>
    </g>
    <g id="Grupo_4529" data-name="Grupo 4529" transform="translate(255.429 289.178)">
      <g id="Grupo_4527" data-name="Grupo 4527" transform="translate(25.695 0)">
        <path id="Caminho_8617" data-name="Caminho 8617" d="M771.106,892.593c1.076-3.258,1.627-6.639,2.919-9.831,2.741-6.77,7.162-12.067,11.4-17.858,2.913-3.979,7.869-11.019,3.054-15.461-2.364-2.18-5.96-2.214-8.894-1.641-8.872,1.73-11.947,4.13-10.739-6.632.671-5.974,3.418-11.507,4.222-17.4.813-5.954.158-23.044-6.391-26.606-11.631-6.326-16.6,21.171-17.859,27.481a4.454,4.454,0,0,0-.078.753,1.61,1.61,0,0,1-3.016.737,7.483,7.483,0,0,1-.983-2.466c-.444-3.574.379-7.608,1.065-11.11a115.658,115.658,0,0,1,3.861-13.978c1.719-5.2,2.566-10.565.367-15.751-2.162-5.1-6.154-9.157-9.758-13.257-4.762-5.418-8.39-13.019-15.432-15.873-8.318-3.371-15.937,3.214-19.753,10.2-6.179,11.311-1.411,22.9,4.641,33.047,4.286,7.189,14.619,17.821,15.064,26.993a1.609,1.609,0,0,1-2.232,1.561,16.405,16.405,0,0,1-4.64-3.553c-5.31-5.1-10.032-10.905-14.867-16.448-3.328-3.814-8.1-10.642-13.758-10.736-6.627-.11-5.606,12.414-4.8,16.263,4.129,19.737,23.353,28.313,34.3,43.579,2.254,3.144,7.069,8.823,6.909,12.862-.31,7.775-10.383-.06-14.592-1.028-5.842-1.344-15.849-.643-15.349,7.2.582,9.115,9.019,16.378,17.412,18.51,6.732,1.71,14.294,1.913,20.746,4.514,5.9,2.38,2.955,8.932-2.889,7.608-2.413-.547-4.839-1.317-7.2-2.048-2.29-.708-9.112-3.827-10.5-.362-1.056,2.646,1.853,6.917,3.041,9.02,13.311,23.559,22.473,18.382,36.129,22.178a13.228,13.228,0,0,1,8.388,7.637c.714,1.568,1.1,7.624,2.977,8.035,2.589.558,5.747-4.96,6.724-6.547,1.809-2.937,4.074-5.546,5.879-8.487,3.114-5.074,8.273-12.612,7.168-18.938-.547-3.133-3.357-4.2-6.305-4.22-4.991-.028-12.93-.382-10.271-7.455C768.381,899.579,769.929,896.155,771.106,892.593Z" transform="translate(-683.911 -752.396)" fill="#b6f1ff"/>
        <path id="Caminho_8618" data-name="Caminho 8618" d="M846.047,947.4a.7.7,0,0,1-.742-.629c-.03-.331-3.153-33.363-12.105-55.021-8.906-21.547-17.135-64.37-16.677-76.062.4-10.2-6.739-52.3-16.193-61.307a4.771,4.771,0,0,0-3.642-1.625.695.695,0,1,1-.121-1.384,6.117,6.117,0,0,1,4.721,2c10.346,9.857,16.98,53.29,16.623,62.367-.407,10.365,7.172,52.734,16.572,75.477,9.033,21.854,12.174,55.091,12.2,55.424a.694.694,0,0,1-.628.755Z" transform="translate(-764.888 -751.358)" fill="#fff" opacity="0.6"/>
      </g>
      <g id="Grupo_4528" data-name="Grupo 4528" transform="translate(0 112.687)">
        <path id="Caminho_8619" data-name="Caminho 8619" d="M661.439,1208.165c-3.053,1.076-12.487,10.153-12.539,3.026-.066-9.154,9.33-17.135,9.379-26.523.029-5.468-5.27-8.348-10.26-8.95-8.751-1.056-10.528,16.2-14.4,22.251-.815,1.273-3.527-22.283-3.8-23.236-.8-2.777-2.629-7.827-5.676-8.9-7.367-2.6-9.444,6.872-9.866,12.279a.806.806,0,0,1-1.383.5c-4.955-5.109-1.882-11.128-4.917-17.243-4.181-8.425-10.912,1-13.6,5.359-4.611,7.48-4.848,17.107,3.6,22.066,7.755,4.554,11.651,7.565,6.9,9.257-6.224,2.217-10.812,9.381-7.15,15.591,3.83,6.494,14.377,9.293,21.162,11.215,2.67.757,9.475.183,10.266,3.766.661,2.995-3.808,4.7-5.792,5.919-7.492,4.623-8.925,8.871.047,13.5,18.113,9.346,37.006,4.944,36.227-3.051-.364-3.775,1.847-8.563,2.792-12.108,1.013-3.8,2.01-7.6,2.73-11.469C665.88,1217.489,668.6,1205.642,661.439,1208.165Z" transform="translate(-591.192 -1157.978)" fill="#b6f1ff"/>
        <path id="Caminho_8620" data-name="Caminho 8620" d="M687.143,1250.246a.7.7,0,0,1-.683-.4c-.166-.364-16.8-36.54-31.841-46.458-11.811-7.789-21.273-20.512-23.008-30.941-.879-5.281.121-9.831,2.973-13.521a.694.694,0,0,1,1.1.849c-2.606,3.372-3.516,7.559-2.7,12.444,1.677,10.077,10.89,22.417,22.4,30.009,6.469,4.266,13.881,13.487,22.031,27.407,6.048,10.33,10.267,19.541,10.31,19.633a.7.7,0,0,1-.581.981Z" transform="translate(-620.187 -1158.466)" fill="#dce5fe"/>
      </g>
    </g>
    <g id="Grupo_4532" data-name="Grupo 4532" transform="translate(581.36 171.951)">
      <g id="engrenagem_1">
        <path id="Caminho_8621" data-name="Caminho 8621" d="M1768.64,381.377a1.4,1.4,0,0,1-.032-.161l-1.314-9.328a1.349,1.349,0,0,1,.723-1.39l6.647-3.393a34.845,34.845,0,0,1,2.64-10.206l-4.175-6.191a1.351,1.351,0,0,1,.04-1.566l5.667-7.526a1.349,1.349,0,0,1,1.494-.472l7.1,2.3a34.848,34.848,0,0,1,9.079-5.356l1.425-7.325a1.35,1.35,0,0,1,1.136-1.079l9.328-1.314a1.348,1.348,0,0,1,1.39.722l3.394,6.646a34.86,34.86,0,0,1,10.206,2.64l6.191-4.176a1.352,1.352,0,0,1,1.567.041l7.526,5.667a1.351,1.351,0,0,1,.472,1.494l-2.3,7.1a34.858,34.858,0,0,1,5.357,9.079l7.325,1.425a1.358,1.358,0,0,1,1.079,1.138l1.314,9.328a1.349,1.349,0,0,1-.723,1.39l-6.647,3.394a34.867,34.867,0,0,1-2.639,10.206l4.175,6.191a1.35,1.35,0,0,1-.041,1.566l-5.667,7.526a1.35,1.35,0,0,1-1.494.472l-7.1-2.3a34.892,34.892,0,0,1-9.08,5.356l-1.425,7.325a1.35,1.35,0,0,1-1.136,1.079L1810.811,413a1.35,1.35,0,0,1-1.39-.723l-3.393-6.646a34.857,34.857,0,0,1-10.206-2.64l-6.191,4.176a1.35,1.35,0,0,1-1.567-.042l-7.525-5.667a1.35,1.35,0,0,1-.472-1.494l2.3-7.1a34.854,34.854,0,0,1-5.357-9.08l-7.325-1.424A1.35,1.35,0,0,1,1768.64,381.377Zm10.263-24.623-.157.355a33.467,33.467,0,0,0-2.718,10.511l-.035.387-7.337,3.745,1.346,9.268,8.039,1.523.141.362a33.437,33.437,0,0,0,5.516,9.35l.249.3-2.541,7.841,7.505,5.6,6.766-4.61.355.157a33.457,33.457,0,0,0,10.51,2.718l.387.035,3.745,7.337,9.268-1.346,1.523-8.039.362-.141a33.47,33.47,0,0,0,9.351-5.517l.3-.249,7.841,2.541,5.6-7.5-4.61-6.766.157-.355a33.469,33.469,0,0,0,2.718-10.51l.035-.387,7.337-3.746-1.346-9.268-8.038-1.523-.141-.362a33.449,33.449,0,0,0-5.516-9.35l-.249-.3,2.541-7.841-7.5-5.6-6.766,4.611-.355-.157a33.467,33.467,0,0,0-10.511-2.718l-.387-.035-3.727-7.3-9.287,1.308-1.523,8.039-.362.141a33.436,33.436,0,0,0-9.35,5.516l-.3.249-7.841-2.541-5.6,7.505Zm29.6-27.686,0,.006ZM1787.12,376.9a23.727,23.727,0,0,1-.571-2.816,23.4,23.4,0,0,1,1.611-12.38.7.7,0,1,1,1.3.549,21.984,21.984,0,1,0,12.676-12.11.7.7,0,1,1-.486-1.322,23.6,23.6,0,0,1,4.839-1.213A23.433,23.433,0,1,1,1787.12,376.9Z" transform="translate(-1767.28 -328.358)" fill="#00c3ff"/>
        <path id="Caminho_8622" data-name="Caminho 8622" d="M1887.585,459.771a9.081,9.081,0,0,1,9.738-11.358h0a9.064,9.064,0,1,1-9.738,11.358Zm9.587-9.958a7.661,7.661,0,1,0,6.8,8.437,7.67,7.67,0,0,0-6.8-8.437Z" transform="translate(-1854.025 -415.104)" fill="#00c3ff"/>
      </g>
      <g id="engrenagem_2">
        <path id="Caminho_8623" data-name="Caminho 8623" d="M2038.271,617.933a1.017,1.017,0,0,1,.147-.841l1.939-2.786a17.166,17.166,0,0,1-1.13-4.65l-3-1.586a1.016,1.016,0,0,1-.528-1.052l.7-4.477a1.016,1.016,0,0,1,.823-.842l3.339-.6a17.147,17.147,0,0,1,2.492-4.085l-1-3.243a1.022,1.022,0,0,1,.372-1.119l3.659-2.671a1.016,1.016,0,0,1,1.177-.014l2.786,1.939a17.1,17.1,0,0,1,4.65-1.129l1.587-3a1.013,1.013,0,0,1,1.054-.528l4.476.7a1.016,1.016,0,0,1,.843.823l.6,3.339a17.116,17.116,0,0,1,4.085,2.492l3.243-1a1.017,1.017,0,0,1,1.118.371l2.672,3.66a1.016,1.016,0,0,1,.014,1.178l-1.94,2.786a17.123,17.123,0,0,1,1.13,4.65l3,1.587a1.013,1.013,0,0,1,.528,1.054l-.7,4.476a1.015,1.015,0,0,1-.823.842l-3.338.6a17.131,17.131,0,0,1-2.492,4.085l1,3.243a1.03,1.03,0,0,1-.371,1.118l-3.66,2.672a1.015,1.015,0,0,1-1.178.014L2062.757,624a17.117,17.117,0,0,1-4.65,1.13l-1.587,3a1.013,1.013,0,0,1-1.054.527l-4.475-.7a1.009,1.009,0,0,1-.842-.823l-.6-3.339a17.131,17.131,0,0,1-4.085-2.492l-3.243,1a1.016,1.016,0,0,1-1.119-.372l-2.672-3.659A1.014,1.014,0,0,1,2038.271,617.933Zm3.684-3.456-2.22,3.189,2.34,3.206,3.714-1.143.295.254a15.742,15.742,0,0,0,4.356,2.658l.36.146.685,3.822,3.922.612,1.817-3.432.387-.029a15.721,15.721,0,0,0,4.959-1.2l.358-.152,3.189,2.22,3.206-2.34-1.143-3.714.253-.295a15.729,15.729,0,0,0,2.658-4.356l.146-.361,3.822-.685.612-3.922-3.432-1.817-.029-.387a15.744,15.744,0,0,0-1.2-4.959l-.151-.358,2.22-3.189-2.341-3.206-3.713,1.143-.295-.254a15.729,15.729,0,0,0-4.356-2.657l-.36-.146-.685-3.822-3.922-.612-1.816,3.432-.388.029a15.712,15.712,0,0,0-4.959,1.2l-.358.152-3.189-2.22-3.206,2.341,1.143,3.714-.253.295a15.722,15.722,0,0,0-2.658,4.356l-.146.361-3.822.685-.612,3.922,3.432,1.816.029.388a15.714,15.714,0,0,0,1.2,4.959Zm13.729,12.786h0Zm1.441-38.619h0Zm4.476.7h0Zm.108-.7,0,.007ZM2045.2,611.032a11.676,11.676,0,0,1,2.3-10.441.7.7,0,1,1,1.082.9,10.209,10.209,0,1,0,7.266-3.671.7.7,0,1,1-.081-1.406,11.647,11.647,0,0,1,12.178,13.413,11.644,11.644,0,0,1-22.75,1.2Z" transform="translate(-1961.306 -515.495)" fill="#00c3ff"/>
      </g>
    </g>
    <g id="man_1">
      <path id="Caminho_8624" data-name="Caminho 8624" d="M297.481,1474.263a1.124,1.124,0,0,1,.03-.294c1.465-5.808,7.455-8.785,7.455-8.785l2.881.226c1.656,5.119,2.725,7.619,2.459,9.017-.007.039-.019.077-.03.114A68.342,68.342,0,0,1,297.481,1474.263Z" transform="translate(-123.447 -978.183)" fill="#1250b3"/>
      <path id="Caminho_8625" data-name="Caminho 8625" d="M310.277,1498.223a1.249,1.249,0,0,1-.914.923c-3.381.711-8.755.139-11.012-.156a1.049,1.049,0,0,1-.87-1.045A68.342,68.342,0,0,0,310.277,1498.223Z" transform="translate(-123.448 -1001.865)" fill="#002740"/>
      <path id="Caminho_8626" data-name="Caminho 8626" d="M315.929,1449.005l1.262,6.073a.993.993,0,0,0,.849.817,8.43,8.43,0,0,0,1.955-.031,1.248,1.248,0,0,0,.989-1.467l-.877-5.392Z" transform="translate(-136.783 -966.488)" fill="url(#linear-gradient)"/>
      <path id="Caminho_8627" data-name="Caminho 8627" d="M417.668,1496.719a16.631,16.631,0,0,1-5.492-.785c0,.306,0,.617.01.94a.607.607,0,0,0,.58.618l16.9-.109a.772.772,0,0,0,.621-1.123C428.067,1496.443,422.425,1496.852,417.668,1496.719Z" transform="translate(-206.357 -1000.411)" fill="#002740"/>
      <path id="Caminho_8628" data-name="Caminho 8628" d="M430.285,1475.515a.815.815,0,0,0-.067-.127c-1.492-2.085-5.293-6.237-12.8-8.038l-3.6-.114a17.285,17.285,0,0,0-1.635,7.953,16.631,16.631,0,0,0,5.492.785C422.427,1476.107,428.069,1475.7,430.285,1475.515Z" transform="translate(-206.359 -979.666)" fill="#1250b3"/>
      <path id="Caminho_8629" data-name="Caminho 8629" d="M415.665,1445.256c.04.269.534,4.35.725,5.932a.784.784,0,0,0,.661.708,8.251,8.251,0,0,0,2.475-.038,1.066,1.066,0,0,0,.808-1.069v-6.407Z" transform="translate(-208.879 -963.146)" fill="url(#linear-gradient-2)"/>
      <path id="Caminho_8630" data-name="Caminho 8630" d="M315.406,1161.238s-5.765,51.244-2.562,83.272a24.787,24.787,0,0,0,5.765-.64s5.991-50.1,7.929-64.441a.482.482,0,0,1,.951-.03c2.391,12.062,11.783,59.364,12.9,63.831,0,0,3.2,1.281,5.765,0,0,0-5.124-68.539-8.967-80.71Z" transform="translate(-133.853 -758.47)" fill="#002740"/>
      <path id="Caminho_8631" data-name="Caminho 8631" d="M282.79,942.67s24.341-3.843,43.558,1.281l-1.281,19.857s-5.124,27.544-8.967,39.714c0,0-14.733,2.562-21.779-1.281,0,0-5.765-34.59-8.968-39.715C285.352,962.527,282.15,949.076,282.79,942.67Z" transform="translate(-112.767 -599.474)" fill="#1250b3"/>
      <path id="Caminho_8632" data-name="Caminho 8632" d="M337.7,883.121l-2.425,16.4s6.774,3.112,11.518-.133l-1.021-11.573Z" transform="translate(-150.77 -557.428)" fill="url(#linear-gradient-3)"/>
      <g id="Grupo_4534" data-name="Grupo 4534" transform="translate(182.303 308.323)">
        <path id="Caminho_8633" data-name="Caminho 8633" d="M351.443,841.925c.076.139,1.538,8.408,2.437,13.526a3.591,3.591,0,0,1-3.326,4.206l-1.963.116a7,7,0,0,1-7.329-5.926l-1.419-9.272S349.589,838.562,351.443,841.925Z" transform="translate(-336.373 -835.233)" fill="url(#linear-gradient-4)"/>
        <path id="Caminho_8634" data-name="Caminho 8634" d="M328.676,829.808a2.752,2.752,0,0,1,.194-4.04,3.881,3.881,0,0,1,4.631-.669,1.291,1.291,0,0,0,1.521-.3.823.823,0,0,1,.766-.284,1.208,1.208,0,0,0,1.365-1.05,3.187,3.187,0,0,1,2.814-2.929c3.771-.729,5.652,3.045,5.585,5.7s-4.2,3.21-6.546,2.77c-1.723-.323-3.212,1.19-3.881,2.017a1.247,1.247,0,0,0-.246,1.069l.6,2.562a11.825,11.825,0,0,1-1.4,2.29,2.53,2.53,0,0,1-1.361.874c-.7-1.309-2.67-1.531-3.583-1.56a1.249,1.249,0,0,1-.906-.429,2.741,2.741,0,0,1,.3-4.287A1.245,1.245,0,0,0,328.676,829.808Z" transform="translate(-327.323 -820.442)" fill="#002740"/>
        <path id="Caminho_8635" data-name="Caminho 8635" d="M336.649,879.609s-.081-4.627-1.954-5.062-3.893.919-2.291,3.689C334.4,881.683,336.649,879.609,336.649,879.609Z" transform="translate(-330.576 -859.496)" fill="url(#linear-gradient-5)"/>
        <path id="Caminho_8636" data-name="Caminho 8636" d="M382.25,832.586a.137.137,0,0,1-.069-.256,2.845,2.845,0,0,0,1.538-2c.291-1.809-1.412-3.747-1.429-3.766a.137.137,0,1,1,.2-.182c.074.083,1.807,2.056,1.5,3.992a3.108,3.108,0,0,1-1.671,2.195A.139.139,0,0,1,382.25,832.586Z" transform="translate(-366.928 -824.702)" fill="url(#linear-gradient-6)"/>
      </g>
      <path id="Caminho_8637" data-name="Caminho 8637" d="M243.968,946.279s-37.793,41,6.726,56.689v-3.2s-16.654-14.092-3.843-33.309C246.851,966.457,245.249,948.2,243.968,946.279Z" transform="translate(-73.945 -603.083)" fill="#1250b3"/>
      <path id="Caminho_8638" data-name="Caminho 8638" d="M306.348,1133.07s5.765-3.843,8.327-2.562,2.562,3.2,2.562,3.2-1.281,2.562-3.2,1.922-6.406.641-8.327,0C305.707,1135.632,305.067,1133.07,306.348,1133.07Z" transform="translate(-129.279 -736.067)" fill="url(#linear-gradient-7)"/>
      <path id="Caminho_8639" data-name="Caminho 8639" d="M426.818,950.9s39.394,39.714-5.124,55.408v-3.2s16.654-14.092,3.843-33.309C425.537,969.8,424.256,954.1,426.818,950.9Z" transform="translate(-213.238 -606.424)" fill="#1250b3"/>
      <path id="Caminho_8640" data-name="Caminho 8640" d="M392.134,1133.07s-5.765-3.843-8.327-2.562-2.562,3.2-2.562,3.2,1.281,2.562,3.2,1.922,6.406.641,8.327,0C392.775,1135.632,393.416,1133.07,392.134,1133.07Z" transform="translate(-183.998 -736.067)" fill="url(#linear-gradient-8)"/>
    </g>
    <g id="Grupo_4540" data-name="Grupo 4540" transform="translate(182.932 197.661)">
      <g id="Grupo_4539" data-name="Grupo 4539" transform="translate(0 0)">
        <g id="Grupo_4536" data-name="Grupo 4536">
          <path id="Caminho_8641" data-name="Caminho 8641" d="M337.5,425.754a3.322,3.322,0,1,1-3.3-3.344A3.322,3.322,0,0,1,337.5,425.754Z" transform="translate(-330.505 -422.054)" fill="#91b3fa"/>
          <path id="Caminho_8642" data-name="Caminho 8642" d="M337.678,426.042a3.212,3.212,0,1,1-3.19-3.233A3.212,3.212,0,0,1,337.678,426.042Z" transform="translate(-330.794 -422.343)" fill="#00c3ff"/>
          <path id="Caminho_8643" data-name="Caminho 8643" d="M330.3,431.641a.713.713,0,0,0,.711-.67,2.4,2.4,0,0,1,.035-.285.713.713,0,0,0-1.4-.261,3.679,3.679,0,0,0-.057.459.713.713,0,0,0,.668.755Z" transform="translate(-329.591 -427.427)" fill="#37a4d6"/>
          <path id="Caminho_8644" data-name="Caminho 8644" d="M331.459,424.166a.713.713,0,0,0,.635-.387,2.243,2.243,0,0,1,2-1.226h.015a2.341,2.341,0,0,1,.409.039.713.713,0,0,0,.262-1.4,3.765,3.765,0,0,0-.66-.064H334.1a3.661,3.661,0,0,0-3.273,2,.713.713,0,0,0,.309.96A.706.706,0,0,0,331.459,424.166Z" transform="translate(-330.427 -421.127)" fill="#37a4d6"/>
        </g>
        <g id="Grupo_4537" data-name="Grupo 4537" transform="translate(0 20.139)">
          <path id="Caminho_8645" data-name="Caminho 8645" d="M337.5,498.423a3.322,3.322,0,1,1-3.3-3.344A3.322,3.322,0,0,1,337.5,498.423Z" transform="translate(-330.505 -494.724)" fill="#91b3fa"/>
          <path id="Caminho_8646" data-name="Caminho 8646" d="M337.678,498.711a3.212,3.212,0,1,1-3.19-3.233A3.212,3.212,0,0,1,337.678,498.711Z" transform="translate(-330.794 -495.012)" fill="#00c3ff"/>
          <path id="Caminho_8647" data-name="Caminho 8647" d="M330.3,504.31a.713.713,0,0,0,.711-.67,2.39,2.39,0,0,1,.035-.285.713.713,0,0,0-1.4-.261,3.693,3.693,0,0,0-.057.459.713.713,0,0,0,.668.755Z" transform="translate(-329.591 -500.097)" fill="#37a4d6"/>
          <path id="Caminho_8648" data-name="Caminho 8648" d="M331.459,496.835a.713.713,0,0,0,.635-.387,2.293,2.293,0,0,1,2.02-1.225,2.267,2.267,0,0,1,.407.039.713.713,0,0,0,.264-1.4,3.683,3.683,0,0,0-3.96,1.936.713.713,0,0,0,.309.96A.706.706,0,0,0,331.459,496.835Z" transform="translate(-330.427 -493.797)" fill="#37a4d6"/>
        </g>
        <g id="Grupo_4538" data-name="Grupo 4538" transform="translate(0 40.278)">
          <path id="Caminho_8649" data-name="Caminho 8649" d="M337.5,571.092a3.322,3.322,0,1,1-3.3-3.344A3.322,3.322,0,0,1,337.5,571.092Z" transform="translate(-330.505 -567.392)" fill="#91b3fa"/>
          <path id="Caminho_8650" data-name="Caminho 8650" d="M337.678,571.379a3.212,3.212,0,1,1-3.19-3.232A3.212,3.212,0,0,1,337.678,571.379Z" transform="translate(-330.794 -567.681)" fill="#00c3ff"/>
          <path id="Caminho_8651" data-name="Caminho 8651" d="M330.3,576.979a.713.713,0,0,0,.711-.67,2.388,2.388,0,0,1,.035-.284.713.713,0,0,0-1.4-.261,3.7,3.7,0,0,0-.057.459.713.713,0,0,0,.668.755Z" transform="translate(-329.591 -572.765)" fill="#37a4d6"/>
          <path id="Caminho_8652" data-name="Caminho 8652" d="M331.459,569.5a.713.713,0,0,0,.635-.387,2.272,2.272,0,0,1,2.02-1.226,2.332,2.332,0,0,1,.407.039.713.713,0,0,0,.264-1.4,3.714,3.714,0,0,0-.661-.064H334.1a3.661,3.661,0,0,0-3.273,2,.712.712,0,0,0,.634,1.038Z" transform="translate(-330.427 -566.465)" fill="#37a4d6"/>
        </g>
        <path id="Caminho_8653" data-name="Caminho 8653" d="M386.83,426.144l.016.566c.041,1.531,1,2.747,2.167,2.753l88.976.135c1.207.006,2.188-1.276,2.186-2.859h0c0-1.552-.95-2.817-2.133-2.849l-88.991-.7C387.8,423.156,386.786,424.507,386.83,426.144Z" transform="translate(-370.967 -422.617)" fill="#00c3ff"/>
        <path id="Caminho_8654" data-name="Caminho 8654" d="M386.83,498.458l.016.566c.041,1.532,1,2.747,2.167,2.753l88.976.135c1.207.006,2.188-1.276,2.186-2.859h0c0-1.552-.95-2.817-2.133-2.849l-88.991-.7C387.8,495.47,386.786,496.821,386.83,498.458Z" transform="translate(-370.967 -474.891)" fill="#00c3ff"/>
        <path id="Caminho_8655" data-name="Caminho 8655" d="M386.83,570.773l.016.566c.041,1.532,1,2.747,2.167,2.753l88.976.135c1.207.006,2.188-1.276,2.186-2.859h0c0-1.552-.95-2.817-2.133-2.849l-88.991-.7C387.8,567.785,386.786,569.135,386.83,570.773Z" transform="translate(-370.967 -527.165)" fill="#00c3ff"/>
      </g>
    </g>
    <g id="Grupo_4550" data-name="Grupo 4550" transform="translate(304.288 116.803)">
      <g id="Grupo_4544" data-name="Grupo 4544">
        <path id="Caminho_8656" data-name="Caminho 8656" d="M800.465,283.277l206.725,5.492a21.424,21.424,0,0,1,20.849,20.9l7.3,300.118a15.8,15.8,0,0,1-15.927,16.182l-237.047-1.988A15,15,0,0,1,767.5,608.583l8.013-301.642A24.318,24.318,0,0,1,800.465,283.277Z" transform="translate(-767.492 -240.616)" fill="#1250b3"/>
        <path id="Caminho_8657" data-name="Caminho 8657" d="M836.395,1345.3h-.026l-26.5-1.047a16.448,16.448,0,0,1-15.733-16.809l1.064-40.027a.676.676,0,0,1,.676-.642.66.66,0,0,1,.642.677l-1.063,40.027a15.125,15.125,0,0,0,14.467,15.456l26.5,1.047a.659.659,0,0,1-.026,1.318Z" transform="translate(-786.746 -966.017)" fill="#91b3fa"/>
        <path id="Caminho_8658" data-name="Caminho 8658" d="M799.832,1226.441h-.018a.66.66,0,0,1-.642-.677l.172-6.482a.659.659,0,1,1,1.318.035l-.172,6.482A.659.659,0,0,1,799.832,1226.441Z" transform="translate(-790.392 -916.768)" fill="#91b3fa"/>
        <g id="Grupo_4541" data-name="Grupo 4541" transform="translate(18.937 40.155)">
          <path id="Caminho_8659" data-name="Caminho 8659" d="M850.56,274.351c28.128,4.578,124.89,19,205.315,14.969a6.531,6.531,0,0,1,6.868,6.345l8,301.473a7.517,7.517,0,0,1-7.269,7.714c-33.809,1.1-173.034,5.13-222.482-1.381a5.955,5.955,0,0,1-5.17-6.033l6.54-316.258A7.064,7.064,0,0,1,850.56,274.351Z" transform="translate(-835.822 -274.257)" fill="#37a4d6"/>
        </g>
        <g id="Grupo_4543" data-name="Grupo 4543" transform="translate(27.753 55.918)">
          <g id="Grupo_4542" data-name="Grupo 4542">
            <path id="Caminho_8660" data-name="Caminho 8660" d="M881.379,331.224c26.23,4.269,116.461,17.715,191.457,13.958a6.09,6.09,0,0,1,6.4,5.916l7.462,281.126a7.009,7.009,0,0,1-6.779,7.193c-31.527,1.027-161.355,4.784-207.466-1.288a5.553,5.553,0,0,1-4.821-5.626l6.1-294.912A6.587,6.587,0,0,1,881.379,331.224Z" transform="translate(-867.637 -331.137)" fill="#3dcffd"/>
          </g>
        </g>
        <path id="Caminho_8661" data-name="Caminho 8661" d="M1243.948,134.245c-7.329-5.393-13.825-5.463-18.431-4.236a9.121,9.121,0,0,0-6.729,9.413l1.4,21.567,23.4,2.7S1258.323,144.822,1243.948,134.245Zm-10.776,17.083a5.851,5.851,0,1,1,6-5.693A5.851,5.851,0,0,1,1233.173,151.328Z" transform="translate(-1093.706 -129.362)" fill="#002740"/>
        <path id="Caminho_8662" data-name="Caminho 8662" d="M1228.181,159.329a1.161,1.161,0,0,1-.732-1.005l-.223-3.435a1.162,1.162,0,0,1,2.319-.15l.223,3.435a1.163,1.163,0,0,1-1.588,1.155Zm-.437-6.731a1.163,1.163,0,0,1-.732-1.006l-.169-2.608a9.3,9.3,0,0,1,6.854-9.581,18.138,18.138,0,0,1,8.87-.129,1.162,1.162,0,0,1-.527,2.264,15.829,15.829,0,0,0-7.745.111,6.972,6.972,0,0,0-5.133,7.185l.17,2.608a1.163,1.163,0,0,1-1.588,1.155Z" transform="translate(-1099.529 -136.175)" fill="#91b3fa"/>
        <path id="Caminho_8663" data-name="Caminho 8663" d="M1107.042,245.608l.287-10.817a6.6,6.6,0,0,1,7-6.415l74.51,4.536a6.422,6.422,0,0,1,6.028,6.2l.347,10.41Z" transform="translate(-1012.942 -200.927)" fill="#002740"/>
        <path id="Caminho_8664" data-name="Caminho 8664" d="M1198.632,241.8h-.018l-3.207-.085a.66.66,0,0,1,.035-1.319l3.207.085a.66.66,0,0,1-.017,1.319Z" transform="translate(-1076.354 -209.625)" fill="#91b3fa"/>
        <path id="Caminho_8665" data-name="Caminho 8665" d="M1118.528,249.174a1.162,1.162,0,0,1-.733-1.111l.116-4.376a6.73,6.73,0,0,1,6.906-6.549l11.791.314a1.163,1.163,0,0,1-.063,2.325l-11.791-.314a4.41,4.41,0,0,0-4.52,4.287l-.116,4.376a1.161,1.161,0,0,1-1.59,1.049Z" transform="translate(-1020.715 -207.268)" fill="#91b3fa"/>
        <path id="Caminho_8666" data-name="Caminho 8666" d="M1003.121,274.056l130.413,3.461a9.643,9.643,0,0,1,9.286,8.247l.093.64a8.281,8.281,0,0,1-8.414,9.473l-133.8-3.555a5.384,5.384,0,0,1-5.226-5.783l.447-5.981A7.031,7.031,0,0,1,1003.121,274.056Z" transform="translate(-932.284 -233.955)" fill="#002740"/>
      </g>
      <g id="Grupo_4549" data-name="Grupo 4549" transform="translate(40.761 77.705)" opacity="0.89">
        <g id="Grupo_4545" data-name="Grupo 4545" transform="translate(0 33.824)">
          <path id="Caminho_8667" data-name="Caminho 8667" d="M1104.208,602.081l-1.152-64.116a1.248,1.248,0,0,0-1.215-1.225l-185.986-4.933a1.247,1.247,0,0,0-1.279,1.306l3.147,66.2a1.187,1.187,0,0,0,1.227,1.116l183.995,2.955h.021a1.188,1.188,0,0,0,1.259-1.163A.537.537,0,0,0,1104.208,602.081Zm-3.626-62.878.236,13.109L917.766,547.66l-.633-13.323ZM920.16,598.025l-2.275-47.862,182.977,4.655.83,46.193Z" transform="translate(-914.575 -531.806)" fill="url(#linear-gradient-9)"/>
          <path id="Caminho_8668" data-name="Caminho 8668" d="M964.6,641.85l83.08,1.332a2.732,2.732,0,0,0,2.8-2.941l-.018-.314a3.249,3.249,0,0,0-3.138-3.024l-82.8-1.287a2.851,2.851,0,0,0-2.9,2.91l0,.311A3.046,3.046,0,0,0,964.6,641.85Z" transform="translate(-948.592 -606.847)" fill="url(#linear-gradient-9)"/>
          <path id="Caminho_8669" data-name="Caminho 8669" d="M1048.68,695.827l-83.532-1.4a2.885,2.885,0,0,0-2.922,2.958l0,.317a3.092,3.092,0,0,0,2.993,3.07l83.818,1.45a2.764,2.764,0,0,0,2.826-2.99l-.018-.32A3.3,3.3,0,0,0,1048.68,695.827Z" transform="translate(-949.02 -649.356)" fill="url(#linear-gradient-9)"/>
          <path id="Caminho_8670" data-name="Caminho 8670" d="M1417.173,648.96a2.776,2.776,0,0,0,2.865-3.114,3.611,3.611,0,0,0-3.454-3.2l-36.485-.567a2.828,2.828,0,0,0-2.91,3.093,3.507,3.507,0,0,0,3.373,3.2Z" transform="translate(-1248.979 -611.517)" fill="url(#linear-gradient-9)"/>
          <path id="Caminho_8671" data-name="Caminho 8671" d="M1424.708,705.352a3.666,3.666,0,0,0-3.488-3.263l-36.813-.619a2.861,2.861,0,0,0-2.934,3.145,3.56,3.56,0,0,0,3.405,3.264l36.941.639A2.81,2.81,0,0,0,1424.708,705.352Z" transform="translate(-1252.075 -654.45)" fill="url(#linear-gradient-9)"/>
        </g>
        <path id="Caminho_8672" data-name="Caminho 8672" d="M1104.78,414.015a3.249,3.249,0,0,1-3.167,3.29l-170.348-.344a3.464,3.464,0,0,1-3.45-3.468V413.2a3.443,3.443,0,0,1,3.453-3.449l170.411.676a3.2,3.2,0,0,1,3.1,3.31Z" transform="translate(-924.146 -409.754)" fill="url(#linear-gradient-9)"/>
        <path id="Caminho_8673" data-name="Caminho 8673" d="M1104.627,467.606a3.26,3.26,0,0,1-3.165,3.3l-170.216.347A3.442,3.442,0,0,1,927.8,467.8v-.289a3.455,3.455,0,0,1,3.45-3.457l170.279-.017a3.178,3.178,0,0,1,3.1,3.292Z" transform="translate(-924.134 -448.995)" fill="url(#linear-gradient-9)"/>
        <g id="Grupo_4546" data-name="Grupo 4546" transform="translate(5.412 114.741)">
          <path id="Caminho_8674" data-name="Caminho 8674" d="M967.5,886.783h-.067l-24.3-.1a6.586,6.586,0,0,1-6.753-5.569l-2.249-20.373a4.487,4.487,0,0,1,1.042-3.381,5.39,5.39,0,0,1,3.747-1.875h0c2.049-.151,4.87-.407,7.974-.689,6.759-.613,14.42-1.309,18.922-1.39l.1,0a6.834,6.834,0,0,1,6.787,4.766c1.294,4.681,1.231,13.543,1.043,22.985A6.062,6.062,0,0,1,967.5,886.783Zm-28.43-29.32a3.4,3.4,0,0,0-2.37,1.165,2.52,2.52,0,0,0-.6,1.9l2.249,20.373a4.614,4.614,0,0,0,4.79,3.8l24.3.1h.048a4.082,4.082,0,0,0,4.278-3.685c.186-9.289.251-17.993-.972-22.418a4.907,4.907,0,0,0-4.939-3.309c-4.43.08-12.386.8-18.779,1.381-3.117.283-5.95.54-8.007.693Z" transform="translate(-934.105 -845.196)" fill="#fff"/>
          <path id="Caminho_8675" data-name="Caminho 8675" d="M953.344,871.046c5.1-.377,16.188-1.565,21.449-1.659a4.7,4.7,0,0,1,4.725,3.226c1.036,3.748.943,11.233.8,18.141a4.042,4.042,0,0,1-4.252,3.721l-19.416-.079a4.485,4.485,0,0,1-4.613-3.746l-1.8-16.28A3.154,3.154,0,0,1,953.344,871.046Z" transform="translate(-945.76 -856.748)" fill="url(#linear-gradient-9)"/>
          <path id="Caminho_8676" data-name="Caminho 8676" d="M1253.01,899.549l-118.8-2.17a4.793,4.793,0,0,0-4.716,6.041l.647,2.4a4.794,4.794,0,0,0,4.655,3.545l117.726-.651a4.793,4.793,0,0,0,4.765-4.925A4.36,4.36,0,0,0,1253.01,899.549Z" transform="translate(-1075.227 -876.983)" fill="url(#linear-gradient-9)"/>
          <path id="Caminho_8677" data-name="Caminho 8677" d="M960.293,841.273h0a3.729,3.729,0,0,1,5.151,1.371l4.84,8.564a1.2,1.2,0,0,0,2.138-.1l11.739-26.526a1.327,1.327,0,0,1,2.54.559,52.242,52.242,0,0,1-15,36.441s-7.142-2.731-12.951-15.3A3.912,3.912,0,0,1,960.293,841.273Z" transform="translate(-951.658 -823.784)" fill="#00c3ff"/>
        </g>
        <g id="Grupo_4547" data-name="Grupo 4547" transform="translate(5.412 166.834)">
          <path id="Caminho_8678" data-name="Caminho 8678" d="M967.5,1074.758h-.067l-24.3-.1a6.587,6.587,0,0,1-6.753-5.569l-2.249-20.373a4.487,4.487,0,0,1,1.042-3.381,5.388,5.388,0,0,1,3.747-1.875h0c2.049-.151,4.87-.407,7.974-.689,6.759-.613,14.42-1.309,18.922-1.39l.1,0a6.834,6.834,0,0,1,6.787,4.766c1.294,4.681,1.231,13.543,1.043,22.985A6.062,6.062,0,0,1,967.5,1074.758Zm-28.43-29.32a3.4,3.4,0,0,0-2.37,1.165,2.519,2.519,0,0,0-.6,1.9l2.249,20.373a4.614,4.614,0,0,0,4.79,3.805l24.3.1h.048a4.082,4.082,0,0,0,4.278-3.685c.186-9.289.251-17.993-.972-22.418a4.907,4.907,0,0,0-4.939-3.309c-4.43.08-12.386.8-18.779,1.382-3.117.283-5.95.54-8.007.693Z" transform="translate(-934.105 -1033.171)" fill="#fff"/>
          <path id="Caminho_8679" data-name="Caminho 8679" d="M953.344,1059.02c5.1-.377,16.188-1.565,21.449-1.66a4.7,4.7,0,0,1,4.725,3.226c1.036,3.748.943,11.233.8,18.141a4.042,4.042,0,0,1-4.252,3.721l-19.416-.079a4.486,4.486,0,0,1-4.613-3.746l-1.8-16.28A3.153,3.153,0,0,1,953.344,1059.02Z" transform="translate(-945.76 -1044.722)" fill="url(#linear-gradient-9)"/>
          <path id="Caminho_8680" data-name="Caminho 8680" d="M1253.01,1087.523l-118.8-2.17a4.794,4.794,0,0,0-4.716,6.041l.647,2.4a4.794,4.794,0,0,0,4.655,3.545l117.726-.651a4.793,4.793,0,0,0,4.765-4.925A4.361,4.361,0,0,0,1253.01,1087.523Z" transform="translate(-1075.227 -1064.957)" fill="url(#linear-gradient-9)"/>
          <path id="Caminho_8681" data-name="Caminho 8681" d="M960.293,1029.247h0a3.729,3.729,0,0,1,5.151,1.371l4.84,8.564a1.2,1.2,0,0,0,2.138-.1l11.739-26.527a1.327,1.327,0,0,1,2.54.559,52.241,52.241,0,0,1-15,36.441s-7.142-2.731-12.951-15.3A3.912,3.912,0,0,1,960.293,1029.247Z" transform="translate(-951.658 -1011.758)" fill="#00c3ff"/>
        </g>
        <g id="Grupo_4548" data-name="Grupo 4548" transform="translate(5.412 218.928)">
          <path id="Caminho_8682" data-name="Caminho 8682" d="M967.5,1262.732h-.067l-24.3-.1a6.587,6.587,0,0,1-6.753-5.57l-2.249-20.373a4.487,4.487,0,0,1,1.042-3.381,5.39,5.39,0,0,1,3.747-1.875h0c2.049-.15,4.87-.407,7.974-.689,6.759-.613,14.42-1.309,18.922-1.39l.1,0a6.834,6.834,0,0,1,6.787,4.766c1.294,4.681,1.231,13.543,1.043,22.985A6.063,6.063,0,0,1,967.5,1262.732Zm-28.43-29.32a3.4,3.4,0,0,0-2.37,1.165,2.519,2.519,0,0,0-.6,1.9l2.249,20.373a4.613,4.613,0,0,0,4.79,3.8l24.3.1h.048a4.082,4.082,0,0,0,4.278-3.685c.186-9.289.251-17.993-.972-22.418a4.907,4.907,0,0,0-4.939-3.309c-4.43.08-12.386.8-18.779,1.382-3.117.283-5.95.54-8.007.693Z" transform="translate(-934.105 -1221.145)" fill="#fff"/>
          <path id="Caminho_8683" data-name="Caminho 8683" d="M953.344,1246.995c5.1-.377,16.188-1.565,21.449-1.659a4.7,4.7,0,0,1,4.725,3.226c1.036,3.749.943,11.233.8,18.141a4.042,4.042,0,0,1-4.252,3.721l-19.416-.079a4.485,4.485,0,0,1-4.613-3.746l-1.8-16.28A3.154,3.154,0,0,1,953.344,1246.995Z" transform="translate(-945.76 -1232.697)" fill="url(#linear-gradient-9)"/>
          <path id="Caminho_8684" data-name="Caminho 8684" d="M1253.01,1275.5l-118.8-2.17a4.793,4.793,0,0,0-4.716,6.041l.647,2.4a4.793,4.793,0,0,0,4.655,3.545l117.726-.651a4.793,4.793,0,0,0,4.765-4.925A4.361,4.361,0,0,0,1253.01,1275.5Z" transform="translate(-1075.227 -1252.932)" fill="url(#linear-gradient-9)"/>
          <path id="Caminho_8685" data-name="Caminho 8685" d="M960.293,1217.222h0a3.729,3.729,0,0,1,5.151,1.371l4.84,8.564a1.2,1.2,0,0,0,2.138-.1l11.739-26.526a1.327,1.327,0,0,1,2.54.559,52.242,52.242,0,0,1-15,36.441s-7.142-2.731-12.951-15.3A3.912,3.912,0,0,1,960.293,1217.222Z" transform="translate(-951.658 -1199.733)" fill="#00c3ff"/>
        </g>
      </g>
    </g>
    <g id="Grupo_4551" data-name="Grupo 4551" transform="translate(311.356 253.75)">
      <path id="Caminho_8686" data-name="Caminho 8686" d="M816.749,637.8l-23.593,58.768a2.184,2.184,0,0,0,2.492,2.947l22.483-4.906a2.184,2.184,0,0,1,2.2.811l13.136,17.25a2.183,2.183,0,0,0,3.891-.964l11.04-66.355Z" transform="translate(-792.999 -633.842)" fill="#002740"/>
      <path id="Caminho_8687" data-name="Caminho 8687" d="M1009.829,682.29l-23.593-58.768-31.652,7.55,11.04,66.355a2.183,2.183,0,0,0,3.891.964l13.136-17.25a2.183,2.183,0,0,1,2.2-.81l22.483,4.905a2.183,2.183,0,0,0,2.492-2.947Z" transform="translate(-909.804 -623.522)" fill="#002740"/>
    </g>
    <path id="Caminho_8688" data-name="Caminho 8688" d="M885.784,401.092l-2.892-2.131a3.747,3.747,0,0,1-.823-5.2l2.092-2.92A3.748,3.748,0,0,0,882.3,385.1l-3.409-1.133a3.747,3.747,0,0,1-2.39-4.69l1.087-3.423a3.747,3.747,0,0,0-3.547-4.881l-3.592-.024a3.747,3.747,0,0,1-3.722-3.722l-.024-3.592a3.748,3.748,0,0,0-4.881-3.547l-3.423,1.087a3.748,3.748,0,0,1-4.69-2.39l-1.133-3.408a3.747,3.747,0,0,0-5.739-1.865l-2.92,2.092a3.747,3.747,0,0,1-5.2-.823l-2.131-2.892a3.747,3.747,0,0,0-6.034,0l-2.131,2.892a3.747,3.747,0,0,1-5.2.823l-2.92-2.092a3.748,3.748,0,0,0-5.739,1.865l-1.133,3.408a3.748,3.748,0,0,1-4.69,2.39l-3.423-1.087a3.747,3.747,0,0,0-4.881,3.547l-.024,3.592a3.747,3.747,0,0,1-3.722,3.722l-3.592.024a3.747,3.747,0,0,0-3.547,4.881l1.087,3.423a3.747,3.747,0,0,1-2.39,4.69l-3.409,1.133a3.747,3.747,0,0,0-1.865,5.739l2.092,2.92a3.747,3.747,0,0,1-.824,5.2l-2.892,2.131a3.748,3.748,0,0,0,0,6.034l2.892,2.131a3.747,3.747,0,0,1,.824,5.2l-2.092,2.92a3.747,3.747,0,0,0,1.865,5.738l3.409,1.133a3.747,3.747,0,0,1,2.39,4.69l-1.087,3.423a3.747,3.747,0,0,0,3.547,4.882l3.592.024a3.747,3.747,0,0,1,3.722,3.722l.024,3.592a3.747,3.747,0,0,0,4.881,3.547l3.423-1.087a3.747,3.747,0,0,1,4.69,2.39l1.133,3.409A3.747,3.747,0,0,0,820.3,454.7l2.92-2.092a3.747,3.747,0,0,1,5.2.824l2.131,2.892a3.747,3.747,0,0,0,6.034,0l2.131-2.892a3.747,3.747,0,0,1,5.2-.824l2.92,2.092a3.747,3.747,0,0,0,5.739-1.864l1.133-3.409a3.747,3.747,0,0,1,4.69-2.39l3.423,1.087a3.747,3.747,0,0,0,4.881-3.547l.024-3.592a3.747,3.747,0,0,1,3.722-3.722l3.592-.024a3.748,3.748,0,0,0,3.547-4.882l-1.087-3.423a3.748,3.748,0,0,1,2.39-4.69l3.409-1.133a3.747,3.747,0,0,0,1.865-5.738l-2.092-2.92a3.747,3.747,0,0,1,.823-5.2l2.892-2.131a3.747,3.747,0,0,0,0-6.034Z" transform="translate(-472.119 -172.316)" fill="#002740"/>
    <g id="Grupo_4552" data-name="Grupo 4552" transform="translate(302.478 172.824)">
      <circle id="Elipse_68" data-name="Elipse 68" cx="41.697" cy="41.697" r="41.697" transform="translate(0 58.969) rotate(-45)" fill="#37a4d6"/>
    </g>
    <g id="Grupo_4554" data-name="Grupo 4554" transform="translate(310.214 180.315)">
      <g id="Grupo_4553" data-name="Grupo 4553">
        <circle id="Elipse_69" data-name="Elipse 69" cx="36.401" cy="36.401" r="36.401" transform="translate(0 51.478) rotate(-45)" fill="#039"/>
      </g>
    </g>
    <g id="Grupo_4555" data-name="Grupo 4555" transform="translate(291.727 350.729)">
      <path id="Caminho_8689" data-name="Caminho 8689" d="M722.376,1083.931l1.27-1.678a1.043,1.043,0,1,1,1.663,1.259l0,.005-.02.026-1.241,1.618-.02.026a1.036,1.036,0,0,1-1.649-1.256Z" transform="translate(-722.166 -1051.804)" fill="url(#linear-gradient-9)"/>
      <path id="Caminho_8690" data-name="Caminho 8690" d="M738.176,1064.872l1.435-1.539a1.065,1.065,0,0,1,1.559,1.453l0,.005-.022.023-1.4,1.483-.022.023a1.059,1.059,0,0,1-1.544-1.449Z" transform="translate(-733.533 -1038.181)" fill="url(#linear-gradient-9)"/>
      <path id="Caminho_8691" data-name="Caminho 8691" d="M755.851,1047.543l1.579-1.39a1.088,1.088,0,0,1,1.438,1.633l-.005,0-.024.02-1.541,1.339-.024.021a1.081,1.081,0,0,1-1.423-1.628Z" transform="translate(-746.251 -1025.811)" fill="url(#linear-gradient-9)"/>
      <path id="Caminho_8692" data-name="Caminho 8692" d="M775.149,1032.027l1.7-1.236a1.11,1.11,0,0,1,1.3,1.8l-.006,0-.024.017-1.66,1.189-.025.018a1.1,1.1,0,0,1-1.291-1.79Z" transform="translate(-760.137 -1014.75)" fill="url(#linear-gradient-9)"/>
      <path id="Caminho_8693" data-name="Caminho 8693" d="M795.819,1018.357l1.8-1.08a1.133,1.133,0,0,1,1.164,1.944l-.006,0-.025.015-1.76,1.038-.025.015a1.126,1.126,0,0,1-1.151-1.935Z" transform="translate(-775.012 -1005.018)" fill="url(#linear-gradient-9)"/>
      <path id="Caminho_8694" data-name="Caminho 8694" d="M817.625,1006.539l1.886-.925a1.155,1.155,0,0,1,1.017,2.074l-.007,0-.025.012-1.841.888-.026.012a1.148,1.148,0,0,1-1-2.065Z" transform="translate(-790.706 -996.617)" fill="url(#linear-gradient-9)"/>
      <path id="Caminho_8695" data-name="Caminho 8695" d="M840.355,996.551l1.953-.772a1.178,1.178,0,0,1,.866,2.19l-.007,0-.025.01-1.907.739-.026.01a1.171,1.171,0,0,1-.854-2.18Z" transform="translate(-807.066 -989.534)" fill="url(#linear-gradient-9)"/>
      <path id="Caminho_8696" data-name="Caminho 8696" d="M863.817,988.373l2.005-.62a1.2,1.2,0,1,1,.708,2.29l-.006,0-.026.008-1.957.594-.026.008a1.193,1.193,0,0,1-.7-2.282Z" transform="translate(-823.953 -983.753)" fill="url(#linear-gradient-9)"/>
      <path id="Caminho_8697" data-name="Caminho 8697" d="M887.876,982.019l2.046-.469a1.206,1.206,0,1,1,.539,2.351h0l-.025.006-2,.453-.026.006a1.2,1.2,0,0,1-.535-2.348Z" transform="translate(-841.277 -979.286)" fill="url(#linear-gradient-9)"/>
      <path id="Caminho_8698" data-name="Caminho 8698" d="M912.374,977.424l2.073-.322a1.214,1.214,0,1,1,.372,2.4h0l-.026,0-2.023.31-.026,0a1.212,1.212,0,0,1-.369-2.4Z" transform="translate(-858.92 -976.082)" fill="url(#linear-gradient-9)"/>
      <path id="Caminho_8699" data-name="Caminho 8699" d="M937.16,974.579l2.091-.175a1.222,1.222,0,1,1,.2,2.435h0l-.026,0-2.04.166-.026,0a1.219,1.219,0,0,1-.2-2.43Z" transform="translate(-876.771 -974.139)" fill="url(#linear-gradient-9)"/>
      <path id="Caminho_8700" data-name="Caminho 8700" d="M962.11,973.487l2.1-.028a1.229,1.229,0,1,1,.032,2.459h-.029l-2.047.022h-.026a1.227,1.227,0,0,1-.029-2.454Z" transform="translate(-894.739 -973.46)" fill="url(#linear-gradient-9)"/>
      <path id="Caminho_8701" data-name="Caminho 8701" d="M987.1,973.809l2.093.107a1.237,1.237,0,0,1-.126,2.471h-.025L987,976.277h-.022a1.235,1.235,0,0,1,.129-2.466Z" transform="translate(-912.742 -973.711)" fill="url(#linear-gradient-9)"/>
      <path id="Caminho_8702" data-name="Caminho 8702" d="M1012.018,975.606l2.081.231a1.245,1.245,0,1,1-.274,2.475h0l-.021,0-2.038-.23-.022,0a1.243,1.243,0,0,1,.277-2.47Z" transform="translate(-930.694 -975.006)" fill="url(#linear-gradient-9)"/>
      <path id="Caminho_8703" data-name="Caminho 8703" d="M1036.783,978.851l2.064.346a1.253,1.253,0,0,1-.415,2.471h0l-.02,0-2.023-.344-.02,0a1.25,1.25,0,0,1,.417-2.466Z" transform="translate(-948.539 -977.344)" fill="url(#linear-gradient-9)"/>
      <path id="Caminho_8704" data-name="Caminho 8704" d="M1061.328,983.445l2.042.453a1.26,1.26,0,0,1-.547,2.461h0l-.018,0-2-.45-.019,0a1.258,1.258,0,0,1,.549-2.455Z" transform="translate(-966.229 -980.656)" fill="url(#linear-gradient-9)"/>
      <path id="Caminho_8705" data-name="Caminho 8705" d="M1085.6,989.285l2.016.552a1.268,1.268,0,0,1-.67,2.446h0l-.017,0-1.981-.547-.017,0a1.266,1.266,0,0,1,.671-2.441Z" transform="translate(-983.726 -984.866)" fill="url(#linear-gradient-9)"/>
      <path id="Caminho_8706" data-name="Caminho 8706" d="M1109.569,996.265l1.988.642a1.276,1.276,0,0,1-.783,2.428h0l-.016-.005-1.955-.635-.016-.005a1.274,1.274,0,0,1,.785-2.423Z" transform="translate(-1001.005 -989.899)" fill="url(#linear-gradient-9)"/>
      <path id="Caminho_8707" data-name="Caminho 8707" d="M1133.2,1004.284l1.957.722a1.283,1.283,0,0,1-.889,2.408h0l-.014-.005-1.927-.716-.014-.005a1.281,1.281,0,0,1,.89-2.4Z" transform="translate(-1018.046 -995.683)" fill="url(#linear-gradient-9)"/>
      <path id="Caminho_8708" data-name="Caminho 8708" d="M1156.485,1013.242l1.93.8a1.291,1.291,0,0,1-.985,2.387h0l-.013-.005-1.9-.79-.013-.005a1.289,1.289,0,0,1,.986-2.382Z" transform="translate(-1034.835 -1002.145)" fill="url(#linear-gradient-9)"/>
      <path id="Caminho_8709" data-name="Caminho 8709" d="M1179.428,1023.057l1.9.864a1.3,1.3,0,0,1-1.074,2.366h0l-.012-.005-1.876-.857-.012-.005a1.3,1.3,0,0,1,1.075-2.36Z" transform="translate(-1051.382 -1009.227)" fill="url(#linear-gradient-9)"/>
      <path id="Caminho_8710" data-name="Caminho 8710" d="M1202.029,1033.644l1.869.922a1.307,1.307,0,1,1-1.156,2.344h0l-.011-.005-1.846-.916-.01-.005a1.3,1.3,0,0,1,1.156-2.338Z" transform="translate(-1067.684 -1016.867)" fill="url(#linear-gradient-9)"/>
      <path id="Caminho_8711" data-name="Caminho 8711" d="M1224.278,1044.919l1.843.977a1.314,1.314,0,1,1-1.231,2.323h0l-.01-.005-1.821-.97-.01-.005a1.312,1.312,0,0,1,1.231-2.317Z" transform="translate(-1083.734 -1025.004)" fill="url(#linear-gradient-9)"/>
      <path id="Caminho_8712" data-name="Caminho 8712" d="M1246.2,1056.818l1.813,1.022a1.322,1.322,0,0,1-1.3,2.3h0l-.008,0-1.795-1.017-.008,0a1.32,1.32,0,0,1,1.3-2.3Z" transform="translate(-1099.552 -1033.593)" fill="url(#linear-gradient-9)"/>
      <path id="Caminho_8713" data-name="Caminho 8713" d="M1267.807,1069.236l1.788,1.06a1.33,1.33,0,1,1-1.356,2.288h0l-.007,0-1.772-1.056-.007,0a1.328,1.328,0,0,1,1.356-2.282Z" transform="translate(-1115.144 -1042.558)" fill="url(#linear-gradient-9)"/>
      <path id="Caminho_8714" data-name="Caminho 8714" d="M1289.155,1082.1l1.767,1.092a1.337,1.337,0,1,1-1.406,2.276l0,0-.005,0-1.754-1.089-.005,0a1.335,1.335,0,0,1,1.406-2.27Z" transform="translate(-1130.552 -1051.845)" fill="url(#linear-gradient-9)"/>
      <path id="Caminho_8715" data-name="Caminho 8715" d="M1310.274,1095.322l1.75,1.118a1.345,1.345,0,1,1-1.448,2.267h0l0,0-1.738-1.116,0,0a1.343,1.343,0,0,1,1.448-2.262Z" transform="translate(-1145.798 -1061.396)" fill="url(#linear-gradient-9)"/>
      <path id="Caminho_8716" data-name="Caminho 8716" d="M1331.2,1108.829l1.736,1.137a1.353,1.353,0,0,1-1.483,2.264l0,0,0,0-1.727-1.137,0,0a1.351,1.351,0,0,1,1.483-2.258Z" transform="translate(-1160.903 -1071.153)" fill="url(#linear-gradient-9)"/>
      <path id="Caminho_8717" data-name="Caminho 8717" d="M1351.974,1122.557l1.725,1.153a1.358,1.358,0,1,1-1.512,2.257l-1.72-1.15a1.358,1.358,0,1,1,1.505-2.262Z" transform="translate(-1175.907 -1081.072)" fill="url(#linear-gradient-9)"/>
      <path id="Caminho_8718" data-name="Caminho 8718" d="M1372.684,1136.474l1.717,1.163a1.351,1.351,0,0,1-1.513,2.238l-1.718-1.158a1.353,1.353,0,0,1,1.51-2.245Z" transform="translate(-1190.879 -1091.13)" fill="url(#linear-gradient-9)"/>
      <path id="Caminho_8719" data-name="Caminho 8719" d="M1393.352,1150.479l1.715,1.165a1.343,1.343,0,0,1-1.508,2.224l-1.717-1.161a1.346,1.346,0,1,1,1.508-2.229Z" transform="translate(-1205.826 -1101.253)" fill="url(#linear-gradient-9)"/>
      <path id="Caminho_8720" data-name="Caminho 8720" d="M1414.011,1164.486l1.716,1.161a1.336,1.336,0,0,1-1.494,2.215l-1.721-1.159a1.338,1.338,0,0,1,1.5-2.22Z" transform="translate(-1220.769 -1111.38)" fill="url(#linear-gradient-9)"/>
      <path id="Caminho_8721" data-name="Caminho 8721" d="M1434.709,1178.427l1.721,1.152a1.328,1.328,0,1,1-1.473,2.211l-1.728-1.151a1.331,1.331,0,0,1,1.475-2.215Z" transform="translate(-1235.743 -1121.461)" fill="url(#linear-gradient-9)"/>
      <path id="Caminho_8722" data-name="Caminho 8722" d="M1455.49,1192.232l1.729,1.136,0,0a1.321,1.321,0,0,1-1.448,2.21l-1.739-1.136a1.323,1.323,0,0,1,1.448-2.215l0,0Z" transform="translate(-1250.78 -1131.445)" fill="url(#linear-gradient-9)"/>
      <path id="Caminho_8723" data-name="Caminho 8723" d="M1476.4,1205.828l1.743,1.114.006,0a1.314,1.314,0,0,1-1.412,2.215l-1.756-1.117a1.316,1.316,0,1,1,1.412-2.22l0,0Z" transform="translate(-1265.911 -1141.279)" fill="url(#linear-gradient-9)"/>
      <path id="Caminho_8724" data-name="Caminho 8724" d="M1497.505,1219.1l1.761,1.074.008.005a1.306,1.306,0,0,1-1.358,2.232l-1.78-1.08a1.308,1.308,0,0,1,1.357-2.237l0,0Z" transform="translate(-1281.191 -1150.884)" fill="url(#linear-gradient-9)"/>
      <path id="Caminho_8725" data-name="Caminho 8725" d="M1518.9,1231.867l1.788,1.024.01.006a1.3,1.3,0,0,1-1.288,2.255l-1.812-1.032a1.3,1.3,0,1,1,1.288-2.26h0Z" transform="translate(-1296.688 -1160.126)" fill="url(#linear-gradient-9)"/>
      <path id="Caminho_8726" data-name="Caminho 8726" d="M1540.667,1243.985l1.82.96.013.007a1.291,1.291,0,0,1-1.2,2.285l-1.848-.97a1.293,1.293,0,0,1,1.2-2.29h0Z" transform="translate(-1312.455 -1168.901)" fill="url(#linear-gradient-9)"/>
      <path id="Caminho_8727" data-name="Caminho 8727" d="M1562.854,1255.286l1.856.882.016.007a1.284,1.284,0,0,1-1.1,2.32l-1.89-.893a1.286,1.286,0,0,1,1.1-2.325h0Z" transform="translate(-1328.534 -1177.087)" fill="url(#linear-gradient-9)"/>
      <path id="Caminho_8728" data-name="Caminho 8728" d="M1585.51,1265.589l1.895.788.019.008a1.276,1.276,0,0,1-.977,2.358l-1.935-.8a1.278,1.278,0,0,1,.977-2.363h0Z" transform="translate(-1344.958 -1184.554)" fill="url(#linear-gradient-9)"/>
      <path id="Caminho_8729" data-name="Caminho 8729" d="M1608.667,1274.679l1.934.675.023.008a1.269,1.269,0,0,1-.833,2.4l-1.981-.687a1.271,1.271,0,1,1,.832-2.4h0Z" transform="translate(-1361.752 -1191.145)" fill="url(#linear-gradient-9)"/>
      <path id="Caminho_8730" data-name="Caminho 8730" d="M1632.327,1282.321l1.972.54.027.008a1.261,1.261,0,0,1-.664,2.433l-2.027-.551a1.263,1.263,0,1,1,.663-2.438h0Z" transform="translate(-1378.919 -1196.688)" fill="url(#linear-gradient-9)"/>
      <path id="Caminho_8731" data-name="Caminho 8731" d="M1656.459,1288.251l2,.385.031.006a1.253,1.253,0,0,1-.469,2.463l-2.067-.392a1.256,1.256,0,1,1,.468-2.468h0Z" transform="translate(-1396.437 -1200.992)" fill="url(#linear-gradient-9)"/>
      <path id="Caminho_8732" data-name="Caminho 8732" d="M1680.979,1292.2l2.027.207.035,0a1.246,1.246,0,0,1-.25,2.48l-2.1-.21a1.248,1.248,0,1,1,.248-2.484h0Z" transform="translate(-1414.244 -1203.857)" fill="url(#linear-gradient-9)"/>
      <path id="Caminho_8733" data-name="Caminho 8733" d="M1705.743,1293.9l2.036.01h.037a1.239,1.239,0,0,1-.01,2.477l-2.11-.006a1.241,1.241,0,0,1,.007-2.482h.04Z" transform="translate(-1432.235 -1205.094)" fill="url(#linear-gradient-9)"/>
      <path id="Caminho_8734" data-name="Caminho 8734" d="M1730.574,1292.6l2.02-.2.044,0a1.231,1.231,0,0,1,.247,2.45c-.7.071-1.4.152-2.105.215a1.234,1.234,0,0,1-.234-2.456Z" transform="translate(-1450.29 -1204.001)" fill="url(#linear-gradient-9)"/>
      <path id="Caminho_8735" data-name="Caminho 8735" d="M1755.094,1288.5l1.981-.434.041-.009a1.224,1.224,0,0,1,.527,2.39l-2.062.457a1.226,1.226,0,0,1-.53-2.394h0Z" transform="translate(-1468.112 -1200.85)" fill="url(#linear-gradient-9)"/>
      <path id="Caminho_8736" data-name="Caminho 8736" d="M1779.085,1281.65l1.924-.654.038-.013a1.216,1.216,0,0,1,.786,2.3l-2,.684a1.219,1.219,0,0,1-.79-2.306h0Z" transform="translate(-1485.556 -1195.712)" fill="url(#linear-gradient-9)"/>
      <path id="Caminho_8737" data-name="Caminho 8737" d="M1802.253,1272.246l1.842-.856.035-.016a1.209,1.209,0,0,1,1.021,2.191l-1.91.893a1.211,1.211,0,0,1-1.026-2.195h0Z" transform="translate(-1502.396 -1188.731)" fill="url(#linear-gradient-9)"/>
      <path id="Caminho_8738" data-name="Caminho 8738" d="M1824.349,1260.485l1.748-1.045.031-.019a1.2,1.2,0,0,1,1.235,2.061l-1.809,1.086a1.2,1.2,0,1,1-1.24-2.063h0Z" transform="translate(-1518.454 -1180.049)" fill="url(#linear-gradient-9)"/>
      <path id="Caminho_8739" data-name="Caminho 8739" d="M1845.2,1246.572l1.639-1.215.029-.021a1.187,1.187,0,0,1,1.419,1.9l-1.689,1.268a1.193,1.193,0,1,1-1.432-1.908l.006,0Z" transform="translate(-1533.604 -1169.822)" fill="url(#linear-gradient-9)"/>
      <path id="Caminho_8740" data-name="Caminho 8740" d="M1864.638,1230.708l1.509-1.37.026-.023a1.165,1.165,0,0,1,1.571,1.719l-1.551,1.427a1.171,1.171,0,0,1-1.586-1.724l.005,0Z" transform="translate(-1547.728 -1158.191)" fill="url(#linear-gradient-9)"/>
      <path id="Caminho_8741" data-name="Caminho 8741" d="M1882.43,1213.034l1.365-1.514.023-.026a1.143,1.143,0,0,1,1.7,1.526l-1.4,1.573a1.15,1.15,0,1,1-1.717-1.529l0-.005Z" transform="translate(-1560.655 -1145.255)" fill="url(#linear-gradient-9)"/>
      <path id="Caminho_8742" data-name="Caminho 8742" d="M1898.4,1193.7l1.207-1.646.02-.028a1.121,1.121,0,0,1,1.813,1.32l-1.237,1.709a1.128,1.128,0,0,1-1.827-1.322l0-.006Z" transform="translate(-1572.258 -1131.125)" fill="url(#linear-gradient-9)"/>
      <path id="Caminho_8743" data-name="Caminho 8743" d="M1912.362,1172.89l1.028-1.759.017-.03a1.1,1.1,0,0,1,1.9,1.1l-1.052,1.826a1.106,1.106,0,0,1-1.917-1.1l0-.006Z" transform="translate(-1582.4 -1115.934)" fill="url(#linear-gradient-9)"/>
      <path id="Caminho_8744" data-name="Caminho 8744" d="M1924.08,1150.792l.832-1.856.015-.033a1.078,1.078,0,0,1,1.97.876l-.849,1.927a1.085,1.085,0,0,1-1.985-.875l0-.006Z" transform="translate(-1590.914 -1099.821)" fill="url(#linear-gradient-9)"/>
      <path id="Caminho_8745" data-name="Caminho 8745" d="M1933.344,1127.611l.619-1.937.011-.034a1.056,1.056,0,0,1,2.014.637l-.629,2.01a1.063,1.063,0,0,1-2.029-.635l0-.006Z" transform="translate(-1597.645 -1082.935)" fill="url(#linear-gradient-9)"/>
      <path id="Caminho_8746" data-name="Caminho 8746" d="M1939.939,1104.79l.31-1.554.006-.028a1.036,1.036,0,0,1,2.034.4l-.312,1.613a1.041,1.041,0,1,1-2.045-.4v-.006Z" transform="translate(-1602.438 -1066.648)" fill="url(#linear-gradient-9)"/>
    </g>
    <g id="Grupo_4556" data-name="Grupo 4556" transform="translate(229.262 265.833)">
      <path id="Caminho_8748" data-name="Caminho 8748" d="M588.88,671.614l-86.954-4.49c-1.705-.088-3.142.941-3.192,2.287l-1.964,52.655c-.05,1.355,1.32,2.5,3.038,2.536,15.743.331,85.639,1.809,88.716,2.048,3.042.236,3.27-42.122,3.28-52.576A2.816,2.816,0,0,0,588.88,671.614Z" transform="translate(-496.768 -667.119)" fill="#fff"/>
      <path id="Caminho_8749" data-name="Caminho 8749" d="M593.207,729.556c-11.472-.383-74.556-1.716-87.085-1.979H506.1a.606.606,0,0,1-.61-.591l1.964-52.655a.535.535,0,0,1,.231-.417.694.694,0,0,1,.44-.124l86.954,4.49a.609.609,0,0,1,.611.57c-.025,25.86-.888,45.679-2.2,50.493l-.06.221Zm-85.172-55.2-1.971,52.624a.086.086,0,0,0,.053.022h.018c12.448.262,74.794,1.578,86.86,1.972,1.265-5.133,2.1-24.689,2.128-50.089a.11.11,0,0,0-.07-.024L508.1,674.367h-.017C508.06,674.368,508.041,674.368,508.035,674.352Z" transform="translate(-503.075 -671.94)" fill="#00c3ff"/>
    </g>
    <path id="Caminho_8751" data-name="Caminho 8751" d="M500.895,1463.056c.009.148-4.8.08-7.415.033a2.079,2.079,0,0,1-1.993-1.639l-1.974-10.369a1.864,1.864,0,0,1,1.416-2.166l1.1-.252s1.571,2.156,1.077,4.185-.935,7.287.315,7.9,4.846.72,4.846.72S500.812,1461.72,500.895,1463.056Z" transform="translate(-262.237 -966.241)" fill="#1250b3"/>
    <g id="woman_1">
      <path id="Caminho_8747" data-name="Caminho 8747" d="M583.84,872.839s18.313,23.446-2.581,47.293L573.4,919.4s15.121-24.279,8.386-43.633l-11.127.812-6.153-4.011Z" transform="translate(-316.475 -549.8)" fill="url(#linear-gradient-80)"/>
      <path id="Caminho_8750" data-name="Caminho 8750" d="M525.721,1271.622s-14.837,32.338-22.622,45.732c0,0-1.546,8.428,0,11.078l1.317.586-6.15-.183s-.546-11.336-.119-11.97a1.566,1.566,0,0,1,1.28-.592s2.637-20.891,10.273-25.349l7.4-25.49Z" transform="translate(-268.386 -833.791)" fill="url(#linear-gradient-81)"/>
      <path id="Caminho_8752" data-name="Caminho 8752" d="M607.85,1487.179a.543.543,0,0,1-.274,1.015c-4.373-.044-14.174-.182-15.044-.545-1.124-.468.41-4.508,2.024-5.875l8.914,2.909Z" transform="translate(-336.452 -990.176)" fill="#1250b3"/>
      <path id="Caminho_8753" data-name="Caminho 8753" d="M616.9,1280.318s-9.588,46.384-12.3,55.432l6.416,4.026s-3.216-.547-5.6-.72-4.577-2.909-4.577-2.909l.768-1.226s2.4-46.131,1.819-51.37Z" transform="translate(-342.738 -844.549)" fill="url(#linear-gradient-82)"/>
      <path id="Caminho_8754" data-name="Caminho 8754" d="M690.831,854.222s1.322,24.129-20.645,36.458l5.289,12.062s19.889-12.03,19.153-44.84a3.813,3.813,0,0,1,.933-2.569l4.227-4.9a7.588,7.588,0,0,0,1.614-6.8l-.556-2.224a1.153,1.153,0,0,0-1.7-.717l-.442.257a7.762,7.762,0,0,0-3.186,3.542l-2.075,4.64a4.46,4.46,0,0,1-4.455,2.622l-1.283-.111Z" transform="translate(-392.865 -526.645)" fill="url(#linear-gradient-83)"/>
      <path id="Caminho_8755" data-name="Caminho 8755" d="M610.608,1014.843c-3.675,1.019-16.126,4.295-23.9,4.161l4.772,26.931-.38,4.392,15.56-.069s4.38-10.173,7.836-15.245c1-1.465.255-3.212-.31-4.892l.777-.518a2.116,2.116,0,0,0,.839-2.419l-3.789-11.593A1.157,1.157,0,0,0,610.608,1014.843Z" transform="translate(-332.522 -652.615)" fill="#f03e30"/>
      <path id="Caminho_8756" data-name="Caminho 8756" d="M588.785,1133.044l-.306,2.661s4.4,13.169-2.2,43.926c0,0-14.285,4.047-26.026-5.637,0,0,3.312-29.03,4.217-30.382,4.506-6.735,7.507-8.2,7.507-8.2l.135-2.907S584.671,1134.775,588.785,1133.044Z" transform="translate(-313.398 -737.7)" fill="#1250b3"/>
      <path id="Caminho_8757" data-name="Caminho 8757" d="M615.59,996.773c.055-.072-3.249-9.972-3.249-9.972l-4.731.429-1.848,11.231S613.177,999.958,615.59,996.773Z" transform="translate(-346.295 -632.375)" fill="url(#linear-gradient-84)"/>
      <path id="Caminho_8758" data-name="Caminho 8758" d="M591.3,929.2c.315.2,10.11,4.245,8.006,14.413a1.909,1.909,0,0,1-1.086,1.36,16.592,16.592,0,0,1-8.233,1.363c-5.131-.521-8.493-9.475-8.35-12.081S588.175,927.256,591.3,929.2Z" transform="translate(-328.853 -590.39)" fill="url(#linear-gradient-85)"/>
      <path id="Caminho_8759" data-name="Caminho 8759" d="M540.256,917.589s-6.447,5.615-4.356,9.348,1.375,3.36,1.375,3.36-2.793.075-.629,1.941,3.486.672,3.61,2.837,23.516,41.136,9.58,50.892-32.65,6.968-37.827-7.764,11.647-30.759,11.049-43.4c-.27-5.708,2.135-11.657,5.634-16.09,1.63-2.065,3.678-4.406,6.1-5.54a3.724,3.724,0,0,1,3.713-.032C539.462,913.787,540.737,916.445,540.256,917.589Z" transform="translate(-277.807 -578.776)" fill="#002740"/>
      <g id="Grupo_4557" data-name="Grupo 4557" transform="translate(235.767 335.027)" opacity="0.8">
        <path id="Caminho_8760" data-name="Caminho 8760" d="M536.593,1070.121h-.005c-6.351-.227-13.294-5.371-15.477-11.467-2.36-6.589.549-13.411,3.115-19.43l.428-1.006c1.067-2.518,2.24-5.034,3.374-7.467.767-1.645,1.56-3.345,2.312-5.029a.144.144,0,1,1,.263.117c-.753,1.686-1.546,3.388-2.314,5.034-1.133,2.431-2.305,4.945-3.37,7.458l-.428,1.007c-2.545,5.97-5.43,12.738-3.109,19.22,2.147,5.994,8.973,11.053,15.216,11.276a.144.144,0,0,1,0,.288Z" transform="translate(-520.24 -995.474)" fill="#bdd0fb"/>
        <path id="Caminho_8761" data-name="Caminho 8761" d="M606.081,920.329a.144.144,0,0,1-.142-.122,4.417,4.417,0,0,0-2.342-3.131.144.144,0,1,1,.12-.262,4.638,4.638,0,0,1,2.507,3.35.143.143,0,0,1-.121.163Z" transform="translate(-580.436 -916.801)" fill="#fff"/>
      </g>
    </g>
    <g id="Grupo_4565" data-name="Grupo 4565" transform="translate(564.689 330.957)">
      <g id="Grupo_5155" data-name="Grupo 5155">
        <path id="Caminho_8762" data-name="Caminho 8762" d="M1724.049,1084.773s7.389,17.051,11.936,14.778,7.957-21.03,7.957-21.03S1729.733,1075.11,1724.049,1084.773Z" transform="translate(-1719.359 -1029.211)" fill="url(#linear-gradient-86)"/>
        <path id="Caminho_8763" data-name="Caminho 8763" d="M1764.429,1484.416s.618,3.5.92,6.958a2.385,2.385,0,0,1-2.281,2.584c-4.61.192-14.47.565-18.009.407a.776.776,0,0,1-.683-1.063h0a1.737,1.737,0,0,1,.889-.936l16.288-7.486Z" transform="translate(-1734.013 -1323.043)" fill="#002740"/>
        <path id="Caminho_8764" data-name="Caminho 8764" d="M1804.886,1475.318l-.5,4.183s-2.853,1.328-4.8-.167l1.181-4.661Z" transform="translate(-1773.964 -1315.999)" fill="url(#linear-gradient-87)"/>
        <path id="Caminho_8765" data-name="Caminho 8765" d="M1805.407,1193.243c.214,1.092,1.151,54.508-4.559,78.446a.813.813,0,0,0,.477.945,14.139,14.139,0,0,0,4.65.945,1.4,1.4,0,0,0,1.388-1c1.632-5.554,9.453-33.38,10.473-59.962,1.14-29.7,0-1.012,0-1.012l-.669-18.36Z" transform="translate(-1774.858 -1112.561)" fill="#002740"/>
        <path id="Caminho_8766" data-name="Caminho 8766" d="M1867.442,1491a25.166,25.166,0,0,1,1.935,6.456,1.455,1.455,0,0,1-1.28,1.742c-1.522.15-3.865.342-5.743.329a1.45,1.45,0,0,1-1.436-1.618,12.236,12.236,0,0,1,2.856-6.711Z" transform="translate(-1818.29 -1327.802)" fill="#002740"/>
        <path id="Caminho_8767" data-name="Caminho 8767" d="M1875.671,1470.946l-1.16,6.325a4.09,4.09,0,0,1-3.415.234l.553-6.806Z" transform="translate(-1825.655 -1313.128)" fill="url(#linear-gradient-88)"/>
        <path id="Caminho_8768" data-name="Caminho 8768" d="M1838.726,1191.452c4.67,28.183-1.013,69.656-2.929,77.773a1.266,1.266,0,0,1-1.022.961,8.5,8.5,0,0,1-3.653-.146,1.16,1.16,0,0,1-.834-1.068c-.257-6.563.206-46.851-4.146-62.773a3.618,3.618,0,0,0-1.4-2l-8.445-6-.647-9.7Z" transform="translate(-1785.578 -1109.131)" fill="#002740"/>
        <g id="Grupo_4558" data-name="Grupo 4558" transform="translate(16.966 29.586)">
          <path id="Caminho_8769" data-name="Caminho 8769" d="M1774.258,1009.273a78.9,78.9,0,0,1,29.95,2.61c4.172,24.34.729,52.416.729,52.416-10.834,2.841-23.056-1.737-23.056-1.737-1.8-10.174-10.2-38.806-10.2-38.806C1764.842,1022.907,1769.963,1009.7,1774.258,1009.273Z" transform="translate(-1768.347 -1008.874)" fill="#37a4d6"/>
        </g>
        <path id="Caminho_8770" data-name="Caminho 8770" d="M1878.382,1033.282l5.368-13.551s13.072,8.882,15.221,20.143a30.931,30.931,0,0,0-11.364,3.046C1886.641,1037.6,1878.382,1033.282,1878.382,1033.282Z" transform="translate(-1830.922 -987.136)" fill="#37a4d6"/>
        <path id="Caminho_8771" data-name="Caminho 8771" d="M1828,1098.573s14.676,8.294,19.628,1.212c1.028-1.47,2.3-3.421,2.047-4.815a24.532,24.532,0,0,1,10.337-2.557,15.542,15.542,0,0,1-1.689,10.655c-8.674,15.868-32.265-.877-32.265-.877Z" transform="translate(-1793.094 -1039.676)" fill="url(#linear-gradient-89)"/>
        <g id="Grupo_4559" data-name="Grupo 4559" transform="translate(0 36.377)">
          <path id="Caminho_8772" data-name="Caminho 8772" d="M1743.789,1073.478l-8.01-27.972a.815.815,0,0,0-.69-.587c-1.451-.169-5.656-.645-10.512-1.055-5.848-.495-12.64-.9-16.7-.555a.818.818,0,0,0-.669,1.178c2.308,4.669,11.8,23.662,16.555,29.884a.82.82,0,0,0,.66.324l18.584-.173A.818.818,0,0,0,1743.789,1073.478Z" transform="translate(-1707.125 -1040.465)" fill="#1250b3"/>
          <path id="Caminho_8773" data-name="Caminho 8773" d="M1750.689,1034.351l-5.807-.967a.417.417,0,0,0-.464.542l.575,1.742a.416.416,0,0,0,.34.282l5.588.747a.417.417,0,0,0,.461-.508l-.356-1.521A.417.417,0,0,0,1750.689,1034.351Z" transform="translate(-1734.067 -1033.378)" fill="#002740"/>
          <path id="Caminho_8774" data-name="Caminho 8774" d="M1747.973,1043.807l-.479-2.492a.576.576,0,0,0-.507-.464l-11.729-1.19a.576.576,0,0,0-.618.708l.746,3.105a.576.576,0,0,0,.531.441l11.462.577A.576.576,0,0,0,1747.973,1043.807Z" transform="translate(-1727.003 -1037.917)" fill="#002740"/>
          <path id="Caminho_8775" data-name="Caminho 8775" d="M1806.622,1103.24s1.116-4.588.666-6.216-1.322-3.72-4.229-3.255a42.535,42.535,0,0,0-6.335,1.689,1.664,1.664,0,0,0,2.382,1.436l-1.37,1.06s.2,1.7,2.062.791l-1.274,1.406a1.485,1.485,0,0,0,2.174.5C1802.07,1099.757,1802.729,1103.793,1806.622,1103.24Z" transform="translate(-1771.893 -1076.985)" fill="url(#linear-gradient-90)"/>
          <path id="Caminho_8776" data-name="Caminho 8776" d="M1714.006,1072.572s-3.382-3.295-3.866-4.912-.856-3.855,1.854-5a42.532,42.532,0,0,1,6.265-1.934A1.664,1.664,0,0,1,1717,1063.2l1.724.17s.736,1.543-1.327,1.765l1.826.514a1.485,1.485,0,0,1-1.576,1.578C1716.012,1067.2,1717.6,1070.972,1714.006,1072.572Z" transform="translate(-1709.058 -1053.143)" fill="url(#linear-gradient-91)"/>
        </g>
        <path id="Caminho_8777" data-name="Caminho 8777" d="M1812.891,969.294l4.453,12.877a.464.464,0,0,1-.212.559,10.466,10.466,0,0,1-10.857-.73,2.184,2.184,0,0,1-1.006-1.561l-1.442-11.145Z" transform="translate(-1777.028 -950.677)" fill="url(#linear-gradient-92)"/>
        <g id="Grupo_4560" data-name="Grupo 4560" transform="translate(21.855)">
          <path id="Caminho_8778" data-name="Caminho 8778" d="M1790.307,926.265s-4.89,9.2-4.263,12.922,6.687,3.451,11.979.431l3.7-9.939Z" transform="translate(-1785.988 -919.572)" fill="url(#linear-gradient-93)"/>
          <path id="Caminho_8779" data-name="Caminho 8779" d="M1802.523,917.281a.38.38,0,0,1-.166-.555,9.894,9.894,0,0,0,1.36-2.888s.879-.563-2.237-1.309-7.764-1.9-8.74-4.556c-.953-2.586,1.55-9.09,5.542-3.908a.379.379,0,0,0,.6,0c.654-.852,2.375-2.62,4.764-1.548a3.587,3.587,0,0,1,2.457,3.467.377.377,0,0,0,.447.386,4.375,4.375,0,0,1,5.108,2.381c1.043,2.292.365,3.589-.252,4.224a.378.378,0,0,0,.162.628,2.276,2.276,0,0,1,1.606,2.6c-.133,2.406-2.823,2.194-3.588,2.084a.379.379,0,0,0-.337.119c-.657.726-3.615,3.812-6.817,4.184a.382.382,0,0,1-.4-.505l1.386-4.028a.381.381,0,0,0-.206-.472Z" transform="translate(-1790.723 -902.116)" fill="#002740"/>
          <path id="Caminho_8780" data-name="Caminho 8780" d="M1823.746,955.817s3.481-2.389,3.736-.377-3.135,2.914-4.814,2.164Z" transform="translate(-1812.503 -940.079)" fill="url(#linear-gradient-94)"/>
        </g>
      </g>
      <g id="woman_2">
        <path id="Caminho_8781" data-name="Caminho 8781" d="M1893.338,985.3a.533.533,0,0,1,.985.1c.478,1.72,1.635,4.722,4.062,5.788.122.054.238.108.35.163a1.235,1.235,0,0,0-.152-1.116c-.755-1.153.607-2.728.607-2.728a3.512,3.512,0,0,0,1.145,2.261,3.376,3.376,0,0,1,.724,3.8c-1.314,5.1-3.281,11.851,4.382,16.781s18.453-9.3,18.453-9.3l-5.356,16.979s-8.267,6.1-17.882-2.478-3.242-21.06-3.242-21.06S1890.079,991.531,1893.338,985.3Z" transform="translate(-1841.129 -962.042)" fill="url(#linear-gradient-95)"/>
        <path id="Caminho_8782" data-name="Caminho 8782" d="M2015.281,940.714c-3.4-4.468-8.791-6.049-13.627-8.44-3.612-1.786-5.659-5.348-7-9-1.131-3.085-1.289-6.5-4.55-8.121-1.536-.765-3.224-.445-4.7-.989a25.2,25.2,0,0,0-5.606-1.437,8.869,8.869,0,0,0-8.382,13.814c1.96,2.864,3.192,8.293-5.331,16.214-13.242,12.3-3.174,20.761-3.174,20.761-2.567,16.583,21.387,16.436,21.387,16.436,4.063,5.091,10.774,6.616,16.9,5.331,8.271-1.736,9.538-9.655,12.559-16.289,2.143-4.706,5.919-8.706,5.876-14.175C2019.591,949.917,2018.289,944.665,2015.281,940.714Z" transform="translate(-1889.374 -909.737)" fill="#002740"/>
        <path id="Caminho_8783" data-name="Caminho 8783" d="M1985.131,1034.542a15.646,15.646,0,0,1,15.314,3.9,3.931,3.931,0,0,1,1.133,3.917c-1.7,6.277-6.2,24.822-2.259,32.846,0,0-6.951,7.662-14.534,1.486,0,0-3.4-14.829-7.859-21.339-3.077-4.494,4.906-16.877,6.925-19.868A2.368,2.368,0,0,1,1985.131,1034.542Z" transform="translate(-1901.651 -997.4)" fill="#1250b3"/>
        <path id="Caminho_8784" data-name="Caminho 8784" d="M2019.354,991.14s3.39,9.588,3.645,13.818a7.25,7.25,0,0,1-7.277-1.172s-.37-9.577-.905-11.292Z" transform="translate(-1929.546 -966.469)" fill="url(#linear-gradient-96)"/>
        <path id="Caminho_8785" data-name="Caminho 8785" d="M2000.491,943.782s-8.866,12.408-3.566,16.012,11.612-5.214,11.612-5.214,2.057-6.791-.094-9.1S2000.491,943.782,2000.491,943.782Z" transform="translate(-1915.392 -932.184)" fill="url(#linear-gradient-97)"/>
        <path id="Caminho_8786" data-name="Caminho 8786" d="M2016.8,932.834s-4.073.965-4.644,2.808,5.776,3.552,7.555,3.636l1.433,7.437s4.236-7,2.558-11.036S2016.8,932.834,2016.8,932.834Z" transform="translate(-1927.596 -924.202)" fill="#002740"/>
        <path id="Caminho_8787" data-name="Caminho 8787" d="M2037.028,973.706s3.451-4,4.824-1.391-3.106,4.562-4.657,3.282Z" transform="translate(-1945.602 -952.223)" fill="url(#linear-gradient-98)"/>
        <path id="Caminho_8788" data-name="Caminho 8788" d="M1970.164,1300.588c.026.673-1.156,6.013-1.8,8.861a4.688,4.688,0,0,0,.505,3.365l22.277,37.494a5.111,5.111,0,0,1,.585,1.459,32.169,32.169,0,0,1,.813,9.994l-1.152,2.394,4.984-1.131,1.084-13.385-1.411-.86a6.707,6.707,0,0,1-2.711-3.174c-2.015-4.893-7.017-17.348-8.306-23.418-1.465-6.9-9.126-12.5-9.126-12.5l1.346-3.182Z" transform="translate(-1895.884 -1190.159)" fill="url(#linear-gradient-99)"/>
        <path id="Caminho_8789" data-name="Caminho 8789" d="M2058.372,1483.692s-2.691-4.267-3.008-5.928-1.2-4.594-2.857-3.711c0,0-.782,8.069-.512,11.222s-3.564,3.051-3.564,3.051a3.58,3.58,0,0,0-1.83.922.9.9,0,0,0,.6,1.51,21.581,21.581,0,0,0,5.34-.3,1.634,1.634,0,0,0,1.318-1.507l.552-9.287,3.4,4.287Z" transform="translate(-1952.341 -1315.434)" fill="#002740"/>
        <path id="Caminho_8790" data-name="Caminho 8790" d="M2011.089,1319.783s.786,33.537.892,38.3-.752,15.319-5.527,18.474l2.078,1.538a27.77,27.77,0,0,0,5.134-6.454,39.222,39.222,0,0,1,3.711-5.643l-.946-1.937a4.259,4.259,0,0,1-.345-2.731c1.03-4.994,4.473-21.605,5.412-25.183,1.109-4.223,1.187-9.862-2.669-14.582S2011.089,1319.783,2011.089,1319.783Z" transform="translate(-1923.501 -1203.382)" fill="url(#linear-gradient-100)"/>
        <path id="Caminho_8791" data-name="Caminho 8791" d="M2009.391,1500.419a.293.293,0,0,0,.295-.251,43.371,43.371,0,0,1,1.362-6.761c.62-1.329,2.646-6.924,0-7.4,0,0-6.58,9.613-7.843,10.909a2.476,2.476,0,0,1-2.857.453,4.757,4.757,0,0,0-2.159,1.549.872.872,0,0,0,.686,1.4l4.432.042a3.119,3.119,0,0,0,2.924-1.964c.78-1.949,2.12-4.807,3.682-6.075l-.811,7.771a.3.3,0,0,0,.291.326Z" transform="translate(-1917.394 -1324.193)" fill="#002740"/>
        <path id="Caminho_8792" data-name="Caminho 8792" d="M1976.988,1169.467s1,3.183-.535,8.426l-9.518,33.237a1.029,1.029,0,0,0,.644,1.252,63.5,63.5,0,0,0,24.981,3.029,1.451,1.451,0,0,0,1.323-1.129c.842-3.789,3.714-16.717,4.305-19.374,2.253-10.122,4.769-21.037-6.3-27.637C1986.788,1169.457,1982.03,1170.745,1976.988,1169.467Z" transform="translate(-1894.905 -1093.789)" fill="#f03e30"/>
        <path id="Caminho_8793" data-name="Caminho 8793" d="M2043.217,1052.716s10.829,9,13.517,21.3-15.824,13.6-15.824,13.6-2.513-2.806-5.5-1.806-.231-4.9,3.26-4.882,1.874,2.776,6.812.539c4.81-2.179,7.784-8.918-4.49-19.133a5.558,5.558,0,0,1-1.621-2.207C2036.989,1054.126,2038.88,1050.192,2043.217,1052.716Z" transform="translate(-1943.515 -1010.419)" fill="url(#linear-gradient-101)"/>
        <path id="Caminho_8794" data-name="Caminho 8794" d="M2086.886,980.5a.144.144,0,0,1-.131-.205c3.093-6.6,3.8-12.206,2.108-16.668-1.448-3.813-4.651-6.809-9.521-8.908-9.572-4.123-11.766-8.35-12.467-14.706s-4.326-7.569-4.363-7.581a.144.144,0,0,1,.086-.274c.157.049,3.841,1.278,4.563,7.824.7,6.391,2.8,10.384,12.295,14.474,4.944,2.13,8.2,5.182,9.676,9.07,1.723,4.537,1.01,10.221-2.117,16.893A.144.144,0,0,1,2086.886,980.5Z" transform="translate(-1963.952 -923.828)" fill="#bdd0fb"/>
        <path id="Caminho_8795" data-name="Caminho 8795" d="M2003.6,925.283h-.006c-.079,0-.141-.205-.138-.284a7.007,7.007,0,0,1,4.129-6.458c.076-.028.157-.018.182.056a.126.126,0,0,1-.09.165,6.858,6.858,0,0,0-3.933,6.257C2003.737,925.1,2003.674,925.283,2003.6,925.283Z" transform="translate(-1921.331 -913.978)" fill="#bdd0fb"/>
      </g>
    </g>
    <g id="Grupo_4567" data-name="Grupo 4567" transform="translate(329.904 200.15)">
      <g id="Grupo_4566" data-name="Grupo 4566">
        <path id="Caminho_8796" data-name="Caminho 8796" d="M1015.828,623.746l-2.7-1.96-2.683,1.947c.088-.293.146-.5.211-.7.212-.653.406-1.313.649-1.955a.584.584,0,0,0-.26-.826c-.745-.494-1.454-1.042-2.287-1.648h2.282c1.057,0,1.056,0,1.379-1q.318-.979.642-1.957a1.556,1.556,0,0,1,.083-.164c.3.928.606,1.809.87,2.7a.5.5,0,0,0,.588.426c.92-.025,1.842-.009,2.893-.009-.817.595-1.519,1.142-2.259,1.63a.606.606,0,0,0-.282.854C1015.261,621.931,1015.516,622.789,1015.828,623.746Z" transform="translate(-967.512 -564.116)" fill="#ffcd00"/>
        <path id="Caminho_8797" data-name="Caminho 8797" d="M909.384,618.485c1.035,0,1.97-.011,2.9.007a.458.458,0,0,0,.535-.382c.268-.9.571-1.787.9-2.79l.5,1.526c.144.44.3.875.425,1.32a.382.382,0,0,0,.447.324c.952-.013,1.9-.005,2.991-.005-.214.16-.338.255-.463.346-.636.462-1.264.935-1.913,1.378a.453.453,0,0,0-.2.625c.308.883.582,1.779.905,2.782l-2.7-1.953-2.677,1.944c.08-.268.131-.455.191-.64.237-.734.467-1.47.72-2.2a.389.389,0,0,0-.169-.526c-.678-.474-1.344-.966-2.014-1.453C909.665,618.713,909.565,618.628,909.384,618.485Z" transform="translate(-895.677 -563.993)" fill="#ffcd00"/>
        <path id="Caminho_8798" data-name="Caminho 8798" d="M963.522,430.119c.287.879.593,1.753.852,2.64a.471.471,0,0,0,.561.4,26.261,26.261,0,0,1,2.8.074c-.468.342-.939.679-1.4,1.026-.39.292-.968.529-1.1.915-.125.364.219.892.363,1.345a11.638,11.638,0,0,1,.449,1.677c-.689-.5-1.4-.969-2.058-1.509a.686.686,0,0,0-1.032.011c-.667.534-1.377,1.013-2.164,1.584.132-.423.229-.745.333-1.066.194-.6.379-1.2.592-1.8a.35.35,0,0,0-.157-.483c-.7-.491-1.389-1-2.081-1.509-.086-.063-.167-.135-.335-.272,1.005,0,1.911-.02,2.815.009a.541.541,0,0,0,.647-.461c.249-.87.55-1.726.83-2.588Z" transform="translate(-931.648 -430.111)" fill="#ffcd00"/>
        <path id="Caminho_8799" data-name="Caminho 8799" d="M1060.53,537.475c.325-1,.6-1.9.92-2.8a.445.445,0,0,0-.208-.613,25.969,25.969,0,0,1-2.247-1.727h2.5c.7,0,.7,0,.91-.648.26-.8.521-1.592.82-2.506l.457,1.393c.157.479.329.955.466,1.44a.379.379,0,0,0,.44.326c.953-.014,1.905-.006,2.947-.006-.13.117-.2.19-.277.248-.691.505-1.377,1.018-2.08,1.5a.4.4,0,0,0-.177.552c.276.794.524,1.6.781,2.4.032.1.051.2.1.4l-2.653-1.922Z" transform="translate(-1003.827 -501.727)" fill="#ffcd00"/>
        <path id="Caminho_8800" data-name="Caminho 8800" d="M963.524,628.662c.33,1,.632,1.886.9,2.776a.449.449,0,0,0,.52.389,26.739,26.739,0,0,1,2.838.071c-.468.342-.939.679-1.4,1.026-.391.292-.97.528-1.1.913-.125.363.221.89.366,1.344.177.556.361,1.11.577,1.775l-2.7-1.955-2.7,1.956c.329-1.013.613-1.917.922-2.814a.424.424,0,0,0-.189-.584c-.772-.533-1.523-1.1-2.351-1.7a3,3,0,0,1,.323-.043c.87,0,1.742-.011,2.612.005a.4.4,0,0,0,.467-.346C962.885,630.575,963.191,629.681,963.524,628.662Z" transform="translate(-931.694 -573.637)" fill="#ffcd00"/>
        <path id="Caminho_8801" data-name="Caminho 8801" d="M859.97,532.311c.912,0,1.824-.016,2.736.008a.5.5,0,0,0,.591-.416c.257-.883.56-1.752.887-2.756.308.95.6,1.771.835,2.608a.649.649,0,0,0,.781.567,19.623,19.623,0,0,1,2.645.067l-2.587,1.888,1.02,3.169-2.693-1.953-2.577,1.866-.071-.05c.212-.662.422-1.325.636-1.986.339-1.048.34-1.048-.563-1.7q-.843-.612-1.684-1.227Z" transform="translate(-859.925 -501.702)" fill="#ffcd00"/>
        <path id="Caminho_8802" data-name="Caminho 8802" d="M918.229,446.216c-.783.57-1.537,1.132-2.307,1.671a.432.432,0,0,0-.192.591c.308.885.583,1.781.913,2.8l-2.7-1.949-2.694,1.95c.317-.981.582-1.864.893-2.73a.522.522,0,0,0-.239-.72,26.289,26.289,0,0,1-2.21-1.686h.8c.689,0,1.378-.013,2.066.006a.406.406,0,0,0,.475-.339c.278-.911.581-1.815.909-2.832.263.809.495,1.517.724,2.227.3.938.3.938,1.3.939q1.1,0,2.192.007C918.167,446.154,918.176,446.169,918.229,446.216Z" transform="translate(-895.904 -439.415)" fill="#ffcd00"/>
        <path id="Caminho_8803" data-name="Caminho 8803" d="M1009.185,446.143c.937,0,1.874-.013,2.81.007a.453.453,0,0,0,.53-.383c.269-.9.57-1.788.895-2.79.321.986.625,1.864.885,2.754a.494.494,0,0,0,.587.422c.922-.026,1.845-.009,2.9-.009-.742.54-1.381,1.007-2.022,1.472-.688.5-.688.5-.429,1.294.246.755.492,1.51.773,2.373l-2.7-1.952-2.7,1.95c.254-.782.472-1.454.691-2.126.341-1.044.34-1.043-.553-1.687-.569-.41-1.134-.825-1.7-1.238Z" transform="translate(-967.806 -439.411)" fill="#ffcd00"/>
        <path id="Caminho_8804" data-name="Caminho 8804" d="M1049.891,479.39c.333,1.027.635,1.93.914,2.841a.4.4,0,0,0,.468.344c.814-.019,1.629-.007,2.443-.007h.4l.022.081c-.744.541-1.477,1.1-2.236,1.614a.488.488,0,0,0-.216.684c.311.868.578,1.751.9,2.743-.635-.458-1.179-.856-1.729-1.247-.318-.227-.644-.615-.966-.616s-.65.386-.968.613c-.536.384-1.067.775-1.6,1.163-.009.007-.027,0-.1,0,.22-.688.434-1.361.652-2.033.337-1.044.338-1.044-.533-1.681-.566-.413-1.133-.824-1.693-1.322h.975c.632,0,1.264-.012,1.9.006a.378.378,0,0,0,.44-.32C1049.247,481.335,1049.555,480.423,1049.891,479.39Z" transform="translate(-994.182 -465.733)" fill="#ffcd00"/>
        <path id="Caminho_8805" data-name="Caminho 8805" d="M874.7,487.739c.313-.971.572-1.854.888-2.715a.529.529,0,0,0-.247-.745c-.743-.5-1.458-1.048-2.25-1.624.164-.019.262-.04.359-.04.829,0,1.658-.016,2.486.006a.467.467,0,0,0,.56-.394c.263-.9.571-1.786.893-2.775.1.3.181.515.252.734.222.68.463,1.354.652,2.042.09.326.246.4.56.393a26.408,26.408,0,0,1,2.791.07c-.753.548-1.5,1.107-2.264,1.64a.45.45,0,0,0-.206.619c.312.883.588,1.778.917,2.791-.782-.568-1.459-1.072-2.148-1.558s-.409-.49-1.117.012C876.145,486.681,875.47,487.181,874.7,487.739Z" transform="translate(-869.444 -465.777)" fill="#ffcd00"/>
        <path id="Caminho_8806" data-name="Caminho 8806" d="M874.9,587.218c.327-1.006.6-1.9.913-2.783a.468.468,0,0,0-.218-.646,25.362,25.362,0,0,1-2.222-1.7h2.5c.69,0,.69,0,.9-.658.26-.8.521-1.6.82-2.511l1.046,3.172h3.3c-.632.461-1.169.85-1.7,1.244-.315.232-.784.42-.887.727s.163.735.279,1.107c.2.648.414,1.294.655,2.042-.864-.628-1.639-1.179-2.4-1.752a.407.407,0,0,0-.583,0C876.549,586.034,875.772,586.585,874.9,587.218Z" transform="translate(-869.646 -537.681)" fill="#ffcd00"/>
        <path id="Caminho_8807" data-name="Caminho 8807" d="M1052.346,587.206c-.863-.627-1.64-1.179-2.4-1.753a.407.407,0,0,0-.584-.006c-.76.574-1.537,1.126-2.4,1.754.247-.774.46-1.448.678-2.121.339-1.048.34-1.048-.531-1.683l-1.785-1.3h3.282l1.048-3.193c.329,1.011.634,1.909.909,2.816a.428.428,0,0,0,.5.365c.936-.021,1.873-.007,2.943-.007l-2.68,1.955Z" transform="translate(-993.942 -537.671)" fill="#ffcd00"/>
      </g>
    </g>
    <g id="Grupo_4570" data-name="Grupo 4570" transform="translate(239.552 286.177)">
      <path id="Caminho_8808" data-name="Caminho 8808" d="M533.9,755.215a5.227,5.227,0,0,1,10.454-.005l0,.006v4.849h-2.69v-4.637a2.541,2.541,0,1,0-5.078.006s0,3.5,0,4.631H533.9v-4.849Zm50.761,4.864v-.344a2.394,2.394,0,0,1-1.212.442c-.834,0-1.326-.761-1.326-2.014s.548-2.054,1.393-2.054a2.682,2.682,0,0,1,1.211.451v-.36h.924v3.88Zm0-2.981a1.989,1.989,0,0,0-.745-.164c-.5,0-.753.393-.753,1.2,0,.827.237,1.212.729,1.212a2.219,2.219,0,0,0,.769-.172V757.1Zm17.122,2.981v-.344a2.394,2.394,0,0,1-1.213.442c-.834,0-1.324-.761-1.324-2.014s.548-2.054,1.391-2.054a2.676,2.676,0,0,1,1.212.451v-.36h.925v3.88h-.99Zm0-2.981a1.985,1.985,0,0,0-.745-.164c-.5,0-.754.393-.754,1.2,0,.827.237,1.212.729,1.212a2.217,2.217,0,0,0,.77-.172V757.1Zm-21.631,2.988-2.072-4.429.04,4.429h-.868v-5.46h1.376l2.071,4.461-.04-4.461h.867v5.46h-1.374Zm7.693.09a.969.969,0,0,1-.916-.459,2.286,2.286,0,0,1-.131-1.031v-1.834h-.654v-.54l.654-.1v-1.081h.99V756.2h1.047v.655h-1.048v1.653c0,.638,0,.663.065.77a.4.4,0,0,0,.386.163,2.586,2.586,0,0,0,.638-.1l.123.6a3.558,3.558,0,0,1-1.155.238Zm2.112-4.65a.565.565,0,0,1,0-1.13.565.565,0,0,1,0,1.13Zm-.5,4.56V756.2h.989v3.888h-.989Zm3.511.073a1.775,1.775,0,0,1-1.867-2.014,1.805,1.805,0,0,1,1.867-2.038c1.195,0,1.867.729,1.867,2.03a1.77,1.77,0,0,1-1.866,2.022Zm0-3.348c-.564,0-.827.418-.827,1.31,0,.958.254,1.343.835,1.343s.818-.385.818-1.319-.237-1.334-.825-1.334Zm4.767,3.275v-2.358c0-.5-.04-.794-.542-.794a2.682,2.682,0,0,0-.85.156v3h-.989V756.2h.923v.343a3.033,3.033,0,0,1,1.4-.434.982.982,0,0,1,.868.418,1.738,1.738,0,0,1,.181,1.056v2.5h-.99Zm6.8-5.812v5.812h-.989v-5.812" transform="translate(-533.901 -747.404)" fill="#004a8f"/>
      <path id="Caminho_8809" data-name="Caminho 8809" d="M791.711,774.122v.114c0,.7.295,1,.859,1a3.957,3.957,0,0,0,1.286-.246l.171.564a4.158,4.158,0,0,1-1.718.451c-.974,0-1.63-.7-1.63-1.932,0-1.26.638-2.136,1.759-2.136,1.1,0,1.655.639,1.655,2.022v.164h-2.383Zm.8-1.539c-.467,0-.721.352-.786,1.015l1.466-.073c-.024-.639-.229-.942-.679-.942Z" transform="translate(-719.519 -763.232)" fill="#004a8f"/>
      <g id="Grupo_4568" data-name="Grupo 4568" transform="translate(20.152 7.203)">
        <path id="Caminho_8810" data-name="Caminho 8810" d="M609.286,771.771a2.994,2.994,0,0,1-1.433.213h-1.235v-5.46h1.015a3.762,3.762,0,0,1,1.563.172,1.149,1.149,0,0,1,.679,1.138,1.129,1.129,0,0,1-1.08,1.253,1.247,1.247,0,0,1,1.276,1.383,1.374,1.374,0,0,1-.786,1.3Zm-.409-4.609c-.221-.131-.36-.147-1.032-.147h-.573v1.858h.4c1.187,0,1.547-.23,1.547-.991a.808.808,0,0,0-.344-.72Zm.049,2.333a1.934,1.934,0,0,0-.909-.131h-.745v2.128h.4a2.6,2.6,0,0,0,1.17-.147,1.012,1.012,0,0,0,.524-.958.958.958,0,0,0-.442-.892Zm8.025,2.488v-2.365c0-.573.033-1.024-.647-1.024a3.388,3.388,0,0,0-1.129.221v3.168h-.605v-3.855h.589v.31a3.378,3.378,0,0,1,1.334-.4,1.017,1.017,0,0,1,.869.377c.164.221.2.4.2,1.007v2.561h-.606Zm-3.69,0v-.4a2.812,2.812,0,0,1-1.285.434c-.835,0-1.318-.753-1.318-2.006,0-1.212.573-2.031,1.408-2.031a2.754,2.754,0,0,1,1.212.426v-.276h.589v3.856h-.606Zm0-3.188a2.759,2.759,0,0,0-1.039-.262c-.581,0-.909.5-.909,1.426,0,1.039.287,1.5.869,1.5a2.884,2.884,0,0,0,1.08-.279Zm7.578,4.825V771.64a2.8,2.8,0,0,1-1.284.434c-.835,0-1.319-.754-1.319-2.006,0-1.211.573-2.03,1.408-2.03a2.763,2.763,0,0,1,1.212.426v-.336h.589v5.493h-.606Zm0-4.764a2.742,2.742,0,0,0-1.039-.262c-.581,0-.909.5-.909,1.424,0,1.04.287,1.506.869,1.506a2.88,2.88,0,0,0,1.079-.279v-2.39Zm3.793,3.127v-.31a3.387,3.387,0,0,1-1.334.4,1.013,1.013,0,0,1-.868-.377c-.163-.221-.2-.4-.2-1.007v-2.562h.606v2.365c0,.573-.033,1.023.647,1.023a3.379,3.379,0,0,0,1.13-.221v-3.168h.6v3.855h-.588Zm1.836-1.874v.139c0,.85.359,1.269,1.007,1.269a3.975,3.975,0,0,0,1.327-.286l.114.376a3.5,3.5,0,0,1-1.6.466c-.917,0-1.506-.712-1.506-1.866,0-1.343.622-2.169,1.644-2.169.974,0,1.482.622,1.482,1.866v.205h-2.473Zm1.057-1.588c-.581,0-.957.409-1.024,1.187l1.819-.066c0-.777-.262-1.121-.8-1.121Z" transform="translate(-606.618 -766.523)" fill="#a7a9ac"/>
      </g>
      <path id="Caminho_8811" data-name="Caminho 8811" d="M691.519,793.267a1.177,1.177,0,0,1-.724.135h-.476v-2.093h.561a.994.994,0,0,1,.729.191,1.111,1.111,0,0,1,.314.854,1.025,1.025,0,0,1-.4.913Zm-.132-1.566c-.12-.123-.252-.157-.568-.157h-.173v1.615h.116c.344,0,.483-.031.6-.144a1.171,1.171,0,0,0,.023-1.314Zm.865,1.7V791.31h1.268v.234h-.941v.647h.914v.232h-.914v.743h.954v.236Zm3.329-.073a1.319,1.319,0,0,1-.571.073h-.5v-2.093h.467a1.415,1.415,0,0,1,.594.065.493.493,0,0,1-.158.92.474.474,0,0,1,.487.524.523.523,0,0,1-.322.511Zm-.185-1.736c-.075-.047-.139-.049-.361-.049h-.2v.643h.147c.409,0,.531-.079.531-.343a.273.273,0,0,0-.116-.251Zm.012.87a.724.724,0,0,0-.331-.048h-.242v.75h.146a.917.917,0,0,0,.409-.053.344.344,0,0,0,.176-.333.339.339,0,0,0-.158-.317Zm.81.939V791.31h1.268v.234h-.94v.647h.913v.232h-.913v.743h.953v.236Zm1.556,0V791.31h.327v1.856h.924v.236h-1.252Zm2.033.038c-.52,0-.824-.39-.824-1.079s.319-1.083.887-1.083a2.289,2.289,0,0,1,.65.115l-.05.23a2.844,2.844,0,0,0-.568-.083c-.389,0-.574.264-.574.81a1.165,1.165,0,0,0,.151.646.433.433,0,0,0,.391.182,1.513,1.513,0,0,0,.4-.062v-.7h.311v.845a2.039,2.039,0,0,1-.775.182Zm1.117-.038V791.31h.326V793.4Zm1.938.536c-.313,0-.578-.157-.578-.465v-.05c-.434-.066-.7-.414-.7-1.062,0-.694.323-1.081.894-1.081s.884.39.884,1.083c0,.668-.3,1.035-.785,1.07,0,.2.061.251.264.251m-.361-2.152c-.364,0-.552.28-.552.829a1.225,1.225,0,0,0,.144.646.476.476,0,0,0,.406.185c.364,0,.54-.267.54-.829s-.172-.832-.538-.832Zm2.578,1.71a.878.878,0,0,1-.615.2.8.8,0,0,1-.663-.281c-.09-.131-.1-.235-.1-.621v-1.229H704v1.346c0,.342.116.528.48.528a.432.432,0,0,0,.428-.205.846.846,0,0,0,.053-.386v-1.283h.279v1.238c0,.434-.032.556-.182.695Zm.586.16V791.31h1.269v.234h-.942v.647h.913v.232h-.913v.743h.954v.236Z" transform="translate(-646.971 -777.214)"/>
      <path id="Caminho_8812" data-name="Caminho 8812" d="M569.57,747.059a6.624,6.624,0,0,0-6.6-6.529h0a6.583,6.583,0,0,0-4.83,2.121,5.965,5.965,0,0,1,3.042,1.923,3.057,3.057,0,0,1,1.79-.584,3.306,3.306,0,0,1,3.206,3.346v5.855h3.4v-6.133Z" transform="translate(-551.42 -740.53)" fill="#a7a9ac"/>
      <g id="Grupo_4569" data-name="Grupo 4569" transform="translate(20.407 18.801)">
        <path id="Caminho_8813" data-name="Caminho 8813" d="M607.536,808.485h1.475v.365h-1.1v.846h1v.365h-1v.954h1.1v.365h-1.475Zm3.745,2.895h-.344v-.336h-.007a.684.684,0,0,1-.63.387c-.5,0-.72-.341-.72-.908v-1.258h.355v1.095c0,.493.1.734.407.755.4,0,.585-.357.585-.871v-.979h.355v2.115Zm.6-2.115h.331v.328h.008a.59.59,0,0,1,.5-.377.9.9,0,0,1,.234.029v.348a.477.477,0,0,0-.2-.038c-.317,0-.524.332-.524.863v.962h-.355Zm2.319-.049a1,1,0,0,1,.977,1.107.986.986,0,1,1-1.957,0A1,1,0,0,1,614.2,809.215Zm0,1.9c.414,0,.6-.416.6-.793,0-.4-.223-.792-.6-.792s-.6.39-.6.792c0,.377.185.792.6.792Zm1.308-.15a.885.885,0,0,0,.441.15c.162,0,.362-.075.362-.3,0-.386-.833-.353-.833-.946a.617.617,0,0,1,.679-.651,1.32,1.32,0,0,1,.441.085l-.03.339a.967.967,0,0,0-.374-.108c-.18,0-.339.083-.339.258,0,.431.833.307.833.983a.629.629,0,0,1-.671.66,1.027,1.027,0,0,1-.528-.116l.018-.351Zm1.467.988a.5.5,0,0,0,.166.033c.316,0,.422-.481.422-.523a1.215,1.215,0,0,0-.068-.223l-.652-1.975h.389l.517,1.75h.007l.528-1.75h.359l-.71,2.161c-.132.406-.271.876-.739.876a1.038,1.038,0,0,1-.241-.029l.023-.319Zm1.886-.988a.882.882,0,0,0,.441.15c.162,0,.362-.075.362-.3,0-.386-.834-.353-.834-.946a.616.616,0,0,1,.679-.651,1.324,1.324,0,0,1,.441.085l-.03.339a.971.971,0,0,0-.374-.108c-.181,0-.339.083-.339.258,0,.431.833.307.833.983a.629.629,0,0,1-.672.66,1.025,1.025,0,0,1-.527-.116l.02-.351Zm2.632-1.385h-.509v1.158c0,.244.135.376.3.376a.4.4,0,0,0,.241-.074v.332a1.026,1.026,0,0,1-.3.058.539.539,0,0,1-.592-.615v-1.235H620.2v-.315h.434v-.49l.354-.125v.615h.509v.315Zm1.919,1.714a1.367,1.367,0,0,1-.608.137c-.682,0-1-.456-1-1.145a.948.948,0,0,1,.9-1.07c.641,0,.849.514.849,1.194h-1.373a.663.663,0,0,0,.634.706,1.072,1.072,0,0,0,.592-.211v.389Zm-.479-2.323h-.253l-.494-.6h.411l.335.6Zm.249,1.148c0-.323-.173-.589-.48-.589-.346,0-.49.315-.516.589Zm.848-.854h.332v.307h.008a.637.637,0,0,1,.611-.357.568.568,0,0,1,.546.41.68.68,0,0,1,.6-.41c.49,0,.668.348.668.809v1.356h-.356v-1.261c0-.261-.057-.589-.343-.589-.362,0-.507.39-.507.784v1.066h-.354v-1.261c0-.261-.056-.589-.344-.589-.362,0-.506.39-.506.784v1.066h-.354v-2.117h0Zm4.83,2.029a1.366,1.366,0,0,1-.607.137c-.684,0-1-.456-1-1.145a.948.948,0,0,1,.9-1.07c.641,0,.847.514.847,1.194h-1.37a.662.662,0,0,0,.632.706,1.071,1.071,0,0,0,.593-.211v.389h0Zm-.23-1.174c0-.323-.174-.589-.479-.589-.347,0-.49.315-.515.589Z" transform="translate(-607.536 -808.372)" fill="#a7a9ac"/>
      </g>
    </g>
  </g>
</svg>
