<svg xmlns="http://www.w3.org/2000/svg" width="614.904" height="403.482" viewBox="0 0 614.904 403.482">
  <g id="world_guys" transform="translate(-355.395 -3777.965)">
    <g id="Grupo_1884" data-name="Grupo 1884" transform="translate(342.722 3909.125) rotate(-7)">
      <path id="Caminho_5847" data-name="Caminho 5847" d="M796,432.13c4.537-2.945,8.259-11.47,5.79-16.328-2.025-3.987-10.649-3.928-13.447-1.494-9.037,7.865-17.166,14.545-28.623,18.036a.383.383,0,0,1-.478-.258q-3.412-11.624-7.465-23.006a.372.372,0,0,1,.058-.356c.041-.052.081-.1.12-.156a.382.382,0,0,0-.306-.613h-.01a.385.385,0,0,1-.373-.478,1.091,1.091,0,0,0-.376-.965.385.385,0,0,1,.318-.673c12.051,2.619,26.914-10.38,31.674-19.632,2.56-4.975,2.6-14.821-1.687-18.31-3.155-2.567-10.463,1.941-11.872,5.648-4.359,11.465-8.554,23.618-18.43,31.652a.383.383,0,0,1-.6-.166q-3.992-10.831-8.563-21.421a.376.376,0,0,1,.072-.407q.343-.368.657-.763a.381.381,0,0,0-.291-.616q-.506-.017-1.01-.047a.382.382,0,0,1-.326-.228q-.13-.295-.263-.588a.381.381,0,0,1,.358-.535c11.064.046,21.7-14.612,24.466-23.018,1.563-4.748.31-13.757-4.012-16.221-3.1-1.766-8.967,3.518-9.7,7.09-2.152,10.471-4.142,22.35-11.342,30.832a.381.381,0,0,1-.636-.094q-5.923-13.259-12.759-26.1c.1-.084.2-.165.3-.251-.182-.072-.365-.142-.547-.213l-.012-.023c10.275-2.692,18.685-16.44,19.65-25.611.5-4.791-2.558-12.918-7.1-14.464-3.286-1.118-7.692,4.789-7.7,8.239-.028,10.32-2.569,20.418-4.81,30.491a.377.377,0,0,1-.7.1q-7.112-13.207-15.188-25.937a.378.378,0,0,1,.195-.558c9.065-3.33,15.4-17.324,15.47-25.57.041-4.55-3.416-11.708-7.843-12.744-3.117-.729-6.711,5.183-6.364,8.372.947,8.684,4.223,21.611-1.42,29.6a.378.378,0,0,1-.626-.021q-4.746-7.441-9.821-14.707a.372.372,0,0,1-.023-.391c4.315-8.065,4.579-20.4,1.486-28.457-1.343-3.5-8.059-8.885-10.919-7.594s-3,7.452-1.5,10.1a102.19,102.19,0,0,1,9.069,22.374.379.379,0,0,1-.673.326q-5.744-8.059-11.887-15.894a.375.375,0,0,1-.043-.07c-2.785-6-9.348-19.6-14.348-25.625-2.208-2.662-8.882-4.434-11.135-2.267s.173,8.623,2.565,11c5.4,5.373,16.641,14.233,21.7,18.023a.377.377,0,0,1,.069.068q6.239,7.959,12.07,16.152a.383.383,0,0,1-.529.536,188.3,188.3,0,0,1-17.477-13.265c-2.2-1.933-8.141-2.723-9.96-.187s1.636,9.572,4.512,11.44c6.724,4.368,17.812,7.074,26.367,5.987a.375.375,0,0,1,.358.16q4.674,6.762,9.068,13.675a.382.382,0,0,1-.286.586c-9.2.747-18.245-5.572-26.318-8.907-2.786-1.151-8.824.374-9.752,3.7s4.793,9.258,8.272,10.138c7.922,2,21.586,1.776,28.462-4.105a.38.38,0,0,1,.57.082q7.267,11.539,13.752,23.474a.38.38,0,0,1-.466.537c-8.582-3.133-17.442-5.609-25.706-9.368-2.933-1.333-9.455-.044-10.647,3.458s4.556,10.128,8.226,11.262c8.249,2.549,21.9,2.824,29.979-2.414a.378.378,0,0,1,.543.138q6.962,13.126,12.971,26.7a.384.384,0,0,1-.4.536c-9.713-1.23-18.556-5.738-27.607-9.247-3.187-1.235-10.16.394-11.318,3.926s5.275,9.867,9.289,10.879c8.064,2.033,23.245,3.593,31.2-2.248a.381.381,0,0,1,.578.152q4.76,11.064,8.881,22.4a.385.385,0,0,1-.379.515c-11.189-.6-21.38-5.519-31.817-9.162-3.5-1.221-11.681,1.217-12.279,4.69-.815,4.736,5.795,10.29,10.324,11.526,8.882,2.424,26.324,3.22,34.758-4.311a.38.38,0,0,1,.616.152q4.269,12.067,7.815,24.414a.386.386,0,0,1-.286.481c-10.537,2.331-20.429,1.289-31.346.618-3.628-.222-10.891,4.277-10.634,7.8.349,4.774,8.076,8.552,12.737,8.565,8.826.025,23.519-3.964,30.3-12.439a.38.38,0,0,1,.662.141,428.424,428.424,0,0,1,10.471,49.9.382.382,0,0,0,.429.322l.867-.12a.384.384,0,0,0,.327-.436,429.957,429.957,0,0,0-11.062-52.1.369.369,0,0,1,.033-.279,15.84,15.84,0,0,0,.871-1.871.375.375,0,0,1,.5-.209C772.525,440.116,788.183,437.2,796,432.13Zm-52.4,2.031a.429.429,0,0,1-.459-.389c-.021-.218-.043-.436-.062-.655.364.344.746.673,1.139.993C744.012,434.126,743.806,434.144,743.6,434.162Z" transform="translate(-602.316 -261.144)" fill="#c5f0ff"/>
      <path id="Caminho_5848" data-name="Caminho 5848" d="M1557.912,483.425c-.764-3.445-8.143-5.95-11.882-4.828-8.486,2.546-23.191,11.251-29.538,15.141q-10.571,3.488-20.91,7.437a113.906,113.906,0,0,1,21.729-14.705c3.068-1.553,6.784-7.434,4.9-10.434s-11.56-2.134-15.008.314c-7.672,5.446-14.91,16.611-16.281,26.628q-9.733,3.825-19.258,8.042c-.765-11.274,10.7-21.616,17.131-29.329,2.321-2.781,2.636-10.584-.749-11.846-4.808-1.792-12.531,2.775-15.335,7.077-5.167,7.925-7.97,25.471-1.114,34.128q-16.319,7.246-31.987,15.646c4.347-11.209,8.315-22.7,14.948-32.734,2.147-3.249,1.7-11.554-2.089-12.557-5.239-1.387-13.2,4.337-15.717,9.155-4.824,9.222-5.511,27.4,2.464,36.35l-.026.014c-.216-.046-.432-.1-.647-.142.038.142.085.284.127.425q-14.748,7.956-28.876,16.923c-1.751-12.7,3.92-25.349,8.522-36.736,1.542-3.816-.671-12.45-4.686-12.727-5.6-.386-12.41,7.3-13.908,12.738-2.7,9.805-1.786,30.8,9.189,37.285-.47.3-.944.593-1.413.9-.641-.37-1.277-.755-1.9-1.161a13.514,13.514,0,0,0,.23,2.242q-11.289,7.321-22.153,15.288c-4.546-13.9-.834-28.152,2.276-41.838.992-4.364-3.06-13.168-7.629-12.727-6.21.6-12.324,9.878-13.027,16.154-1.333,11.89,4.759,33.988,18.239,38.514-.738.541-1.48,1.074-2.214,1.619-.322-.215-.642-.433-.96-.657q0,.664.064,1.322-11.2,8.346-21.912,17.375c-8.79-10.533-12.291-21.995-15.908-35.174-1.108-4.037-9.178-9.48-13.573-7-5.355,3.023-7.185,13.361-4.761,18.964,4.226,9.767,17.382,22.475,29.932,24.365a17.829,17.829,0,0,0-.466,2.914,485.334,485.334,0,0,0-43.375,42.486l1.386,1.226a483.568,483.568,0,0,1,41.963-41.243c.609,12.447,12.258,25.855,20.762,31.474,4.389,2.9,14.012,4.179,17.323-.09,2.447-3.154-1.568-11.923-5.118-13.981-10.814-6.27-20.878-11.525-29.392-20.5q11.455-9.765,23.472-18.75c2.8,12.634,20.1,23.077,30.127,26.405,5.03,1.669,14.713.579,16.906-4.381,1.608-3.638-4.556-11.042-8.61-12.081-12.293-3.152-25.174-4.9-36.187-11.607q11.425-8.448,23.326-16.187c3.506,10.715,19.105,18.949,28.1,22.129,4.4,1.557,14.41-.377,15.528-4.42s-4.418-9.933-8.184-10.763c-10.945-2.412-22.338-3.706-32.4-8.9q14.625-9.351,29.929-17.618c4.12,10.162,17.369,18.638,26.849,21.438,4.159,1.228,13.7-1.408,14.77-5.444s-4.256-9.325-7.846-9.9c-10.489-1.692-20.717-5.081-31.121-7.524q14.252-7.583,29.058-14.207c2.5,10.02,15.473,19.012,24.314,22.129,3.821,1.347,12.906-.656,14.111-4.359s-3.518-8.909-6.855-9.569c-9.889-1.953-22.677-1.608-30.846-8.52q8.881-3.959,17.952-7.567c7.341,6.458,19.588,10.922,28.718,11.019,3.87.041,11.514-4.413,11.39-7.933s-6.2-6.487-9.479-6.047a226.963,226.963,0,0,1-27.135,1.583q11.722-4.56,23.747-8.527c7.095-.4,23.261-1.7,31.712-3.383C1552.361,491.421,1558.677,486.87,1557.912,483.425ZM1342.868,588.411c-.275-.207-.548-.427-.823-.64.5-.051,1-.117,1.5-.2C1343.319,587.85,1343.091,588.128,1342.868,588.411Z" transform="translate(-956.976 -374.66)" fill="#c5f0ff"/>
      <g id="leaf_dark2" transform="translate(353.196 57.865)">
        <path id="Caminho_5849" data-name="Caminho 5849" d="M1318.974,460.323c7.195,3.307,19.514,11.422,24.342.146,4.362-10.188-10.347-11.023-16.542-11.928-3.442-.5-5.339-4.4-3.741-8.022a96.9,96.9,0,0,1,5.738-11.234,118.381,118.381,0,0,1,8.335-11.774c2.445-3.045,6.94-3.123,8.643-.274,3.5,5.854,9.156,20.12,17.417,9.621,5.756-7.314-.339-16.047-5.252-21.933-2.457-2.943-.746-8.192,3.319-9.953a83.934,83.934,0,0,1,23.242-6.607c5.031-.6,8.619,3.778,6.865,8.137-2.328,5.783-6.624,18.209,2.913,19.859,12,2.076,10.984-22.251,14.044-25.081,4.507-4.169,35.872,5.028,41.741,12.349,5.183,6.468,5.38,20.372,6.354,30.212a2.2,2.2,0,0,1-2.35,2.227c-6.2,0-18.32-.047-17.543,9.991.8,10.366,16.983,7.051,23.868,7.116-.547,14.447-3.149,27.191-9.566,39.786-1.258,2.47-5.167,2.956-7.628.839-4.025-3.461-14.8-18.088-20.252-9.5-5.427,8.542,9.516,14.53,14.726,18.106,2.47,1.7,3.017,4.973,1.235,6.88a100.53,100.53,0,0,1-18.64,15.123c-2.683,1.755-7.068.195-8.174-3-2.1-6.054-3.063-20.948-12.571-20.051-14.529,1.371-.81,20.4,1.792,26.071a5.567,5.567,0,0,1-3.164,7.7c-2.852,1.031-5.762,1.984-8.662,2.76a18.744,18.744,0,0,1-21.676-10.226c-4.126-8.953-7.979-19.861-14.993-25.939-9.007-7.8-28.837,3.755-36.662-6.591-6.423-8.493-6.234-20.616-3.647-30.963C1313.234,461.159,1316.455,459.165,1318.974,460.323Z" transform="translate(-1310.412 -388.308)" fill="#1250b3"/>
        <path id="Caminho_5850" data-name="Caminho 5850" d="M1369.348,532.861a1.051,1.051,0,0,1-.215-.029,1.077,1.077,0,0,1-.765-.767c-2.38-9.06-4.461-18.315-6.185-27.511a1.077,1.077,0,1,1,2.117-.4c1.71,9.12,3.773,18.3,6.133,27.287q6.848-9.005,14.312-17.613a1.035,1.035,0,0,1-.024-.217,1.074,1.074,0,0,1,1.094-1q1.864-2.125,3.762-4.229c-1.309-7.153-2.4-14.44-3.244-21.662a1.077,1.077,0,0,1,2.139-.249c.774,6.635,1.769,13.321,2.941,19.911q9.575-10.416,20.082-20.208a1.077,1.077,0,0,1,1.467,1.576q-12.945,12.04-24.442,25.055c7.932.577,15.912,1.337,23.766,2.283a1.077,1.077,0,1,1-.258,2.138c-8.36-1.008-16.867-1.809-25.3-2.4q-10.026,11.507-18.923,23.748c9.073-.056,18.234.133,27.265.584a1.077,1.077,0,0,1-.107,2.151c-9.51-.475-19.169-.668-28.71-.578a348.714,348.714,0,0,0-54.179,117.2,1.077,1.077,0,0,1-1.311.775l-.006,0a1.077,1.077,0,0,1-.769-1.309C1321.818,611.281,1341.711,569.595,1369.348,532.861Z" transform="translate(-1309.949 -441.286)" fill="#00c3ff"/>
      </g>
      <g id="leaf_light" transform="translate(310.372 153.487)">
        <path id="Caminho_5851" data-name="Caminho 5851" d="M1450.019,615.7c2.669,8.069,5.489,24,18,19.742,11.407-3.882.885-16.884-2.689-22.22-2.146-3.2-.42-7.583,3.689-8.988a106.445,106.445,0,0,1,13.337-3.733,129.919,129.919,0,0,1,15.708-2.04c4.278-.295,7.687,3.273,6.656,6.767-1.792,6.071-9.073,22.915,5.2,21.209,9.713-1.161,12.7-12.212,13.791-20.559.547-4.172,5.875-6.627,10.5-4.73a86.512,86.512,0,0,1,22.635,13.833c4.3,3.6,3.38,9.737-1.457,11.592-6.618,2.538-19.225,8.3-13.859,17.128,6.975,11.467,25.669-7.622,30.7-7.334,7.26.415,22.374,33.137,21.108,42.863-1.159,8.9-12.527,19.627-19.652,27.605a2.392,2.392,0,0,1-3.547-.238c-4.935-5.5-13.349-14.073-21.124-6.718-7.912,7.486,7.833,19.919,12.026,24.549-11.485,9.973-24.355,18.252-39.232,21.891-3.016.738-6.188-1.927-6.356-5.529-.248-5.313,3.1-25.375-7.408-23.407-10.4,1.948-4.517,18.925-3.65,25.354.444,3.29-1.752,6.153-4.633,6.116a104.609,104.609,0,0,1-26.081-3.778c-3.46-.942-5.4-5.506-3.667-8.823,3.237-6.181,14.618-18.3,6.824-25.064-12.048-10.448-17.15,14.764-19.706,20.851a6.114,6.114,0,0,1-8.569,3.179c-2.956-1.533-5.949-3.158-8.676-4.932-7.678-4.994-11.9-16.254-7.884-25.094,4.232-9.323,10.467-21.488,9.772-31.4-.914-13.029-23.927-20.279-21.974-34.475,1.619-11.766,12.285-20.378,22.273-25.99C1445.087,611.639,1449.059,612.8,1450.019,615.7Z" transform="translate(-1326.93 -598.444)" fill="#b6f1ff"/>
        <path id="Caminho_5852" data-name="Caminho 5852" d="M1216.37,770.947c46.073-24.94,94.6-39.965,144.91-44.945a1.008,1.008,0,0,1-.231-1.349c5.6-8.581,11.518-17.14,17.58-25.439a1.011,1.011,0,0,1,1.633,1.194c-6.041,8.271-11.936,16.8-17.52,25.352a.963.963,0,0,1-.11.119q12.573-1.2,25.291-1.572a1,1,0,0,1,1.53-.033q3.233-.079,6.473-.107c4.819-6.366,9.887-12.67,15.068-18.738a1.012,1.012,0,0,1,1.538,1.314c-4.822,5.648-9.538,11.5-14.053,17.422q15.676-.018,31.549,1.211a1.011,1.011,0,0,1-.158,2.017q-19.57-1.537-38.841-1.124c5.493,6.968,10.911,14.081,16.119,21.188a1.011,1.011,0,0,1-1.631,1.2c-5.494-7.5-11.22-15-17.023-22.336q-16.982.461-33.706,2.425c6.578,7,13.171,14.456,20.124,22.757a1.012,1.012,0,0,1-1.551,1.3c-7.247-8.653-14.1-16.385-20.954-23.639a1,1,0,0,1-.087-.114c-46.781,5.8-91.958,20.391-134.987,43.682a1.011,1.011,0,1,1-.963-1.778Z" transform="translate(-1215.84 -653.134)" fill="#daecff"/>
      </g>
      <g id="leaf_dark1" transform="translate(0 103.991)">
        <path id="Caminho_5853" data-name="Caminho 5853" d="M694.5,522.333c-4.425,7.747-10.643,23.552-22.633,16.566-10.929-6.368,2.6-17.556,7.39-22.3,2.875-2.851,2.011-7.716-1.925-10.016a111.724,111.724,0,0,0-12.946-6.617,136.437,136.437,0,0,0-15.738-5.368c-4.34-1.194-8.591,1.768-8.256,5.577.581,6.62,4.566,25.467-9.766,20.741-9.753-3.216-10.524-15.208-9.912-24.024.306-4.407-4.667-8.042-9.823-7.053a90.818,90.818,0,0,0-26.169,9.523c-5.175,2.813-5.5,9.316-.914,12.231,6.281,3.989,18.053,12.546,10.694,20.508-9.563,10.348-24.825-13.184-30.058-13.934-7.556-1.084-29.918,29.44-30.639,39.71-.66,9.4,8.8,22.8,14.476,32.494a2.512,2.512,0,0,0,3.7.493c6.221-4.63,16.664-11.7,23.133-2.516,6.583,9.349-12.2,18.865-17.483,22.757,9.742,12.652,21.261,23.848,35.811,30.688,2.951,1.387,6.768-.7,7.691-4.366,1.361-5.415,2.095-26.754,12.493-22.543,10.293,4.168.709,20.412-1.521,26.847-1.142,3.293.522,6.7,3.494,7.258a109.842,109.842,0,0,0,27.622,1.54c3.756-.25,6.706-4.541,5.609-8.315-2.045-7.033-11.231-21.877-1.805-27.209,14.571-8.243,14.573,18.761,15.937,25.555a6.419,6.419,0,0,0,8.155,5.054c3.359-.962,6.777-2.011,9.953-3.269,8.939-3.541,15.625-14.248,13.335-24.18-2.415-10.474-6.3-24.288-3.52-34.343,3.652-13.216,28.839-15.887,29.784-30.9.783-12.444-8.4-23.524-17.509-31.377C700.416,519.179,696.089,519.546,694.5,522.333Z" transform="translate(-533.769 -489.672)" fill="#1250b3"/>
        <path id="Caminho_5854" data-name="Caminho 5854" d="M864.775,714.978c-42.216-35.25-89.017-60.807-139.75-76.4a1.058,1.058,0,0,0,.518-1.34c-3.98-10-8.285-20.032-12.795-29.834a1.062,1.062,0,1,0-1.929.888c4.495,9.767,8.785,19.77,12.751,29.731a1.037,1.037,0,0,0,.088.146q-12.687-3.85-25.7-6.881a1.091,1.091,0,0,0-.126-.187,1.059,1.059,0,0,0-1.442-.165q-3.309-.754-6.638-1.457c-3.634-7.553-7.536-15.094-11.6-22.416a1.062,1.062,0,0,0-1.857,1.032c3.786,6.816,7.42,13.823,10.835,20.851q-16.126-3.281-32.714-5.319a1.062,1.062,0,1,0-.257,2.108q20.457,2.492,40.2,6.926c-7.1,6.027-14.157,12.218-21,18.446a1.062,1.062,0,1,0,1.43,1.57c7.213-6.57,14.667-13.1,22.164-19.44q17.377,4.009,34.177,9.51c-8.225,5.836-16.56,12.133-25.442,19.227a1.062,1.062,0,0,0,1.325,1.66c9.258-7.4,17.92-13.924,26.479-19.962a1.051,1.051,0,0,0,.114-.1c46.927,15.7,90.375,40.118,129.8,73.037a1.061,1.061,0,1,0,1.361-1.629Z" transform="translate(-598.869 -553.346)" fill="#fff"/>
      </g>
    </g>
    <g id="clouds" transform="translate(368.611 3811.251)">
      <path id="Caminho_5855" data-name="Caminho 5855" d="M1204.519,173.112c0-5.251,4.56-9.507,10.186-9.507a10.719,10.719,0,0,1,4.718,1.082c2.3-7.886,10.022-13.686,19.2-13.686a19.977,19.977,0,0,1,18.329,11.328,14.384,14.384,0,0,1,7.429-2.039c7.588,0,13.739,5.741,13.739,12.824Z" transform="translate(-908.909 -151)" fill="#fff"/>
      <path id="Caminho_5856" data-name="Caminho 5856" d="M1596.175,438.3a7.283,7.283,0,0,1,7.521-7.02,7.918,7.918,0,0,1,3.483.8,14.571,14.571,0,0,1,14.177-10.106,14.75,14.75,0,0,1,13.533,8.365,10.618,10.618,0,0,1,5.486-1.506c5.6,0,10.144,4.239,10.144,9.469Z" transform="translate(-1122.344 -298.669)" fill="#fff"/>
      <path id="Caminho_5857" data-name="Caminho 5857" d="M601.794,532.754A6.286,6.286,0,0,0,595.3,526.7a6.836,6.836,0,0,0-3.006.689,12.576,12.576,0,0,0-12.236-8.722,12.731,12.731,0,0,0-11.681,7.219,9.165,9.165,0,0,0-4.735-1.3c-4.835,0-8.755,3.659-8.755,8.172Z" transform="translate(-554.89 -351.36)" fill="#fff"/>
      <path id="Caminho_5858" data-name="Caminho 5858" d="M717.714,281.067c0-2.341-2.692-4.853-6.012-4.853a8.3,8.3,0,0,0-2.027.248,6.293,6.293,0,0,0-5.67-3.127,6.762,6.762,0,0,0-4.488,1.622,8.107,8.107,0,0,0-6.357-2.849c-3.528,0-6.5,2-7.371,4.721h0c-3.321,0-6.013,1.9-6.013,4.239Z" transform="translate(-622.946 -216.998)" fill="#fff"/>
    </g>
    <g id="world" transform="translate(460.449 3886.262)">
      <g id="Grupo_1888" data-name="Grupo 1888">
        <path id="Caminho_5859" data-name="Caminho 5859" d="M904.324,315.845c-81.38,0-147.612,66.226-147.612,147.595,0,81.394,66.232,147.589,147.612,147.589s147.594-66.195,147.594-147.589C1051.918,382.071,985.7,315.845,904.324,315.845Z" transform="translate(-756.712 -315.845)" fill="#8bd9f1"/>
        <path id="Caminho_5860" data-name="Caminho 5860" d="M1011.319,316.2a147.8,147.8,0,0,1,83.937,133.135c0,81.4-66.218,147.6-147.593,147.6-2.175,0-4.336-.071-6.507-.162a146.757,146.757,0,0,0,63.682,14.452c81.378,0,147.594-66.195,147.594-147.589C1152.432,384.447,1089.7,319.616,1011.319,316.2Z" transform="translate(-857.226 -316.04)" fill="#7acbe4"/>
        <g id="Grupo_1886" data-name="Grupo 1886" transform="translate(1.035 15.684)">
          <path id="Caminho_5861" data-name="Caminho 5861" d="M1361.211,728.37c-1.95.045-4.475.955-4.505,1.618s-2.722,1.882-3.624,2.23c-.871.359-2.593,3.092-2.97,4s-2.558.637-3.378.99c-.807.374-2.465,1.708-2.472,2.516s-.464.712-1-.211l-1.068,1.124-1.263,1.407c-.725,2.265-3.122,5.1-3.956,5.379-.807.223-.967,4.206-.967,5.8a7.377,7.377,0,0,0,1.4,4.4l.148,1.288.292,2.526a4.6,4.6,0,0,0,1.472,4.064c.425.328,4.094-.656,5.481-.993a9.489,9.489,0,0,0,1.986-.806,147.073,147.073,0,0,0,15.2-35.252A2.362,2.362,0,0,0,1361.211,728.37Z" transform="translate(-1073.435 -556.334)" fill="#52c3e2"/>
          <path id="Caminho_5862" data-name="Caminho 5862" d="M803.049,557.208c-.2.417,2.433,3.121,3.467,4.034,1.005.924,3.188,5.365,3.622,6.807a11.012,11.012,0,0,1,.044,4.4c-.133.552.49,1.8.592,2.3s-.9,4.857-.513,6.605-2.053,7.192-2,9.885c.068,2.723,1.282,6.251,1.787,5.99.485-.273.656,2.447-.176,2.772-.81.336-1.786,2.5-1.312,2.6s-.032,2.244.1,3.087c.11.859.838,6.479.992,7.865.156,1.419,2.149,4.82,2.572,5.974.425,1.17.85,3.361,1.019,3.69a4.139,4.139,0,0,0,.392.7,13.711,13.711,0,0,1,2.1.969c.495.35,3.637.118,4.673-.1,1.029-.2.088-1.159-.385-1.658-.467-.522-.871-3.008-1.422-3.276-.523-.232-.754-3.417-.282-4.117s2.35-1.813,2.57-2.418c.194-.59.255-3.363-.243-3.741-.516-.372.142-3.73-.238-5.4s2.894-3.181,3.085-4.51,3.737-2.737,4.544-3.41,1.492-4.441,1.131-5.263c-.4-.81,1.29-1.476,2.062-1.476a9.956,9.956,0,0,0,1.887-.539c.3,0,1.192-1.676,1.679-2.062s1.49-4.395,2.362-5.045c.9-.666,1.617-3.082,1.617-3.784s1.34-2.823,1.788-3.456,3.755-2.147,4.369-2.411c.566-.229,1.469-5.545,1.708-7.454a49.148,49.148,0,0,1,1.289-5.094c.058-.643,1.138-1.173,1.311-1.369.215-.208,1-2.643,1.515-3.207a16.623,16.623,0,0,0,2.391-3.408,21.051,21.051,0,0,1,.6-2.943v-1.306l.03-2.063c-.594-1.616-2.365-3.6-2.82-3.169s-2.51-1.424-3.55-1.815a19.99,19.99,0,0,0-4.314-.716c-.668,0-2.951-1.87-3.974-2.182s-3.624-.834-4.109-1.132c-.464-.307-1.11-4.188-3.206-5.453s-5.794-4.225-6.2-5.312c-.39-1.079-4.437-3.373-5.69-4.059-1.234-.683-3.129-.846-3.347-.584-.246.226-1.816-2.109-2.6-2.785-.806-.654-3.222-1.2-3.329-.615-.121.612-1.723.294-2.107-.21-.361-.512-1.612.2-2.2.388s-2.591,3.252-3.505,4c-.935.72-2.036-.693-2.634-.961s-2.919.469-3.555.915-2.087-3.255-1.75-4.95-1.532-5.073-2.962-5.166-1.892-3.63-1.6-4.948c.293-1.3-2.592-2.131-3.314-2.215-.722-.1-2.522,1.755-2.816,2.639-.322.881-6.851-1.2-6.074-5.128a17.989,17.989,0,0,1,4.63-8.445c.772-.472,4.972-.724,5.892-.182a1.532,1.532,0,0,0,1.927-.243c.154-.251,3.58.026,4.6.462,1.018.407,2.489,4.367,3.533,4.849,1.075.485,1.453-2.556,1.638-3.3a8.005,8.005,0,0,0-.767-3.16c-.267-.527,1.691-5.314,3.3-6.128s3.284-3.49,3.146-3.967,1.277-.836,1.662-1.041c.392-.183-.066-4.058.569-4.907a18.414,18.414,0,0,1,4.594-3.02c.94-.395,1.66-2.85,1.33-3.279-.351-.43,2.459-2.827,3.9-3.285s2.71.838,2.358,1.032c.285-.145,2.286-1.188,3.162-1.754.989-.666,0-2.463-.644-3.02-.638-.507-.243-2.632.519-2.812.777-.193,1.445-2.011,1.248-2.409s3.211.321,4.506-.654c1.267-.958.372,2.32-.586,3.66a1.484,1.484,0,0,0,1.308,2.3c.612-.25,1.256.707,1.386,1.065.111.365,1.441-.372,2.286-.012.85.377,1.372-1.168,1.443-1.878s-2.061-2.213-2.378-3.07c-.339-.855-.469-5.85-.524-6.887s-1.423-2.7-1.872-2.38c-.444.273-1.339-2.664-2.047-3.315a3.735,3.735,0,0,1-.847-2.523c.029-.476-2.427-3.042-3.011-4.226s-1.415-.941-1.456-.411c-.074.552-1.764.632-2.477.552-.7-.055-1.27-2.768-1.27-3.788s-3.179-1.184-3.692-2.019c-.51-.814-2.572-.434-2.91-.993a3.273,3.273,0,0,0-2.494-.891c-.38.206-.211,7.551-.539,9.526-.369,1.979-2.03,3.728-2.656,3.674-.608-.038-.248,1.42.186,1.286s-1.2,2.164-1.4,3.672-1.749-.073-1.987-1.434c-.257-1.369-1.737-3.208-2.016-2.749-.29.481-1.315-.548-1.774-.261-.438.294-3.257-1.646-4.408-2.272-1.116-.585-1.771-4.092-2.424-4.409-.652-.295-.094-.73-.112-1.254s2.2-2.553,2.87-3.356a41.678,41.678,0,0,1,4.073-4.672,4.232,4.232,0,0,0,1.566-2.842c-.161-.328,4.131-1.68,5.31-2.084s2.183-3.649,2.325-4.59a3.845,3.845,0,0,0-1.261-2.947c-.541-.213,1.619-.291,2.342.073.734.341,2.944-.677,3.834-.2.869.459,2.651,1.5,3.923,2.337l-.28,2.378-.521,4.049c-3.4,1.409-4.367,3.85-3.187,3.787s6.629,2.368,8.163,3.461c1.517,1.094,2-1.6,2.453-2.488a6.7,6.7,0,0,0-.046-4.006c-.382-.513,1.76-.327,2.353.249.623.568,1.314-.595,1.784-.808s.688-2.43.948-2.879c.241-.448-1.037-.913-1.05-1.457-.049-.575-2.488-1.622-3.271-2-.814-.384-1-2.064-.591-2.345.374-.3-.278-2.45-.678-3.148-.361-.71-2.925-1.294-3.771-1.294s-1.727-1.982-2.21-2.252a13.088,13.088,0,0,0-4.567-.4c-.813.23-2.286-2.32-3.655-1.551s-2.778-.9-3.391-1.247c-.633-.334-3.812,3.1-3.8,5.5.045,2.414,1.251,4.747,1.757,4.815s-.117,2.246-.675,2.874c-.541.606-1.892-.659-1.384-1.208s-1.387-3.062-2.045-4.1c-.469-.748-2.133-1.4-3.256-1.855-.659.709-1.3,1.45-1.929,2.179a5.353,5.353,0,0,1,.246,2.882c-.477,1.469-1.7,1.685-1.79,1.065-.023-.294-.644-.507-1.371-.6a147,147,0,0,0-33.186,77.149,8.881,8.881,0,0,1,1.734,2.463c.411,1.3,2.664,2.138,3.084,2.413.414.247.567-2.489.265-3.19s.553-1.147.531-.627,2.115,2.955,2.811,3.817,1.432,6.49,2.109,7.694c.673,1.226,7.179,3.724,9.268,4.165a11.213,11.213,0,0,1,5.143,3.454c.4.677,3.182,1.019,3.773,1.287.613.278,2.03,2.161,2.619,2.553a3.228,3.228,0,0,1,1.049,1.817c0,.293,3.674,1.673,4.575,2.672a1.976,1.976,0,0,0,2.63.287c.274-.41,1.009,1.956,1.4,2.758a5.394,5.394,0,0,1,.173,3.153c-.294.3-.82,4-1.439,4.743s-1.918,6.1-1.651,7.16A8.409,8.409,0,0,0,799.8,546.3a.842.842,0,0,1-.157,1.537c-.59.076-.309,5.194,1.073,5.956C802.083,554.556,803.253,556.83,803.049,557.208Z" transform="translate(-758.986 -381.402)" fill="#7dc2f5"/>
          <path id="Caminho_5863" data-name="Caminho 5863" d="M893.947,539.1l.021-.018C893.917,539.125,893.9,539.134,893.947,539.1Z" transform="translate(-832.518 -453.185)" fill="#7dc2f5"/>
          <path id="Caminho_5864" data-name="Caminho 5864" d="M865.084,377.943c1.768-.295,4.7-.787,4.895-1.287a3.014,3.014,0,0,0-.159-2.042c.277.019.607.034.861.034.664,0,1.782-3.675,2.492-4.527s4.738-2.127,5.7-2.7,3.063-2.627,3.885-2.854c.806-.247,2-2.145,1.8-2.522-.167-.371,2.742-2.133,3.854-2.592,1.1-.482,1.677-1.778,1.256-1.852-.265,0-6.423,3.215-12.07,6.416a148.734,148.734,0,0,0-18.156,14.565C861.2,378.466,863.918,378.137,865.084,377.943Z" transform="translate(-813.729 -354.283)" fill="#7dc2f5"/>
          <path id="Caminho_5865" data-name="Caminho 5865" d="M1045.721,578.289c1.888-1.124,5.085-5.867,6.147-6.848,1.054-1,1.814-4.595,2.053-5.393a5.17,5.17,0,0,1,2.41-2.214c.595-.182,2.493-8.13,4.182-9.871s3.652-10.156,3.455-13.181c-.215-3.014,1.069-8.8,1.473-10.182a13.371,13.371,0,0,1,3.172-4.337,93.649,93.649,0,0,0,6-8.68c1.3-2.161,2.543-6.888,2.3-7.975-.252-1.129-3.083-1.878-3.595-1.352-.523.547-3.193,1-4.029,1-.876,0-2.813-4.55-4.02-5.487s-2.292-6.154-2.99-7.136a50.908,50.908,0,0,0-3.25-4.059c-.606-.578-.721-3.345-.858-4.1s1.18.494,1.409,1.586,3.338,5.553,4.307,7.055,3.526,6.266,4.167,7.751c.677,1.492,6.325.736,8.171-.132s4.141-2.344,4.225-2.849,3.01-1.864,3.832-2.523,1.542-4.066,2.059-4.606c.539-.565-.411-3.808-1.029-4.781s-3.548-1.74-4.145-1.368c-.607.4-1.865-2.158-2.33-3.114-.437-.952-2.689-2.1-2.933-2.75s.593-1.656.965-1.882c.342-.219,4.494,2.688,5.7,4.143a32.362,32.362,0,0,1,2.784,4.57c.2.462,3.49.705,4.226.156a1.154,1.154,0,0,1,1.856.306l1.029-.181,3.6-.556c1.7,1.848,2.194,3.433,2.154,3.812a3.544,3.544,0,0,0,1.724,2c.7.177,1.21,2.518,1.416,3.1a60.023,60.023,0,0,1,2.7,5.593,37.033,37.033,0,0,0,2.573,5.132,11.879,11.879,0,0,1,.777,3.639,2.639,2.639,0,0,0,2.125,1.767c.8-.056,2.466-5.226,2.854-7.129s1.711-3.5,2.07-3.5c.389,0,.684-1.063.684-1.484,0-.4,2.08-.347,2.266-.892.177-.519.8-3.923,1.539-4.431a32.048,32.048,0,0,1,4.308-2.567c.931-.323,3.289,1.714,3.821,2.673a8.207,8.207,0,0,1,.793,3.761c-.2.4,1.248,2.482,2.517,2.453,1.251-.038,1.654,1.6,1.675,2.189.056.593,1.714,2.266,2.054,3.028a6.536,6.536,0,0,1,0,3.266,11.13,11.13,0,0,0,.189,3.936c.222.744,4.084,4.665,5.552,5.859,1.438,1.181,2.135-2.425,1.385-3.558s-3.278-3.734-3.854-4.518c-.606-.782-.7-3.919-.481-4.795s2.215.485,3.031,1.119a6.307,6.307,0,0,1,1.952,2.514c.03.486,5.221-2.434,5.385-5.581.2-3.161,1.921-6.714,2.076-7.546.189-.846-.5-1.979-.938-2-.438-.047.766-2.41,2.234-2.379,1.451.05,4.949-3.862,5.781-5.4a12.385,12.385,0,0,1,2.688-3.02,26.843,26.843,0,0,0,1.565-5.35c.208-1.508-.85-3.886-.981-4.666a15.348,15.348,0,0,0-1.711-3.157,6.707,6.707,0,0,1-.424-3.082c.2-.394,1.491-.81,1.654-1.158.133-.352,1.641-1.939,1.522-2.677-.111-.692.929.912,1.629,1.507.675.589,1.418,4.352,2.273,4.755.849.418,4.286-3.988,3.875-6.817-.413-2.849,1-6.484,1.826-6.812.629-.245,2.246-2.545,3.333-4.182a147.638,147.638,0,0,0-36.334-57.306,2,2,0,0,1-.562-.009l-1.263-.269c-2.115-.457-3.344-2.726-2.986-3.247a1.6,1.6,0,0,0-.009-.991q-1.792-1.592-3.615-3.139c-1.006-.021-2.064,0-2.678-.021a11.453,11.453,0,0,1-4.514-1.45c-.5-.487-2.147.443-2.249,1.356s-3,1.339-3.27,2.031a1.535,1.535,0,0,1-2.062.359c-.289-.393-2.973.944-4.307,1.147a23.553,23.553,0,0,0-4.416,1.526,7.032,7.032,0,0,0-2.232,2.221c-.214.577-1.928,1.544-2.481,1.753s-.432,2.7.264,3.061c.706.341-1.306-.294-2.2-.758-.914-.452-1.9,1.056-2.175,1.582-.293.515-1.1-.318-1.062-1.064s-2.216-1.34-2.513-.739-1.85-.2-2.486-.521c-.646-.347-3.436,2.545-4.448,3.574-1.037,1.049-5.97,1.84-6.881,1.45-.93-.379-1.834,2.207-1.035,2.363.772.156-2.01-.135-3.541.026a24.5,24.5,0,0,0-7.04,2.7,1.148,1.148,0,0,1-1.919-.774c0-.607-1.687-1.16-2.207-1.343-.484-.163-1.473,3.329-2.349,4-.9.678-1.953-2.725-4.042-3.292-2.068-.561-5.309-2.564-6.239-2.8s-2.768-2.178-3.3-2.729c-.5-.577-3.176-1.042-4.026-1.042s-3.6,1.584-4.331,2.208c-.748.616-1.862.5-2.221.724-.374.217-3.474,3.244-4.678,4.214-1.21.952-3.316,5.066-3.995,6.042a2.869,2.869,0,0,1-2.087,1.179c-.4.03-.736,1.115-.736,1.519s-3.564,2.265-3.941,3.882.354,5.32.354,6.646,1.3,3.926,2.3,3.967.477,2.238.229,2.838c-.27.632.614,1.307.57,1.831-.005.509-2.5,1.249-3.264,1.549a5.786,5.786,0,0,0-2.166,2.659c-.131.553-2.518.96-3.3,1.722.2-.552.46-1.314.654-1.722a2.816,2.816,0,0,0-.534-2.693c-.363-.311-.541-4.6-1.143-5.527a18.927,18.927,0,0,0-2.48-2.781c-.367-.283.247-1.42.471-1.914.2-.463-2-.753-2.6-.376-.617.335-.938,4.574-1.192,5.743a3.791,3.791,0,0,0,1.467,3.025c.376.1.256,2.191-.505,2.256-.784.068-1.508,3.139-1.109,3.822.4.7-.546,2.07-1.013,2.392s3,.124,4.572.085,2.784.66,2.627.8-3.02.544-3.52,1.219-2.439,1.979-2.81,2.491.639,1.677,1.46,1.621,1.751,2.83,2.388,3.349c.621.537.391,2.03.133,2.443-.294.4-4.138-.293-5.6.087s-3.3,3.445-3.436,4.6a28.712,28.712,0,0,0,.445,5.464c.157.913,3.223,1.478,3.839,1.944.641.443,3.565.015,4.178.3.589.284,2.564-2.968,2.967-4.482.37-1.516,3.508-4.28,4.156-5.319.649-1.014,4-.9,4.814-1.437.837-.522.385,2.564.771,4.238.4,1.712,3.614,1.481,3.145-.1s.315-2.28.441-1.7c.161.556,3.239,1.833,3.833,2.732.568.882.406,2.792-.268,2.758-.71-.022-.73,2.091.013,2.321.715.221,1.686-2.376,2.455-2.761.8-.378,1.434-2.014,1.043-2.117-.337-.141.671-1.591,1.119-1.112s-1.658-3.161-2.973-4.483-.395-.734,2.07,1.319l1.7,2.372c.332.427.779,1.73,1.052,2.2l.406.7a16.405,16.405,0,0,1,.639,3.725,2.668,2.668,0,0,0,2.125,1.779c.8-.054,1.416.385,1.267.424-.178.021.528,1.6,1.331,1.629s1.154-2.029.338-2.088-.685-3.028-.785-4.332.573-2.378.853-2.378-.019,2.672-.01,3.3a9.005,9.005,0,0,0,.727,2.694l.842.637,1.86,1.431c2.677-.8,6.256-.185,6.127.362s1.974.683,2.09-.2c.132-.874.224.017.224.64,0,.59-1.737,2.99-2.023,4.085s-6.475.366-9.128.152-6.567.694-6.882,1.5c-.274.787-4.423-1.829-6.334-2.633s-3.381-3.7-3.776-4.069c-.4-.4.34-1.321.151-1.885-.186-.581-4.523-.7-5.781-.228s-7.758,1.147-9.294,1.824c-1.541.7-3.863-.038-4.589-.17s-2.437,2-3.309,2.385c-.889.384-1.975,3.383-2.459,6.694l-1.191,2.3-.757,1.475c-2.143,1.622-4.514,7.08-5.22,8.174s-1.263,8.919-1.263,11.573,2.311,8.24,2.956,9.779,4.633,4.936,5.961,5.765c1.33.794,5.655.906,7.075.9a4.338,4.338,0,0,0,3.583-2.984l2.078.207.96.111c.042,1.146,3.118,2.087,3.865,2.482.749.421,2.759.112,3.375-.068.6-.178,1.279,5.244.832,6.809-.431,1.564,1.062,7.065,1.5,8.716s2.329,6.179,2.516,7.808-1.1,7.014-1.315,8.906,2.357,7.184,3.048,9.018a30.728,30.728,0,0,1,1.2,6.619c0,.929,2.812,6.378,3.446,8.639C1036.766,578.839,1043.814,579.4,1045.721,578.289Z" transform="translate(-887.618 -370.923)" fill="#52c3e2"/>
          <path id="Caminho_5866" data-name="Caminho 5866" d="M1370.386,650.25c.2.4,1.958-1.02,3.023-1.175s1.727-3.024.9-3.229c-.832-.226-1.879-2.425-2.489-2.685s-1.777.946-1.719,1.814c.039.867-1.929,1.218-2.312,1.929-.348.73-.348,1.253.062,1.174S1370.216,649.841,1370.386,650.25Z" transform="translate(-1090.618 -509.882)" fill="#52c3e2"/>
          <path id="Caminho_5867" data-name="Caminho 5867" d="M1363.261,688.923c.518-.185-.072-3.009-1.171-3.239s-4.174,3.7-3.585,5.982c.589,2.262,1.223,2.125,1.545,1.642.3-.479,2.143.313,2.677.5s.535-.377,0-1.217S1362.726,689.121,1363.261,688.923Z" transform="translate(-1085.657 -533.07)" fill="#52c3e2"/>
          <path id="Caminho_5868" data-name="Caminho 5868" d="M1342.922,677.737c.132-1,.325-4.161.487-4.77.173-.637-1.715-2.444-2.643-2.766-.909-.326-3.9,6.141-6.038,7.275s-2.909,5.089-2.346,5.991,5.026,1.381,5.794,2.082c.784.675,1.648-.119,2.122-.233s.325-.4.141-.526,1.566-1.951,1.817-3.128C1342.49,680.517,1342.793,678.742,1342.922,677.737Z" transform="translate(-1071.365 -524.631)" fill="#52c3e2"/>
          <path id="Caminho_5869" data-name="Caminho 5869" d="M1324.567,710.168c-1.675-.644-3.643.352-3.789,1-.176.643,6.437,1.7,8.636,2.285s3.553.795,3.047.415C1331.947,713.507,1326.243,710.794,1324.567,710.168Z" transform="translate(-1065.136 -546.305)" fill="#7dc2f5"/>
          <path id="Caminho_5870" data-name="Caminho 5870" d="M1356.516,611.818c.534-.733-.733-4.19-1.37-3.41s-.183,2.795.024,3.5S1356,612.554,1356.516,611.818Z" transform="translate(-1083.691 -490.902)" fill="#52c3e2"/>
          <path id="Caminho_5871" data-name="Caminho 5871" d="M1363.75,629.706c.378-.881-.5-1.885-1.92-2.172s-1.2,4-.589,4.54C1361.868,632.626,1363.355,630.6,1363.75,629.706Z" transform="translate(-1086.928 -501.378)" fill="#52c3e2"/>
          <path id="Caminho_5872" data-name="Caminho 5872" d="M1383.636,688.072c1.708,1.18,5.511.637,5.628-1.678C1387.58,685.31,1383.481,685.476,1383.636,688.072Z" transform="translate(-1099.391 -533.119)" fill="#52c3e2"/>
          <path id="Caminho_5873" data-name="Caminho 5873" d="M1379.667,569.337a2.39,2.39,0,0,0-.864,2.276c-.106,0-.193-.012-.3-.012-.564,0-.63,2.255-.029,2.636s2.028-1.757,2.793-2.269a4.314,4.314,0,0,1,2.487-.661c.222.162,1.547-.232,2.96-.881a2.569,2.569,0,0,0,.816-1c-.323-1.643-.719-3.272-1.107-4.88-.721.517-1.522,1.073-1.9,1.417C1383.781,566.636,1380.6,568.7,1379.667,569.337Z" transform="translate(-1096.351 -467.06)" fill="#52c3e2"/>
          <path id="Caminho_5874" data-name="Caminho 5874" d="M1295.612,674.451a.086.086,0,0,0,.019,0C1295.341,674.252,1295.3,674.226,1295.612,674.451Z" transform="translate(-1051.304 -526.867)" fill="#7dc2f5"/>
          <path id="Caminho_5875" data-name="Caminho 5875" d="M1306.528,683.578a18.152,18.152,0,0,0-4.536-5.261l-.726-1.171-.77-1.29c-.712-1.416-2.811-2.505-3-2.93s-.846,1.235-1.579.757c.383.268,1.167.829,2.278,1.6,1.992,1.428,5.805,11.037,6.67,11.716S1307.14,684.981,1306.528,683.578Z" transform="translate(-1051.588 -526.086)" fill="#52c3e2"/>
          <path id="Caminho_5876" data-name="Caminho 5876" d="M1252.206,660.873c-.528,1.074,2.816,3.392,3.091,2.869.282-.542-.436-3.2-1.042-3.786C1253.667,659.381,1252.735,659.792,1252.206,660.873Z" transform="translate(-1027.739 -518.913)" fill="#7dc2f5"/>
          <path id="Caminho_5877" data-name="Caminho 5877" d="M1153.258,751.656c.13,1.142,2.459,2.053,3.129,1.862s2.542-3.639,2.809-4.636a21.866,21.866,0,0,0,.463-3.639,3.33,3.33,0,0,1,.581-1.8,6.279,6.279,0,0,0,.947-2.609c.247-1.309-1.411-7.352-1.448-8.423s-1.243.539-1.549,1.62c-.324,1.078-3.326,3.273-4.011,4.19-.657.912-1.405,4.008-1.15,4.55.257.522-.256,2.63-.563,3.235C1152.176,746.58,1153.134,750.514,1153.258,751.656Z" transform="translate(-973.386 -558.348)" fill="#7dc2f5"/>
          <path id="Caminho_5878" data-name="Caminho 5878" d="M915.125,865.524h2.04C917.525,863.33,915.023,863.7,915.125,865.524Z" transform="translate(-844.073 -630.258)" fill="#7dc2f5"/>
          <path id="Caminho_5879" data-name="Caminho 5879" d="M960.548,357.2a7,7,0,0,1-3.447-.743c-.379-.4-3.673-.753-4.637-.357-.942.4-.286-2.322,1.039-2.624,1.32-.279.182-2.157-1.2-2.164-1.415-.013-4.906-.517-5.721-.349s-2.414-.559-3-.651-4.773,1.261-6.735,1.152a49.668,49.668,0,0,0-7.874.407c-1.086.284-1.842,2.336-1.68,3.071.146.725-4.7.719-6.216.743-1.545.02-9.677,1.75-11.807,2.925-2.124,1.15-3.776,4.136-3.08,4.208.7.04-1.177,1.747-2.329,2.131-1.136.4-3.852.6-4.5,1.225s.693,1.078.934,1.507,1.029-.374,1.748.046c.7.39,3.076.585,3.7.832.657.257-2.012.757-3.255.835-1.249.094-.961,2.528.034,2.87,1.036.341,3.638.7,3.9.282s3.093.461,4.386.605c1.262.143,2.236,3.334,2.624,4.025a10.155,10.155,0,0,1,.391,3.83c-.092.708,2.245,2,2.676,1.538.416-.431.293,1.113-.638,1.021-.947-.067-.348,2.635.824,3.026s.37,2.054-.3,2.56c-.667.489-.3,2.088-.988,2.651s2.42,5.962,2.4,8.734,1.723,5.024,2.384,5.024,2.933.562,3.221,1.152c.319.578,1.409-.418,1.838-.878a21.684,21.684,0,0,0,2.057-2.946c.7-1.175,2.26-6.72,2.474-7.32s2.826-.223,3.405-.523a30.443,30.443,0,0,0,2.779-2.05c.5-.406,4.2-1.974,5.235-2.708,1-.738,2.692-3.88,3.483-4.547s-.414-.479-1.4-1.132a1.061,1.061,0,0,1-.259-1.739c.292-.324,3.277.489,4.327.895,1.028.4,2.994-1.019,2.237-1.578s-.35-.534,0-.293c.38.222.757-1.825.355-2.21-.385-.395,3.045-2.9,2.43-5.263-.594-2.36.954-4.8,1.864-4.808.92-.039.65-2.679-.451-2.921s-.074-.483.342-.863a5.645,5.645,0,0,0,.709-3.194c-.259-.444,1.676-.972,2.006-1.495a8.989,8.989,0,0,1,3.344-1.772C960.936,359.175,961.38,357.107,960.548,357.2Z" transform="translate(-835.387 -350.313)" fill="#7dc2f5"/>
          <path id="Caminho_5880" data-name="Caminho 5880" d="M1067.266,369.622c-1.053-.359-3.174.819-2.9,1.471s-1.743-.858-3.135-.129c-1.413.731-1.8,3.2-1.157,3.524.659.324,1.1,2.268,1.133,2.644s2.711.116,3.426-.463c.68-.571.6,1.994-.1,2.684s.265,2.065,1.008,2.176,1.775,1.878,2.554,1.878c.791-.033,2.1-3.012,2.393-4.126.309-1.11,2.884-.233,4.082.126,1.173.347,1.6-4.108.326-4.789-1.273-.662-2.872-.34-3.4-.832a4.282,4.282,0,0,0-2.049-1.078C1068.885,372.612,1068.309,369.973,1067.266,369.622Z" transform="translate(-922.901 -360.799)" fill="#7dc2f5"/>
          <path id="Caminho_5881" data-name="Caminho 5881" d="M1089.9,369.9c2.072.289,4.422-1.421,4.928-1.9s-5.776-1.753-8.161-1.839c-2.4-.081-4.312.251-4.289.722S1087.811,369.6,1089.9,369.9Z" transform="translate(-935.222 -358.94)" fill="#7dc2f5"/>
          <path id="Caminho_5882" data-name="Caminho 5882" d="M1014.518,495.752c-.536-.235-.844,1.832-.712,2.609.122.794,2.024.728,2.844.563a1.553,1.553,0,0,0,1.421-1.468c-.024-.668-1.182-3.727-1.657-3.727S1015.068,495.977,1014.518,495.752Z" transform="translate(-897.835 -428.468)" fill="#7dc2f5"/>
          <path id="Caminho_5883" data-name="Caminho 5883" d="M1016.995,442.951c-.424-.758-3.7-.673-4.492-.728a9.051,9.051,0,0,1-3.708-1.374c-.45-.5-.793,2.015-1.552,2.344s.364.814.675.531c.293-.26-.02,1.307-.361,1.849-.326.545,2.167.918,2.455,1.74a2.07,2.07,0,0,0,2.3,1.174c1-.152,2.968-1.174,3.664-1.24S1017.416,443.713,1016.995,442.951Z" transform="translate(-894.136 -399.615)" fill="#7dc2f5"/>
          <path id="Caminho_5884" data-name="Caminho 5884" d="M1168.743,397.331c1.124-1.132,5.745-2.649,6.265-3.808a1.472,1.472,0,0,0-.786-2.117,1.832,1.832,0,0,0-1.152.767c-.1.186-5.4,1.447-7.036,2.227a18.31,18.31,0,0,0-4.207,2.69c-.674.688-1.812,5.928-2.191,6.519-.4.6,1.758,2.744,2.727,3.336a3.529,3.529,0,0,0,2.619.165c.379-.112-.48-3.779-.982-5.06S1167.633,398.454,1168.743,397.331Z" transform="translate(-977.296 -372.707)" fill="#7dc2f5"/>
          <path id="Caminho_5885" data-name="Caminho 5885" d="M1167.235,371.115c1.755,1.737,2.7-.762,4.624-.516C1171.832,367.079,1167.072,368.287,1167.235,371.115Z" transform="translate(-981.462 -360.188)" fill="#7dc2f5"/>
          <path id="Caminho_5886" data-name="Caminho 5886" d="M1241.746,374.071c-.051.642,4.842,1.163,6.251.917,1.431-.253-.288-2.474-2.372-2.344S1241.81,373.411,1241.746,374.071Z" transform="translate(-1022.069 -362.479)" fill="#52c3e2"/>
          <path id="Caminho_5887" data-name="Caminho 5887" d="M853.438,453.489c-.514.474-.065,2.869.91,2.929s2.539-3.588,3.724-2.876c1.194.754,2,1.036,1.811.638s-3.6-1.872-4.022-2.151C855.438,451.782,853.958,453.02,853.438,453.489Z" transform="translate(-810.341 -405.726)" fill="#7dc2f5"/>
          <path id="Caminho_5888" data-name="Caminho 5888" d="M881.1,631.448c0,.389,2.122.336,2.468-.317s.178-1.177-.414-1.177C882.6,629.955,881.1,631.033,881.1,631.448Z" transform="translate(-825.533 -502.705)" fill="#7dc2f5"/>
          <path id="Caminho_5889" data-name="Caminho 5889" d="M847.431,619.994c1.017-.191.529,1.452.773,2.037s2.687,1.068,3.176,1.463,1.738-.742,2.723-.627c.964.124-.325-3.363-1.967-3.279-1.629.133-2.932-1.463-3.31-1.662a25.7,25.7,0,0,1-2.834-1.766c-.533-.428-4.686-.8-6.128-.8a4.621,4.621,0,0,0-3.185,1.9c-.224.49,2.253.8,2.967.438.689-.377,3.992.415,4.669,1.205A3.679,3.679,0,0,0,847.431,619.994Z" transform="translate(-801.317 -494.751)" fill="#7dc2f5"/>
          <path id="Caminho_5890" data-name="Caminho 5890" d="M850.5,632.32c0,.389,2.153.14,2.668.171.521,0,.508-.356-.045-.8C852.592,631.272,850.5,631.905,850.5,632.32Z" transform="translate(-808.859 -503.577)" fill="#7dc2f5"/>
          <path id="Caminho_5891" data-name="Caminho 5891" d="M852.644,608.9c-.555-.222-1,.652-1,1.073a.722.722,0,0,0,.685.755C852.7,610.725,853.212,609.117,852.644,608.9Z" transform="translate(-809.479 -491.211)" fill="#7dc2f5"/>
          <path id="Caminho_5892" data-name="Caminho 5892" d="M861.581,608.816a2.057,2.057,0,0,0-1.388-.766c-.275,0-.456.719-.41,1.571C859.829,610.5,861.773,609.2,861.581,608.816Z" transform="translate(-813.912 -490.768)" fill="#7dc2f5"/>
          <path id="Caminho_5893" data-name="Caminho 5893" d="M867.774,616.913c.864-.428.976-1.469.463-1.408s-1.468-1.486-2.028-1.715-1.014.927-1.014,1.426.32.856.7.752S866.9,617.311,867.774,616.913Z" transform="translate(-816.865 -493.88)" fill="#7dc2f5"/>
          <path id="Caminho_5894" data-name="Caminho 5894" d="M1392.655,693.678c-.434.241-2.6.487-2.908.074-.272-.432-.7.881-1.175,1.075-.444.225-.2,1.357.5,1,.478-.24,2.537.906,4.2,1.957.323-1.662.615-3.308.89-5C1393.559,693.1,1392.934,693.541,1392.655,693.678Z" transform="translate(-1101.961 -536.942)" fill="#52c3e2"/>
        </g>
        <path id="Caminho_5895" data-name="Caminho 5895" d="M881.932,395.681c-.151-.147-.761.3-.489.575C881.573,396.448,882.184,395.995,881.932,395.681Z" transform="translate(-824.647 -359.336)" fill="#d1ecfb"/>
        <path id="Caminho_5896" data-name="Caminho 5896" d="M917.874,502.74c-.113-.158-.749.29-.521.573C917.5,503.489,918.138,503.03,917.874,502.74Z" transform="translate(-844.228 -417.676)" fill="#d1ecfb"/>
        <g id="Grupo_1887" data-name="Grupo 1887" transform="translate(1.035 15.684)">
          <path id="Caminho_5897" data-name="Caminho 5897" d="M850.754,555.09a16.623,16.623,0,0,0,2.391-3.408,21.051,21.051,0,0,1,.6-2.943v-1.306l.03-2.063c-.594-1.616-2.365-3.6-2.82-3.169s-2.51-1.424-3.55-1.815a19.99,19.99,0,0,0-4.314-.716c-.668,0-2.951-1.87-3.974-2.182s-3.624-.834-4.109-1.132c-.464-.307-1.11-4.188-3.206-5.453s-5.794-4.225-6.2-5.312c-.39-1.079-4.437-3.373-5.69-4.059-1.234-.683-3.129-.846-3.347-.584-.246.226-1.816-2.109-2.6-2.785-.806-.654-3.222-1.2-3.329-.615-.121.612-1.723.294-2.107-.21-.361-.512-1.612.2-2.2.388s-2.591,3.252-3.505,4c-.935.72-2.036-.693-2.634-.961s-2.919.469-3.555.915-2.087-3.255-1.75-4.95-1.532-5.073-2.962-5.166-1.892-3.63-1.6-4.948c.293-1.3-2.592-2.131-3.314-2.215-.722-.1-2.522,1.755-2.816,2.639-.322.881-6.851-1.2-6.074-5.128a17.989,17.989,0,0,1,4.63-8.445c.772-.472,4.972-.724,5.892-.182a1.532,1.532,0,0,0,1.927-.243c.154-.251,3.58.026,4.6.462,1.018.407,2.489,4.367,3.533,4.849,1.075.485,1.453-2.556,1.638-3.3a8.005,8.005,0,0,0-.767-3.16c-.267-.527,1.691-5.314,3.3-6.128s3.284-3.49,3.146-3.967,1.277-.836,1.662-1.041c.392-.183-.066-4.058.569-4.907a18.414,18.414,0,0,1,4.594-3.02c.94-.395,1.66-2.85,1.33-3.279-.351-.43,2.459-2.827,3.9-3.285s2.71.838,2.358,1.032c.285-.145,2.286-1.188,3.162-1.754.989-.666,0-2.463-.644-3.02-.638-.507-.243-2.632.519-2.812.777-.193,1.445-2.011,1.248-2.409s3.211.321,4.506-.654c1.267-.958.372,2.32-.586,3.66a1.484,1.484,0,0,0,1.308,2.3c.612-.25,1.256.707,1.386,1.065.111.365,1.441-.372,2.286-.012.85.377,1.372-1.168,1.443-1.878s-2.061-2.213-2.378-3.07c-.339-.855-.469-5.85-.524-6.887s-1.423-2.7-1.872-2.38c-.444.273-1.339-2.664-2.047-3.315a3.735,3.735,0,0,1-.847-2.523c.029-.476-2.427-3.042-3.011-4.226s-1.415-.941-1.456-.411c-.074.552-1.764.632-2.477.552-.7-.055-1.27-2.768-1.27-3.788s-3.179-1.184-3.692-2.019c-.51-.814-2.572-.434-2.91-.993a3.273,3.273,0,0,0-2.494-.891c-.38.206-.211,7.551-.539,9.526-.369,1.979-2.03,3.728-2.656,3.674-.608-.038-.248,1.42.186,1.286s-1.2,2.164-1.4,3.672-1.749-.073-1.987-1.434c-.257-1.369-1.737-3.208-2.016-2.749-.29.481-1.315-.548-1.774-.261-.438.294-3.257-1.646-4.408-2.272-1.116-.585-1.771-4.092-2.424-4.409-.652-.295-.094-.73-.112-1.254s2.2-2.553,2.87-3.356a41.678,41.678,0,0,1,4.073-4.672,4.232,4.232,0,0,0,1.566-2.842c-.161-.328,4.131-1.68,5.31-2.084s2.183-3.649,2.325-4.59a3.845,3.845,0,0,0-1.261-2.947c-.541-.213,1.619-.291,2.342.073.734.341,2.944-.677,3.834-.2.869.459,2.651,1.5,3.923,2.337l-.28,2.378-.521,4.049c-3.4,1.409-4.367,3.85-3.187,3.787s6.629,2.368,8.163,3.461c1.517,1.094,2-1.6,2.453-2.488a6.7,6.7,0,0,0-.046-4.006c-.382-.513,1.76-.327,2.353.249.623.568,1.314-.595,1.784-.808s.688-2.43.948-2.879c.241-.448-1.037-.913-1.05-1.457-.049-.575-2.488-1.622-3.271-2-.814-.384-1-2.064-.591-2.345.374-.3-.278-2.45-.678-3.148-.361-.71-2.925-1.294-3.771-1.294s-1.727-1.982-2.21-2.252a13.088,13.088,0,0,0-4.567-.4c-.813.23-2.286-2.32-3.655-1.551s-2.778-.9-3.391-1.247c-.633-.334-3.812,3.1-3.8,5.5.045,2.414,1.251,4.747,1.757,4.815s-.117,2.246-.675,2.874c-.541.606-1.892-.659-1.384-1.208s-1.387-3.062-2.045-4.1c-.469-.748-2.133-1.4-3.256-1.855-.659.709-1.3,1.45-1.929,2.179a5.353,5.353,0,0,1,.246,2.882c-.477,1.469-1.7,1.685-1.79,1.065-.023-.294-.644-.507-1.371-.6a147,147,0,0,0-33.186,77.149,8.881,8.881,0,0,1,1.734,2.463c.411,1.3,2.664,2.138,3.084,2.413.414.247.567-2.489.265-3.19s.553-1.147.531-.627,2.115,2.955,2.811,3.817,1.432,6.49,2.109,7.694c.673,1.226,7.179,3.724,9.268,4.165a11.213,11.213,0,0,1,5.143,3.454c.4.677,3.182,1.019,3.773,1.287.613.278,2.03,2.161,2.619,2.553a3.228,3.228,0,0,1,1.049,1.817c0,.293,3.674,1.673,4.575,2.672a1.976,1.976,0,0,0,2.63.287c.274-.41,1.009,1.956,1.4,2.758a5.394,5.394,0,0,1,.173,3.153c-.294.3-.82,4-1.439,4.743s-1.918,6.1-1.651,7.16A8.409,8.409,0,0,0,799.8,546.3a.842.842,0,0,1-.157,1.537c-.59.076-.309,5.194,1.073,5.956,1.364.758,2.534,3.032,2.33,3.411-.2.417,2.433,3.121,3.467,4.034,1.005.924,3.188,5.365,3.622,6.807a11.012,11.012,0,0,1,.044,4.4c-.133.552.49,1.8.592,2.3s-.9,4.857-.513,6.605-2.053,7.192-2,9.885c.068,2.723,1.282,6.251,1.787,5.99.485-.273.656,2.447-.176,2.772-.81.336-1.786,2.5-1.312,2.6s-.032,2.244.1,3.087c.11.859.838,6.479.992,7.865.156,1.419,2.149,4.82,2.572,5.974.425,1.17.85,3.361,1.019,3.69a4.139,4.139,0,0,0,.392.7,13.711,13.711,0,0,1,2.1.969c.495.35,3.637.118,4.673-.1,1.029-.2.088-1.159-.385-1.658-.467-.522-.871-3.008-1.422-3.276-.523-.232-.754-3.417-.282-4.117s2.35-1.813,2.57-2.418c.194-.59.255-3.363-.243-3.741-.516-.372.142-3.73-.238-5.4s2.894-3.181,3.085-4.51,3.737-2.737,4.544-3.41,1.492-4.441,1.131-5.263c-.4-.81,1.29-1.476,2.062-1.476a9.956,9.956,0,0,0,1.887-.539c.3,0,1.192-1.676,1.679-2.062s1.49-4.395,2.362-5.045c.9-.666,1.617-3.082,1.617-3.784s1.34-2.823,1.788-3.456,3.755-2.147,4.369-2.411c.566-.229,1.469-5.545,1.708-7.454a49.148,49.148,0,0,1,1.289-5.094c.058-.643,1.138-1.173,1.311-1.369C849.454,558.089,850.243,555.654,850.754,555.09Z" transform="translate(-758.986 -381.402)" fill="#52c3e2"/>
          <line id="Linha_52" data-name="Linha 52" x1="0.021" y2="0.018" transform="translate(61.429 85.9)" fill="#8dcfff"/>
          <path id="Caminho_5898" data-name="Caminho 5898" d="M873.173,370.121c.7-.865,4.738-2.127,5.7-2.7s3.063-2.627,3.885-2.854c.806-.247,2-2.145,1.8-2.522-.167-.371,2.742-2.133,3.854-2.592,1.1-.482,1.677-1.778,1.256-1.852-.265,0-6.423,3.215-12.07,6.416a148.734,148.734,0,0,0-18.156,14.565c1.759-.113,4.478-.442,5.644-.636,1.768-.295,4.7-.787,4.895-1.287a3.014,3.014,0,0,0-.159-2.042c.277.019.607.034.861.034C871.345,374.649,872.462,370.973,873.173,370.121Z" transform="translate(-813.729 -354.283)" fill="#52c3e2"/>
          <path id="Caminho_5899" data-name="Caminho 5899" d="M1096.693,416.766a2.39,2.39,0,0,1-.113.217c-.293.515-1.1-.318-1.062-1.064s-2.216-1.34-2.513-.739-1.85-.2-2.486-.522c-.646-.347-3.436,2.545-4.448,3.574-1.037,1.049-5.97,1.84-6.881,1.45-.93-.379-1.834,2.207-1.035,2.363.772.156-2.01-.135-3.541.026a24.5,24.5,0,0,0-7.04,2.7,1.148,1.148,0,0,1-1.919-.774c0-.607-1.687-1.16-2.207-1.343-.484-.163-1.473,3.329-2.349,4-.9.678-1.953-2.725-4.042-3.292-2.068-.561-5.309-2.564-6.239-2.8s-2.768-2.178-3.3-2.729c-.5-.577-3.176-1.042-4.026-1.042s-3.6,1.584-4.331,2.208c-.748.616-1.862.5-2.221.724-.374.217-3.474,3.244-4.678,4.214-1.21.952-3.316,5.066-3.995,6.042a2.869,2.869,0,0,1-2.087,1.179c-.4.03-.736,1.115-.736,1.519s-3.564,2.265-3.941,3.882.354,5.32.354,6.646,1.3,3.926,2.3,3.968.477,2.238.229,2.838c-.27.632.614,1.307.57,1.831-.005.509-2.5,1.249-3.264,1.549a5.786,5.786,0,0,0-2.166,2.659c-.131.553-2.518.96-3.3,1.722.2-.552.46-1.314.654-1.722a2.816,2.816,0,0,0-.534-2.693c-.363-.311-.541-4.6-1.143-5.527a18.932,18.932,0,0,0-2.48-2.781c-.367-.283.247-1.42.471-1.914.2-.463-2-.753-2.6-.376-.617.335-.938,4.574-1.192,5.743a3.791,3.791,0,0,0,1.467,3.025c.376.1.256,2.191-.505,2.256-.784.068-1.508,3.139-1.109,3.822.4.7-.546,2.07-1.013,2.392s3,.124,4.572.085,2.784.66,2.627.8-3.02.544-3.52,1.219-2.439,1.978-2.81,2.491.639,1.677,1.46,1.621,1.751,2.83,2.388,3.349c.621.537.391,2.03.133,2.443-.294.4-4.138-.293-5.6.087s-3.3,3.445-3.436,4.6a28.711,28.711,0,0,0,.445,5.464c.157.913,3.223,1.478,3.839,1.944.641.443,3.565.015,4.178.3.589.284,2.564-2.968,2.967-4.482.37-1.516,3.508-4.28,4.156-5.319.649-1.014,4-.9,4.814-1.437.837-.522.385,2.564.771,4.238.4,1.712,3.614,1.481,3.145-.1s.315-2.28.441-1.7c.161.556,3.239,1.833,3.833,2.732.568.882.406,2.792-.268,2.758-.71-.022-.73,2.091.013,2.321.715.221,1.686-2.376,2.455-2.761.8-.378,1.434-2.014,1.043-2.117-.337-.141.671-1.591,1.119-1.112s-1.658-3.161-2.973-4.483-.395-.734,2.07,1.319l1.7,2.372c.332.427.779,1.73,1.052,2.2l.406.7a16.407,16.407,0,0,1,.639,3.725,2.668,2.668,0,0,0,2.125,1.779c.8-.054,1.416.385,1.267.424-.178.021.528,1.6,1.331,1.629s1.154-2.029.338-2.088-.685-3.028-.785-4.332.573-2.378.853-2.378-.019,2.672-.01,3.3a9,9,0,0,0,.727,2.694l.842.638,1.86,1.431c2.677-.8,6.256-.185,6.127.362s1.974.683,2.09-.2c.132-.874.224.017.224.64,0,.59-1.737,2.99-2.023,4.085s-6.475.366-9.128.152-6.567.694-6.882,1.5c-.274.787-4.423-1.829-6.334-2.633s-3.381-3.7-3.776-4.069c-.4-.4.34-1.321.151-1.885-.186-.581-4.523-.7-5.781-.228s-7.758,1.147-9.294,1.824c-1.541.7-3.863-.038-4.589-.17s-2.437,2-3.309,2.385c-.889.384-1.975,3.383-2.459,6.694l-1.191,2.3-.757,1.475c-2.143,1.622-4.514,7.081-5.22,8.174s-1.263,8.919-1.263,11.573,2.311,8.24,2.956,9.779,4.633,4.936,5.961,5.765c1.33.794,5.655.906,7.075.9a4.339,4.339,0,0,0,3.583-2.984l2.078.207.96.111c.042,1.146,3.118,2.087,3.865,2.482.749.421,2.759.112,3.375-.068.6-.178,1.279,5.244.832,6.809-.431,1.564,1.062,7.065,1.5,8.716s2.329,6.179,2.516,7.808-1.1,7.014-1.315,8.906,2.357,7.184,3.048,9.018a30.725,30.725,0,0,1,1.2,6.619c0,.929,2.812,6.378,3.446,8.639.65,2.244,7.7,2.807,9.6,1.695,1.888-1.124,5.085-5.867,6.147-6.848,1.054-1,1.814-4.595,2.053-5.393a5.17,5.17,0,0,1,2.41-2.214c.595-.182,2.493-8.13,4.182-9.871s3.652-10.156,3.455-13.181c-.215-3.014,1.069-8.8,1.473-10.182a13.373,13.373,0,0,1,3.172-4.337,93.639,93.639,0,0,0,6-8.68c1.3-2.161,2.543-6.888,2.3-7.975-.252-1.129-3.083-1.878-3.595-1.352-.523.547-3.193,1-4.029,1-.876,0-2.813-4.55-4.02-5.487s-2.292-6.154-2.99-7.136a50.9,50.9,0,0,0-3.25-4.059c-.606-.578-.721-3.345-.858-4.1s1.18.494,1.409,1.586,3.338,5.553,4.307,7.055,3.526,6.266,4.167,7.751c.677,1.492,6.325.736,8.171-.132s4.141-2.343,4.225-2.849,3.01-1.864,3.832-2.523,1.542-4.066,2.059-4.606c.539-.565-.411-3.808-1.029-4.781s-3.548-1.74-4.145-1.368c-.607.4-1.865-2.158-2.33-3.114-.437-.952-2.689-2.1-2.933-2.75s.593-1.656.965-1.882c.342-.219,4.494,2.688,5.7,4.143a32.37,32.37,0,0,1,2.784,4.57c.2.462,3.49.705,4.226.156a1.154,1.154,0,0,1,1.856.306l1.029-.181,3.6-.556c1.7,1.847,2.194,3.433,2.154,3.812a3.544,3.544,0,0,0,1.724,2c.7.177,1.21,2.518,1.416,3.1a60.034,60.034,0,0,1,2.7,5.593,37.043,37.043,0,0,0,2.573,5.132,11.878,11.878,0,0,1,.777,3.639,2.639,2.639,0,0,0,2.125,1.766c.8-.056,2.466-5.226,2.854-7.129s1.711-3.5,2.07-3.5c.389,0,.684-1.063.684-1.484,0-.4,2.08-.347,2.266-.892.177-.519.8-3.923,1.539-4.431a32.055,32.055,0,0,1,4.308-2.567,1.7,1.7,0,0,1,1.216.308c.077-2.033.149-4.056.149-6.112A146.724,146.724,0,0,0,1096.693,416.766Z" transform="translate(-887.618 -385.363)" fill="#52c3e2"/>
          <path id="Caminho_5900" data-name="Caminho 5900" d="M1255.3,663.742c.282-.542-.436-3.2-1.042-3.786-.588-.575-1.52-.164-2.049.917S1255.022,664.265,1255.3,663.742Z" transform="translate(-1027.739 -518.913)" fill="#52c3e2"/>
          <path id="Caminho_5901" data-name="Caminho 5901" d="M1153.258,751.656c.13,1.142,2.459,2.053,3.129,1.862s2.542-3.639,2.809-4.636a21.866,21.866,0,0,0,.463-3.639,3.33,3.33,0,0,1,.581-1.8,6.279,6.279,0,0,0,.947-2.609c.247-1.309-1.411-7.352-1.448-8.423s-1.243.539-1.549,1.62c-.324,1.078-3.326,3.273-4.011,4.19-.657.912-1.405,4.008-1.15,4.55.257.522-.256,2.63-.563,3.235C1152.176,746.58,1153.134,750.514,1153.258,751.656Z" transform="translate(-973.386 -558.348)" fill="#52c3e2"/>
          <path id="Caminho_5902" data-name="Caminho 5902" d="M915.125,865.524h2.04C917.525,863.33,915.023,863.7,915.125,865.524Z" transform="translate(-844.073 -630.258)" fill="#52c3e2"/>
          <path id="Caminho_5903" data-name="Caminho 5903" d="M921.07,355.689c-1.545.02-9.677,1.75-11.807,2.925-2.124,1.15-3.776,4.136-3.08,4.208.7.04-1.177,1.747-2.329,2.131-1.136.4-3.852.6-4.5,1.225s.693,1.078.934,1.507,1.029-.374,1.748.046c.7.39,3.076.585,3.7.832.657.257-2.012.757-3.255.835-1.249.094-.961,2.528.034,2.87,1.036.341,3.638.7,3.9.282s3.093.461,4.386.605c1.262.143,2.236,3.334,2.624,4.025a10.155,10.155,0,0,1,.391,3.83c-.092.708,2.245,2,2.676,1.538.416-.431.293,1.113-.638,1.021-.947-.067-.348,2.635.824,3.026s.37,2.054-.3,2.56c-.667.489-.3,2.088-.988,2.651s2.42,5.962,2.4,8.734,1.723,5.024,2.384,5.024,2.933.562,3.221,1.152c.319.578,1.409-.418,1.838-.878a21.684,21.684,0,0,0,2.057-2.946c.7-1.175,2.26-6.72,2.474-7.32s2.826-.223,3.405-.523a30.443,30.443,0,0,0,2.779-2.05c.5-.406,4.2-1.974,5.235-2.708,1-.738,2.692-3.88,3.483-4.547s-.414-.479-1.4-1.132a1.061,1.061,0,0,1-.259-1.739c.292-.324,3.277.489,4.327.895,1.028.4,2.994-1.019,2.237-1.578s-.35-.534,0-.293c.38.222.757-1.825.355-2.21-.385-.395,3.045-2.9,2.43-5.263-.594-2.36.954-4.8,1.864-4.808.92-.039.65-2.679-.451-2.921s-.074-.483.342-.863a5.645,5.645,0,0,0,.709-3.194c-.259-.444,1.676-.972,2.006-1.495a8.989,8.989,0,0,1,3.344-1.772c.763-.193,1.207-2.261.375-2.164a7,7,0,0,1-3.447-.743c-.379-.4-3.673-.753-4.637-.357-.942.4-.286-2.322,1.039-2.624,1.32-.279.182-2.157-1.2-2.164-1.415-.013-4.906-.517-5.721-.349s-2.414-.559-3-.651-4.773,1.261-6.735,1.152a49.668,49.668,0,0,0-7.874.407c-1.086.284-1.842,2.336-1.68,3.071C927.433,355.67,922.583,355.664,921.07,355.689Z" transform="translate(-835.387 -350.313)" fill="#52c3e2"/>
          <path id="Caminho_5904" data-name="Caminho 5904" d="M1065.54,381.529c.754.121,1.775,1.878,2.554,1.878.791-.033,2.1-3.012,2.393-4.126.309-1.11,2.884-.233,4.082.126,1.173.347,1.6-4.108.326-4.789-1.273-.662-2.872-.34-3.4-.832a4.282,4.282,0,0,0-2.049-1.078c-.557-.1-1.134-2.735-2.177-3.085s-3.174.819-2.9,1.471-1.743-.858-3.135-.129c-1.413.731-1.8,3.2-1.157,3.524.659.324,1.1,2.268,1.133,2.644s2.711.116,3.426-.463c.68-.571.6,1.994-.1,2.684S1064.8,381.419,1065.54,381.529Z" transform="translate(-922.901 -360.799)" fill="#52c3e2"/>
          <path id="Caminho_5905" data-name="Caminho 5905" d="M1094.831,368c.513-.473-5.776-1.753-8.161-1.839-2.4-.081-4.312.251-4.289.722s5.43,2.72,7.522,3.017C1091.975,370.185,1094.324,368.475,1094.831,368Z" transform="translate(-935.222 -358.94)" fill="#52c3e2"/>
          <path id="Caminho_5906" data-name="Caminho 5906" d="M1014.518,495.752c-.536-.235-.844,1.832-.712,2.609.122.794,2.024.728,2.844.563a1.553,1.553,0,0,0,1.421-1.468c-.024-.668-1.182-3.727-1.657-3.727S1015.068,495.977,1014.518,495.752Z" transform="translate(-897.835 -428.468)" fill="#52c3e2"/>
          <path id="Caminho_5907" data-name="Caminho 5907" d="M1016.995,442.951c-.424-.758-3.7-.673-4.492-.728a9.051,9.051,0,0,1-3.708-1.374c-.45-.5-.793,2.015-1.552,2.344s.364.814.675.531c.293-.26-.02,1.307-.361,1.849-.326.545,2.167.918,2.455,1.74a2.07,2.07,0,0,0,2.3,1.174c1-.152,2.968-1.174,3.664-1.24S1017.416,443.713,1016.995,442.951Z" transform="translate(-894.136 -399.615)" fill="#52c3e2"/>
          <path id="Caminho_5908" data-name="Caminho 5908" d="M1161.827,397.09c-.674.688-1.812,5.928-2.191,6.519-.4.6,1.758,2.744,2.727,3.336a3.529,3.529,0,0,0,2.619.165c.379-.112-.48-3.779-.982-5.06s3.634-3.6,4.745-4.719,5.745-2.649,6.265-3.808a1.472,1.472,0,0,0-.786-2.117,1.832,1.832,0,0,0-1.152.767c-.1.186-5.4,1.447-7.036,2.227A18.31,18.31,0,0,0,1161.827,397.09Z" transform="translate(-977.296 -372.707)" fill="#52c3e2"/>
          <path id="Caminho_5909" data-name="Caminho 5909" d="M1167.235,371.167c1.755,1.737,2.7-.762,4.624-.516a1.7,1.7,0,0,0-.061-.338c-.634-.585-1.26-1.211-1.894-1.784A2.64,2.64,0,0,0,1167.235,371.167Z" transform="translate(-981.462 -360.24)" fill="#52c3e2"/>
          <path id="Caminho_5910" data-name="Caminho 5910" d="M853.438,453.489c-.514.474-.065,2.869.91,2.929s2.539-3.588,3.724-2.876c1.194.754,2,1.036,1.811.638s-3.6-1.872-4.022-2.151C855.438,451.782,853.958,453.02,853.438,453.489Z" transform="translate(-810.341 -405.726)" fill="#52c3e2"/>
          <path id="Caminho_5911" data-name="Caminho 5911" d="M881.1,631.448c0,.389,2.122.336,2.468-.317s.178-1.177-.414-1.177C882.6,629.955,881.1,631.033,881.1,631.448Z" transform="translate(-825.533 -502.705)" fill="#8dcfff"/>
          <path id="Caminho_5912" data-name="Caminho 5912" d="M847.431,619.994c1.017-.191.529,1.452.773,2.037s2.687,1.068,3.176,1.463,1.738-.742,2.723-.627c.964.124-.325-3.363-1.967-3.279-1.629.133-2.932-1.463-3.31-1.662a25.7,25.7,0,0,1-2.834-1.766c-.533-.428-4.686-.8-6.128-.8a4.621,4.621,0,0,0-3.185,1.9c-.224.49,2.253.8,2.967.438.689-.377,3.992.415,4.669,1.205A3.679,3.679,0,0,0,847.431,619.994Z" transform="translate(-801.317 -494.751)" fill="#52c3e2"/>
          <path id="Caminho_5913" data-name="Caminho 5913" d="M850.5,632.32c0,.389,2.153.14,2.668.171.521,0,.508-.356-.045-.8C852.592,631.272,850.5,631.905,850.5,632.32Z" transform="translate(-808.859 -503.577)" fill="#52c3e2"/>
          <path id="Caminho_5914" data-name="Caminho 5914" d="M852.644,608.9c-.555-.222-1,.652-1,1.073a.722.722,0,0,0,.685.755C852.7,610.725,853.212,609.117,852.644,608.9Z" transform="translate(-809.479 -491.211)" fill="#52c3e2"/>
          <path id="Caminho_5915" data-name="Caminho 5915" d="M861.581,608.816a2.057,2.057,0,0,0-1.388-.766c-.275,0-.456.719-.41,1.571C859.829,610.5,861.773,609.2,861.581,608.816Z" transform="translate(-813.912 -490.768)" fill="#52c3e2"/>
          <path id="Caminho_5916" data-name="Caminho 5916" d="M867.774,616.913c.864-.428.976-1.469.463-1.408s-1.468-1.486-2.028-1.715-1.014.927-1.014,1.426.32.856.7.752S866.9,617.311,867.774,616.913Z" transform="translate(-816.865 -493.88)" fill="#8dcfff"/>
        </g>
      </g>
    </g>
    <g id="Grupo_1922" data-name="Grupo 1922" transform="translate(707.373 4056.35)">
      <g id="Grupo_1913" data-name="Grupo 1913" transform="translate(8.397 0)">
        <path id="Caminho_5941" data-name="Caminho 5941" d="M709.74,605.408c-5.178,1.152-14.777,5.5-16.982,13.323-3.3,11.745,2.171,29.279-7.73,46.007-3.16,5.328,51.748,14.14,51.748,14.14l12.293-59.486s-12.922-13.348-15.615-14.293C727.877,603.131,720.082,603.11,709.74,605.408Z" transform="translate(-684.897 -586.774)" fill="#4e99ff"/>
        <g id="Grupo_1909" data-name="Grupo 1909" transform="translate(47.773 32.532)">
          <path id="Caminho_5942" data-name="Caminho 5942" d="M806.367,638.178c1.783,4.83,5.832,33.383.253,39.933-.639.757,2.747,2.055,2.029,5.571-.121.591-1.23,3.38-1.23,3.38l-4.437,1.026-13.1-7.944,2.634-3.032,1.205.057a2.715,2.715,0,0,0,.889-2.346c-.278-1.308,3.151-3.336,8.852-25.25C805.14,643.126,805.976,637.111,806.367,638.178Z" transform="translate(-789.883 -638.055)" fill="#2b83fd"/>
          <path id="Caminho_5943" data-name="Caminho 5943" d="M804.748,721.2l-3.912-.977-1.586-.3a2.912,2.912,0,0,1-.929,1.86l3.051.181,3.552.869,4.257,2.581Z" transform="translate(-794.481 -682.671)" fill="#ecb60d"/>
        </g>
        <path id="Caminho_5944" data-name="Caminho 5944" d="M798.235,730.456a11.75,11.75,0,0,1,5.594,1.715c1.938,1.267,3.678,3.962,1.828,5.34a29.308,29.308,0,0,1-4.685,2.64S794.037,740.149,798.235,730.456Z" transform="translate(-745.926 -655.877)" fill="#c4d1e1"/>
        <path id="Caminho_5945" data-name="Caminho 5945" d="M799.781,745.123l-1.843-.448s-6.369-.754-7.29-.285-3.907,2.375-3.907,2.375l-.618.537a3.087,3.087,0,0,0,3.358-.365c1.965-1.291,2.1-.254,2.1-.254l-.374,1.692-.03,2.173-.322.909s-.284.487-.078.677a1.206,1.206,0,0,0,1.2.308l2.037-3.337.425,3.7a1.355,1.355,0,0,0,.853.653c.567.139.577-.015.577-.015l.464-.923a1.131,1.131,0,0,0,.37.651,1.838,1.838,0,0,0,1.146.362l-.073-3.886.741,1.994a1.469,1.469,0,0,0,.855.653c.641.167.813.222.813.222Z" transform="translate(-740.06 -663.387)" fill="#e4eef3"/>
        <g id="Grupo_1911" data-name="Grupo 1911" transform="translate(5.317 24.255)">
          <g id="Grupo_1910" data-name="Grupo 1910">
            <path id="Caminho_5946" data-name="Caminho 5946" d="M724.238,704.938s4.306,11.868,15.359,15.322c1.91.595,3.036,2.709,2.088,3.352-1.214.822-2.851.967-5.645.879-5.823-.172-13.7-2.2-19.029-7.661-7.9-8.073-10.352-11.716-9.422-15.64S724.238,704.938,724.238,704.938Z" transform="translate(-702.478 -663.573)" fill="#e9d6b8"/>
            <path id="Caminho_5947" data-name="Caminho 5947" d="M700.819,623.655c-2.466,3.81-4,10-4.234,18.9-.17,6.9,5.461,18.347,6.275,21.843.139.582.433,3.077.433,3.077l6.41,6.647,13.473-8.592-3.851-6.282-1.2.1a20.58,20.58,0,0,1-.427-4.747c.245-1.316-3.131-19.206-4.725-30.655C712.053,617.346,703.264,619.879,700.819,623.655Z" transform="translate(-696.582 -619.865)" fill="#2b83fd"/>
            <path id="Caminho_5948" data-name="Caminho 5948" d="M724.611,704.029l3.883-1.086,1.579-.346a2.919,2.919,0,0,0,.978,1.835l-3.04.267-3.533.967-4.177,2.7Z" transform="translate(-709.508 -664.95)" fill="#4e99ff"/>
          </g>
          <path id="Caminho_5949" data-name="Caminho 5949" d="M775.306,742.32l6.784-1.655s1.836,2.611,1.457,3.237-.12,4.421-.12,4.421l-3.338,2.685-2.628-.958s-.155-1.159.755-1.248-.59-.789-1.058-1.076S772.842,745.323,775.306,742.32Z" transform="translate(-739.037 -685.696)" fill="#e9d6b8"/>
        </g>
        <path id="Caminho_5950" data-name="Caminho 5950" d="M757.087,592.067a4.131,4.131,0,0,0,2.378,5.315l3.785,1.446a4.127,4.127,0,0,0,5.314-2.376l3.672-9.617a4.13,4.13,0,0,0-2.377-5.315l-3.785-1.447a4.126,4.126,0,0,0-5.314,2.375Z" transform="translate(-724.091 -573.777)" fill="#e4eef3"/>
        <g id="man_head" transform="translate(32.241)">
          <path id="Caminho_5951" data-name="Caminho 5951" d="M773.6,597.924a2.652,2.652,0,0,1-3.315,1.761l-11.439-3.494a2.653,2.653,0,0,1-1.764-3.319l5.178-16.947a2.652,2.652,0,0,1,3.316-1.761l11.439,3.493a2.667,2.667,0,0,1,1.767,3.32Z" transform="translate(-756.41 -570.641)" fill="#e9d6b8"/>
          <path id="Caminho_5952" data-name="Caminho 5952" d="M801.937,589.436a10.172,10.172,0,0,0,2.63-2.1,3.967,3.967,0,0,0-.654-3.67c-1.046-1.129-2.524-.08-2.524-.08s1.683,1.754,1.66,2.213S801.937,589.436,801.937,589.436Z" transform="translate(-780.622 -575.599)" fill="#163f59"/>
          <path id="Caminho_5953" data-name="Caminho 5953" d="M760.913,579.114s.261-7.043,1.165-8.847,1.512-3.073,3.91-2.567c3.582.749,3.4,1.5,5.418.962s5.845-2.162,6.971-2.1c1.877.108,4.437,1.529,3.536,4.842a3.815,3.815,0,0,0,.615,3.586c-.222.258-.947.341-2.221.555-3.665.619-5.671.349-7.911-1.027s-6.359-4.144-7.437-2.507-2.55,7.214-2.9,7.571S761.24,579.566,760.913,579.114Z" transform="translate(-758.564 -566.562)" fill="#194866"/>
          <path id="Caminho_5954" data-name="Caminho 5954" d="M760.38,600.059a.887.887,0,0,1-1.109.585l-2.472-.752a.886.886,0,0,1-.585-1.108l1.377-4.516a.891.891,0,0,1,1.109-.591l2.471.756a.885.885,0,0,1,.587,1.109Z" transform="translate(-755.982 -581.317)" fill="#e9d6b8"/>
          <path id="Caminho_5955" data-name="Caminho 5955" d="M792.778,609.954a.894.894,0,0,1-1.113.591l-2.47-.756a.887.887,0,0,1-.585-1.107l1.379-4.521a.883.883,0,0,1,1.107-.586l2.472.756a.889.889,0,0,1,.588,1.109Z" transform="translate(-773.636 -586.711)" fill="#e9d6b8"/>
          <path id="Caminho_5956" data-name="Caminho 5956" d="M758.74,598.153s-2.037,6.673-2.721,8.9c-.612,2.008-1.159,6.669,10.2,10.14,6.728,2.052,7.987-2.96,8.486-4.586a15.077,15.077,0,0,0-.383-6.295c-.017-.029-.842,2.753-.842,2.753a5.617,5.617,0,0,0-3.777-4.089c-5.155-1.569-7.247,1.087-9.507.343C758.465,604.737,758.02,601.479,758.74,598.153Z" transform="translate(-755.751 -583.778)" fill="#194866"/>
          <path id="Caminho_5957" data-name="Caminho 5957" d="M778.07,619.424l3.531,1.08a.886.886,0,0,0,1.1-.591l.15-.487-5.222-1.6-.153.5A.883.883,0,0,0,778.07,619.424Z" transform="translate(-767.571 -594.498)" fill="#e9d6b8"/>
        </g>
      </g>
      <path id="Caminho_5958" data-name="Caminho 5958" d="M772.584,743.642c-1.763,4.494-30.988,20.394-40.6,19.135l-29.085.581c-24.617-3.7-35.243-42.4-35.243-42.4,1.252-9.611,25.2,5.031,33.754,9.6,13.547,7.236,22.222,7.823,22.222,7.823,9.166,1.2,20.013-5.6,31.621-5.524C768,732.938,775.368,736.563,772.584,743.642Z" transform="translate(-667.105 -648.953)" fill="#282723"/>
      <g id="Grupo_1916" data-name="Grupo 1916" transform="translate(42.394 61.474)">
        <path id="Caminho_5959" data-name="Caminho 5959" d="M759.631,759.175c-.005-.015-.015-.024-.022-.039l.034-1.209,50.021.475-.011,1.208a.075.075,0,0,1,0,.041l-.129.222c-.654,1.041-1.81,1.222-3.128,1.211l-43.532-.417c-1.32-.009-2.469-.21-3.107-1.263Z" transform="translate(-759.609 -732.321)" fill="#b6c2c9"/>
        <path id="Caminho_5960" data-name="Caminho 5960" d="M772.249,760.068a.057.057,0,0,1,0,.032l-.124.184a2.076,2.076,0,0,1-.735.608l-7.61-.076c-1.272-.01-2.375-.171-2.989-1.025l-.117-.186a.094.094,0,0,1-.026-.032l.018-.591,11.592.113Z" transform="translate(-760.176 -732.896)" fill="#d8e5ed"/>
        <g id="Grupo_1914" data-name="Grupo 1914" transform="translate(18.831 26.066)">
          <path id="Caminho_5961" data-name="Caminho 5961" d="M800.991,759.789l24.994.237.009-.853-25-.235Z" transform="translate(-800.991 -758.939)" fill="#879ba6"/>
        </g>
        <g id="Grupo_1915" data-name="Grupo 1915" transform="translate(12.366)">
          <path id="Caminho_5962" data-name="Caminho 5962" d="M786.785,727.338l6.718-24.521a1.634,1.634,0,0,1,1.5-1.16l35.093.334a.875.875,0,0,1,.856,1.182l-6.721,24.519Z" transform="translate(-786.785 -701.656)" fill="#b0bfde"/>
        </g>
      </g>
      <g id="Grupo_1918" data-name="Grupo 1918" transform="translate(6.89 105.819)">
        <path id="Caminho_5963" data-name="Caminho 5963" d="M730.1,813.963c3.444.69,6.19-3.255,6.19-3.255l9.135-6.79-1.761-4.81-17.624,7.341S726.66,813.278,730.1,813.963Z" transform="translate(-705.813 -799.108)" fill="#e9d6b8"/>
        <path id="Caminho_5964" data-name="Caminho 5964" d="M712.088,816.747a8.843,8.843,0,0,1-.721,2.227c-.717,1.82-1.553,2.435-2.421,2.667-3.366.89-5.755.327-13.825,1.65s-10.445.091-12.688-3.672.27-6.6,4.192-6.794c5.679-.267,8.814.465,11.779.1,3.1-.385,3.318-1.071,5.153-2.135,1.729-.994,3.12,5.258,1.474,6.656C703.58,818.671,710.82,819.066,712.088,816.747Z" transform="translate(-681.585 -805.416)" fill="#f03e30"/>
        <path id="Caminho_5965" data-name="Caminho 5965" d="M710.272,824c-3.361.891-5.754.331-13.823,1.655s-10.443.09-12.692-3.675a4.271,4.271,0,0,1-.381-4.444c-1.8,1.167-2.459,3.275-.94,5.818,2.243,3.763,4.619,5,12.688,3.672s10.459-.761,13.825-1.65a3.1,3.1,0,0,0,1.911-1.6A2.839,2.839,0,0,1,710.272,824Z" transform="translate(-681.588 -809.151)" fill="#fff"/>
        <path id="Caminho_5966" data-name="Caminho 5966" d="M748.5,824.119a.723.723,0,0,0,.016-.109,1.4,1.4,0,0,1-.081.121C748.46,824.126,748.485,824.126,748.5,824.119Z" transform="translate(-718.018 -812.679)" fill="#e9d6b8"/>
        <g id="Grupo_1917" data-name="Grupo 1917" transform="translate(11.578 6.894)">
          <path id="Caminho_5967" data-name="Caminho 5967" d="M708.522,821.387c-.258.087-.476-.4-.536-1.088a19.211,19.211,0,0,0-.814-4.159c-.215-.686-.19-1.286.093-1.356s.723.43.925,1.1a19.636,19.636,0,0,1,.766,4.115C709.006,820.673,708.784,821.293,708.522,821.387Z" transform="translate(-707.029 -814.542)" fill="#fff"/>
          <path id="Caminho_5968" data-name="Caminho 5968" d="M714,821.014c-.279.048-.511-.435-.567-1.075a17.77,17.77,0,0,0-.81-3.918c-.205-.644-.179-1.192.121-1.223s.753.464.948,1.106a17.614,17.614,0,0,1,.76,3.871C714.5,820.409,714.272,820.959,714,821.014Z" transform="translate(-710.007 -814.551)" fill="#fff"/>
          <path id="Caminho_5969" data-name="Caminho 5969" d="M719.431,820.677c-.285.031-.555-.481-.636-1.146a19.769,19.769,0,0,0-.976-4.046c-.232-.664-.222-1.219.1-1.225s.784.524,1.012,1.181a19.179,19.179,0,0,1,.923,4C719.926,820.1,719.713,820.65,719.431,820.677Z" transform="translate(-712.822 -814.259)" fill="#fff"/>
        </g>
      </g>
      <path id="Caminho_5970" data-name="Caminho 5970" d="M737,778.414s62.139-23.555,65.648-23.5c11.87.219,8.817,12.15,2.648,17.634-7.278,6.467-61.557,17.169-61.557,17.169Z" transform="translate(-704.894 -669.208)" fill="#323b31"/>
      <g id="Grupo_1921" data-name="Grupo 1921" transform="translate(0 59.328)">
        <path id="Caminho_5971" data-name="Caminho 5971" d="M770.735,789.832,754.4,773.467l7.345-6.882,17.779,19.756Z" transform="translate(-714.378 -734.894)" fill="#e9d6b8"/>
        <path id="Caminho_5972" data-name="Caminho 5972" d="M726.623,739.473s-41.6-40.306-44.446-41.552c-9.628-4.226-15.966,6.365-15.727,10.095.312,4.829,42.589,45.215,42.589,45.215Z" transform="translate(-666.444 -696.941)" fill="#3c463b"/>
        <g id="Grupo_1920" data-name="Grupo 1920" transform="translate(53.353 48.233)">
          <path id="Caminho_5973" data-name="Caminho 5973" d="M815.429,811.686c.973.948,1.067,3.664,1.067,3.664s-14.389,4.99-19.4,4.947a25.154,25.154,0,0,1-5.847-1.278c-.375-.111-1.215-1.111-1.58-1.232-.678-.217-.85.442-1.43.239a17.891,17.891,0,0,1-2.611-1.045c-2.833-6.48-1.724-9.6-1.724-9.6s6.493,2.051,5.41.558c-2.313-3.2,4.632-6.215,6.116-4.5C801.346,810.277,812.612,808.937,815.429,811.686Z" transform="translate(-783.692 -802.938)" fill="#f03e30"/>
          <path id="Caminho_5974" data-name="Caminho 5974" d="M817.138,825.126c-4.426,1.617-13.724,4.957-15.562,5.033-7.508.323-12.675-2.485-16.135-4.149a29.084,29.084,0,0,0,1.142,3.063,17.9,17.9,0,0,0,2.611,1.045c.58.2.752-.456,1.43-.239.365.121,1.205,1.121,1.579,1.232a25.157,25.157,0,0,0,5.847,1.278c5.009.043,19.4-4.947,19.4-4.947A9.725,9.725,0,0,0,817.138,825.126Z" transform="translate(-784.645 -815.029)" fill="#fff"/>
          <g id="Grupo_1919" data-name="Grupo 1919" transform="translate(9.102 3.141)">
            <path id="Caminho_5975" data-name="Caminho 5975" d="M823.992,815.022c.128.252-.437.528-1.24.673a26.984,26.984,0,0,0-4.852,1.323c-.786.3-1.5.349-1.6.076s.455-.774,1.23-1.061a26.756,26.756,0,0,1,4.8-1.273C823.125,814.628,823.871,814.773,823.992,815.022Z" transform="translate(-810.558 -812.494)" fill="#fff"/>
            <path id="Caminho_5976" data-name="Caminho 5976" d="M817.325,812.408c.114.254-.442.6-1.223.8a27.831,27.831,0,0,0-4.7,1.7c-.755.354-1.445.449-1.536.164s.441-.844,1.192-1.184a26.936,26.936,0,0,1,4.657-1.642C816.489,812.054,817.211,812.154,817.325,812.408Z" transform="translate(-807.051 -811.097)" fill="#fff"/>
            <path id="Caminho_5977" data-name="Caminho 5977" d="M810.918,810.075c.107.266-.436.659-1.2.926a27.878,27.878,0,0,0-4.54,2.059c-.733.411-1.391.548-1.475.247s.421-.906,1.144-1.31a27.267,27.267,0,0,1,4.51-1.991C810.11,809.75,810.814,809.8,810.918,810.075Z" transform="translate(-803.694 -809.841)" fill="#fff"/>
          </g>
        </g>
      </g>
    </g>
    <g id="Grupo_1964" data-name="Grupo 1964" transform="translate(545.622 3777.965)">
      <g id="Grupo_1961" data-name="Grupo 1961" transform="translate(34.324 38.112)">
        <g id="Grupo_1960" data-name="Grupo 1960" transform="translate(0 37.045)">
          <path id="Caminho_6026" data-name="Caminho 6026" d="M1246.9,524.654s-.193,2.027-9.916,2.025-23.829-2.439-23.829-2.439l22.57-2.114S1244.362,521.729,1246.9,524.654Z" transform="translate(-1203.95 -522.108)" fill="#e2c59c"/>
          <path id="Caminho_6027" data-name="Caminho 6027" d="M1211.17,527.175c-5.484-.018-7.848,2.724-10.026,3.569a38.447,38.447,0,0,0-4.351,2.118c1.229-2.343,3-2.4,3.891-3.16s.656-.378-1.294-.527c-1.11-.086-3.07,1.864-4.48,2.946a4.442,4.442,0,0,1-1.982,1.005,24.443,24.443,0,0,1,3.242-3.562,28.1,28.1,0,0,1,5.54-3.767c1.174-.455,4.842-.57,7.454-.215C1212.111,525.985,1215.121,527.186,1211.17,527.175Z" transform="translate(-1192.928 -523.888)" fill="#e2c59c"/>
          <path id="Caminho_6028" data-name="Caminho 6028" d="M1203.76,526.545s-4.2,1.054-4.941,1.606c-.515.383-2.666,2.629-2.666,2.629a5.487,5.487,0,0,0,2.481-1.1A47.5,47.5,0,0,1,1203.76,526.545Z" transform="translate(-1194.685 -524.526)" fill="#e2c59c"/>
        </g>
        <path id="Caminho_6029" data-name="Caminho 6029" d="M1255.587,518.72s10.617.669,9.884,6.966c-.414,3.578-2.839,4.818-6.045,4.56-5.961-.486-12.716-1.356-12.716-1.356L1243.7,519.1Z" transform="translate(-1220.594 -483.217)" fill="#0063cb"/>
        <path id="Caminho_6030" data-name="Caminho 6030" d="M1271.659,477.075l10.409-32.409s1.532-4.749,4.058-3.855c3.643,1.286,1.836,5.17,1.518,7.472-.654,4.7-.219,6.741-3.581,18.059-2.075,6.98-3.868,15.024-5.677,19.612-1.246,3.163-3.365-1.368-6.574-2.635C1265.827,480.954,1271.659,477.075,1271.659,477.075Z" transform="translate(-1234.445 -440.699)" fill="#0063cb"/>
      </g>
      <path id="Caminho_6034" data-name="Caminho 6034" d="M1296.884,489.185s-3.868,4.493-5.051,5c-1.582.673-6.423-.742-6.423-.742s-1.283-20.633-2.764-28.689-3.68-10.166-3.776-12.7c-.146-4.05-3.654-5.69-3.074-8.866s1.626-14.451,1.982-12.948c3.033,12.8,6.764,2.175,7.563.483C1285.779,429.79,1296.884,489.185,1296.884,489.185Z" transform="translate(-1203.728 -396.811)" fill="#f03e30"/>
      <path id="Caminho_6035" data-name="Caminho 6035" d="M1277.394,421.877s-4.692,4.992-4.37,6.935-2.018,8.1.3,16.629c2.65,9.737,4.006,16.325,4.5,22.687s-1.734,12.2-.863,20c.679,6.108,2.146,6.477,2.146,6.477a5.094,5.094,0,0,0,4.816-1.7c2-2.367-1-23.187-1.994-28.4s-4.176-17.38-5.007-20.946a38.633,38.633,0,0,1-.791-10.207,43.35,43.35,0,0,1,1.326-9.1C1277.54,423.953,1277.8,421.288,1277.394,421.877Z" transform="translate(-1201.852 -392.284)" fill="#387bff"/>
      <g id="woman_head">
        <path id="Caminho_6031" data-name="Caminho 6031" d="M1278.447,394.273a13.512,13.512,0,1,0,8.252-17.01A13.372,13.372,0,0,0,1278.447,394.273Z" transform="translate(-1204.791 -367.574)" fill="#001f46"/>
        <path id="Caminho_6032" data-name="Caminho 6032" d="M1245.478,381.434A10.158,10.158,0,0,0,1259.612,384l-.657-5.413a10.158,10.158,0,0,0,2.566-14.135l-2.17-3.129a10.158,10.158,0,0,0-14.135-2.57l-2.088,1.448a10.158,10.158,0,0,0-2.566,14.134Z" transform="translate(-1183.576 -356.945)" fill="#001f46"/>
        <path id="Caminho_6033" data-name="Caminho 6033" d="M1241.767,378.7a20.075,20.075,0,0,0,1.831,2.213c4.557,4.778,10.64,6.592,14.547,4.629a30.977,30.977,0,0,0,5.665,5.648c2.131,1.655,7.6,2.332,7.6,2.332,3.2,3.326-8.746,22.916-9.567,22.843-1.741-.151-3.971-10.973-2.348-14.9.728-1.759,1.953-3.887,1.6-4.831-1.237-3.315-2.562-3.59-4.749-4.453a8.317,8.317,0,0,0-6.482,1.072,1.155,1.155,0,0,1-.917.18,7.185,7.185,0,0,1-1.472-1.566l-4.77-6.885A7.177,7.177,0,0,1,1241.767,378.7Z" transform="translate(-1185.033 -368.799)" fill="#e9d6b8"/>
        <path id="Caminho_6036" data-name="Caminho 6036" d="M1301.727,420.878a14.114,14.114,0,1,0,8.62-17.768A13.971,13.971,0,0,0,1301.727,420.878Z" transform="translate(-1217.46 -381.64)" fill="#001f46"/>
      </g>
      <g id="woman_foot2">
        <path id="Caminho_6037" data-name="Caminho 6037" d="M1228.091,705.92l2.638,20.234-11.4,5.233-6.332,1.336,11.236-8.389-3.675-18.255Z" transform="translate(-1169.538 -547.121)" fill="#e9d6b8"/>
        <path id="Caminho_6038" data-name="Caminho 6038" d="M1228.05,751.257l-2.474.644-1.662-1.494-9.11,4.426-8.08,1.847a1.488,1.488,0,0,1,.172-.974c1.016-1.28,6.674-4.137,6.674-4.137s.092,1.877.9,1.928,7.785-3.488,9.4-4.474c2.78-1.7,3.3-2.753,3.511-2.623C1227.935,746.748,1228.05,751.257,1228.05,751.257Z" transform="translate(-1166.112 -569.175)" fill="#161711"/>
      </g>
      <g id="woman_foot1" transform="matrix(0.996, -0.087, 0.087, 0.996, -12.121, 1.884)">
        <path id="Caminho_6039" data-name="Caminho 6039" d="M1152.358,641.561,1143.3,658.8l-12.533-.615-6.233-1.732,13.839-2.263,7.557-14.733Z" transform="translate(-1121.332 -510.904)" fill="#e9d6b8"/>
        <path id="Caminho_6040" data-name="Caminho 6040" d="M1138.721,681.091l-2.491-.569-.787-2.091-11.236-.161-6.71-1.523a5.7,5.7,0,0,1,1.312-1.081c1.494-.6,6.8-.911,6.8-.911s-.559,1.466.131,1.888,8.412.668,10.3.535c3.25-.225,4.2-.919,4.324-.706C1140.7,677.038,1138.721,681.091,1138.721,681.091Z" transform="translate(-1117.497 -530.137)" fill="#161711"/>
      </g>
      <path id="Caminho_6041" data-name="Caminho 6041" d="M1241.74,530.753l-6.76,2.94.029,8.971-46.452-7.31s-4.429-1.367-7.249,5.628c-4.014,9.959-14.23,40.919-14.23,40.919l6.467,6.761,20.283-34.981s41.559,19.493,55.263,15.285c5.257-1.614,9.275-10.9,8.525-20.282a120.7,120.7,0,0,0-2.058-14.11Z" transform="translate(-1144.517 -451.663)" fill="#194866"/>
      <path id="Caminho_6042" data-name="Caminho 6042" d="M1261.412,591.96l-33.256-2.392,2.858,51.317-9.806.311-7.245-60.1s1.955-8.944,8.3-7.595S1243.988,586.626,1261.412,591.96Z" transform="translate(-1170.067 -474.884)" fill="#163f59"/>
      <path id="Caminho_6043" data-name="Caminho 6043" d="M1328.563,515.315s-17.45-18.885-21.977-29.583c-5.407-12.769-4.941-28.813-5.938-34.121-1.832-9.753-4.057-28.732-4.484-31.077a8.749,8.749,0,0,1,1.074-4.985s-1.143-7.1,2.153-6.336c4.692,1.084,9.386,3.611,11.01,4.333,3.063,1.361,9.369,37.044,9.724,38.772,1.284,6.23,6.024,11.845,9.387,17.671,7.923,13.732,9.943,29.943,9.943,29.943S1338.491,511.909,1328.563,515.315Z" transform="translate(-1214.821 -385.398)" fill="#387bff"/>
      <g id="Grupo_1962" data-name="Grupo 1962" transform="translate(48.202 76.955)">
        <path id="Caminho_6044" data-name="Caminho 6044" d="M1281.592,529.6s-.149,2.314-11.269,1.758-27.354-4.153-27.354-4.153l25.745-1.145S1278.583,526.1,1281.592,529.6Z" transform="translate(-1234.076 -526.059)" fill="#e9d6b8"/>
        <path id="Caminho_6045" data-name="Caminho 6045" d="M1241.039,529.148c-5.3-.1-7.578,2.539-9.682,3.332a36.154,36.154,0,0,0-4.2,2c1.189-2.267,2.9-2.3,3.76-3.028s.635-.355-1.248-.534c-1.07-.1-2.963,1.773-4.326,2.807a4.211,4.211,0,0,1-1.916.953,22.932,22.932,0,0,1,3.135-3.427,26.6,26.6,0,0,1,5.352-3.6c1.133-.425,4.674-.483,7.193-.094C1241.95,528,1244.854,529.221,1241.039,529.148Z" transform="translate(-1223.426 -526.737)" fill="#e9d6b8"/>
        <path id="Caminho_6046" data-name="Caminho 6046" d="M1233.9,528.329a28.266,28.266,0,0,0-4.769,1.494c-.5.365-2.576,2.526-2.576,2.526a5.188,5.188,0,0,0,2.394-1.035A44.928,44.928,0,0,1,1233.9,528.329Z" transform="translate(-1225.13 -527.296)" fill="#e9d6b8"/>
      </g>
      <path id="Caminho_6047" data-name="Caminho 6047" d="M1308.444,518.275l16.5-8.341s.045,10.158.118,14.011,1.771,9.334-1.38,10.134-4.829.4-1.552,2.225,2.5,3.754,1.272,5.33,5.321,16.615,5.321,16.615-.427.289-1.677,1.226c-5.105-6.214-11.349-13.207-13.726-18.823C1310.245,533.393,1309.069,525.077,1308.444,518.275Z" transform="translate(-1221.555 -440.317)" fill="#0063cb"/>
      <path id="Caminho_6048" data-name="Caminho 6048" d="M1303.083,463.514l-.628-32.336s.064-10.09.239-13.061c.181-3.068,5.6.542,5.6.542s7.574,9.92,7.735,33.784c.108,15.96-.811,24.288-8.425,23.628-7.107-.617-15.157-1.662-15.157-1.662l-3.542-10.657Z" transform="translate(-1210.905 -389.607)" fill="#387bff"/>
      <g id="Grupo_1963" data-name="Grupo 1963" transform="translate(21.221 52.003)">
        <rect id="Retngulo_222" data-name="Retngulo 222" width="1.175" height="57.106" transform="translate(12.576 32.158) rotate(-83.12)" fill="#cdd5d7"/>
        <path id="Caminho_6049" data-name="Caminho 6049" d="M1208.531,505.974a1.559,1.559,0,0,1-1.632,1.462l-29.073-3.508c-.792-.1-1.8-.8-2.484-3.211l-11.21-27.98a1.513,1.513,0,0,1,1.877-1.442l29.722,4.494a2.826,2.826,0,0,1,1.646,2.22Z" transform="translate(-1164.133 -471.227)" fill="#cdd5d7"/>
        <path id="Caminho_6050" data-name="Caminho 6050" d="M1219.647,545.261l.294.035,28.387,3.424a10.641,10.641,0,0,1-4.75.335l-23.746-2.864-.293-.036-23.74-2.863a10.689,10.689,0,0,1-4.539-1.456Z" transform="translate(-1178.916 -509.705)" fill="#b7bec0"/>
      </g>
      <path id="Caminho_6051" data-name="Caminho 6051" d="M1296.137,408.094a58.681,58.681,0,0,0-1.378,10.754c-.129,5.505,5.712,34.456,5.712,34.456l-1.626-25.878-1.662-3.8,1.952-.648s.939-9.878.614-12l-.361-2.348Z" transform="translate(-1214.096 -384.819)" fill="#0063cb"/>
      <path id="Caminho_6052" data-name="Caminho 6052" d="M1279.875,420.388s-2.005,11.06-1.408,17.49,4.818,22.37,4.818,22.37-5.669-21.044-6.47-20.944.4-3.3.4-3.3l-1.325-.852s-.447-9.558,1.456-12.235S1279.875,420.388,1279.875,420.388Z" transform="translate(-1203.79 -391.518)" fill="#0063cb"/>
      <path id="Caminho_6053" data-name="Caminho 6053" d="M1354.909,569.38l-6.233,8.7s7.724,13.064,11.253,12.014,3.08-4.651,3.305-7.728S1354.909,569.38,1354.909,569.38Z" transform="translate(-1243.479 -472.712)" fill="#0063cb"/>
      <path id="Caminho_6054" data-name="Caminho 6054" d="M1289.289,475.2q.21-.259.438-.543l13.567-.226-.628-32.336a31.575,31.575,0,0,1,1.5-5.18c.236,3.542,1.931,29.025,2.155,32.393.241,3.623,3.3,4.026,3.983,5.193s.094,1.411-2.16.955-1.422-.11-.939,1.072-.751.86-5.1-.671c-3.161-1.114-9.271,0-12.37.691Z" transform="translate(-1211.116 -400.525)" fill="#0063cb"/>
    </g>
  </g>
</svg>
